<svg xmlns="http://www.w3.org/2000/svg" xmlns:xlink="http://www.w3.org/1999/xlink" contentStyleType="text/css" data-diagram-type="DESCRIPTION" height="723px" preserveAspectRatio="none" style="width:1202px;height:723px;background:#FFFFFF;" version="1.1" viewBox="0 0 1202 723" width="1202px" zoomAndPan="magnify"><defs/><g><!--cluster tools--><g class="cluster" data-entity="tools" data-source-line="6" data-uid="ent0003" id="cluster_tools"><polygon fill="none" points="452.62,166.63,452.62,166.8402,462.6335,166.2157,472.647,166.8233,482.6605,167.0297,492.6741,165.9166,502.6876,166.5523,512.7011,166.2035,522.7146,166.2465,532.7281,166.5618,542.7416,165.9386,552.7551,167.1836,562.7686,165.9997,572.7822,166.4322,582.7957,167.0619,592.8092,166.5442,602.8227,166.6982,612.8362,166.5981,622.8497,166.8085,632.8632,166.8691,642.8768,167.2157,652.8903,167.3011,662.9038,167.3093,672.9173,166.8846,682.9308,167.0936,692.9443,167.3322,702.9578,165.9088,712.9714,167.3085,722.9849,166.3335,732.9984,167.1638,743.0119,166.135,753.0254,166.5615,763.0389,167.3716,773.0524,166.5813,783.0659,166.7353,793.0795,166.9686,803.093,167.0462,813.1065,166.6261,823.12,166.9172,833.1335,166.0576,843.147,166.9144,853.1605,167.1782,863.1741,167.0745,873.1876,167.243,883.2011,166.1469,893.2146,165.9778,903.2281,166.0086,913.2416,166.5711,923.2551,166.4335,933.2686,167.3114,943.2822,166.4553,953.2957,166.2869,963.3092,166.8583,973.3227,165.9632,983.3362,166.1109,993.3497,167.279,1003.3632,167.0657,1013.3768,167.3645,1023.3903,166.3082,1033.4038,166.9492,1043.4173,167.2204,1053.4308,166.1576,1063.4443,166.5341,1073.4578,166.756,1083.4714,167.2818,1093.4849,166.6258,1103.4984,167.0926,1113.5119,166.0762,1123.5254,165.9527,1133.5389,167.1336,1143.5524,165.9131,1153.5659,167.139,1163.5795,166.8366,1173.593,166.3621,1183.6065,166.2762,1193.62,166.63,1193.6785,166.7713,1193.9354,166.6843,1194.4026,167.1052,1194.6102,166.8991,1195.113,167.4059,1195.3878,167.3622,1195.5369,167.424,1195.6097,167.747,1195.6952,168.0754,1196.0509,168.5156,1196.1625,168.8547,1196.12,169.13,1196.2893,169.13,1196.3882,179.2604,1195.9897,189.3908,1196.8365,199.5212,1196.2749,209.6516,1196.2926,219.782,1195.5116,229.9124,1195.7148,240.0428,1196.6507,250.1732,1196.5498,260.3036,1196.0771,270.434,1195.7978,280.5644,1195.9011,290.6948,1195.4338,300.8252,1196.5347,310.9556,1196.8596,321.086,1196.6464,331.2164,1196.8149,341.3468,1195.9833,351.4772,1196.2072,361.6076,1195.7324,371.738,1196.404,381.8684,1196.3668,391.9988,1196.6724,402.1292,1195.8903,412.2596,1196.12,422.39,1196.0786,422.3729,1196.1101,422.8001,1196.0018,423.1695,1195.5228,423.3853,1195.4745,423.7795,1195.3878,424.1578,1195.4068,424.2037,1194.9563,424.1161,1194.7257,424.5595,1194.36,424.6766,1193.9607,424.7125,1193.62,424.89,1193.62,425.0322,1183.6065,425.6187,1173.593,424.5771,1163.5795,425.205,1153.5659,425.1756,1143.5524,425.0058,1133.5389,425.0309,1123.5254,425.0035,1113.5119,424.2658,1103.4984,424.4892,1093.4849,424.4285,1083.4714,424.9538,1073.4578,424.9781,1063.4443,425.0517,1053.4308,424.599,1043.4173,424.8225,1033.4038,424.7698,1023.3903,425.4669,1013.3768,425.3166,1003.3632,424.4045,993.3497,424.8171,983.3362,424.3128,973.3227,425.1784,963.3092,425.4985,953.2957,425.4346,943.2822,424.4544,933.2686,425.354,923.2551,424.1472,913.2416,425.0902,903.2281,424.5907,893.2146,424.9867,883.2011,425.1303,873.1876,425.3621,863.1741,424.1701,853.1605,425.3655,843.147,425.0682,833.1335,425.2453,823.12,425.6378,813.1065,424.8955,803.093,425.0653,793.0795,425.1034,783.0659,425.0872,773.0524,424.8892,763.0389,425.6007,753.0254,424.2803,743.0119,425.4553,732.9984,424.266,722.9849,424.3497,712.9714,424.93,702.9578,424.9183,692.9443,424.3972,682.9308,425.3037,672.9173,424.9989,662.9038,425.6167,652.8903,425.5571,642.8768,424.4417,632.8632,424.4921,622.8497,424.7608,612.8362,425.2455,602.8227,425.293,592.8092,425.1912,582.7957,424.548,572.7822,425.5264,562.7686,425.5238,552.7551,424.8427,542.7416,424.6509,532.7281,424.4886,522.7146,424.6754,512.7011,425.0274,502.6876,424.8216,492.6741,424.4722,482.6605,425.3774,472.647,424.4311,462.6335,425.3924,452.62,424.89,452.6745,425.0216,452.3139,424.8581,452.0012,424.8104,451.528,424.3749,451.1674,424.2116,450.8522,424.1578,451.012,424.224,450.522,423.7281,450.4873,423.4208,450.4485,423.1118,450.2876,422.7523,450.12,422.39,449.7615,422.39,450.077,412.2596,450.8646,402.1292,450.7685,391.9988,449.5237,381.8684,450.1985,371.738,449.6061,361.6076,450.0937,351.4772,450.413,341.3468,450.5399,331.2164,449.4553,321.086,450.5205,310.9556,450.1284,300.8252,449.5647,290.6948,449.6489,280.5644,450.4466,270.434,450.3699,260.3036,450.1036,250.1732,449.4479,240.0428,450.7781,229.9124,449.8082,219.782,449.5919,209.6516,450.0527,199.5212,450.7097,189.3908,450.7354,179.2604,450.12,169.13,450.1308,169.1345,450.2199,168.7572,450.4652,168.4446,450.6167,168.0931,450.5494,167.651,450.8522,167.3622,450.905,167.4897,451.2771,167.3879,451.5318,167.0029,451.8581,166.7907,452.3525,166.9842,452.62,166.63" style="stroke:#181818;stroke-width:4;"/><text fill="#000000" font-family="Chalkduster" font-size="24" font-weight="bold" lengthAdjust="spacing" textLength="322.7669" x="661.7366" y="192.4709">RO-Crate Schema Tools</text></g><!--entity sos--><g class="entity" data-entity="sos" data-source-line="7" data-uid="ent0004" id="entity_sos"><polygon fill="none" points="468.89,215.63,468.89,215.8402,478.7634,215.2157,488.6367,215.8233,498.5101,216.0297,508.3835,214.9166,518.2568,215.5523,528.1302,215.2035,538.0035,215.2465,547.8769,215.5618,557.7503,214.9386,567.6236,216.1836,577.497,214.9997,587.3704,215.4322,597.2437,216.0619,607.1171,215.5442,616.9904,215.6982,626.8638,215.5981,636.7372,215.8085,646.6105,215.8691,656.4839,216.2157,666.3573,216.3011,676.2306,216.3093,686.104,215.8846,695.9773,216.0936,705.8507,216.3322,715.7241,214.9088,725.5974,216.3085,735.4708,215.3335,745.3442,215.63,745.4123,215.7944,745.6346,215.624,746.0425,215.9018,746.4994,216.2977,746.7522,216.2008,747.1119,216.3622,747.1444,216.3757,747.3627,216.759,747.533,217.1224,747.5501,217.4224,747.7862,217.8131,747.8442,218.13,747.2717,218.13,748.1285,227.256,748.3924,236.3819,748.2887,245.5079,748.4572,254.6339,747.8442,263.7598,747.6954,263.6982,747.4969,264.0302,747.3599,264.3877,747.3867,264.813,747.1979,265.149,747.1119,265.5276,747.1989,265.7374,746.7361,265.6203,746.3611,265.7148,746.0804,266.0372,745.6127,265.908,745.3442,266.2598,745.3442,265.7407,735.4708,266.9088,725.5974,266.6955,715.7241,266.9943,705.8507,265.938,695.9773,266.579,686.104,266.8503,676.2306,265.7874,666.3573,266.164,656.4839,266.3858,646.6105,266.9116,636.7372,266.2556,626.8638,266.7224,616.9904,265.706,607.1171,265.5826,597.2437,266.7634,587.3704,265.5429,577.497,266.7688,567.6236,266.4665,557.7503,265.9919,547.8769,265.9061,538.0035,266.7186,528.1302,265.9605,518.2568,266.8517,508.3835,265.7071,498.5101,266.8773,488.6367,266.7441,478.7634,266.5048,468.89,266.2598,468.896,266.2744,468.6291,266.3372,468.2612,266.1559,467.8509,265.8726,467.51,265.7566,467.1222,265.5276,467.0821,265.511,467.1964,265.2654,466.877,264.8402,466.736,264.489,466.3491,264.0358,466.39,263.7598,465.9848,263.7598,466.9207,254.6339,466.8198,245.5079,466.3471,236.3819,466.0678,227.256,466.39,218.13,466.3226,218.1021,466.3251,217.6889,466.8106,217.4758,467.0571,217.1637,467.1379,216.7829,467.1222,216.3622,467.2109,216.5762,467.4583,216.1737,467.8405,216.0962,468.1335,215.8035,468.5727,215.8639,468.89,215.63" style="stroke:#181818;stroke-width:4;"/><text fill="#000000" font-family="Chalkduster" font-size="24" lengthAdjust="spacing" textLength="261.4542" x="476.39" y="249.4709">Schema.org Schema</text></g><!--entity roc--><g class="entity" data-entity="roc" data-source-line="8" data-uid="ent0005" id="entity_roc"><polygon fill="none" points="784.92,215.63,784.92,215.8402,794.9815,215.2157,805.0429,215.8233,815.1044,216.0297,825.1658,214.9166,835.2273,215.5523,845.2887,215.2035,855.3502,215.2465,865.4116,215.5618,875.4731,214.9386,885.5345,216.1836,895.596,214.9997,905.6574,215.4322,915.7189,216.0619,925.7804,215.5442,935.8418,215.6982,945.9033,215.5981,955.9647,215.8085,966.0262,215.8691,976.0876,216.2157,986.1491,216.3011,996.2105,216.3093,1006.272,215.8846,1016.3334,216.0936,1026.3949,216.3322,1036.4563,214.9088,1046.5178,216.3085,1056.5793,215.3335,1066.6407,216.1638,1076.7022,215.135,1086.7636,215.5615,1096.8251,216.3716,1106.8865,215.5813,1116.948,215.7353,1127.0094,215.9686,1137.0709,216.0462,1147.1323,215.6261,1157.1938,215.9172,1167.2552,215.0576,1177.3167,215.63,1177.353,215.7176,1177.7402,215.9453,1178.0805,216.0598,1178.4556,216.2581,1178.6693,216.067,1179.0845,216.3622,1178.8836,216.279,1179.0395,216.6365,1179.3592,217.0618,1179.4633,217.3978,1179.8801,217.8634,1179.8167,218.13,1179.642,218.13,1179.4736,227.256,1180.045,236.3819,1179.1499,245.5079,1179.2976,254.6339,1179.8167,263.7598,1180.0165,263.8426,1179.8044,264.169,1179.75,264.5606,1179.2783,264.7794,1179.3292,265.2148,1179.0845,265.5276,1179.1598,265.7094,1178.6707,265.5286,1178.3651,265.791,1178.0399,266.0057,1177.7534,266.3141,1177.3167,266.2598,1177.3167,266.2556,1167.2552,266.7224,1157.1938,265.706,1147.1323,265.5826,1137.0709,266.7634,1127.0094,265.5429,1116.948,266.7688,1106.8865,266.4665,1096.8251,265.9919,1086.7636,265.9061,1076.7022,266.7186,1066.6407,265.9605,1056.5793,266.8517,1046.5178,265.7071,1036.4563,266.8773,1026.3949,266.7441,1016.3334,266.5048,1006.272,266.3071,996.2105,266.9864,986.1491,266.8734,976.0876,266.4291,966.0262,266.528,955.9647,266.1296,945.9033,266.9763,935.8418,266.4147,925.7804,266.4324,915.7189,265.6515,905.6574,265.8546,895.596,266.7906,885.5345,266.6896,875.4731,266.2169,865.4116,265.9377,855.3502,266.0409,845.2887,265.5737,835.2273,266.6746,825.1658,266.9994,815.1044,266.7862,805.0429,266.9548,794.9815,266.1231,784.92,266.2598,784.9311,266.2867,784.517,265.994,784.2491,266.0544,783.8908,265.8965,783.5762,265.8442,783.1522,265.5276,783.0815,265.4983,782.9644,265.1569,782.9959,264.8771,782.8876,264.5393,782.4086,264.048,782.42,263.7598,782.2261,263.7598,782.5693,254.6339,781.8092,245.5079,782.7734,236.3819,782.678,227.256,782.42,218.13,782.389,218.1171,782.6103,217.7946,782.9373,217.5158,782.763,217.0294,783.1028,216.756,783.1522,216.3622,783.1887,216.4502,783.5206,216.2514,783.8773,216.1127,784.2274,215.9578,784.4868,215.5842,784.92,215.63" style="stroke:#181818;stroke-width:4;"/><text fill="#000000" font-family="Chalkduster" font-size="24" lengthAdjust="spacing" textLength="377.3967" x="792.42" y="249.4709">RO-Crate Schema additions</text></g><!--entity rocsoss--><g class="entity" data-entity="rocsoss" data-source-line="9" data-uid="ent0006" id="entity_rocsoss"><polygon fill="none" points="468.82,358.26,468.82,358.4702,478.9841,357.8457,489.1483,358.4533,499.3124,358.6597,509.4765,357.5466,519.6406,358.1823,529.8048,357.8335,539.9689,357.8765,550.133,358.1918,560.2972,357.5686,570.4613,358.8136,580.6254,357.6297,590.7895,358.0622,600.9537,358.6919,611.1178,358.1742,621.2819,358.3282,631.446,358.2281,641.6102,358.4385,651.7743,358.4991,661.9384,358.8457,672.1026,358.9311,682.2667,358.9393,692.4308,358.5146,702.5949,358.7236,712.7591,358.9622,722.9232,357.5388,733.0873,358.9385,743.2515,357.9635,753.4156,358.26,753.4837,358.4244,753.706,358.254,754.114,358.5318,754.5708,358.9277,754.8236,358.8308,755.1833,358.9922,755.2158,359.0057,755.4341,359.389,755.6044,359.7524,755.6215,360.0524,755.8576,360.4431,755.9156,360.76,755.3432,360.76,756.2,369.886,756.4638,379.0119,756.3601,388.1379,756.5286,397.2639,755.9156,406.3898,755.7668,406.3282,755.5683,406.6602,755.4313,407.0177,755.4581,407.443,755.2693,407.779,755.1833,408.1576,755.2703,408.3674,754.8075,408.2503,754.4325,408.3448,754.1518,408.6672,753.6841,408.538,753.4156,408.8898,753.4156,408.3707,743.2515,409.5388,733.0873,409.3255,722.9232,409.6243,712.7591,408.568,702.5949,409.209,692.4308,409.4803,682.2667,408.4174,672.1026,408.794,661.9384,409.0158,651.7743,409.5416,641.6102,408.8856,631.446,409.3524,621.2819,408.336,611.1178,408.2126,600.9537,409.3934,590.7895,408.1729,580.6254,409.3988,570.4613,409.0965,560.2972,408.6219,550.133,408.5361,539.9689,409.3486,529.8048,408.5905,519.6406,409.4817,509.4765,408.3371,499.3124,409.5073,489.1483,409.3741,478.9841,409.1348,468.82,408.8898,468.826,408.9044,468.5591,408.9672,468.1912,408.7859,467.7809,408.5026,467.44,408.3866,467.0522,408.1576,467.0121,408.141,467.1264,407.8954,466.807,407.4702,466.666,407.119,466.2791,406.6658,466.32,406.3898,465.9148,406.3898,466.8507,397.2639,466.7498,388.1379,466.2771,379.0119,465.9978,369.886,466.32,360.76,466.2526,360.7321,466.2551,360.3189,466.7406,360.1058,466.9871,359.7937,467.0679,359.4129,467.0522,358.9922,467.1409,359.2062,467.3883,358.8037,467.7705,358.7262,468.0635,358.4335,468.5027,358.4939,468.82,358.26" style="stroke:#181818;stroke-width:4;"/><text fill="#000000" font-family="Chalkduster" font-size="24" lengthAdjust="spacing" textLength="269.5956" x="476.32" y="392.1009">Tool: rocsoss script</text></g><!--entity docs--><g class="entity" data-entity="docs" data-source-line="3" data-uid="ent0002" id="entity_docs"><polygon fill="none" points="9.5,7,9.5,7.2102,19.4659,6.5857,29.4318,7.1933,39.3977,7.3997,49.3636,6.2866,59.3295,6.9223,69.2955,6.5735,79.2614,6.6165,89.2273,6.9318,99.1932,6.3086,109.1591,7.5536,119.125,6.3697,129.0909,6.8022,139.0568,7.4319,149.0227,6.9142,158.9886,7.0682,168.9545,6.9681,178.9205,7.1785,188.8864,7.2391,198.8523,7.5857,208.8182,7.6711,218.7841,7.6793,228.75,7.2546,238.7159,7.4636,248.6818,7.7022,258.6477,6.2788,268.6136,7.6785,278.5795,6.7035,288.5455,7.5338,298.5114,6.505,308.4773,6.9315,318.4432,7.7416,328.4091,6.9513,338.375,7.1053,348.3409,7.3386,358.3068,7.4162,368.2727,6.9961,378.2386,7.2872,388.2046,6.4276,398.1705,7.2844,408.1364,7.5482,418.1023,7.4445,428.0682,7.613,438.0341,6.5169,448,6.3478,457.9659,6.3786,467.9318,6.9411,477.8977,6.8035,487.8636,7.6814,497.8296,6.8253,507.7955,6.6569,517.7614,7.2283,527.7273,6.3332,537.6932,6.4809,547.6591,7.649,557.625,7.4357,567.5909,7.7345,577.5568,6.6782,587.5227,7.3192,597.4886,7.5904,607.4546,6.5276,617.4205,6.9041,627.3864,7.126,637.3523,7.6518,647.3182,6.9958,657.2841,7.4626,667.25,6.4462,677.2159,6.3227,687.1818,7.5036,697.1477,6.2831,707.1136,7.509,717.0796,7.2066,727.0455,6.7321,737.0114,6.6462,746.9773,7.4588,756.9432,6.7007,766.9091,7.5919,776.875,6.4473,786.8409,7.6174,796.8068,7.4843,806.7727,7.245,816.7386,7,816.7447,7.0145,817.1849,7.3702,817.524,7.4819,817.8209,7.4915,818.1871,7.6684,818.5064,7.7322,818.4663,7.7156,818.8735,8.1772,818.847,8.4591,818.9989,8.8149,818.9049,9.0688,819.2386,9.5,818.8334,9.5,819.7694,18.626,819.6684,27.7519,819.1957,36.8779,818.9165,46.0039,819.2386,55.1298,819.1712,55.1019,818.8809,55.3959,819.0735,55.8898,819.0271,56.2848,818.815,56.6112,818.5064,56.8976,818.5951,57.1116,818.1354,57.0019,817.8104,57.2174,817.3963,57.2176,817.1284,57.5709,816.7386,57.6298,816.7386,57.8766,806.7727,58.1822,796.8068,57.4002,786.8409,57.4954,776.875,58.0733,766.9091,58.1972,756.9432,57.1173,746.9773,57.436,737.0114,57.7791,727.0455,57.019,717.0796,57.9832,707.1136,57.8878,697.1477,57.5291,687.1818,57.7721,677.2159,58.3585,667.25,57.317,657.2841,57.9448,647.3182,57.9155,637.3523,57.7456,627.3864,57.7708,617.4205,57.7433,607.4546,57.0057,597.4886,57.229,587.5227,57.1683,577.5568,57.6937,567.5909,57.718,557.625,57.7916,547.6591,57.3389,537.6932,57.5623,527.7273,57.5096,517.7614,58.2067,507.7955,58.0564,497.8296,57.1443,487.8636,57.5569,477.8977,57.0526,467.9318,57.9182,457.9659,58.2383,448,58.1744,438.0341,57.1943,428.0682,58.0938,418.1023,56.887,408.1364,57.83,398.1705,57.3305,388.2046,57.7266,378.2386,57.8702,368.2727,58.1019,358.3068,56.9099,348.3409,58.1053,338.375,57.808,328.4091,57.9852,318.4432,58.3776,308.4773,57.6353,298.5114,57.8051,288.5455,57.8433,278.5795,57.8271,268.6136,57.629,258.6477,58.3405,248.6818,57.0201,238.7159,58.1951,228.75,57.0058,218.7841,57.0895,208.8182,57.6698,198.8523,57.6581,188.8864,57.137,178.9205,58.0435,168.9545,57.7387,158.9886,58.3565,149.0227,58.2969,139.0568,57.1816,129.0909,57.2319,119.125,57.5007,109.1591,57.9854,99.1932,58.0328,89.2273,57.931,79.2614,57.2879,69.2955,58.2662,59.3295,58.2636,49.3636,57.5826,39.3977,57.3908,29.4318,57.2284,19.4659,57.4153,9.5,57.6298,9.5175,57.6722,9.1377,57.4623,8.7396,57.2083,8.5015,57.3406,8.0272,56.9027,7.7322,56.8976,7.8869,56.9617,7.7174,56.5985,7.5539,56.2379,7.5062,55.9253,7.0707,55.452,7,55.1298,6.6994,55.1298,7.5189,46.0039,6.4031,36.8779,6.766,27.7519,7.1155,18.626,7,9.5,7.0212,9.5088,7.0361,9.1007,7.2797,8.7874,7.6686,8.5343,7.7855,8.1685,7.7322,7.7322,7.6562,7.5486,8.0958,7.61,8.3738,7.2811,8.7895,7.2848,9.1838,7.2367,9.5,7" style="stroke:#181818;stroke-width:4;"/><text fill="#000000" font-family="Chalkduster" font-size="24" lengthAdjust="spacing" textLength="792.2386" x="17" y="40.8409">Example RO-Crate Metadata Document(s) from a domain</text></g><!--entity mod--><g class="entity" data-entity="mod" data-source-line="12" data-uid="ent0007" id="entity_mod"><polygon fill="none" points="202.44,502.89,202.44,503.1002,212.5283,502.4757,222.6165,503.0833,232.7048,503.2897,242.793,502.1766,252.8813,502.8123,262.9695,502.4635,273.0578,502.5065,283.146,502.8218,293.2343,502.1986,303.3225,503.4436,313.4108,502.2597,323.499,502.6922,333.5873,503.3219,343.6756,502.8042,353.7638,502.9582,363.8521,502.8581,373.9403,503.0685,384.0286,503.1291,394.1168,503.4757,404.2051,503.5611,414.2933,503.5693,424.3816,503.1446,434.4698,503.3536,444.5581,503.5922,454.6463,502.1688,464.7346,503.5685,474.8228,502.5935,484.9111,503.4238,494.9994,502.395,505.0876,502.8215,515.1759,503.6316,525.2641,502.8413,535.3524,502.9953,545.4406,503.2286,555.5289,503.3062,565.6171,502.8861,575.7054,503.1772,585.7936,502.89,585.7206,502.7137,586.1835,503.124,586.5707,503.3517,586.911,503.4662,587.286,503.6646,587.5614,503.6222,587.4126,503.5606,587.507,503.8926,587.6629,504.2501,587.9826,504.6754,588.0867,505.0114,588.2936,505.39,588.975,505.39,588.119,514.516,587.9506,523.6419,588.5219,532.7679,587.6268,541.8939,588.2936,551.0198,588.1338,550.9536,588.347,551.4562,588.1349,551.7825,588.0805,552.1742,587.6088,552.393,587.5614,552.7876,587.6021,552.8859,587.2832,553.1159,586.794,552.935,586.4885,553.1974,586.1633,553.4122,585.7936,553.5198,585.7936,554.1716,575.7054,553.5156,565.6171,553.9824,555.5289,552.966,545.4406,552.8426,535.3524,554.0234,525.2641,552.8029,515.1759,554.0288,505.0876,553.7265,494.9994,553.2519,484.9111,553.1661,474.8228,553.9786,464.7346,553.2205,454.6463,554.1117,444.5581,552.9671,434.4698,554.1373,424.3816,554.0041,414.2933,553.7648,404.2051,553.5671,394.1168,554.2464,384.0286,554.1334,373.9403,553.6891,363.8521,553.788,353.7638,553.3896,343.6756,554.2363,333.5873,553.6747,323.499,553.6924,313.4108,552.9115,303.3225,553.1146,293.2343,554.0506,283.146,553.9496,273.0578,553.4769,262.9695,553.1977,252.8813,553.3009,242.793,552.8337,232.7048,553.9346,222.6165,554.2594,212.5283,554.0462,202.44,553.5198,202.5286,553.7338,202.069,553.3313,201.744,553.2538,201.3299,552.9611,201.062,553.0215,200.6722,552.7876,200.7482,552.8191,200.6959,552.5045,200.3086,552.0512,200.1915,551.7098,200.223,551.43,199.94,551.0198,200.5073,551.0198,199.4275,541.8939,199.7461,532.7679,200.0893,523.6419,199.3292,514.516,199.94,505.39,200.0488,505.4351,200.1659,505.0694,200.2019,504.67,200.4231,504.3475,200.7502,504.0687,200.6722,503.6222,200.6323,503.5259,201.066,503.5728,201.4158,503.4173,201.7477,503.2185,202.1044,503.0798,202.44,502.89" style="stroke:#181818;stroke-width:4;"/><text fill="#000000" font-family="Chalkduster" font-size="24" lengthAdjust="spacing" textLength="368.3536" x="209.94" y="536.7309">Domain-Specific Mode File</text></g><!--entity dssoss--><g class="entity" data-entity="dssoss" data-source-line="13" data-uid="ent0008" id="entity_dssoss"><polygon fill="none" points="703.08,502.89,703.08,503.1002,713.0828,502.4757,723.0855,503.0833,733.0883,503.2897,743.0911,502.1766,753.0938,502.8123,763.0966,502.4635,773.0994,502.5065,783.1021,502.8218,793.1049,502.1986,803.1076,503.4436,813.1104,502.2597,823.1132,502.6922,833.1159,503.3219,843.1187,502.8042,853.1215,502.9582,863.1242,502.8581,873.127,503.0685,883.1298,503.1291,893.1325,503.4757,903.1353,503.5611,913.1381,503.5693,923.1408,503.1446,933.1436,503.3536,943.1464,503.5922,953.1491,502.1688,963.1519,503.5685,973.1547,502.5935,983.1574,503.4238,993.1602,502.395,1003.1629,502.89,1003.1542,502.8689,1003.6111,503.2648,1003.8638,503.1679,1004.237,503.3618,1004.6204,503.5801,1004.9307,503.6222,1005.0589,503.6753,1005.076,503.9753,1005.3121,504.366,1005.1938,504.6099,1005.6041,505.0727,1005.6629,505.39,1006.2111,505.39,1006.1075,514.516,1006.276,523.6419,1005.1799,532.7679,1005.0108,541.8939,1005.6629,551.0198,1005.4716,550.9406,1005.4984,551.3659,1005.3095,551.7019,1005.4335,552.1674,1005.0234,552.4118,1004.9307,552.7876,1004.887,552.682,1004.6063,553.0043,1004.1385,552.8751,1003.8038,553.0671,1003.5993,553.5732,1003.1629,553.5198,1003.1629,553.9555,993.1602,554.2543,983.1574,553.198,973.1547,553.839,963.1519,554.1103,953.1491,553.0474,943.1464,553.424,933.1436,553.6458,923.1408,554.1716,913.1381,553.5156,903.1353,553.9824,893.1325,552.966,883.1298,552.8426,873.127,554.0234,863.1242,552.8029,853.1215,554.0288,843.1187,553.7265,833.1159,553.2519,823.1132,553.1661,813.1104,553.9786,803.1076,553.2205,793.1049,554.1117,783.1021,552.9671,773.0994,554.1373,763.0966,554.0041,753.0938,553.7648,743.0911,553.5671,733.0883,554.2464,723.0855,554.1334,713.0828,553.6891,703.08,553.5198,703.1142,553.6024,702.7098,553.3333,702.4643,553.4476,702.0391,553.1282,701.6878,552.9872,701.3122,552.7876,701.1249,552.71,701.041,552.3824,701.1828,552.1482,701.0052,551.7818,700.7132,551.3679,700.58,551.0198,700.2578,551.0198,700.3611,541.8939,699.8938,532.7679,700.9947,523.6419,701.3196,514.516,700.58,505.39,700.7421,505.4571,700.9405,505.1251,700.8308,504.6655,701.0462,504.3405,701.0464,503.9263,701.3122,503.6222,701.3485,503.7097,701.6973,503.5518,702.0898,503.4995,702.3436,503.1122,702.7093,502.9951,703.08,502.89" style="stroke:#181818;stroke-width:4;"/><text fill="#000000" font-family="Chalkduster" font-size="24" lengthAdjust="spacing" textLength="285.0829" x="710.58" y="536.7309">Domain-Specific SOSS</text></g><g class="entity" data-entity="GMN14" data-source-line="23" data-uid="ent0015" id="entity_GMN14"><path d="M31.74,614.52 L32.3005,614.52 L30.6351,624.7089 L32.2554,634.8979 L32.8058,645.0868 L29.8376,655.2758 L31.5328,665.4647 L30.6027,675.6537 L30.7173,685.8426 L31.5582,696.0316 L29.8963,706.2205 L31.74,716.4095 L31.74,716.4095 L31.74,717.8859 L41.69,714.7288 L51.64,715.8821 L61.59,717.5614 L71.54,716.1808 L81.49,716.5915 L91.44,716.3243 L101.39,716.8856 L111.34,717.0472 L121.29,717.9713 L131.24,718.199 L141.19,718.2209 L151.14,717.0885 L161.09,717.6457 L171.0401,718.2821 L180.9901,714.4863 L190.9401,718.2189 L200.8901,715.6188 L210.8401,717.833 L220.7901,715.0894 L230.7401,716.2268 L240.6901,718.3871 L250.6401,716.2795 L260.5901,716.6903 L270.5401,717.3125 L280.4901,717.5194 L290.4401,716.3991 L300.3901,717.1754 L310.3401,714.8831 L320.2901,717.1679 L330.2401,717.8714 L340.1901,717.5949 L350.1401,718.0442 L360.0901,715.1213 L370.0401,714.6703 L379.9901,714.7524 L389.9401,716.2525 L399.8901,715.8854 L409.8401,718.2266 L419.7901,715.9437 L429.7402,715.4947 L439.6902,717.0182 L449.6402,714.6313 L459.5902,715.0252 L469.5402,718.14 L479.4902,717.5713 L489.4402,718.3681 L499.3902,715.5514 L509.3402,717.2607 L519.2902,717.984 L529.2402,715.1498 L539.1902,716.1539 L549.1402,716.7455 L559.0902,718.1475 L569.0402,716.3983 L578.9902,717.643 L588.9402,714.9327 L598.8902,714.6035 L608.8402,717.7525 L618.7902,714.4977 L628.7402,717.7667 L638.6902,716.9605 L648.6402,715.6951 L658.5902,715.4661 L668.5402,717.6329 L678.4902,716.4095 L678.4902,716.4095 L677.692,716.4095 L680.0685,706.1996 L677.0163,695.9896 L680.1367,685.7797 L679.7817,675.5697 L679.1435,665.3598 L678.6162,655.1498 L680.4279,644.9399 L680.1264,634.7299 L678.4902,624.52 L678.5966,624.6264 L676.6588,622.6886 L674.4084,620.4381 L672.9406,618.9703 L670.5876,616.6173 L668.4902,614.52 L668.4902,614.9802 L658.3237,612.8977 L648.1571,613.4394 L637.9906,615.9353 L627.824,615.666 L617.6574,614.4055 L607.4909,613.6609 L597.3243,613.9362 L587.1578,612.6902 L576.9912,615.626 L566.8246,616.4922 L556.6581,615.9237 L546.4915,616.3732 L536.325,614.1554 L526.1584,614.7526 L515.9918,613.4864 L505.8253,615.2774 L495.6587,615.178 L485.4922,615.993 L475.3256,613.9076 L465.159,614.1616 L454.9925,615.7026 L444.8259,616.0329 L434.6594,613.1532 L424.4928,614.003 L414.3262,614.918 L404.1597,612.8911 L393.9931,615.4624 L383.8266,615.208 L373.66,614.52 L373.3976,614.4623 L376.2488,604.5165 L379.9944,594.7674 L379.5002,584.0858 L383.3537,574.3604 L385.4956,564.2586 L386.97,554.01 L387.2612,554.1125 L383.7728,564.2198 L380.1521,574.2805 L374.7451,583.7121 L371.7552,593.995 L368.0508,604.0262 L365.66,614.52 L365.66,614.6902 L355.5412,614.755 L345.4224,614.9513 L335.3036,613.7441 L325.1848,614.34 L315.0661,614.1994 L304.9473,616.0583 L294.8285,615.6575 L284.7097,613.2252 L274.5909,614.3255 L264.4721,612.9807 L254.3533,615.289 L244.2345,616.1426 L234.1158,615.9722 L223.997,613.3585 L213.8782,615.7572 L203.7594,612.5392 L193.6406,615.0537 L183.5218,613.7218 L173.403,614.7779 L163.2842,615.1609 L153.1655,615.7789 L143.0467,612.6002 L132.9279,615.7879 L122.8091,614.9951 L112.6903,615.4675 L102.5715,616.5141 L92.4527,614.5346 L82.3339,614.9874 L72.2152,615.0892 L62.0964,615.046 L51.9776,614.5178 L41.8588,616.4152 L31.74,614.52 L31.74,614.52" fill="#FFFFE0" style="stroke:#181818;stroke-width:4;"/><path d="M668.4902,614.52 L668.6771,614.52 L668.122,616.52 L668.6621,618.52 L668.8455,620.52 L667.8561,622.52 L668.4902,624.52 L668.4902,624.4509 L670.4902,624.1409 L672.4902,624.1791 L674.4902,624.4594 L676.4902,623.9054 L678.4902,624.52 L678.8382,624.868 L676.0941,622.1238 L674.3659,620.3957 L672.7617,618.7915 L670.4363,616.4661 L668.4902,614.52" fill="#FFFFE0" style="stroke:#181818;stroke-width:4;"/><text fill="#000000" font-family="Chalkduster" font-size="24" lengthAdjust="spacing" textLength="625.7502" x="37.74" y="643.3609">Contains Classes and Properties representing</text><text fill="#000000" font-family="Chalkduster" font-size="24" lengthAdjust="spacing" textLength="533.41" x="37.74" y="673.9907">the intersection of the example(s) and</text><text fill="#000000" font-family="Chalkduster" font-size="24" lengthAdjust="spacing" textLength="405.5867" x="37.74" y="704.6205">Schema.org/RO-Crate entities</text></g><g class="entity" data-entity="GMN17" data-source-line="24" data-uid="ent0018" id="entity_GMN17"><path d="M713.1,629.84 L713.6605,629.84 L711.9951,640.02 L713.6154,650.1999 L714.1658,660.3799 L711.1976,670.5598 L712.8928,680.7398 L711.9627,690.9197 L713.1,701.0997 L713.1,701.0997 L713.1,700.077 L723.0454,700.9179 L732.9908,699.256 L742.9362,702.576 L752.8816,699.4189 L762.827,700.5723 L772.7724,702.2515 L782.7178,700.8709 L792.6632,701.2816 L802.6086,701.0145 L812.554,701.5757 L822.4994,701.7374 L832.4447,702.6615 L842.3901,702.8891 L852.3355,702.911 L862.2809,701.7787 L872.2263,702.3359 L882.1717,702.9723 L892.1171,699.1765 L902.0625,702.909 L912.0079,700.309 L921.9533,702.5232 L931.8987,699.7796 L941.8441,700.917 L951.7895,703.0773 L961.7349,700.9697 L971.6803,701.3805 L981.6257,702.0027 L991.5711,702.2096 L1001.5165,701.0893 L1011.4619,701.8656 L1021.4073,699.5732 L1031.3527,701.858 L1041.2981,702.5615 L1051.2434,702.2851 L1061.1888,702.7344 L1071.1342,701.0997 L1071.1342,701.0997 L1069.846,701.0997 L1069.3951,690.8897 L1069.4772,680.6798 L1070.9772,670.4698 L1070.6102,660.2599 L1072.9513,650.0499 L1071.1342,639.84 L1071.0244,639.7302 L1068.9186,637.6244 L1067.2777,635.9835 L1064.7151,633.4209 L1062.8079,631.5137 L1061.1342,629.84 L1061.1342,631.5705 L1051.4046,631.0018 L1041.6749,631.7986 L1031.9452,628.9819 L1022.2155,630.6912 L1012.4858,631.4145 L1002.7562,628.5803 L993.0265,629.5844 L983.2968,630.176 L973.5671,631.578 L963.8374,629.8288 L954.1078,631.0735 L944.3781,628.3632 L934.6484,628.034 L924.9187,631.183 L915.189,627.9282 L905.4594,631.1972 L895.7297,630.391 L886,629.84 L885.3234,629.6104 L881.8904,620.0581 L880.726,611.2756 L875.5954,601.1473 L874.6296,592.4321 L868.5229,581.9726 L868.2617,573.4965 L864.7092,563.9037 L860.27,554.01 L860.9061,554.1587 L862.6089,563.5174 L866.5892,573.4086 L868.512,582.8188 L869.5745,592.0278 L872.0476,601.5666 L873.2292,610.8034 L877.6441,620.7962 L878,629.84 L878,630.253 L867.6938,630.3002 L857.3875,628.2177 L847.0813,628.7594 L836.775,631.2553 L826.4688,630.986 L816.1625,629.7255 L805.8563,628.9809 L795.55,629.2562 L785.2438,628.0102 L774.9375,630.946 L764.6313,631.8122 L754.325,631.2437 L744.0188,631.6932 L733.7125,629.4754 L723.4063,630.0726 L713.1,629.84 L713.1,629.84" fill="#FFFFE0" style="stroke:#181818;stroke-width:4;"/><path d="M1061.1342,629.84 L1061.3211,629.84 L1060.766,631.84 L1061.3061,633.84 L1061.4895,635.84 L1060.5001,637.84 L1061.1342,639.84 L1061.1342,639.7709 L1063.1342,639.4609 L1065.1342,639.4991 L1067.1342,639.7794 L1069.1342,639.2254 L1071.1342,639.84 L1071.4822,640.188 L1068.7381,637.4438 L1067.0099,635.7157 L1065.4057,634.1115 L1063.0803,631.7861 L1061.1342,629.84" fill="#FFFFE0" style="stroke:#181818;stroke-width:4;"/><text fill="#000000" font-family="Chalkduster" font-size="24" lengthAdjust="spacing" textLength="219.9514" x="719.1" y="658.6809">Domain-Specific</text><text fill="#000000" font-family="Chalkduster" font-size="24" lengthAdjust="spacing" textLength="337.0342" x="719.1" y="689.3107">Schema.org Style Schema</text></g><!--link sos to rocsoss--><g class="link" data-entity-1="sos" data-entity-2="rocsoss" data-source-line="14" data-uid="lnk9" id="link_sos_rocsoss"><path d="M607.82,266.44 L608.1001,266.448 L607.5378,275.919 L608.6176,285.4368 L609.1626,294.9393 L607.9491,304.3918 L609.0663,313.9106 L608.8715,323.3921 L609.1987,332.8885 L609.889,342.3951 L610.2498,351.8924" fill="none" style="stroke:#8B0000;stroke-width:4;"/><polygon fill="#8B0000" points="610.42,357.89,610.4848,357.9166,611.0409,356.0155,611.9769,354.2706,612.7891,352.4747,613.1946,350.5118,614.1631,348.7802,614.1443,348.7624,613.2828,349.5049,612.5163,350.3371,611.8157,351.2317,610.8877,351.9114,610.2782,352.892,610.4049,353.0262,609.3115,351.9623,608.5882,351.2901,607.91,350.6657,606.9691,349.7633,606.1664,349.0071,606.1869,349.0169,607.0075,350.779,607.9215,352.5859,608.7904,354.3713,609.7454,356.1977,610.42,357.89" style="stroke:#8B0000;stroke-width:4;"/><text fill="#000000" font-family="Chalkduster" font-size="24" lengthAdjust="spacing" textLength="69.3481" x="610.48" y="321.1009">input</text></g><!--link roc to rocsoss--><g class="link" data-entity-1="roc" data-entity-2="rocsoss" data-source-line="15" data-uid="lnk10" id="link_roc_rocsoss"><path d="M916.25,266.6 L916.3496,266.862 L906.6773,269.6476 L897.5887,273.9688 L888.31,277.79 L878.4062,279.9666 L869.3309,284.3229 L859.7892,287.4521 L850.4332,291.0696 L841.2061,295.0266 L831.5344,297.8138 L822.7477,302.9295 L812.8104,305.0178 L803.6389,309.1209 L794.5607,313.4696 L784.939,316.3883 L775.6355,320.1442 L766.2116,323.5833 L756.9349,327.4096 L747.5871,331.049 L738.3748,335.0449 L729.0388,338.7153 L719.6663,342.2894 L710.0887,345.3241 L700.8112,349.1485 L691.5478,353.0099 L681.8387,355.6986" fill="none" style="stroke:#8B0000;stroke-width:4;"/><polygon fill="#8B0000" points="676.23,357.83,676.2339,357.9,678.1892,357.8005,680.1671,358.1112,682.1377,358.2883,684.0841,358.0262,686.0639,358.372,686.0533,358.3484,684.9737,357.7787,683.9475,357.3282,682.9586,356.9604,681.8415,356.3073,680.9039,356.0539,681.0722,356.1295,681.1759,354.9357,681.771,353.9628,682.4261,353.0168,682.7324,351.9141,683.2221,350.8938,683.2381,350.91,681.8162,352.2735,680.4672,353.7105,679.083,355.1121,677.7659,356.5814,676.23,357.83" style="stroke:#8B0000;stroke-width:4;"/><text fill="#000000" font-family="Chalkduster" font-size="24" lengthAdjust="spacing" textLength="69.3481" x="830.26" y="321.1009">input</text></g><!--link docs to rocsoss--><g class="link" data-entity-1="docs" data-entity-2="rocsoss" data-source-line="17" data-uid="lnk11" id="link_docs_rocsoss"><path d="M410.99,57.86 L411.0833,57.8639 L410.6443,61.6756 L410.7524,65.5105 L410.6823,69.3378 L410.0263,73.1403 L410.1814,76.9771 L410.1469,76.9766 L409.9574,79.1911 L409.9419,81.4084 L410.0475,83.6275 L409.7361,85.8401 L410.0088,88.0618 L410.2548,88.063 L409.74,90.4488 L409.9436,92.838 L410.2349,95.2276 L410.0161,97.6148 L410.0656,100.0033 L410.0959,100.0041 L410.1199,102.5384 L410.282,105.0765 L410.3774,107.6128 L410.5999,110.1525 L410.4082,112.681 L410.706,112.6963 L410.8466,115.3552 L410.795,118.0041 L411.0246,120.6676 L411.2674,123.3317 L411.0927,125.9744 L410.7731,125.9493 L411.6098,128.7557 L411.3944,131.4795 L411.9788,134.2661 L411.7395,136.988 L412.1754,139.763 L412.1451,139.7597 L412.8105,142.6312 L412.7687,145.4259 L413.1442,148.266 L413.5547,151.1098 L413.7125,153.9262 L413.8957,153.9523 L414.1204,156.8095 L414.658,159.7112 L414.6893,162.541 L415.4759,165.478 L415.7604,168.3437 L416.0002,168.3868 L416.4778,171.2889 L417.0744,174.2124 L417.1179,177.0364 L417.5669,179.9334 L418.3752,182.8949 L418.1056,182.8349 L418.9972,185.802 L419.5851,188.7016 L420.6136,191.6992 L420.8898,194.5295 L421.6132,197.4592 L421.466,197.4193 L422.4946,200.3771 L422.8941,203.1644 L423.7409,206.073 L425.0255,209.1001 L425.5306,211.9161 L425.7147,211.9763 L426.7715,214.8634 L427.256,217.5633 L428.4574,220.4976 L429.5026,223.3809 L430.1838,226.1452 L429.9883,226.0685 L431.2332,228.9057 L432.414,231.7179 L433.7205,234.5794 L434.5381,237.249 L435.6289,240.0258 L435.815,240.1132 L436.6648,242.6036 L437.8737,245.2627 L439.6075,248.168 L440.3751,250.6199 L441.9222,253.4376 L442.1195,253.5484 L443.4419,256.0471 L444.6975,258.5083 L446.1038,261.0541 L447.8582,263.7953 L449.12,266.26 L449.0102,266.1848 L451.368,269.3742 L452.9792,272.0522 L455.4393,275.3116 L457.4214,278.2437 L459.2748,281.0876 L459.3585,281.1572 L461.563,283.8309 L464.0672,286.7539 L466.3007,289.4517 L468.4211,292.0552 L470.6354,294.737 L470.7203,294.8207 L473.0621,297.2017 L475.7981,299.971 L478.0882,302.3011 L480.5618,304.8119 L482.9751,307.2634 L482.797,307.0599 L485.4749,309.4195 L488.3672,312.0242 L490.956,314.2821 L493.4361,316.4157 L496.067,318.7217 L495.9799,318.6081 L498.7313,320.7336 L501.3284,322.6578 L504.3497,325.1352 L507.161,327.3388 L509.6844,329.167 L509.8162,329.3603 L512.6416,331.3197 L515.2166,332.9118 L518.0559,334.8915 L520.7203,336.6147 L523.6005,338.6545 L523.6666,338.7621 L526.4555,340.4649 L529.3241,342.2976 L531.9399,343.7182 L534.7597,345.4712 L537.5885,347.2391 L537.6847,347.4111 L540.4782,349.0065 L543.0105,350.135 L545.8463,351.8059 L548.6873,353.4864 L551.4216,354.9759" fill="none" style="stroke:#8B0000;stroke-width:4;"/><polygon fill="#8B0000" points="556.71,357.81,556.7653,357.853,555.3923,356.1699,554.3436,354.7388,553.1892,353.2256,551.6876,351.4426,550.6667,350.0332,550.642,350.0257,550.8579,351.0751,551.1989,352.1622,551.6267,353.2756,551.7551,354.2986,552.303,355.4482,552.3563,355.6249,551.1592,355.5744,550.1179,356.0396,549.0956,356.5678,547.9626,356.7298,546.8879,357.0844,546.8896,357.1071,548.8515,357.2189,550.8211,357.434,552.787,357.5993,554.76,357.8596,556.71,357.81" style="stroke:#8B0000;stroke-width:4;"/></g><!--link rocsoss to mod--><g class="link" data-entity-1="rocsoss" data-entity-2="mod" data-source-line="19" data-uid="lnk12" id="link_rocsoss_mod"><path d="M573.82,409.09 L573.9739,409.3242 L564.9449,414.2624 L556.8183,420.5734 L548.3978,426.4373 L539.011,430.8312 L530.9049,437.1734 L522.0778,442.4188 L513.5376,448.1008 L505.1969,454.0861 L496.1689,459.0257 L488.509,466.0469 L479.0703,470.3618 L470.8154,476.4777 L462.705,482.8134 L453.7542,487.8705 L445.2953,493.6761 L436.6737,499.2341" fill="none" style="stroke:#8B0000;stroke-width:4;"/><polygon fill="#8B0000" points="431.66,502.53,431.6714,502.5991,433.5811,502.0735,435.5576,501.953,437.5123,501.7006,439.3956,501.0143,441.3778,500.9286,441.3726,500.9032,440.2411,500.5604,439.136,500.3454,438.0494,500.2192,436.8994,499.7868,435.8381,499.7834,436.0188,499.8208,435.8614,498.6329,436.2316,497.5542,436.6662,496.4887,436.7262,495.3459,436.9833,494.2437,437.0024,494.256,435.9097,495.8952,434.904,497.5904,433.8564,499.2586,432.8889,500.9783,431.66,502.53" style="stroke:#8B0000;stroke-width:4;"/><text fill="#000000" font-family="Chalkduster" font-size="24" lengthAdjust="spacing" textLength="129.0166" x="523.06" y="465.7309">Generate</text></g><!--link rocsoss to dssoss--><g class="link" data-entity-1="rocsoss" data-entity-2="dssoss" data-source-line="21" data-uid="lnk13" id="link_rocsoss_dssoss"><path d="M653,409.26 L653.1423,409.5014 L661.2296,413.7998 L670.151,419.5135 L678.8008,424.7663 L686.5573,428.5035 L695.4977,434.2494 L703.7716,438.8645 L712.3108,443.9296 L721.0344,449.3076 L729.1225,453.6075 L738.4754,460.0533 L746.184,463.7091 L754.9869,469.2217 L763.9232,474.9607 L772.0828,479.3818 L780.6971,484.5744 L789.1394,489.4751 L797.7919,494.7326 L806.1811,499.5432" fill="none" style="stroke:#8B0000;stroke-width:4;stroke-dasharray:7.0,7.0;"/><polygon fill="#8B0000" points="811.35,502.59,811.407,502.6307,810.0932,500.9066,809.1136,499.421,808.0251,497.8578,806.5787,496.039,805.6279,494.5739,805.6028,494.5675,805.7732,495.6338,806.07,496.7328,806.4547,497.8545,806.5365,498.898,807.0426,500.051,807.0888,500.2297,805.8946,500.1306,804.8353,500.5531,803.7924,501.0393,802.6538,501.1551,801.5655,501.4658,801.5681,501.4884,803.5212,501.68,805.4861,501.9746,807.4453,502.2195,809.4154,502.5591,811.35,502.59" style="stroke:#8B0000;stroke-width:4;"/><text fill="#000000" font-family="Chalkduster" font-size="24" lengthAdjust="spacing" textLength="264.1591" x="761.91" y="465.7309">Optional: Generate</text></g><!--SRC=[VL9DRy8m3BtdLtYSjaFBdGCNs7P2JEkEI9EN68ZKnbLYDD2q_pwdXV8XZKlhsE-zlDX-yC7MEqUV3OO3b6E7WeN6kA66WXH93ZMLiXTZ8bd1iAa9HizxR5eDtfV5BA8GB4WmKs7ETfU9Z-a9rf4RG73Se0yZmAIXJUPAQL2ex9OQX0_cEdLOoH7yN89xJCbnSuHtmCJfdY8wvyLpw5KZsqjmlcwIaogYIZRwLawud3A_LsxdtLEAgYNhrzx2WXt1Yw-fupJixe6hPLNrNKYTj7wWSFmTYkdWO08-j3i1eud_YiRaDaBHbyzrOqx04r4DAUcL0kM6dEjbhfVJen65BDlS8QpFO30ciFw-M4IdoEkZs8o3wAiIp6fCYH9WSF0MkQKeNe-HsaX95y27pIh8bjIpK4pQ5hqXw-GSzVkJbqJvgt0Ux7WONzR8ahS-1jCt_RrKWIglxN43_W00]--></g></svg>