<?xml version="1.0" encoding="us-ascii" standalone="no"?><svg xmlns="http://www.w3.org/2000/svg" xmlns:xlink="http://www.w3.org/1999/xlink" contentStyleType="text/css" height="723px" preserveAspectRatio="none" style="width:1207px;height:723px;background:#FFFFFF;" version="1.1" viewBox="0 0 1207 723" width="1207px" zoomAndPan="magnify"><defs/><g><!--cluster tools--><g id="cluster_tools"><polygon fill="none" points="454.5,166.63,454.5,166.8402,464.5541,166.2157,474.6081,166.8233,484.6622,167.0297,494.7162,165.9166,504.7703,166.5523,514.8243,166.2035,524.8784,166.2465,534.9324,166.5618,544.9865,165.9386,555.0405,167.1836,565.0946,165.9997,575.1486,166.4322,585.2027,167.0619,595.2568,166.5442,605.3108,166.6982,615.3649,166.5981,625.4189,166.8085,635.473,166.8691,645.527,167.2157,655.5811,167.3011,665.6351,167.3093,675.6892,166.8846,685.7432,167.0936,695.7973,167.3322,705.8514,165.9088,715.9054,167.3085,725.9595,166.3335,736.0135,167.1638,746.0676,166.135,756.1216,166.5615,766.1757,167.3716,776.2297,166.5813,786.2838,166.7353,796.3378,166.9686,806.3919,167.0462,816.4459,166.6261,826.5,166.9172,836.5541,166.0576,846.6081,166.9144,856.6622,167.1782,866.7162,167.0745,876.7703,167.243,886.8243,166.1469,896.8784,165.9778,906.9324,166.0086,916.9865,166.5711,927.0405,166.4335,937.0946,167.3114,947.1486,166.4553,957.2027,166.2869,967.2568,166.8583,977.3108,165.9632,987.3649,166.1109,997.4189,167.279,1007.473,167.0657,1017.527,167.3645,1027.5811,166.3082,1037.6351,166.9492,1047.6892,167.2204,1057.7432,166.1576,1067.7973,166.5341,1077.8514,166.756,1087.9054,167.2818,1097.9595,166.6258,1108.0135,167.0926,1118.0676,166.0762,1128.1216,165.9527,1138.1757,167.1336,1148.2297,165.9131,1158.2838,167.139,1168.3378,166.8366,1178.3919,166.3621,1188.4459,166.2762,1198.5,166.63,1198.5585,166.7713,1198.8154,166.6843,1199.2826,167.1052,1199.4902,166.8991,1199.993,167.4059,1200.2678,167.3622,1200.4169,167.424,1200.4897,167.747,1200.5752,168.0754,1200.9309,168.5156,1201.0425,168.8547,1201,169.13,1201.1693,169.13,1201.2682,179.2604,1200.8697,189.3908,1201.7165,199.5212,1201.1549,209.6516,1201.1726,219.782,1200.3916,229.9124,1200.5948,240.0428,1201.5307,250.1732,1201.4298,260.3036,1200.9571,270.434,1200.6778,280.5644,1200.7811,290.6948,1200.3138,300.8252,1201.4147,310.9556,1201.7396,321.086,1201.5264,331.2164,1201.6949,341.3468,1200.8633,351.4772,1201.0872,361.6076,1200.6124,371.738,1201.284,381.8684,1201.2468,391.9988,1201.5524,402.1292,1200.7703,412.2596,1201,422.39,1200.9586,422.3729,1200.9901,422.8001,1200.8818,423.1695,1200.4028,423.3853,1200.3545,423.7795,1200.2678,424.1578,1200.2868,424.2037,1199.8363,424.1161,1199.6057,424.5595,1199.24,424.6766,1198.8407,424.7125,1198.5,424.89,1198.5,425.0322,1188.4459,425.6187,1178.3919,424.5771,1168.3378,425.205,1158.2838,425.1756,1148.2297,425.0058,1138.1757,425.0309,1128.1216,425.0035,1118.0676,424.2658,1108.0135,424.4892,1097.9595,424.4285,1087.9054,424.9538,1077.8514,424.9781,1067.7973,425.0517,1057.7432,424.599,1047.6892,424.8225,1037.6351,424.7698,1027.5811,425.4669,1017.527,425.3166,1007.473,424.4045,997.4189,424.8171,987.3649,424.3128,977.3108,425.1784,967.2568,425.4985,957.2027,425.4346,947.1486,424.4544,937.0946,425.354,927.0405,424.1472,916.9865,425.0902,906.9324,424.5907,896.8784,424.9867,886.8243,425.1303,876.7703,425.3621,866.7162,424.1701,856.6622,425.3655,846.6081,425.0682,836.5541,425.2453,826.5,425.6378,816.4459,424.8955,806.3919,425.0653,796.3378,425.1034,786.2838,425.0872,776.2297,424.8892,766.1757,425.6007,756.1216,424.2803,746.0676,425.4553,736.0135,424.266,725.9595,424.3497,715.9054,424.93,705.8514,424.9183,695.7973,424.3972,685.7432,425.3037,675.6892,424.9989,665.6351,425.6167,655.5811,425.5571,645.527,424.4417,635.473,424.4921,625.4189,424.7608,615.3649,425.2455,605.3108,425.293,595.2568,425.1912,585.2027,424.548,575.1486,425.5264,565.0946,425.5238,555.0405,424.8427,544.9865,424.6509,534.9324,424.4886,524.8784,424.6754,514.8243,425.0274,504.7703,424.8216,494.7162,424.4722,484.6622,425.3774,474.6081,424.4311,464.5541,425.3924,454.5,424.89,454.5545,425.0216,454.1939,424.8581,453.8812,424.8104,453.408,424.3749,453.0474,424.2116,452.7322,424.1578,452.892,424.224,452.402,423.7281,452.3673,423.4208,452.3285,423.1118,452.1676,422.7523,452,422.39,451.6415,422.39,451.957,412.2596,452.7446,402.1292,452.6485,391.9988,451.4037,381.8684,452.0785,371.738,451.4861,361.6076,451.9737,351.4772,452.293,341.3468,452.4199,331.2164,451.3353,321.086,452.4005,310.9556,452.0084,300.8252,451.4447,290.6948,451.5289,280.5644,452.3266,270.434,452.2499,260.3036,451.9836,250.1732,451.3279,240.0428,452.6581,229.9124,451.6882,219.782,451.4719,209.6516,451.9327,199.5212,452.5897,189.3908,452.6154,179.2604,452,169.13,452.0108,169.1345,452.0999,168.7572,452.3452,168.4446,452.4967,168.0931,452.4294,167.651,452.7322,167.3622,452.785,167.4897,453.1571,167.3879,453.4118,167.0029,453.7381,166.7907,454.2325,166.9842,454.5,166.63" style="stroke:#181818;stroke-width:4.0;"/><text fill="#000000" font-family="Chalkduster" font-size="24" font-weight="bold" lengthAdjust="spacing" textLength="323" x="665" y="192.4709">RO-Crate Schema Tools</text></g><!--entity sos--><g id="elem_sos"><polygon fill="none" points="470.5,215.63,470.5,215.8402,480.3929,215.2157,490.2857,215.8233,500.1786,216.0297,510.0714,214.9166,519.9643,215.5523,529.8571,215.2035,539.75,215.2465,549.6429,215.5618,559.5357,214.9386,569.4286,216.1836,579.3214,214.9997,589.2143,215.4322,599.1071,216.0619,609,215.5442,618.8929,215.6982,628.7857,215.5981,638.6786,215.8085,648.5714,215.8691,658.4643,216.2157,668.3571,216.3011,678.25,216.3093,688.1429,215.8846,698.0357,216.0936,707.9286,216.3322,717.8214,214.9088,727.7143,216.3085,737.6071,215.3335,747.5,215.63,747.5681,215.7944,747.7904,215.624,748.1984,215.9018,748.6553,216.2977,748.908,216.2008,749.2678,216.3622,749.3002,216.3757,749.5185,216.759,749.6888,217.1224,749.7059,217.4224,749.942,217.8131,750,218.13,749.4276,218.13,750.2844,227.256,750.5482,236.3819,750.4445,245.5079,750.613,254.6339,750,263.7598,749.8512,263.6982,749.6527,264.0302,749.5157,264.3877,749.5425,264.813,749.3537,265.149,749.2678,265.5276,749.3547,265.7374,748.8919,265.6203,748.5169,265.7148,748.2362,266.0372,747.7685,265.908,747.5,266.2598,747.5,265.7407,737.6071,266.9088,727.7143,266.6955,717.8214,266.9943,707.9286,265.938,698.0357,266.579,688.1429,266.8503,678.25,265.7874,668.3571,266.164,658.4643,266.3858,648.5714,266.9116,638.6786,266.2556,628.7857,266.7224,618.8929,265.706,609,265.5826,599.1071,266.7634,589.2143,265.5429,579.3214,266.7688,569.4286,266.4665,559.5357,265.9919,549.6429,265.9061,539.75,266.7186,529.8571,265.9605,519.9643,266.8517,510.0714,265.7071,500.1786,266.8773,490.2857,266.7441,480.3929,266.5048,470.5,266.2598,470.506,266.2744,470.2391,266.3372,469.8712,266.1559,469.4609,265.8726,469.12,265.7566,468.7322,265.5276,468.6921,265.511,468.8064,265.2654,468.487,264.8402,468.346,264.489,467.9591,264.0358,468,263.7598,467.5948,263.7598,468.5307,254.6339,468.4298,245.5079,467.9571,236.3819,467.6778,227.256,468,218.13,467.9326,218.1021,467.9351,217.6889,468.4206,217.4758,468.6671,217.1637,468.7479,216.7829,468.7322,216.3622,468.8209,216.5762,469.0683,216.1737,469.4505,216.0962,469.7435,215.8035,470.1827,215.8639,470.5,215.63" style="stroke:#181818;stroke-width:4.0;"/><text fill="#000000" font-family="Chalkduster" font-size="24" lengthAdjust="spacing" textLength="262" x="478" y="249.4709">Schema.org Schema</text></g><!--entity roc--><g id="elem_roc"><polygon fill="none" points="788,215.63,788,215.8402,798.1026,215.2157,808.2051,215.8233,818.3077,216.0297,828.4103,214.9166,838.5128,215.5523,848.6154,215.2035,858.7179,215.2465,868.8205,215.5618,878.9231,214.9386,889.0256,216.1836,899.1282,214.9997,909.2308,215.4322,919.3333,216.0619,929.4359,215.5442,939.5385,215.6982,949.641,215.5981,959.7436,215.8085,969.8462,215.8691,979.9487,216.2157,990.0513,216.3011,1000.1538,216.3093,1010.2564,215.8846,1020.359,216.0936,1030.4615,216.3322,1040.5641,214.9088,1050.6667,216.3085,1060.7692,215.3335,1070.8718,216.1638,1080.9744,215.135,1091.0769,215.5615,1101.1795,216.3716,1111.2821,215.5813,1121.3846,215.7353,1131.4872,215.9686,1141.5897,216.0462,1151.6923,215.6261,1161.7949,215.9172,1171.8974,215.0576,1182,215.63,1182.0363,215.7176,1182.4235,215.9453,1182.7638,216.0598,1183.1389,216.2581,1183.3526,216.067,1183.7678,216.3622,1183.5669,216.279,1183.7228,216.6365,1184.0425,217.0618,1184.1466,217.3978,1184.5634,217.8634,1184.5,218.13,1184.3253,218.13,1184.1569,227.256,1184.7283,236.3819,1183.8332,245.5079,1183.9809,254.6339,1184.5,263.7598,1184.6999,263.8426,1184.4877,264.169,1184.4333,264.5606,1183.9616,264.7794,1184.0125,265.2148,1183.7678,265.5276,1183.8431,265.7094,1183.354,265.5286,1183.0484,265.791,1182.7232,266.0057,1182.4367,266.3141,1182,266.2598,1182,266.2556,1171.8974,266.7224,1161.7949,265.706,1151.6923,265.5826,1141.5897,266.7634,1131.4872,265.5429,1121.3846,266.7688,1111.2821,266.4665,1101.1795,265.9919,1091.0769,265.9061,1080.9744,266.7186,1070.8718,265.9605,1060.7692,266.8517,1050.6667,265.7071,1040.5641,266.8773,1030.4615,266.7441,1020.359,266.5048,1010.2564,266.3071,1000.1538,266.9864,990.0513,266.8734,979.9487,266.4291,969.8462,266.528,959.7436,266.1296,949.641,266.9763,939.5385,266.4147,929.4359,266.4324,919.3333,265.6515,909.2308,265.8546,899.1282,266.7906,889.0256,266.6896,878.9231,266.2169,868.8205,265.9377,858.7179,266.0409,848.6154,265.5737,838.5128,266.6746,828.4103,266.9994,818.3077,266.7862,808.2051,266.9548,798.1026,266.1231,788,266.2598,788.0111,266.2867,787.597,265.994,787.3291,266.0544,786.9708,265.8965,786.6562,265.8442,786.2322,265.5276,786.1615,265.4983,786.0444,265.1569,786.0759,264.8771,785.9676,264.5393,785.4886,264.048,785.5,263.7598,785.3061,263.7598,785.6493,254.6339,784.8892,245.5079,785.8534,236.3819,785.758,227.256,785.5,218.13,785.469,218.1171,785.6903,217.7946,786.0173,217.5158,785.843,217.0294,786.1828,216.756,786.2322,216.3622,786.2687,216.4502,786.6006,216.2514,786.9573,216.1127,787.3074,215.9578,787.5668,215.5842,788,215.63" style="stroke:#181818;stroke-width:4.0;"/><text fill="#000000" font-family="Chalkduster" font-size="24" lengthAdjust="spacing" textLength="379" x="795.5" y="249.4709">RO-Crate Schema additions</text></g><!--entity rocsoss--><g id="elem_rocsoss"><polygon fill="none" points="470.5,358.26,470.5,358.4702,480.6071,357.8457,490.7143,358.4533,500.8214,358.6597,510.9286,357.5466,521.0357,358.1823,531.1429,357.8335,541.25,357.8765,551.3571,358.1918,561.4643,357.5686,571.5714,358.8136,581.6786,357.6297,591.7857,358.0622,601.8929,358.6919,612,358.1742,622.1071,358.3282,632.2143,358.2281,642.3214,358.4385,652.4286,358.4991,662.5357,358.8457,672.6429,358.9311,682.75,358.9393,692.8571,358.5146,702.9643,358.7236,713.0714,358.9622,723.1786,357.5388,733.2857,358.9385,743.3929,357.9635,753.5,358.26,753.5681,358.4244,753.7904,358.254,754.1984,358.5318,754.6553,358.9277,754.908,358.8308,755.2678,358.9922,755.3002,359.0057,755.5185,359.389,755.6888,359.7524,755.7059,360.0524,755.942,360.4431,756,360.76,755.4276,360.76,756.2844,369.886,756.5482,379.0119,756.4445,388.1379,756.613,397.2639,756,406.3898,755.8512,406.3282,755.6527,406.6602,755.5157,407.0177,755.5425,407.443,755.3537,407.779,755.2678,408.1576,755.3547,408.3674,754.8919,408.2503,754.5169,408.3448,754.2362,408.6672,753.7685,408.538,753.5,408.8898,753.5,408.3707,743.3929,409.5388,733.2857,409.3255,723.1786,409.6243,713.0714,408.568,702.9643,409.209,692.8571,409.4803,682.75,408.4174,672.6429,408.794,662.5357,409.0158,652.4286,409.5416,642.3214,408.8856,632.2143,409.3524,622.1071,408.336,612,408.2126,601.8929,409.3934,591.7857,408.1729,581.6786,409.3988,571.5714,409.0965,561.4643,408.6219,551.3571,408.5361,541.25,409.3486,531.1429,408.5905,521.0357,409.4817,510.9286,408.3371,500.8214,409.5073,490.7143,409.3741,480.6071,409.1348,470.5,408.8898,470.506,408.9044,470.2391,408.9672,469.8712,408.7859,469.4609,408.5026,469.12,408.3866,468.7322,408.1576,468.6921,408.141,468.8064,407.8954,468.487,407.4702,468.346,407.119,467.9591,406.6658,468,406.3898,467.5948,406.3898,468.5307,397.2639,468.4298,388.1379,467.9571,379.0119,467.6778,369.886,468,360.76,467.9326,360.7321,467.9351,360.3189,468.4206,360.1058,468.6671,359.7937,468.7479,359.4129,468.7322,358.9922,468.8209,359.2062,469.0683,358.8037,469.4505,358.7262,469.7435,358.4335,470.1827,358.4939,470.5,358.26" style="stroke:#181818;stroke-width:4.0;"/><text fill="#000000" font-family="Chalkduster" font-size="24" lengthAdjust="spacing" textLength="268" x="478" y="392.1009">Tool: rocsoss script</text></g><!--entity docs--><g id="elem_docs"><polygon fill="none" points="9.5,7,9.5,7.2102,19.5123,6.5857,29.5247,7.1933,39.537,7.3997,49.5494,6.2866,59.5617,6.9223,69.5741,6.5735,79.5864,6.6165,89.5988,6.9318,99.6111,6.3086,109.6235,7.5536,119.6358,6.3697,129.6481,6.8022,139.6605,7.4319,149.6728,6.9142,159.6852,7.0682,169.6975,6.9681,179.7099,7.1785,189.7222,7.2391,199.7346,7.5857,209.7469,7.6711,219.7593,7.6793,229.7716,7.2546,239.784,7.4636,249.7963,7.7022,259.8086,6.2788,269.821,7.6785,279.8333,6.7035,289.8457,7.5338,299.858,6.505,309.8704,6.9315,319.8827,7.7416,329.8951,6.9513,339.9074,7.1053,349.9198,7.3386,359.9321,7.4162,369.9444,6.9961,379.9568,7.2872,389.9691,6.4276,399.9815,7.2844,409.9938,7.5482,420.0062,7.4445,430.0185,7.613,440.0309,6.5169,450.0432,6.3478,460.0556,6.3786,470.0679,6.9411,480.0802,6.8035,490.0926,7.6814,500.1049,6.8253,510.1173,6.6569,520.1296,7.2283,530.142,6.3332,540.1543,6.4809,550.1667,7.649,560.179,7.4357,570.1914,7.7345,580.2037,6.6782,590.216,7.3192,600.2284,7.5904,610.2407,6.5276,620.2531,6.9041,630.2654,7.126,640.2778,7.6518,650.2901,6.9958,660.3025,7.4626,670.3148,6.4462,680.3272,6.3227,690.3395,7.5036,700.3519,6.2831,710.3642,7.509,720.3765,7.2066,730.3889,6.7321,740.4012,6.6462,750.4136,7.4588,760.4259,6.7007,770.4383,7.5919,780.4506,6.4473,790.463,7.6174,800.4753,7.4843,810.4877,7.245,820.5,7,820.506,7.0145,820.9462,7.3702,821.2854,7.4819,821.5823,7.4915,821.9484,7.6684,822.2678,7.7322,822.2277,7.7156,822.6349,8.1772,822.6084,8.4591,822.7603,8.8149,822.6662,9.0688,823,9.5,822.5948,9.5,823.5307,18.626,823.4298,27.7519,822.9571,36.8779,822.6778,46.0039,823,55.1298,822.9326,55.1019,822.6422,55.3959,822.8348,55.8898,822.7884,56.2848,822.5763,56.6112,822.2678,56.8976,822.3564,57.1116,821.8968,57.0019,821.5718,57.2174,821.1577,57.2176,820.8898,57.5709,820.5,57.6298,820.5,57.8766,810.4877,58.1822,800.4753,57.4002,790.463,57.4954,780.4506,58.0733,770.4383,58.1972,760.4259,57.1173,750.4136,57.436,740.4012,57.7791,730.3889,57.019,720.3765,57.9832,710.3642,57.8878,700.3519,57.5291,690.3395,57.7721,680.3272,58.3585,670.3148,57.317,660.3025,57.9448,650.2901,57.9155,640.2778,57.7456,630.2654,57.7708,620.2531,57.7433,610.2407,57.0057,600.2284,57.229,590.216,57.1683,580.2037,57.6937,570.1914,57.718,560.179,57.7916,550.1667,57.3389,540.1543,57.5623,530.142,57.5096,520.1296,58.2067,510.1173,58.0564,500.1049,57.1443,490.0926,57.5569,480.0802,57.0526,470.0679,57.9182,460.0556,58.2383,450.0432,58.1744,440.0309,57.1943,430.0185,58.0938,420.0062,56.887,409.9938,57.83,399.9815,57.3305,389.9691,57.7266,379.9568,57.8702,369.9444,58.1019,359.9321,56.9099,349.9198,58.1053,339.9074,57.808,329.8951,57.9852,319.8827,58.3776,309.8704,57.6353,299.858,57.8051,289.8457,57.8433,279.8333,57.8271,269.821,57.629,259.8086,58.3405,249.7963,57.0201,239.784,58.1951,229.7716,57.0058,219.7593,57.0895,209.7469,57.6698,199.7346,57.6581,189.7222,57.137,179.7099,58.0435,169.6975,57.7387,159.6852,58.3565,149.6728,58.2969,139.6605,57.1816,129.6481,57.2319,119.6358,57.5007,109.6235,57.9854,99.6111,58.0328,89.5988,57.931,79.5864,57.2879,69.5741,58.2662,59.5617,58.2636,49.5494,57.5826,39.537,57.3908,29.5247,57.2284,19.5123,57.4153,9.5,57.6298,9.5175,57.6722,9.1377,57.4623,8.7396,57.2083,8.5015,57.3406,8.0272,56.9027,7.7322,56.8976,7.8869,56.9617,7.7174,56.5985,7.5539,56.2379,7.5062,55.9253,7.0707,55.452,7,55.1298,6.6994,55.1298,7.5189,46.0039,6.4031,36.8779,6.766,27.7519,7.1155,18.626,7,9.5,7.0212,9.5088,7.0361,9.1007,7.2797,8.7874,7.6686,8.5343,7.7855,8.1685,7.7322,7.7322,7.6562,7.5486,8.0958,7.61,8.3738,7.2811,8.7895,7.2848,9.1838,7.2367,9.5,7" style="stroke:#181818;stroke-width:4.0;"/><text fill="#000000" font-family="Chalkduster" font-size="24" lengthAdjust="spacing" textLength="796" x="17" y="40.8409">Example RO-Crate Metadata Document(s) from a domain</text></g><!--entity mod--><g id="elem_mod"><polygon fill="none" points="211.5,502.89,211.5,503.1002,221.5789,502.4757,231.6579,503.0833,241.7368,503.2897,251.8158,502.1766,261.8947,502.8123,271.9737,502.4635,282.0526,502.5065,292.1316,502.8218,302.2105,502.1986,312.2895,503.4436,322.3684,502.2597,332.4474,502.6922,342.5263,503.3219,352.6053,502.8042,362.6842,502.9582,372.7632,502.8581,382.8421,503.0685,392.9211,503.1291,403,503.4757,413.0789,503.5611,423.1579,503.5693,433.2368,503.1446,443.3158,503.3536,453.3947,503.5922,463.4737,502.1688,473.5526,503.5685,483.6316,502.5935,493.7105,503.4238,503.7895,502.395,513.8684,502.8215,523.9474,503.6316,534.0263,502.8413,544.1053,502.9953,554.1842,503.2286,564.2632,503.3062,574.3421,502.8861,584.4211,503.1772,594.5,502.89,594.427,502.7137,594.8898,503.124,595.277,503.3517,595.6174,503.4662,595.9924,503.6646,596.2678,503.6222,596.119,503.5606,596.2134,503.8926,596.3693,504.2501,596.689,504.6754,596.793,505.0114,597,505.39,597.6814,505.39,596.8253,514.516,596.6569,523.6419,597.2283,532.7679,596.3332,541.8939,597,551.0198,596.8401,550.9536,597.0534,551.4562,596.8413,551.7825,596.7869,552.1742,596.3151,552.393,596.2678,552.7876,596.3085,552.8859,595.9895,553.1159,595.5004,552.935,595.1949,553.1974,594.8696,553.4122,594.5,553.5198,594.5,554.1716,584.4211,553.5156,574.3421,553.9824,564.2632,552.966,554.1842,552.8426,544.1053,554.0234,534.0263,552.8029,523.9474,554.0288,513.8684,553.7265,503.7895,553.2519,493.7105,553.1661,483.6316,553.9786,473.5526,553.2205,463.4737,554.1117,453.3947,552.9671,443.3158,554.1373,433.2368,554.0041,423.1579,553.7648,413.0789,553.5671,403,554.2464,392.9211,554.1334,382.8421,553.6891,372.7632,553.788,362.6842,553.3896,352.6053,554.2363,342.5263,553.6747,332.4474,553.6924,322.3684,552.9115,312.2895,553.1146,302.2105,554.0506,292.1316,553.9496,282.0526,553.4769,271.9737,553.1977,261.8947,553.3009,251.8158,552.8337,241.7368,553.9346,231.6579,554.2594,221.5789,554.0462,211.5,553.5198,211.5886,553.7338,211.129,553.3313,210.804,553.2538,210.3899,552.9611,210.122,553.0215,209.7322,552.7876,209.8082,552.8191,209.7559,552.5045,209.3686,552.0512,209.2515,551.7098,209.283,551.43,209,551.0198,209.5673,551.0198,208.4875,541.8939,208.8061,532.7679,209.1493,523.6419,208.3892,514.516,209,505.39,209.1088,505.4351,209.2259,505.0694,209.2619,504.67,209.4831,504.3475,209.8102,504.0687,209.7322,503.6222,209.6923,503.5259,210.126,503.5728,210.4758,503.4173,210.8077,503.2185,211.1644,503.0798,211.5,502.89" style="stroke:#181818;stroke-width:4.0;"/><text fill="#000000" font-family="Chalkduster" font-size="24" lengthAdjust="spacing" textLength="368" x="219" y="536.7309">Domain-Specific Mode File</text></g><!--entity dssoss--><g id="elem_dssoss"><polygon fill="none" points="719.5,502.89,719.5,503.1002,729.3214,502.4757,739.1429,503.0833,748.9643,503.2897,758.7857,502.1766,768.6071,502.8123,778.4286,502.4635,788.25,502.5065,798.0714,502.8218,807.8929,502.1986,817.7143,503.4436,827.5357,502.2597,837.3571,502.6922,847.1786,503.3219,857,502.8042,866.8214,502.9582,876.6429,502.8581,886.4643,503.0685,896.2857,503.1291,906.1071,503.4757,915.9286,503.5611,925.75,503.5693,935.5714,503.1446,945.3929,503.3536,955.2143,503.5922,965.0357,502.1688,974.8571,503.5685,984.6786,502.5935,994.5,502.89,994.5681,503.0544,994.7904,502.884,995.1984,503.1618,995.6553,503.5577,995.908,503.4608,996.2678,503.6222,996.3002,503.6357,996.5185,504.019,996.6888,504.3824,996.7059,504.6824,996.942,505.0731,997,505.39,996.4276,505.39,997.2844,514.516,997.5482,523.6419,997.4445,532.7679,997.613,541.8939,997,551.0198,996.8512,550.9582,996.6527,551.2902,996.5157,551.6477,996.5425,552.073,996.3537,552.409,996.2678,552.7876,996.3547,552.9974,995.8919,552.8803,995.5169,552.9748,995.2362,553.2972,994.7685,553.168,994.5,553.5198,994.5,553.0007,984.6786,554.1688,974.8571,553.9555,965.0357,554.2543,955.2143,553.198,945.3929,553.839,935.5714,554.1103,925.75,553.0474,915.9286,553.424,906.1071,553.6458,896.2857,554.1716,886.4643,553.5156,876.6429,553.9824,866.8214,552.966,857,552.8426,847.1786,554.0234,837.3571,552.8029,827.5357,554.0288,817.7143,553.7265,807.8929,553.2519,798.0714,553.1661,788.25,553.9786,778.4286,553.2205,768.6071,554.1117,758.7857,552.9671,748.9643,554.1373,739.1429,554.0041,729.3214,553.7648,719.5,553.5198,719.506,553.5344,719.2391,553.5972,718.8712,553.4159,718.4609,553.1326,718.12,553.0166,717.7322,552.7876,717.6921,552.771,717.8064,552.5254,717.487,552.1002,717.346,551.749,716.9591,551.2958,717,551.0198,716.5948,551.0198,717.5307,541.8939,717.4298,532.7679,716.9571,523.6419,716.6778,514.516,717,505.39,716.9326,505.3621,716.9351,504.9489,717.4206,504.7358,717.6671,504.4237,717.7479,504.0429,717.7322,503.6222,717.8209,503.8362,718.0683,503.4337,718.4505,503.3562,718.7435,503.0635,719.1827,503.1239,719.5,502.89" style="stroke:#181818;stroke-width:4.0;"/><text fill="#000000" font-family="Chalkduster" font-size="24" lengthAdjust="spacing" textLength="260" x="727" y="536.7309">Domain Specic SoSS</text></g><g id="elem_GMN14"><path d="M35.5,614.52 L36.0605,614.52 L34.3951,624.7089 L36.0154,634.8979 L36.5658,645.0868 L33.5976,655.2758 L35.2928,665.4647 L34.3627,675.6537 L34.4773,685.8426 L35.3182,696.0316 L33.6563,706.2205 L35.5,716.4095 L35.5,716.4095 L35.5,717.8859 L45.4846,714.7288 L55.4692,715.8821 L65.4538,717.5614 L75.4385,716.1808 L85.4231,716.5915 L95.4077,716.3243 L105.3923,716.8856 L115.3769,717.0472 L125.3615,717.9713 L135.3462,718.199 L145.3308,718.2209 L155.3154,717.0885 L165.3,717.6457 L175.2846,718.2821 L185.2692,714.4863 L195.2538,718.2189 L205.2385,715.6188 L215.2231,717.833 L225.2077,715.0894 L235.1923,716.2268 L245.1769,718.3871 L255.1615,716.2795 L265.1462,716.6903 L275.1308,717.3125 L285.1154,717.5194 L295.1,716.3991 L305.0846,717.1754 L315.0692,714.8831 L325.0538,717.1679 L335.0385,717.8714 L345.0231,717.5949 L355.0077,718.0442 L364.9923,715.1213 L374.9769,714.6703 L384.9615,714.7524 L394.9462,716.2525 L404.9308,715.8854 L414.9154,718.2266 L424.9,715.9437 L434.8846,715.4947 L444.8692,717.0182 L454.8538,714.6313 L464.8385,715.0252 L474.8231,718.14 L484.8077,717.5713 L494.7923,718.3681 L504.7769,715.5514 L514.7615,717.2607 L524.7462,717.984 L534.7308,715.1498 L544.7154,716.1539 L554.7,716.7455 L564.6846,718.1475 L574.6692,716.3983 L584.6538,717.643 L594.6385,714.9327 L604.6231,714.6035 L614.6077,717.7525 L624.5923,714.4977 L634.5769,717.7667 L644.5615,716.9605 L654.5462,715.6951 L664.5308,715.4661 L674.5154,717.6329 L684.5,716.4095 L684.5,716.4095 L683.7018,716.4095 L686.0783,706.1996 L683.026,695.9896 L686.1465,685.7797 L685.7915,675.5697 L685.1532,665.3598 L684.6259,655.1498 L686.4376,644.9399 L686.1362,634.7299 L684.5,624.52 L684.6064,624.6264 L682.6686,622.6886 L680.4181,620.4381 L678.9503,618.9703 L676.5973,616.6173 L674.5,614.52 L674.5,614.9802 L664.3459,612.8977 L654.1917,613.4394 L644.0376,615.9353 L633.8834,615.666 L623.7293,614.4055 L613.5752,613.6609 L603.421,613.9362 L593.2669,612.6902 L583.1128,615.626 L572.9586,616.4922 L562.8045,615.9237 L552.6503,616.3732 L542.4962,614.1554 L532.3421,614.7526 L522.1879,613.4864 L512.0338,615.2774 L501.8797,615.178 L491.7255,615.993 L481.5714,613.9076 L471.4172,614.1616 L461.2631,615.7026 L451.109,616.0329 L440.9548,613.1532 L430.8007,614.003 L420.6466,614.918 L410.4924,612.8911 L400.3383,615.4624 L390.1841,615.208 L380.03,614.52 L379.7693,614.455 L382.9114,604.5267 L386.9421,594.8199 L386.7604,584.0632 L390.8984,574.3831 L393.3358,564.2792 L395.11,554.01 L395.3984,554.12 L391.6144,564.2289 L387.6994,574.2878 L382.0149,583.6718 L378.7247,593.9691 L374.7267,603.9964 L372.03,614.52 L372.03,614.6902 L362.1321,614.755 L352.2341,614.9513 L342.3362,613.7441 L332.4382,614.34 L322.5403,614.1994 L312.6424,616.0583 L302.7444,615.6575 L292.8465,613.2252 L282.9485,614.3255 L273.0506,612.9807 L263.1526,615.289 L253.2547,616.1426 L243.3568,615.9722 L233.4588,613.3585 L223.5609,615.7572 L213.6629,612.5392 L203.765,615.0537 L193.8671,613.7218 L183.9691,614.7779 L174.0712,615.1609 L164.1732,615.7789 L154.2753,612.6002 L144.3774,615.7879 L134.4794,614.9951 L124.5815,615.4675 L114.6835,616.5141 L104.7856,614.5346 L94.8876,614.9874 L84.9897,615.0892 L75.0918,615.046 L65.1938,614.5178 L55.2959,616.4152 L45.3979,612.894 L35.5,614.52 L35.5,614.52 " fill="#FFFFE0" style="stroke:#181818;stroke-width:4.0;"/><path d="M674.5,614.52 L674.6868,614.52 L674.1317,616.52 L674.6718,618.52 L674.8553,620.52 L673.8659,622.52 L674.5,624.52 L674.5,624.4509 L676.5,624.1409 L678.5,624.1791 L680.5,624.4594 L682.5,623.9054 L684.5,624.52 L684.848,624.868 L682.1038,622.1238 L680.3757,620.3957 L678.7715,618.7915 L676.4461,616.4661 L674.5,614.52 " fill="#FFFFE0" style="stroke:#181818;stroke-width:4.0;"/><text fill="#000000" font-family="Chalkduster" font-size="24" lengthAdjust="spacing" textLength="628" x="41.5" y="643.3609">Contains Classes and Properties representing</text><text fill="#000000" font-family="Chalkduster" font-size="24" lengthAdjust="spacing" textLength="536" x="41.5" y="673.9907">the intersection of the example(s) and</text><text fill="#000000" font-family="Chalkduster" font-size="24" lengthAdjust="spacing" textLength="406" x="41.5" y="704.6205">schema.org/RO-Crate entities</text></g><g id="elem_GMN17"><path d="M719.5,629.84 L720.0605,629.84 L718.3951,640.02 L720.0154,650.1999 L720.5658,660.3799 L717.5976,670.5598 L719.2928,680.7398 L718.3627,690.9197 L719.5,701.0997 L719.5,701.0997 L719.5,700.077 L729.4722,700.9179 L739.4444,699.256 L749.4167,702.576 L759.3889,699.4189 L769.3611,700.5723 L779.3333,702.2515 L789.3056,700.8709 L799.2778,701.2816 L809.25,701.0145 L819.2222,701.5757 L829.1944,701.7374 L839.1667,702.6615 L849.1389,702.8891 L859.1111,702.911 L869.0833,701.7787 L879.0556,702.3359 L889.0278,702.9723 L899,699.1765 L908.9722,702.909 L918.9444,700.309 L928.9167,702.5232 L938.8889,699.7796 L948.8611,700.917 L958.8333,703.0773 L968.8056,700.9697 L978.7778,701.3805 L988.75,702.0027 L998.7222,702.2096 L1008.6944,701.0893 L1018.6667,701.8656 L1028.6389,699.5732 L1038.6111,701.858 L1048.5833,702.5615 L1058.5556,702.2851 L1068.5278,702.7344 L1078.5,701.0997 L1078.5,701.0997 L1077.2118,701.0997 L1076.7608,690.8897 L1076.8429,680.6798 L1078.343,670.4698 L1077.9759,660.2599 L1080.3171,650.0499 L1078.5,639.84 L1078.3902,639.7302 L1076.2844,637.6244 L1074.6435,635.9835 L1072.0809,633.4209 L1070.1737,631.5137 L1068.5,629.84 L1068.5,631.5705 L1058.7,631.0018 L1048.9,631.7986 L1039.1,628.9819 L1029.3,630.6912 L1019.5,631.4145 L1009.7,628.5803 L999.9,629.5844 L990.1,630.176 L980.3,631.578 L970.5,629.8288 L960.7,631.0735 L950.9,628.3632 L941.1,628.034 L931.3,631.183 L921.5,627.9282 L911.7,631.1972 L901.9,630.391 L892.1,629.84 L891.4281,629.5972 L887.7878,620.0407 L886.4006,611.2982 L881.0743,601.1325 L879.8844,592.4614 L873.5887,581.9453 L873.0985,573.527 L869.3396,563.9276 L864.7,554.01 L865.3329,554.1719 L867.247,563.52 L871.4272,573.4477 L873.5602,582.8518 L874.8373,592.0369 L877.5179,601.581 L878.9135,610.7964 L883.5259,620.8348 L884.1,629.84 L884.1,630.253 L873.8125,630.3002 L863.525,628.2177 L853.2375,628.7594 L842.95,631.2553 L832.6625,630.986 L822.375,629.7255 L812.0875,628.9809 L801.8,629.2562 L791.5125,628.0102 L781.225,630.946 L770.9375,631.8122 L760.65,631.2437 L750.3625,631.6932 L740.075,629.4754 L729.7875,630.0726 L719.5,629.84 L719.5,629.84 " fill="#FFFFE0" style="stroke:#181818;stroke-width:4.0;"/><path d="M1068.5,629.84 L1068.6868,629.84 L1068.1317,631.84 L1068.6718,633.84 L1068.8553,635.84 L1067.8659,637.84 L1068.5,639.84 L1068.5,639.7709 L1070.5,639.4609 L1072.5,639.4991 L1074.5,639.7794 L1076.5,639.2254 L1078.5,639.84 L1078.848,640.188 L1076.1038,637.4438 L1074.3757,635.7157 L1072.7715,634.1115 L1070.4461,631.7861 L1068.5,629.84 " fill="#FFFFE0" style="stroke:#181818;stroke-width:4.0;"/><text fill="#000000" font-family="Chalkduster" font-size="24" lengthAdjust="spacing" textLength="217" x="725.5" y="658.6809">Domain specific</text><text fill="#000000" font-family="Chalkduster" font-size="24" lengthAdjust="spacing" textLength="338" x="725.5" y="689.3107">Schema.org Style Schema</text></g><!--link sos to rocsoss--><g id="link_sos_rocsoss"><path d="M609.52,266.44 L609.8002,266.446 L609.1701,275.9228 L610.1825,285.4347 L610.66,294.9351 L609.3787,304.3981 L610.4285,313.9108 L610.166,323.3955 L610.4257,332.8913 L611.0485,342.3948 L611.3418,351.8914 " fill="none" style="stroke:#8B0000;stroke-width:4.0;"/><polygon fill="#8B0000" points="611.47,357.89,611.5346,357.9171,612.104,356.0199,613.0521,354.2815,613.8769,352.4914,614.2961,350.5313,615.2767,348.8066,615.258,348.7887,614.3914,349.5251,613.619,350.352,612.9122,351.2416,611.9795,351.9148,611.3631,352.8911,611.4908,353.0244,610.4009,351.9567,609.6837,351.2781,609.012,350.6469,608.0757,349.7396,607.2786,348.9775,607.2992,348.9872,608.1072,350.7555,609.009,352.5678,609.8656,354.3589,610.8084,356.1906,611.47,357.89" style="stroke:#8B0000;stroke-width:4.0;"/><text fill="#000000" font-family="Chalkduster" font-size="24" lengthAdjust="spacing" textLength="69" x="611" y="321.1009">input</text></g><!--link roc to rocsoss--><g id="link_roc_rocsoss"><path d="M919.6,266.6 L919.6989,266.8622 L909.9513,269.6476 L900.7833,273.9702 L891.4265,277.7922 L881.4491,279.9681 L872.2943,284.3257 L862.6764,287.4551 L853.2428,291.0733 L843.9373,295.0313 L834.1903,297.8183 L825.3221,302.9361 L815.3114,305.0236 L806.061,309.1277 L796.9034,313.4779 L787.206,316.3965 L777.8247,320.1532 L768.3237,323.5927 L758.9689,327.4198 L749.5436,331.06 L740.2528,335.0569 L730.8391,338.7279 L721.3891,342.3027 L711.7355,345.3375 L702.38,349.1627 L693.0384,353.025 L683.2543,355.7134 " fill="none" style="stroke:#8B0000;stroke-width:4.0;"/><polygon fill="#8B0000" points="677.64,357.83,677.644,357.8999,679.5985,357.8057,681.5767,358.1215,683.5472,358.3038,685.4923,358.047,687.4725,358.398,687.4618,358.3744,686.3831,357.8021,685.3582,357.3488,684.3708,356.9782,683.2543,356.3226,682.3186,356.0662,682.4867,356.1422,682.5935,354.9488,683.1912,353.9774,683.8488,353.0332,684.1579,351.9313,684.6504,350.9123,684.6663,350.9285,683.2408,352.2882,681.888,353.7217,680.5001,355.1196,679.1792,356.5854,677.64,357.83" style="stroke:#8B0000;stroke-width:4.0;"/><text fill="#000000" font-family="Chalkduster" font-size="24" lengthAdjust="spacing" textLength="69" x="832" y="321.1009">input</text></g><!--link docs to rocsoss--><g id="link_docs_rocsoss"><path d="M412.74,57.85 L412.8333,57.8544 L412.375,61.6638 L412.4636,65.4991 L412.3742,69.326 L411.6989,73.1251 L411.8346,76.9626 L411.8,76.9619 L411.5995,79.1752 L411.573,81.392 L411.6676,83.6113 L411.3451,85.822 L411.6068,88.0448 L411.8529,88.0448 L411.3263,90.4325 L411.5182,92.8203 L411.7978,95.2081 L411.5674,97.5958 L411.6052,99.9836 L411.6355,99.9843 L411.6473,102.5183 L411.7971,105.0554 L411.8803,107.5911 L412.0906,110.1295 L411.8867,112.6588 L412.1846,112.6727 L412.3126,115.3311 L412.2485,117.9805 L412.4656,120.6431 L412.6959,123.3063 L412.5085,125.9499 L412.1888,125.9263 L413.0131,128.7295 L412.7847,131.4549 L413.3566,134.2395 L413.1044,136.9631 L413.5277,139.7367 L413.4974,139.7336 L414.1502,142.6032 L414.0955,145.3993 L414.4584,148.2388 L414.8562,151.0819 L415.0012,153.8988 L415.1845,153.924 L415.3966,156.7819 L415.9218,159.6829 L415.9403,162.5142 L416.7146,165.4495 L416.9864,168.3157 L417.2263,168.3578 L417.6917,171.2601 L418.2762,174.1833 L418.3071,177.0094 L418.7439,179.9067 L419.5401,182.8671 L419.2703,182.8082 L420.1504,185.7746 L420.7265,188.6747 L421.7436,191.671 L422.0078,194.503 L422.7195,197.4327 L422.5722,197.3933 L423.59,200.3507 L423.9781,203.1399 L424.8139,206.0487 L426.0879,209.0746 L426.5817,211.892 L426.766,211.9516 L427.8127,214.839 L428.2865,217.5411 L429.4779,220.4753 L430.5131,223.359 L431.1838,226.1248 L430.9881,226.0487 L432.2239,228.8865 L433.3956,231.6994 L434.6932,234.5613 L435.5013,237.2328 L436.5828,240.0106 L436.7691,240.0975 L437.6103,242.5904 L438.8112,245.2509 L440.5375,248.1563 L441.2964,250.6109 L442.8358,253.4292 L443.0333,253.5394 L444.3489,256.0401 L445.5975,258.5034 L446.9971,261.051 L448.7452,263.7932 L450,266.26 L449.8901,266.185 L452.243,269.3771 L453.8484,272.0592 L456.3037,275.3212 L458.2805,278.2567 L460.1283,281.1042 L460.2121,281.1738 L462.4127,283.85 L464.9132,286.7753 L467.1427,289.4756 L469.259,292.0819 L471.4693,294.7662 L471.5543,294.8498 L473.8932,297.2327 L476.6268,300.0036 L478.9141,302.3356 L481.3849,304.8481 L483.7955,307.3014 L483.6173,307.098 L486.2937,309.4586 L489.1846,312.0642 L491.7719,314.3232 L494.2503,316.4579 L496.8797,318.765 L496.7925,318.6514 L499.5434,320.7772 L502.14,322.702 L505.1608,325.1796 L507.9716,327.3836 L510.4945,329.2123 L510.6263,329.4056 L513.4521,331.3648 L516.0275,332.9566 L518.8672,334.9362 L521.532,336.6591 L524.4126,338.6987 L524.4786,338.8063 L527.2687,340.5083 L530.1386,342.3403 L532.7557,343.7601 L535.5766,345.5124 L538.4067,347.2795 L538.5028,347.4515 L541.2982,349.0457 L543.8327,350.1728 L546.6703,351.8425 L549.5132,353.5218 L552.2494,355.0099 " fill="none" style="stroke:#8B0000;stroke-width:4.0;"/><polygon fill="#8B0000" points="557.54,357.84,557.5953,357.883,556.2212,356.2007,555.1712,354.7707,554.0156,353.2585,552.513,351.4762,551.4908,350.0678,551.466,350.0603,551.6828,351.1093,552.0246,352.1963,552.4533,353.3095,552.5825,354.332,553.1311,355.4816,553.1847,355.6582,551.9875,355.6086,550.9465,356.0747,549.9246,356.6036,548.7918,356.7665,547.7174,357.122,547.719,357.1447,549.6811,357.255,551.6507,357.4685,553.6168,357.6323,555.5897,357.8911,557.54,357.84" style="stroke:#8B0000;stroke-width:4.0;"/></g><!--link rocsoss to mod--><g id="link_rocsoss_mod"><path d="M576.07,409.09 L576.228,409.3215 L567.5114,414.2623 L559.721,420.56 L551.629,426.4159 L542.5452,430.8187 L534.7759,437.1474 L526.2666,442.3919 L518.0517,448.0678 L510.0416,454.0437 L501.326,458.9859 L494.0147,465.9856 L484.8776,470.3104 L476.9556,476.4153 L469.1817,482.7374 L460.5455,487.7958 L452.4141,493.594 L444.1156,499.1475 " fill="none" style="stroke:#8B0000;stroke-width:4.0;"/><polygon fill="#8B0000" points="439.16,502.53,439.1726,502.5989,441.0729,502.0401,443.047,501.8854,444.997,501.599,446.8681,500.88,448.8485,500.7599,448.8437,500.7345,447.7104,500.4105,446.6013,500.2148,445.509,500.1084,444.3587,499.6945,443.2897,499.7112,443.471,499.7454,443.293,498.5605,443.6444,497.4755,444.0604,496.4026,444.1006,495.2589,444.3384,494.1524,444.3578,494.1644,443.2937,495.8223,442.3177,497.5347,441.2992,499.2209,440.3618,500.9571,439.16,502.53" style="stroke:#8B0000;stroke-width:4.0;"/><text fill="#000000" font-family="Chalkduster" font-size="24" lengthAdjust="spacing" textLength="131" x="527" y="465.7309">Generate</text></g><!--link rocsoss to dssoss--><g id="link_rocsoss_dssoss"><path d="M654.4,409.26 L654.541,409.5022 L662.7401,413.7999 L671.7658,419.5173 L680.5223,424.7724 L688.3936,428.5071 L697.4381,434.2569 L705.8222,438.8723 L714.4691,443.9391 L723.2986,449.3197 L731.4986,453.6189 L740.9519,460.0708 L748.7757,463.7238 L757.6839,469.2395 L766.7244,474.9824 L774.9951,479.4031 L783.7165,484.5979 L792.2673,489.4997 L801.0265,494.7595 L809.5248,499.5711 " fill="none" style="stroke:#8B0000;stroke-width:4.0;stroke-dasharray:7.0,7.0;"/><polygon fill="#8B0000" points="814.71,502.59,814.7668,502.631,813.445,500.9121,812.4562,499.4336,811.3589,497.8769,809.9051,496.0627,808.9448,494.6048,808.9198,494.5982,809.0962,495.6624,809.3989,496.76,809.7894,497.8807,809.8774,498.9215,810.389,500.0742,810.4361,500.2527,809.2415,500.1599,808.1844,500.5882,807.1441,501.08,806.0062,501.2019,804.9196,501.5184,804.9221,501.541,806.8765,501.7221,808.8422,502.0062,810.8025,502.2406,812.7732,502.5698,814.71,502.59" style="stroke:#8B0000;stroke-width:4.0;"/><text fill="#000000" font-family="Chalkduster" font-size="24" lengthAdjust="spacing" textLength="266" x="764" y="465.7309">Optional: Generate</text></g><!--SRC=[VLB1JiCm3BtdAynES6Xtts6N3JXDGvJZ91GIRulKnbNYYKs8VyTkksw0uD8wzlEByvvlGdJrmUDhO-C9ogctR0k9xGuRZ5naFjLOyf6DIUZOnbsDCBa_sgQLu7bTB99bX1MorLPOaZjeuss-WssY1YnuQco84x1PGfVDDwQHeN9xR2oy4DMvmx96y74DxZ4bfTq0xu2Pyd-Crll0WMBFciXTW_MwcIQ5H9XS2YsVSPeodz-cNNPFAQeMNTW61olo20-Xngwd8VyR31tOGKLLrMkGEsBvGE7fFHRpyVuPXDWU68ma_YeQeo92qPSlTMFEm7EZZ2DDZnXHvRZKIwsNys4GWQnRrSVM5p0O4qb-RyGi7j9s85jGP7bJXaLjSyOCDdfuIjHYuY37X6t2BFQ7kDj4tgFCp9YoY28tA8_ciDyUNH7ftyGysZeTpLCEfVmvnpZqe6uUhDZ4w-NGfHty_m80]--></g></svg>
