<?xml version="1.0" encoding="us-ascii" standalone="no"?><svg xmlns="http://www.w3.org/2000/svg" xmlns:xlink="http://www.w3.org/1999/xlink" contentStyleType="text/css" height="723px" preserveAspectRatio="none" style="width:1331px;height:723px;background:#FFFFFF;" version="1.1" viewBox="0 0 1331 723" width="1331px" zoomAndPan="magnify"><defs/><g><!--cluster tools--><g id="cluster_tools"><polygon fill="none" points="454.5,166.63,454.5,166.8402,464.5541,166.2157,474.6081,166.8233,484.6622,167.0297,494.7162,165.9166,504.7703,166.5523,514.8243,166.2035,524.8784,166.2465,534.9324,166.5618,544.9865,165.9386,555.0405,167.1836,565.0946,165.9997,575.1486,166.4322,585.2027,167.0619,595.2568,166.5442,605.3108,166.6982,615.3649,166.5981,625.4189,166.8085,635.473,166.8691,645.527,167.2157,655.5811,167.3011,665.6351,167.3093,675.6892,166.8846,685.7432,167.0936,695.7973,167.3322,705.8514,165.9088,715.9054,167.3085,725.9595,166.3335,736.0135,167.1638,746.0676,166.135,756.1216,166.5615,766.1757,167.3716,776.2297,166.5813,786.2838,166.7353,796.3378,166.9686,806.3919,167.0462,816.4459,166.6261,826.5,166.9172,836.5541,166.0576,846.6081,166.9144,856.6622,167.1782,866.7162,167.0745,876.7703,167.243,886.8243,166.1469,896.8784,165.9778,906.9324,166.0086,916.9865,166.5711,927.0405,166.4335,937.0946,167.3114,947.1486,166.4553,957.2027,166.2869,967.2568,166.8583,977.3108,165.9632,987.3649,166.1109,997.4189,167.279,1007.473,167.0657,1017.527,167.3645,1027.5811,166.3082,1037.6351,166.9492,1047.6892,167.2204,1057.7432,166.1576,1067.7973,166.5341,1077.8514,166.756,1087.9054,167.2818,1097.9595,166.6258,1108.0135,167.0926,1118.0676,166.0762,1128.1216,165.9527,1138.1757,167.1336,1148.2297,165.9131,1158.2838,167.139,1168.3378,166.8366,1178.3919,166.3621,1188.4459,166.2762,1198.5,166.63,1198.5585,166.7713,1198.8154,166.6843,1199.2826,167.1052,1199.4902,166.8991,1199.993,167.4059,1200.2678,167.3622,1200.4169,167.424,1200.4897,167.747,1200.5752,168.0754,1200.9309,168.5156,1201.0425,168.8547,1201,169.13,1201.1693,169.13,1201.2682,179.2604,1200.8697,189.3908,1201.7165,199.5212,1201.1549,209.6516,1201.1726,219.782,1200.3916,229.9124,1200.5948,240.0428,1201.5307,250.1732,1201.4298,260.3036,1200.9571,270.434,1200.6778,280.5644,1200.7811,290.6948,1200.3138,300.8252,1201.4147,310.9556,1201.7396,321.086,1201.5264,331.2164,1201.6949,341.3468,1200.8633,351.4772,1201.0872,361.6076,1200.6124,371.738,1201.284,381.8684,1201.2468,391.9988,1201.5524,402.1292,1200.7703,412.2596,1201,422.39,1200.9586,422.3729,1200.9901,422.8001,1200.8818,423.1695,1200.4028,423.3853,1200.3545,423.7795,1200.2678,424.1578,1200.2868,424.2037,1199.8363,424.1161,1199.6057,424.5595,1199.24,424.6766,1198.8407,424.7125,1198.5,424.89,1198.5,425.0322,1188.4459,425.6187,1178.3919,424.5771,1168.3378,425.205,1158.2838,425.1756,1148.2297,425.0058,1138.1757,425.0309,1128.1216,425.0035,1118.0676,424.2658,1108.0135,424.4892,1097.9595,424.4285,1087.9054,424.9538,1077.8514,424.9781,1067.7973,425.0517,1057.7432,424.599,1047.6892,424.8225,1037.6351,424.7698,1027.5811,425.4669,1017.527,425.3166,1007.473,424.4045,997.4189,424.8171,987.3649,424.3128,977.3108,425.1784,967.2568,425.4985,957.2027,425.4346,947.1486,424.4544,937.0946,425.354,927.0405,424.1472,916.9865,425.0902,906.9324,424.5907,896.8784,424.9867,886.8243,425.1303,876.7703,425.3621,866.7162,424.1701,856.6622,425.3655,846.6081,425.0682,836.5541,425.2453,826.5,425.6378,816.4459,424.8955,806.3919,425.0653,796.3378,425.1034,786.2838,425.0872,776.2297,424.8892,766.1757,425.6007,756.1216,424.2803,746.0676,425.4553,736.0135,424.266,725.9595,424.3497,715.9054,424.93,705.8514,424.9183,695.7973,424.3972,685.7432,425.3037,675.6892,424.9989,665.6351,425.6167,655.5811,425.5571,645.527,424.4417,635.473,424.4921,625.4189,424.7608,615.3649,425.2455,605.3108,425.293,595.2568,425.1912,585.2027,424.548,575.1486,425.5264,565.0946,425.5238,555.0405,424.8427,544.9865,424.6509,534.9324,424.4886,524.8784,424.6754,514.8243,425.0274,504.7703,424.8216,494.7162,424.4722,484.6622,425.3774,474.6081,424.4311,464.5541,425.3924,454.5,424.89,454.5545,425.0216,454.1939,424.8581,453.8812,424.8104,453.408,424.3749,453.0474,424.2116,452.7322,424.1578,452.892,424.224,452.402,423.7281,452.3673,423.4208,452.3285,423.1118,452.1676,422.7523,452,422.39,451.6415,422.39,451.957,412.2596,452.7446,402.1292,452.6485,391.9988,451.4037,381.8684,452.0785,371.738,451.4861,361.6076,451.9737,351.4772,452.293,341.3468,452.4199,331.2164,451.3353,321.086,452.4005,310.9556,452.0084,300.8252,451.4447,290.6948,451.5289,280.5644,452.3266,270.434,452.2499,260.3036,451.9836,250.1732,451.3279,240.0428,452.6581,229.9124,451.6882,219.782,451.4719,209.6516,451.9327,199.5212,452.5897,189.3908,452.6154,179.2604,452,169.13,452.0108,169.1345,452.0999,168.7572,452.3452,168.4446,452.4967,168.0931,452.4294,167.651,452.7322,167.3622,452.785,167.4897,453.1571,167.3879,453.4118,167.0029,453.7381,166.7907,454.2325,166.9842,454.5,166.63" style="stroke:#181818;stroke-width:4.0;"/><text fill="#000000" font-family="Chalkduster" font-size="24" font-weight="bold" lengthAdjust="spacing" textLength="323" x="665" y="192.4709">RO-Crate Schema Tools</text></g><!--entity sos--><g id="elem_sos"><polygon fill="none" points="905.5,215.63,905.5,215.8402,915.3929,215.2157,925.2857,215.8233,935.1786,216.0297,945.0714,214.9166,954.9643,215.5523,964.8571,215.2035,974.75,215.2465,984.6429,215.5618,994.5357,214.9386,1004.4286,216.1836,1014.3214,214.9997,1024.2143,215.4322,1034.1071,216.0619,1044,215.5442,1053.8929,215.6982,1063.7857,215.5981,1073.6786,215.8085,1083.5714,215.8691,1093.4643,216.2157,1103.3571,216.3011,1113.25,216.3093,1123.1429,215.8846,1133.0357,216.0936,1142.9286,216.3322,1152.8214,214.9088,1162.7143,216.3085,1172.6071,215.3335,1182.5,215.63,1182.5681,215.7944,1182.7904,215.624,1183.1984,215.9018,1183.6553,216.2977,1183.908,216.2008,1184.2678,216.3622,1184.3002,216.3757,1184.5185,216.759,1184.6888,217.1224,1184.7059,217.4224,1184.942,217.8131,1185,218.13,1184.4276,218.13,1185.2844,227.256,1185.5482,236.3819,1185.4445,245.5079,1185.613,254.6339,1185,263.7598,1184.8512,263.6982,1184.6527,264.0302,1184.5157,264.3877,1184.5425,264.813,1184.3537,265.149,1184.2678,265.5276,1184.3547,265.7374,1183.8919,265.6203,1183.5169,265.7148,1183.2362,266.0372,1182.7685,265.908,1182.5,266.2598,1182.5,265.7407,1172.6071,266.9088,1162.7143,266.6955,1152.8214,266.9943,1142.9286,265.938,1133.0357,266.579,1123.1429,266.8503,1113.25,265.7874,1103.3571,266.164,1093.4643,266.3858,1083.5714,266.9116,1073.6786,266.2556,1063.7857,266.7224,1053.8929,265.706,1044,265.5826,1034.1071,266.7634,1024.2143,265.5429,1014.3214,266.7688,1004.4286,266.4665,994.5357,265.9919,984.6429,265.9061,974.75,266.7186,964.8571,265.9605,954.9643,266.8517,945.0714,265.7071,935.1786,266.8773,925.2857,266.7441,915.3929,266.5048,905.5,266.2598,905.506,266.2744,905.2391,266.3372,904.8712,266.1559,904.4609,265.8726,904.12,265.7566,903.7322,265.5276,903.6921,265.511,903.8064,265.2654,903.487,264.8402,903.346,264.489,902.9591,264.0358,903,263.7598,902.5948,263.7598,903.5307,254.6339,903.4298,245.5079,902.9571,236.3819,902.6778,227.256,903,218.13,902.9326,218.1021,902.9351,217.6889,903.4206,217.4758,903.6671,217.1637,903.7479,216.7829,903.7322,216.3622,903.8209,216.5762,904.0683,216.1737,904.4505,216.0962,904.7435,215.8035,905.1827,215.8639,905.5,215.63" style="stroke:#181818;stroke-width:4.0;"/><text fill="#000000" font-family="Chalkduster" font-size="24" lengthAdjust="spacing" textLength="262" x="913" y="249.4709">Schema.org Schema</text></g><!--entity roc--><g id="elem_roc"><polygon fill="none" points="471,215.63,471,215.8402,481.1026,215.2157,491.2051,215.8233,501.3077,216.0297,511.4103,214.9166,521.5128,215.5523,531.6154,215.2035,541.7179,215.2465,551.8205,215.5618,561.9231,214.9386,572.0256,216.1836,582.1282,214.9997,592.2308,215.4322,602.3333,216.0619,612.4359,215.5442,622.5385,215.6982,632.641,215.5981,642.7436,215.8085,652.8462,215.8691,662.9487,216.2157,673.0513,216.3011,683.1538,216.3093,693.2564,215.8846,703.359,216.0936,713.4615,216.3322,723.5641,214.9088,733.6667,216.3085,743.7692,215.3335,753.8718,216.1638,763.9744,215.135,774.0769,215.5615,784.1795,216.3716,794.2821,215.5813,804.3846,215.7353,814.4872,215.9686,824.5897,216.0462,834.6923,215.6261,844.7949,215.9172,854.8974,215.0576,865,215.63,865.0363,215.7176,865.4235,215.9453,865.7638,216.0598,866.1389,216.2581,866.3526,216.067,866.7678,216.3622,866.5669,216.279,866.7228,216.6365,867.0425,217.0618,867.1466,217.3978,867.5634,217.8634,867.5,218.13,867.3253,218.13,867.1569,227.256,867.7283,236.3819,866.8332,245.5079,866.9809,254.6339,867.5,263.7598,867.6999,263.8426,867.4877,264.169,867.4333,264.5606,866.9616,264.7794,867.0125,265.2148,866.7678,265.5276,866.8431,265.7094,866.354,265.5286,866.0484,265.791,865.7232,266.0057,865.4367,266.3141,865,266.2598,865,266.2556,854.8974,266.7224,844.7949,265.706,834.6923,265.5826,824.5897,266.7634,814.4872,265.5429,804.3846,266.7688,794.2821,266.4665,784.1795,265.9919,774.0769,265.9061,763.9744,266.7186,753.8718,265.9605,743.7692,266.8517,733.6667,265.7071,723.5641,266.8773,713.4615,266.7441,703.359,266.5048,693.2564,266.3071,683.1538,266.9864,673.0513,266.8734,662.9487,266.4291,652.8462,266.528,642.7436,266.1296,632.641,266.9763,622.5385,266.4147,612.4359,266.4324,602.3333,265.6515,592.2308,265.8546,582.1282,266.7906,572.0256,266.6896,561.9231,266.2169,551.8205,265.9377,541.7179,266.0409,531.6154,265.5737,521.5128,266.6746,511.4103,266.9994,501.3077,266.7862,491.2051,266.9548,481.1026,266.1231,471,266.2598,471.0111,266.2867,470.597,265.994,470.3291,266.0544,469.9708,265.8965,469.6562,265.8442,469.2322,265.5276,469.1615,265.4983,469.0444,265.1569,469.0759,264.8771,468.9676,264.5393,468.4886,264.048,468.5,263.7598,468.3061,263.7598,468.6493,254.6339,467.8892,245.5079,468.8534,236.3819,468.758,227.256,468.5,218.13,468.469,218.1171,468.6903,217.7946,469.0173,217.5158,468.843,217.0294,469.1828,216.756,469.2322,216.3622,469.2687,216.4502,469.6006,216.2514,469.9573,216.1127,470.3074,215.9578,470.5668,215.5842,471,215.63" style="stroke:#181818;stroke-width:4.0;"/><text fill="#000000" font-family="Chalkduster" font-size="24" lengthAdjust="spacing" textLength="379" x="478.5" y="249.4709">RO-Crate Schema additions</text></g><!--entity rocsoss--><g id="elem_rocsoss"><polygon fill="none" points="526.5,358.26,526.5,358.4702,536.6071,357.8457,546.7143,358.4533,556.8214,358.6597,566.9286,357.5466,577.0357,358.1823,587.1429,357.8335,597.25,357.8765,607.3571,358.1918,617.4643,357.5686,627.5714,358.8136,637.6786,357.6297,647.7857,358.0622,657.8929,358.6919,668,358.1742,678.1071,358.3282,688.2143,358.2281,698.3214,358.4385,708.4286,358.4991,718.5357,358.8457,728.6429,358.9311,738.75,358.9393,748.8571,358.5146,758.9643,358.7236,769.0714,358.9622,779.1786,357.5388,789.2857,358.9385,799.3929,357.9635,809.5,358.26,809.5681,358.4244,809.7904,358.254,810.1984,358.5318,810.6553,358.9277,810.908,358.8308,811.2678,358.9922,811.3002,359.0057,811.5185,359.389,811.6888,359.7524,811.7059,360.0524,811.942,360.4431,812,360.76,811.4276,360.76,812.2844,369.886,812.5482,379.0119,812.4445,388.1379,812.613,397.2639,812,406.3898,811.8512,406.3282,811.6527,406.6602,811.5157,407.0177,811.5425,407.443,811.3537,407.779,811.2678,408.1576,811.3547,408.3674,810.8919,408.2503,810.5169,408.3448,810.2362,408.6672,809.7685,408.538,809.5,408.8898,809.5,408.3707,799.3929,409.5388,789.2857,409.3255,779.1786,409.6243,769.0714,408.568,758.9643,409.209,748.8571,409.4803,738.75,408.4174,728.6429,408.794,718.5357,409.0158,708.4286,409.5416,698.3214,408.8856,688.2143,409.3524,678.1071,408.336,668,408.2126,657.8929,409.3934,647.7857,408.1729,637.6786,409.3988,627.5714,409.0965,617.4643,408.6219,607.3571,408.5361,597.25,409.3486,587.1429,408.5905,577.0357,409.4817,566.9286,408.3371,556.8214,409.5073,546.7143,409.3741,536.6071,409.1348,526.5,408.8898,526.506,408.9044,526.2391,408.9672,525.8712,408.7859,525.4609,408.5026,525.12,408.3866,524.7322,408.1576,524.6921,408.141,524.8064,407.8954,524.487,407.4702,524.346,407.119,523.9591,406.6658,524,406.3898,523.5948,406.3898,524.5307,397.2639,524.4298,388.1379,523.9571,379.0119,523.6778,369.886,524,360.76,523.9326,360.7321,523.9351,360.3189,524.4206,360.1058,524.6671,359.7937,524.7479,359.4129,524.7322,358.9922,524.8209,359.2062,525.0683,358.8037,525.4505,358.7262,525.7435,358.4335,526.1827,358.4939,526.5,358.26" style="stroke:#181818;stroke-width:4.0;"/><text fill="#000000" font-family="Chalkduster" font-size="24" lengthAdjust="spacing" textLength="268" x="534" y="392.1009">Tool: rocsoss script</text></g><!--entity docs--><g id="elem_docs"><polygon fill="none" points="9.5,7,9.5,7.2102,19.5123,6.5857,29.5247,7.1933,39.537,7.3997,49.5494,6.2866,59.5617,6.9223,69.5741,6.5735,79.5864,6.6165,89.5988,6.9318,99.6111,6.3086,109.6235,7.5536,119.6358,6.3697,129.6481,6.8022,139.6605,7.4319,149.6728,6.9142,159.6852,7.0682,169.6975,6.9681,179.7099,7.1785,189.7222,7.2391,199.7346,7.5857,209.7469,7.6711,219.7593,7.6793,229.7716,7.2546,239.784,7.4636,249.7963,7.7022,259.8086,6.2788,269.821,7.6785,279.8333,6.7035,289.8457,7.5338,299.858,6.505,309.8704,6.9315,319.8827,7.7416,329.8951,6.9513,339.9074,7.1053,349.9198,7.3386,359.9321,7.4162,369.9444,6.9961,379.9568,7.2872,389.9691,6.4276,399.9815,7.2844,409.9938,7.5482,420.0062,7.4445,430.0185,7.613,440.0309,6.5169,450.0432,6.3478,460.0556,6.3786,470.0679,6.9411,480.0802,6.8035,490.0926,7.6814,500.1049,6.8253,510.1173,6.6569,520.1296,7.2283,530.142,6.3332,540.1543,6.4809,550.1667,7.649,560.179,7.4357,570.1914,7.7345,580.2037,6.6782,590.216,7.3192,600.2284,7.5904,610.2407,6.5276,620.2531,6.9041,630.2654,7.126,640.2778,7.6518,650.2901,6.9958,660.3025,7.4626,670.3148,6.4462,680.3272,6.3227,690.3395,7.5036,700.3519,6.2831,710.3642,7.509,720.3765,7.2066,730.3889,6.7321,740.4012,6.6462,750.4136,7.4588,760.4259,6.7007,770.4383,7.5919,780.4506,6.4473,790.463,7.6174,800.4753,7.4843,810.4877,7.245,820.5,7,820.506,7.0145,820.9462,7.3702,821.2854,7.4819,821.5823,7.4915,821.9484,7.6684,822.2678,7.7322,822.2277,7.7156,822.6349,8.1772,822.6084,8.4591,822.7603,8.8149,822.6662,9.0688,823,9.5,822.5948,9.5,823.5307,18.626,823.4298,27.7519,822.9571,36.8779,822.6778,46.0039,823,55.1298,822.9326,55.1019,822.6422,55.3959,822.8348,55.8898,822.7884,56.2848,822.5763,56.6112,822.2678,56.8976,822.3564,57.1116,821.8968,57.0019,821.5718,57.2174,821.1577,57.2176,820.8898,57.5709,820.5,57.6298,820.5,57.8766,810.4877,58.1822,800.4753,57.4002,790.463,57.4954,780.4506,58.0733,770.4383,58.1972,760.4259,57.1173,750.4136,57.436,740.4012,57.7791,730.3889,57.019,720.3765,57.9832,710.3642,57.8878,700.3519,57.5291,690.3395,57.7721,680.3272,58.3585,670.3148,57.317,660.3025,57.9448,650.2901,57.9155,640.2778,57.7456,630.2654,57.7708,620.2531,57.7433,610.2407,57.0057,600.2284,57.229,590.216,57.1683,580.2037,57.6937,570.1914,57.718,560.179,57.7916,550.1667,57.3389,540.1543,57.5623,530.142,57.5096,520.1296,58.2067,510.1173,58.0564,500.1049,57.1443,490.0926,57.5569,480.0802,57.0526,470.0679,57.9182,460.0556,58.2383,450.0432,58.1744,440.0309,57.1943,430.0185,58.0938,420.0062,56.887,409.9938,57.83,399.9815,57.3305,389.9691,57.7266,379.9568,57.8702,369.9444,58.1019,359.9321,56.9099,349.9198,58.1053,339.9074,57.808,329.8951,57.9852,319.8827,58.3776,309.8704,57.6353,299.858,57.8051,289.8457,57.8433,279.8333,57.8271,269.821,57.629,259.8086,58.3405,249.7963,57.0201,239.784,58.1951,229.7716,57.0058,219.7593,57.0895,209.7469,57.6698,199.7346,57.6581,189.7222,57.137,179.7099,58.0435,169.6975,57.7387,159.6852,58.3565,149.6728,58.2969,139.6605,57.1816,129.6481,57.2319,119.6358,57.5007,109.6235,57.9854,99.6111,58.0328,89.5988,57.931,79.5864,57.2879,69.5741,58.2662,59.5617,58.2636,49.5494,57.5826,39.537,57.3908,29.5247,57.2284,19.5123,57.4153,9.5,57.6298,9.5175,57.6722,9.1377,57.4623,8.7396,57.2083,8.5015,57.3406,8.0272,56.9027,7.7322,56.8976,7.8869,56.9617,7.7174,56.5985,7.5539,56.2379,7.5062,55.9253,7.0707,55.452,7,55.1298,6.6994,55.1298,7.5189,46.0039,6.4031,36.8779,6.766,27.7519,7.1155,18.626,7,9.5,7.0212,9.5088,7.0361,9.1007,7.2797,8.7874,7.6686,8.5343,7.7855,8.1685,7.7322,7.7322,7.6562,7.5486,8.0958,7.61,8.3738,7.2811,8.7895,7.2848,9.1838,7.2367,9.5,7" style="stroke:#181818;stroke-width:4.0;"/><text fill="#000000" font-family="Chalkduster" font-size="24" lengthAdjust="spacing" textLength="796" x="17" y="40.8409">Example RO-Crate Metadata Document(s) from a domain</text></g><!--entity rop--><g id="elem_rop"><polygon fill="none" points="783,502.89,783,503.1002,793.0588,502.4757,803.1176,503.0833,813.1765,503.2897,823.2353,502.1766,833.2941,502.8123,843.3529,502.4635,853.4118,502.5065,863.4706,502.8218,873.5294,502.1986,883.5882,503.4436,893.6471,502.2597,903.7059,502.6922,913.7647,503.3219,923.8235,502.8042,933.8824,502.9582,943.9412,502.8581,954,503.0685,964.0588,503.1291,974.1176,503.4757,984.1765,503.5611,994.2353,503.5693,1004.2941,503.1446,1014.3529,503.3536,1024.4118,503.5922,1034.4706,502.1688,1044.5294,503.5685,1054.5882,502.5935,1064.6471,503.4238,1074.7059,502.395,1084.7647,502.8215,1094.8235,503.6316,1104.8824,502.8413,1114.9412,502.9953,1125,502.89,1125.0432,502.9943,1125.4066,503.1646,1125.7066,503.1817,1126.0973,503.4178,1126.3412,503.2995,1126.7678,503.6222,1126.8553,503.6585,1127.083,504.0457,1127.1976,504.386,1127.3959,504.7611,1127.2048,504.9748,1127.5,505.39,1126.8478,505.39,1126.8786,514.516,1127.4411,523.6419,1127.3035,532.7679,1128.1814,541.8939,1127.5,551.0198,1127.4462,550.9976,1127.2479,551.3296,1127.2774,551.7561,1126.8553,551.9954,1126.7543,552.3678,1126.7678,552.7876,1126.8505,552.9875,1126.4698,553.0682,1126.1544,553.3067,1125.6661,553.1278,1125.3943,553.4717,1125,553.5198,1125,554.1103,1114.9412,553.0474,1104.8824,553.424,1094.8235,553.6458,1084.7647,554.1716,1074.7059,553.5156,1064.6471,553.9824,1054.5882,552.966,1044.5294,552.8426,1034.4706,554.0234,1024.4118,552.8029,1014.3529,554.0288,1004.2941,553.7265,994.2353,553.2519,984.1765,553.1661,974.1176,553.9786,964.0588,553.2205,954,554.1117,943.9412,552.9671,933.8824,554.1373,923.8235,554.0041,913.7647,553.7648,903.7059,553.5671,893.6471,554.2464,883.5882,554.1334,873.5294,553.6891,863.4706,553.788,853.4118,553.3896,843.3529,554.2363,833.2941,553.6747,823.2353,553.6924,813.1765,552.9115,803.1176,553.1146,793.0588,554.0506,783,553.5198,783.0548,553.6522,782.641,553.3602,782.2518,553.1277,781.9114,553.0131,781.4983,552.7227,781.2322,552.7876,781.36,552.8405,781.3135,552.5284,781.1014,552.1476,781.0069,551.8156,780.6043,551.3559,780.5,551.0198,780.5872,551.0198,780.1124,541.8939,780.784,532.7679,780.7468,523.6419,781.0524,514.516,780.5,505.39,780.4293,505.3607,780.6051,505.0193,780.9295,504.7395,781.1141,504.4017,780.9279,503.9104,781.2322,503.6222,781.2075,503.5625,781.6048,503.5218,781.8614,503.1412,782.338,503.2917,782.6794,503.1159,783,502.89" style="stroke:#181818;stroke-width:4.0;"/><text fill="#000000" font-family="Chalkduster" font-size="24" lengthAdjust="spacing" textLength="327" x="790.5" y="536.7309">Domain-Specific Profile</text></g><!--entity dssoss--><g id="elem_dssoss"><polygon fill="none" points="245.5,502.89,245.5,503.1002,255.3214,502.4757,265.1429,503.0833,274.9643,503.2897,284.7857,502.1766,294.6071,502.8123,304.4286,502.4635,314.25,502.5065,324.0714,502.8218,333.8929,502.1986,343.7143,503.4436,353.5357,502.2597,363.3571,502.6922,373.1786,503.3219,383,502.8042,392.8214,502.9582,402.6429,502.8581,412.4643,503.0685,422.2857,503.1291,432.1071,503.4757,441.9286,503.5611,451.75,503.5693,461.5714,503.1446,471.3929,503.3536,481.2143,503.5922,491.0357,502.1688,500.8571,503.5685,510.6786,502.5935,520.5,502.89,520.5681,503.0544,520.7904,502.884,521.1984,503.1618,521.6553,503.5577,521.908,503.4608,522.2678,503.6222,522.3002,503.6357,522.5185,504.019,522.6888,504.3824,522.7059,504.6824,522.942,505.0731,523,505.39,522.4276,505.39,523.2844,514.516,523.5482,523.6419,523.4445,532.7679,523.613,541.8939,523,551.0198,522.8512,550.9582,522.6527,551.2902,522.5157,551.6477,522.5425,552.073,522.3537,552.409,522.2678,552.7876,522.3547,552.9974,521.8919,552.8803,521.5169,552.9748,521.2362,553.2972,520.7685,553.168,520.5,553.5198,520.5,553.0007,510.6786,554.1688,500.8571,553.9555,491.0357,554.2543,481.2143,553.198,471.3929,553.839,461.5714,554.1103,451.75,553.0474,441.9286,553.424,432.1071,553.6458,422.2857,554.1716,412.4643,553.5156,402.6429,553.9824,392.8214,552.966,383,552.8426,373.1786,554.0234,363.3571,552.8029,353.5357,554.0288,343.7143,553.7265,333.8929,553.2519,324.0714,553.1661,314.25,553.9786,304.4286,553.2205,294.6071,554.1117,284.7857,552.9671,274.9643,554.1373,265.1429,554.0041,255.3214,553.7648,245.5,553.5198,245.506,553.5344,245.2391,553.5972,244.8712,553.4159,244.4609,553.1326,244.12,553.0166,243.7322,552.7876,243.6921,552.771,243.8064,552.5254,243.487,552.1002,243.346,551.749,242.9591,551.2958,243,551.0198,242.5948,551.0198,243.5307,541.8939,243.4298,532.7679,242.9571,523.6419,242.6778,514.516,243,505.39,242.9326,505.3621,242.9351,504.9489,243.4206,504.7358,243.6671,504.4237,243.7479,504.0429,243.7322,503.6222,243.8209,503.8362,244.0683,503.4337,244.4505,503.3562,244.7435,503.0635,245.1827,503.1239,245.5,502.89" style="stroke:#181818;stroke-width:4.0;"/><text fill="#000000" font-family="Chalkduster" font-size="24" lengthAdjust="spacing" textLength="260" x="253" y="536.7309">Domain Specic SOSS</text></g><g id="elem_GMN16"><path d="M629.5,614.52 L630.0605,614.52 L628.3951,624.7089 L630.0154,634.8979 L630.5658,645.0868 L627.5976,655.2758 L629.2928,665.4647 L628.3627,675.6537 L628.4773,685.8426 L629.3182,696.0316 L627.6563,706.2205 L629.5,716.4095 L629.5,716.4095 L629.5,717.8859 L639.4846,714.7288 L649.4692,715.8821 L659.4538,717.5614 L669.4385,716.1808 L679.4231,716.5915 L689.4077,716.3243 L699.3923,716.8856 L709.3769,717.0472 L719.3615,717.9713 L729.3462,718.199 L739.3308,718.2209 L749.3154,717.0885 L759.3,717.6457 L769.2846,718.2821 L779.2692,714.4863 L789.2538,718.2189 L799.2385,715.6188 L809.2231,717.833 L819.2077,715.0894 L829.1923,716.2268 L839.1769,718.3871 L849.1615,716.2795 L859.1462,716.6903 L869.1308,717.3125 L879.1154,717.5194 L889.1,716.3991 L899.0846,717.1754 L909.0692,714.8831 L919.0538,717.1679 L929.0385,717.8714 L939.0231,717.5949 L949.0077,718.0442 L958.9923,715.1213 L968.9769,714.6703 L978.9615,714.7524 L988.9462,716.2525 L998.9308,715.8854 L1008.9154,718.2266 L1018.9,715.9437 L1028.8846,715.4947 L1038.8692,717.0182 L1048.8538,714.6313 L1058.8385,715.0252 L1068.8231,718.14 L1078.8077,717.5713 L1088.7923,718.3681 L1098.7769,715.5514 L1108.7615,717.2607 L1118.7462,717.984 L1128.7308,715.1498 L1138.7154,716.1539 L1148.7,716.7455 L1158.6846,718.1475 L1168.6692,716.3983 L1178.6538,717.643 L1188.6385,714.9327 L1198.6231,714.6035 L1208.6077,717.7525 L1218.5923,714.4977 L1228.5769,717.7667 L1238.5615,716.9605 L1248.5462,715.6951 L1258.5308,715.4661 L1268.5154,717.6329 L1278.5,716.4095 L1278.5,716.4095 L1277.7018,716.4095 L1280.0783,706.1996 L1277.026,695.9896 L1280.1465,685.7797 L1279.7915,675.5697 L1279.1532,665.3598 L1278.6259,655.1498 L1280.4376,644.9399 L1280.1362,634.7299 L1278.5,624.52 L1278.6064,624.6264 L1276.6686,622.6886 L1274.4181,620.4381 L1272.9503,618.9703 L1270.5973,616.6173 L1268.5,614.52 L1268.5,614.9802 L1258.4839,612.8977 L1248.4677,613.4394 L1238.4516,615.9353 L1228.4355,615.666 L1218.4194,614.4055 L1208.4032,613.6609 L1198.3871,613.9362 L1188.371,612.6902 L1178.3548,615.626 L1168.3387,616.4922 L1158.3226,615.9237 L1148.3065,616.3732 L1138.2903,614.1554 L1128.2742,614.7526 L1118.2581,613.4864 L1108.2419,615.2774 L1098.2258,615.178 L1088.2097,615.993 L1078.1935,613.9076 L1068.1774,614.1616 L1058.1613,615.7026 L1048.1452,616.0329 L1038.129,613.1532 L1028.1129,614.003 L1018.0968,614.918 L1008.0806,612.8911 L998.0645,615.4624 L988.0484,615.208 L978.0323,614.2513 L968.0161,614.8993 L958,614.52 L959.9389,614.6482 L956.5008,604.38 L957.5048,594.4054 L956.7601,584.3152 L955.6414,574.2004 L955.0416,564.1198 L954,554.01 L954.3019,554.03 L951.6725,563.9852 L951.6001,574.1095 L950.7719,584.1838 L951.5032,594.3612 L950.9012,604.4505 L950,614.52 L950,614.9513 L939.9844,613.7441 L929.9688,614.34 L919.9531,614.1994 L909.9375,616.0583 L899.9219,615.6575 L889.9063,613.2252 L879.8906,614.3255 L869.875,612.9807 L859.8594,615.289 L849.8438,616.1426 L839.8281,615.9722 L829.8125,613.3585 L819.7969,615.7572 L809.7813,612.5392 L799.7656,615.0537 L789.75,613.7218 L779.7344,614.7779 L769.7188,615.1609 L759.7031,615.7789 L749.6875,612.6002 L739.6719,615.7879 L729.6563,614.9951 L719.6406,615.4675 L709.625,616.5141 L699.6094,614.5346 L689.5938,614.9874 L679.5781,615.0892 L669.5625,615.046 L659.5469,614.5178 L649.5313,616.4152 L639.5156,612.894 L629.5,614.52 L629.5,614.52 " fill="#FFFFE0" style="stroke:#181818;stroke-width:4.0;"/><path d="M1268.5,614.52 L1268.6868,614.52 L1268.1317,616.52 L1268.6718,618.52 L1268.8553,620.52 L1267.8659,622.52 L1268.5,624.52 L1268.5,624.4509 L1270.5,624.1409 L1272.5,624.1791 L1274.5,624.4594 L1276.5,623.9054 L1278.5,624.52 L1278.848,624.868 L1276.1038,622.1238 L1274.3757,620.3957 L1272.7715,618.7915 L1270.4461,616.4661 L1268.5,614.52 " fill="#FFFFE0" style="stroke:#181818;stroke-width:4.0;"/><text fill="#000000" font-family="Chalkduster" font-size="24" lengthAdjust="spacing" textLength="628" x="635.5" y="643.3609">Contains Classes and Properties representing</text><text fill="#000000" font-family="Chalkduster" font-size="24" lengthAdjust="spacing" textLength="536" x="635.5" y="673.9907">the intersection of the example(s) and</text><text fill="#000000" font-family="Chalkduster" font-size="24" lengthAdjust="spacing" textLength="406" x="635.5" y="704.6205">schema.org/RO-Crate entities</text></g><g id="elem_GMN19"><path d="M203.5,629.84 L204.0605,629.84 L202.3951,640.02 L204.0154,650.1999 L204.5658,660.3799 L201.5976,670.5598 L203.2928,680.7398 L202.3627,690.9197 L203.5,701.0997 L203.5,701.0997 L203.5,700.077 L213.4722,700.9179 L223.4444,699.256 L233.4167,702.576 L243.3889,699.4189 L253.3611,700.5723 L263.3333,702.2515 L273.3056,700.8709 L283.2778,701.2816 L293.25,701.0145 L303.2222,701.5757 L313.1944,701.7374 L323.1667,702.6615 L333.1389,702.8891 L343.1111,702.911 L353.0833,701.7787 L363.0556,702.3359 L373.0278,702.9723 L383,699.1765 L392.9722,702.909 L402.9444,700.309 L412.9167,702.5232 L422.8889,699.7796 L432.8611,700.917 L442.8333,703.0773 L452.8056,700.9697 L462.7778,701.3805 L472.75,702.0027 L482.7222,702.2096 L492.6944,701.0893 L502.6667,701.8656 L512.6389,699.5732 L522.6111,701.858 L532.5833,702.5615 L542.5556,702.2851 L552.5278,702.7344 L562.5,701.0997 L562.5,701.0997 L561.2118,701.0997 L560.7608,690.8897 L560.8429,680.6798 L562.343,670.4698 L561.9759,660.2599 L564.3171,650.0499 L562.5,639.84 L562.3902,639.7302 L560.2844,637.6244 L558.6435,635.9835 L556.0809,633.4209 L554.1737,631.5137 L552.5,629.84 L552.5,631.5705 L542.7647,631.0018 L533.0294,631.7986 L523.2941,628.9819 L513.5588,630.6912 L503.8235,631.4145 L494.0882,628.5803 L484.3529,629.5844 L474.6176,630.176 L464.8824,631.578 L455.1471,629.8288 L445.4118,631.0735 L435.6765,628.3632 L425.9412,628.034 L416.2059,631.183 L406.4706,627.9282 L396.7353,631.1972 L387,629.84 L387.5502,629.869 L385.7865,620.3236 L385.0579,610.8328 L386.7217,601.4682 L384.2029,591.883 L386.0761,582.5294 L382.5281,572.8899 L385.1442,563.5755 L383,554.01 L384.2897,554.078 L383.1523,563.5232 L382.1257,572.9741 L383.4349,582.5483 L382.6339,592.0112 L380.9507,601.4275 L380.7142,610.9202 L379.1531,620.343 L379,629.84 L379,631.7505 L369.25,630.253 L359.5,630.3002 L349.75,628.2177 L340,628.7594 L330.25,631.2553 L320.5,630.986 L310.75,629.7255 L301,628.9809 L291.25,629.2562 L281.5,628.0102 L271.75,630.946 L262,631.8122 L252.25,631.2437 L242.5,631.6932 L232.75,629.4754 L223,630.0726 L213.25,628.8064 L203.5,629.84 L203.5,629.84 " fill="#FFFFE0" style="stroke:#181818;stroke-width:4.0;"/><path d="M552.5,629.84 L552.6868,629.84 L552.1317,631.84 L552.6718,633.84 L552.8553,635.84 L551.8659,637.84 L552.5,639.84 L552.5,639.7709 L554.5,639.4609 L556.5,639.4991 L558.5,639.7794 L560.5,639.2254 L562.5,639.84 L562.848,640.188 L560.1038,637.4438 L558.3757,635.7157 L556.7715,634.1115 L554.4461,631.7861 L552.5,629.84 " fill="#FFFFE0" style="stroke:#181818;stroke-width:4.0;"/><text fill="#000000" font-family="Chalkduster" font-size="24" lengthAdjust="spacing" textLength="217" x="209.5" y="658.6809">Domain specific</text><text fill="#000000" font-family="Chalkduster" font-size="24" lengthAdjust="spacing" textLength="338" x="209.5" y="689.3107">Schema.org Style Schema</text></g><!--link sos to rocsoss--><g id="link_sos_rocsoss"><path d="M978.08,266.6 L978.1782,266.8625 L968.3421,269.6526 L959.0815,273.9814 L949.6335,277.8091 L939.5692,279.9891 L930.3217,284.3529 L920.6144,287.4874 L911.0901,291.1111 L901.693,295.0749 L891.8575,297.8666 L882.8946,302.9914 L872.7972,305.0829 L863.4548,309.193 L854.2046,313.5494 L844.4183,316.4729 L834.9459,320.2352 L825.3547,323.6801 L815.9086,327.5129 L806.3925,331.1586 L797.01,335.1614 L787.5055,338.838 L777.9649,342.4183 L768.2221,345.458 L758.7753,349.2889 L749.3424,353.157 L739.47,355.85 " fill="none" style="stroke:#8B0000;stroke-width:4.0;"/><polygon fill="#8B0000" points="735.16,357.83,735.1642,357.8999,737.1181,357.8092,739.0964,358.1284,741.0668,358.3141,743.011,358.0608,744.9915,358.4152,744.9807,358.3916,743.9027,357.8176,742.8786,357.3625,741.8922,356.99,740.7762,356.3327,739.8416,356.0744,740.0097,356.1507,740.1185,354.9575,740.718,353.9872,741.3772,353.0441,741.6883,351.9427,742.1825,350.9246,742.1984,350.9408,740.7705,352.2981,739.4152,353.7292,738.0249,355.1247,736.7014,356.5881,735.16,357.83" style="stroke:#8B0000;stroke-width:4.0;"/><text fill="#000000" font-family="Chalkduster" font-size="24" lengthAdjust="spacing" textLength="69" x="890" y="321.1009">input</text></g><!--link roc to rocsoss--><g id="link_roc_rocsoss"><path d="M668,266.44 L668.2802,266.44 L667.4476,275.94 L668.2577,285.44 L668.5329,294.94 L667.0488,304.44 L667.8964,313.94 L667.4313,323.44 L667.4887,332.94 L667.9091,342.44 L668,351.94 " fill="none" style="stroke:#8B0000;stroke-width:4.0;"/><polygon fill="#8B0000" points="668,356.89,668.064,356.9185,668.6738,355.0339,669.6589,353.3162,670.5217,351.5441,670.9827,349.5934,672,347.89,671.9817,347.8717,671.0995,348.5895,670.3096,349.3996,669.5839,350.2739,668.637,350.927,668,351.89,668.1305,352.0205,667.0514,350.9414,666.3534,350.2434,665.7018,349.5918,664.7798,348.6698,664,347.89,664.0208,347.8992,664.7903,349.6857,665.6544,351.5142,666.4728,353.3224,667.3784,355.1693,668,356.89" style="stroke:#8B0000;stroke-width:4.0;"/><text fill="#000000" font-family="Chalkduster" font-size="24" lengthAdjust="spacing" textLength="69" x="669" y="321.1009">input</text></g><!--link dssoss to rocsoss--><g id="link_dssoss_rocsoss"><path d="M279.32,502.4 L279.3544,502.4869 L276.3973,501.099 L273.6416,500.2203 L270.8204,499.1757 L267.7834,497.5859 L265.0451,496.751 L265.0301,496.7199 L262.3823,495.3342 L259.8103,494.1054 L257.2908,492.9856 L254.59,491.4901 L252.1433,490.5208 L252.2728,490.73 L249.7952,488.9202 L247.6958,487.7212 L245.6424,486.5967 L243.3207,485.0387 L241.1401,483.7087 L241.1599,483.7316 L239.4151,482.2189 L237.7604,480.8108 L236.0622,479.3522 L234.447,477.9899 L232.5612,476.3138 L232.8311,476.4407 L231.2779,473.134 L229.5506,469.7454 L228.0781,466.4766 L226.6175,463.2135 L224.7786,459.7723 L224.4644,459.7089 L225.4437,458.0024 L225.3884,456.087 L226.1196,454.3304 L226.0409,452.4103 L226.626,450.6242 L226.6005,450.6075 L228.1765,448.8579 L229.1575,446.7187 L230.4896,444.8093 L231.8511,442.9193 L233,440.89 L233.0962,441.048 L235.5655,439.326 L238.1992,437.874 L240.5669,435.9852 L243.3313,434.748 L245.832,433.0775 L245.9139,433.307 L247.9704,432.524 L250.0675,431.855 L251.9757,430.6566 L254.0224,429.8463 L256.1919,429.3797 L256.1172,429.1138 L258.7208,428.643 L261.2403,427.8726 L263.8818,427.5367 L266.315,426.4588 L268.872,425.822 L268.8377,425.6735 L271.8486,425.2375 L274.7127,424.1666 L277.6813,423.5472 L280.752,423.3696 L283.6408,422.4052 L283.6782,422.5952 L287.029,422.0705 L290.2634,420.9549 L293.6436,420.5794 L296.992,420.0427 L300.2664,419.1302 L300.2309,418.9233 L303.9093,418.4617 L307.5762,417.9324 L311.2658,417.5362 L314.8667,416.6224 L318.5171,415.9978 L318.548,416.201 L322.4089,415.1566 L326.3295,414.5046 L330.3373,414.4256 L334.1845,413.2915 L338.1613,413.0087 L338.1919,413.2329 L342.3349,412.5308 L346.4674,411.7529 L350.6234,411.1461 L354.8335,410.935 L358.9671,410.164 L358.9507,410.032 L363.3466,409.8851 L367.6311,408.8403 L372.0423,408.8165 L376.3822,408.2179 L380.7028,407.4643 L380.7151,407.5725 L385.192,406.9744 L389.713,406.7637 L394.1941,406.203 L398.6585,405.4961 L403.1368,404.9106 L403.1493,405.0291 L407.7109,404.3716 L412.3303,404.2645 L416.8843,403.5348 L421.4653,403.0613 L426.0373,402.5036 L426.0111,402.2345 L430.6469,401.8725 L435.3144,401.8346 L439.9371,401.3381 L444.5437,400.6771 L449.1726,400.2442 L449.1596,400.1016 L453.7915,399.7251 L458.4003,399.0961 L463.0724,399.1612 L467.7132,398.8828 L472.311,398.1333 L472.3692,398.8327 L481.4596,398.302 L490.4395,396.4423 L499.536,395.9852 L508.5554,394.5996 L517.67,394.36 " fill="none" style="stroke:#8B0000;stroke-width:4.0;stroke-dasharray:7.0,7.0;"/><polygon fill="#8B0000" points="522.62,393.9,522.6434,393.966,520.7175,393.1111,518.9289,392.6432,517.0955,392.0492,515.1151,391.0408,513.3383,390.6061,513.3214,390.5864,514.1051,391.234,514.9738,391.9808,515.9015,392.7966,516.6257,393.3747,517.6349,394.2857,517.7751,394.4057,516.7394,395.0083,516.113,395.9614,515.5365,396.9573,514.6695,397.7044,513.9553,398.5823,513.9662,398.6023,515.6832,397.6365,517.4495,396.7617,519.192,395.843,520.9799,395.0082,522.62,393.9" style="stroke:#8B0000;stroke-width:4.0;"/><text fill="#000000" font-family="Chalkduster" font-size="24" lengthAdjust="spacing" textLength="219" x="234" y="465.7309">(Optional input)</text></g><!--link rocsoss to dssoss--><g id="link_rocsoss_dssoss"><path d="M567.44,409.33 L567.4708,409.4182 L563.6214,410.4707 L559.9528,412.04 L556.2253,413.4411 L552.3042,414.2886 L548.6511,415.9023 L548.6387,415.8701 L546.6997,416.4469 L544.8229,417.1862 L542.9893,418.0387 L541.0066,418.5015 L539.2329,419.51 L539.326,419.7378 L537.2541,420.016 L535.454,420.9591 L533.687,421.9835 L531.7272,422.5357 L529.8688,423.3362 L529.8809,423.364 L528.0115,424.1328 L526.1974,425.0281 L524.3567,425.8624 L522.5668,426.8131 L520.611,427.3842 L520.7378,427.6542 L518.9195,428.512 L517.0195,429.1958 L515.2392,430.1344 L513.4645,431.085 L511.512,431.657 L511.3625,431.3735 L508.1503,433.7704 L504.4458,435.2336 L501.1155,437.4067 L497.3998,438.8488 L494,440.89 L493.9828,440.8649 L491.9627,442.6819 L489.5412,443.9116 L487.3566,445.4879 L485.1918,447.0932 L482.8836,448.4888 L483.0123,448.6216 L481.3639,449.9593 L479.9355,451.5239 L478.1511,452.7213 L476.8977,454.4665 L475.2913,455.8475 L475.4707,456.0123 L473.9892,457.5571 L472.5967,459.1838 L470.7903,460.4303 L469.2874,461.9554 L468.0533,463.7275 L467.8672,463.5234 L466.025,465.5407 L463.9731,467.3279 L462.2253,469.4488 L459.9584,471.0001 L458,472.89 L457.9056,472.7703 L456.3768,474.2993 L454.4444,475.3165 L452.7989,476.6977 L451.4343,478.435 L449.5697,479.5381 L449.6873,479.692 L448.0275,481.1278 L446.002,482.0852 L444.4345,483.642 L442.7673,485.0681 L440.8675,486.19 L440.7429,486.021 L437.3587,488.7257 L433.9337,491.3751 L430.589,494.1331 L426.9324,496.4685 L423.45,499.04 " fill="none" style="stroke:#8B0000;stroke-width:4.0;"/><polygon fill="#8B0000" points="419.65,502.49,419.6643,502.5586,421.5502,501.9532,423.5199,501.7498,425.4623,501.4155,427.3151,500.6507,429.292,500.4819,429.2878,500.4563,428.1525,500.1592,427.0382,499.9911,425.9385,499.9125,424.7885,499.5252,423.709,499.5704,423.8912,499.6001,423.684,498.4199,424.0086,497.3266,424.398,496.2438,424.41,495.0994,424.6205,493.9874,424.6402,493.9989,423.6172,495.6826,422.6837,497.4185,421.707,499.1292,420.8126,500.888,419.65,502.49" style="stroke:#8B0000;stroke-width:4.0;"/><text fill="#000000" font-family="Chalkduster" font-size="24" lengthAdjust="spacing" textLength="301" x="495" y="465.7309">Generate (or update)</text></g><!--link docs to rocsoss--><g id="link_docs_rocsoss"><path d="M412.08,58.05 L412.1732,58.0565 L411.6273,61.9221 L411.6278,65.8255 L411.4504,69.7166 L410.6879,73.5673 L410.7352,77.474 L410.7007,77.4726 L410.457,79.7173 L410.3874,81.9688 L410.4386,84.2251 L410.0731,86.465 L410.2913,88.7279 L410.5374,88.732 L409.9709,91.1454 L410.1227,93.5707 L410.3621,95.9975 L410.0916,98.4158 L410.0894,100.8386 L410.1197,100.8388 L410.0966,103.4063 L410.2116,105.9749 L410.26,108.5429 L410.4354,111.112 L410.1966,113.6777 L410.4946,113.6884 L410.595,116.3763 L410.5031,119.0574 L410.6926,121.7485 L410.8953,124.4401 L410.6801,127.1167 L410.3603,127.0954 L411.1664,129.9189 L410.9194,132.6722 L411.4731,135.4789 L411.2022,138.2306 L411.6072,141.0274 L411.5769,141.0243 L412.2227,143.9112 L412.1607,146.7268 L412.5164,149.5844 L412.9072,152.4456 L413.045,155.2812 L413.2282,155.3068 L413.4464,158.1747 L413.9778,161.0863 L414.0025,163.9273 L414.7828,166.8736 L415.0608,169.7499 L415.3005,169.7937 L415.7874,172.6965 L416.3932,175.6209 L416.4462,178.4443 L416.9045,181.3418 L417.7218,184.305 L417.4528,184.2425 L418.371,187.2017 L418.9861,190.0904 L420.0408,193.0814 L420.3449,195.8979 L421.0952,198.8181 L420.9487,198.7757 L422.0232,201.7148 L422.4717,204.4727 L423.3653,207.3595 L424.6946,210.3725 L425.2481,213.1608 L425.4305,213.2257 L426.5556,216.0791 L427.1133,218.7304 L428.3816,221.6347 L429.4951,224.4839 L430.2479,227.2047 L430.0553,227.1211 L431.3916,229.9111 L432.6647,232.6737 L434.0618,235.4902 L434.9772,238.0974 L436.1616,240.8215 L436.3434,240.9175 L437.323,243.3188 L438.6534,245.9055 L440.4966,248.7627 L441.3958,251.1217 L443.0566,253.8827 L443.247,254.0049 L444.7226,256.4078 L446.1338,258.7693 L447.6903,261.2242 L449.5829,263.8947 L451,266.26 L450.896,266.177 L453.6642,269.5036 L455.7253,272.2656 L458.5904,275.6695 L461.0029,278.712 L463.2933,281.6571 L463.3708,281.7336 L466.0941,284.4917 L469.0948,287.5238 L471.845,290.3084 L474.4904,292.9894 L477.2228,295.7564 L477.2996,295.8476 L480.2355,298.2815 L483.528,301.1387 L486.4171,303.5173 L489.4722,306.0927 L492.4728,308.6034 L492.3154,308.3836 L495.6189,310.7851 L499.112,313.4513 L502.3368,315.7429 L505.4654,317.9002 L508.7275,320.2438 L508.6522,320.122 L512.0651,322.2568 L515.3446,324.1761 L518.9907,326.6881 L522.4554,328.9067 L525.6713,330.723 L525.7826,330.9288 L529.2816,332.8674 L532.5692,334.415 L536.08,336.3753 L539.4431,338.0624 L542.9884,340.0867 L543.0428,340.2006 L546.5106,341.8445 L550.0441,343.6258 L553.3694,344.9709 L556.8625,346.6679 L560.3632,348.3805 L560.4403,348.5619 L563.8852,350.0665 L567.1209,351.0786 L570.5996,352.6629 L574.0826,354.2572 L577.48,355.65 " fill="none" style="stroke:#8B0000;stroke-width:4.0;"/><polygon fill="#8B0000" points="581.94,357.8,581.9899,357.8492,580.4586,356.3005,579.2197,355.0402,577.8856,353.686,576.2383,352.023,575.0245,350.7874,575.0008,350.7771,575.3465,351.7676,575.8119,352.8104,576.3605,353.8895,576.6224,354.8435,577.2859,355.9726,577.3597,356.1418,576.1649,356.2323,575.1855,356.8167,574.2323,357.4614,573.1263,357.7555,572.1007,358.234,572.1017,358.2567,574.0681,358.1366,576.039,358.1199,578.0078,358.0532,579.9807,358.0818,581.94,357.8" style="stroke:#8B0000;stroke-width:4.0;"/></g><!--link rocsoss to rop--><g id="link_rocsoss_rop"><path d="M738.15,409.27 L738.187,409.3558 L741.2614,410.4758 L744.5529,412.0986 L747.7736,413.5576 L750.7619,414.4783 L754.072,416.1442 L754.0573,416.113 L757.2065,417.4907 L760.43,419.0259 L763.7051,420.6705 L766.8022,421.938 L770.1488,423.7338 L770.2628,423.9518 L773.1768,425.1381 L776.4239,426.9609 L779.7117,428.8614 L782.7629,430.3101 L785.9386,431.9964 L785.954,432.0225 L788.9437,433.7629 L792.0035,435.6222 L795.0295,437.4241 L798.1201,439.3354 L801,440.89 L801.1806,441.1273 L803.3316,442.7653 L805.366,444.2502 L807.571,445.9592 L809.784,447.6786 L811.7438,449.0653 L811.5114,448.8445 L813.4286,450.8155 L814.5807,452.0594 L816.3145,453.8561 L817.4493,455.0835 L819.075,456.7775 L819.0528,456.7567 L820.774,458.5568 L821.9767,459.87 L823.4854,461.4706 L825.0197,463.0953 L826.3688,464.5459 L826.483,464.6915 L828.4939,466.2134 L830.7001,467.984 L832.5904,469.3522 L834.9518,471.3206 L837,472.89 L837.1286,473.0969 L839.4801,474.535 L841.8954,476.0758 L844.014,477.1392 L846.3501,478.5526 L848.8789,480.2759 L848.7431,480.0355 L851.3485,481.655 L853.8009,483.0035 L856.4752,484.7451 L858.7706,485.8156 L861.2913,487.285 L861.2209,487.1497 L863.8719,488.6928 L866.2222,489.6577 L868.7863,491.0337 L871.5597,492.8121 L873.9605,493.8741 L874.0449,494.0483 L876.6327,495.3931 L878.9579,496.1957 L881.612,497.6773 L884.1945,499.011 L886.61,500 " fill="none" style="stroke:#8B0000;stroke-width:4.0;"/><polygon fill="#8B0000" points="890.77,502.39,890.8227,502.4361,889.3696,500.8161,888.2257,499.4664,886.9811,498.0287,885.4053,496.3015,884.2879,494.975,884.2636,494.9661,884.5437,495.9884,884.9463,497.0556,885.4342,498.1541,885.6284,499.1449,886.234,500.2865,886.2975,500.4598,885.0994,500.4785,884.0867,501.0031,883.0966,501.5894,881.9749,501.8165,880.9224,502.2326,880.9228,502.2553,882.8917,502.2534,884.8624,502.3551,886.8322,502.4067,888.8036,502.5537,890.77,502.39" style="stroke:#8B0000;stroke-width:4.0;"/><text fill="#000000" font-family="Chalkduster" font-size="24" lengthAdjust="spacing" textLength="236" x="838" y="465.7309">Generate profile</text></g><!--link rocsoss to rop--><g id="link_rocsoss_rop"><path d="M812.37,384.93 L812.3738,385.0233 L816.3178,384.9062 L820.2839,385.3363 L824.2429,385.5882 L828.1781,385.2541 L832.1461,385.7312 L832.1443,385.6967 L836.1693,385.75 L840.2032,385.9772 L844.2434,386.3253 L848.2621,386.2568 L852.3109,386.7718 L852.3266,387.0174 L856.3692,386.7534 L860.4578,387.2064 L864.5519,387.7469 L868.6134,387.7784 L872.6921,388.0776 L872.6945,388.1079 L876.7761,388.3828 L880.8685,388.7954 L884.9557,389.1416 L889.0528,389.6145 L893.1177,389.6744 L893.1456,389.9713 L897.2055,390.3576 L901.2473,390.5524 L905.3156,391.0275 L909.385,391.5158 L913.4153,391.5878 L913.3793,391.2693 L917.4486,392.3386 L921.3995,392.3591 L925.4404,393.177 L929.3886,393.1737 L933.4128,393.8435 L933.4087,393.8133 L937.3617,394.6949 L941.22,394.8716 L945.1342,395.4642 L949.053,396.0917 L952.938,396.4674 L952.9672,396.65 L956.7139,397.0692 L960.5105,397.8005 L964.2263,398.0267 L968.0626,399.0063 L971.8187,399.485 L971.8643,399.7243 L975.4685,400.3665 L979.0953,401.1275 L982.6171,401.3364 L986.2158,401.95 L989.8828,402.9222 L989.8216,402.6529 L993.292,403.6731 L996.6935,404.39 L1000.1951,405.5469 L1003.5257,405.9524 L1006.958,406.8046 L1006.9178,406.6575 L1010.1676,407.7731 L1013.2454,408.2601 L1016.4456,409.1941 L1019.7654,410.5655 L1022.8721,411.158 L1022.9332,411.3417 L1025.8913,412.4378 L1028.6593,412.9624 L1031.6654,414.2027 L1034.6196,415.2871 L1037.453,416.0081 L1037.3732,415.8139 L1040.0519,417.0432 L1042.7044,418.2089 L1045.4083,419.4996 L1047.9126,420.3044 L1050.5284,421.3807 L1050.6232,421.5631 L1052.6945,422.3464 L1054.9487,423.4818 L1057.4702,425.1317 L1059.4997,425.8344 L1061.9262,427.3013 L1062.0534,427.4884 L1063.8874,428.6762 L1065.6784,429.8007 L1067.5665,431.068 L1069.6792,432.6655 L1071.4741,433.7959 L1071.3828,433.6991 L1073.1597,435.4061 L1074.3159,436.4548 L1076.1779,438.252 L1077.6425,439.6278 L1079,440.89 L1079.1,440.9332 L1080.5015,444.3311 L1082.2609,447.8835 L1083.6969,451.2964 L1084.9978,454.6508 L1086.4109,458.0538 L1086.5213,458.0988 L1085.0732,461.1736 L1084.1373,464.4577 L1082.6221,467.505 L1081.3452,470.6498 L1079.99,473.7625 L1079.7989,473.5713 L1078.4121,475.0849 L1077.2555,476.8289 L1075.7732,478.247 L1074.174,479.5482 L1072.7369,481.0115 L1072.6525,480.8958 L1070.812,482.2956 L1068.822,483.4905 L1067.2429,485.2485 L1065.4604,486.7278 L1063.3991,487.825 L1063.5164,488.0274 L1061.3609,489.3631 L1058.9826,490.3141 L1056.8396,491.671 L1054.5408,492.7593 L1052.4342,494.1791 L1052.4892,494.2928 L1050.0551,495.452 L1047.6874,496.7485 L1045.1092,497.6098 L1042.7008,498.8221 L1040.3,500.05 " fill="none" style="stroke:#8B0000;stroke-width:4.0;"/><polygon fill="#8B0000" points="1035.86,502.41,1035.8605,502.4801,1037.8288,502.2856,1039.7999,502.5018,1041.7701,502.5843,1043.7372,502.227,1045.7086,502.4785,1045.6992,502.4544,1044.6036,501.9327,1043.5557,501.5326,1042.541,501.217,1041.412,500.6101,1040.4431,500.4112,1040.6149,500.4786,1040.661,499.2813,1041.2087,498.2808,1041.8175,497.3044,1042.0704,496.1883,1042.5105,495.1456,1042.5272,495.161,1041.1725,496.5913,1039.8942,498.0915,1038.579,499.5581,1037.3341,501.089,1035.86,502.41" style="stroke:#8B0000;stroke-width:4.0;"/><text fill="#000000" font-family="Chalkduster" font-size="24" lengthAdjust="spacing" textLength="236" x="1087" y="465.7309">Generate profile</text></g><!--SRC=[ZPF1JiCm38RlUGgpqtPeTz-1ouOueI7ASH8ogRj5QfCeSSKcnBlZj5tNCO6uLAxp-ulj_hqpLjTjIMyDsXFaon8PCubnJmrPpYAVQihvo4e5qensNnFC7exOU0bUjjaw81Cy4MCgXOtJRIgSnmLKmJM0KBe6ZPq1HWbrL5UaaL3e0pK8hyxLiTDoYk1pAkurkGlxGTu9euj_4R4i3HjdUsfmUYfErwrIKY12qi5uFkjIIdrTTRlfHiaAJzfKHiDpS9MfQQZmjrBef1gARL7q6uWTLXwGbUx3PlVZxIimrhSCIXA_7Qg-7l9yUZJV-ZGXrhreeLHQD6Gzv49HwbnpmNkfVoHBtSfyFmyezL_fZMneSAASkm2j5tVG0fHradbtp68DLmtGjRCiougmhZ56Ye2sJBlr5DZ8Qo0VA8ghZDtlB1z8vcGAKROjOoTEob5lokGygT_PEBfbENeYCHBoPnzZryDdYyCNtjcfvzA_CDZg6m00]--></g></svg>