<?xml version="1.0" encoding="us-ascii" standalone="no"?><svg xmlns="http://www.w3.org/2000/svg" xmlns:xlink="http://www.w3.org/1999/xlink" contentStyleType="text/css" height="692px" preserveAspectRatio="none" style="width:1207px;height:692px;background:#FFFFFF;" version="1.1" viewBox="0 0 1207 692" width="1207px" zoomAndPan="magnify"><defs/><g><!--cluster tools--><g id="cluster_tools"><polygon fill="none" points="454.5,166.63,454.5,166.8402,464.5541,166.2157,474.6081,166.8233,484.6622,167.0297,494.7162,165.9166,504.7703,166.5523,514.8243,166.2035,524.8784,166.2465,534.9324,166.5618,544.9865,165.9386,555.0405,167.1836,565.0946,165.9997,575.1486,166.4322,585.2027,167.0619,595.2568,166.5442,605.3108,166.6982,615.3649,166.5981,625.4189,166.8085,635.473,166.8691,645.527,167.2157,655.5811,167.3011,665.6351,167.3093,675.6892,166.8846,685.7432,167.0936,695.7973,167.3322,705.8514,165.9088,715.9054,167.3085,725.9595,166.3335,736.0135,167.1638,746.0676,166.135,756.1216,166.5615,766.1757,167.3716,776.2297,166.5813,786.2838,166.7353,796.3378,166.9686,806.3919,167.0462,816.4459,166.6261,826.5,166.9172,836.5541,166.0576,846.6081,166.9144,856.6622,167.1782,866.7162,167.0745,876.7703,167.243,886.8243,166.1469,896.8784,165.9778,906.9324,166.0086,916.9865,166.5711,927.0405,166.4335,937.0946,167.3114,947.1486,166.4553,957.2027,166.2869,967.2568,166.8583,977.3108,165.9632,987.3649,166.1109,997.4189,167.279,1007.473,167.0657,1017.527,167.3645,1027.5811,166.3082,1037.6351,166.9492,1047.6892,167.2204,1057.7432,166.1576,1067.7973,166.5341,1077.8514,166.756,1087.9054,167.2818,1097.9595,166.6258,1108.0135,167.0926,1118.0676,166.0762,1128.1216,165.9527,1138.1757,167.1336,1148.2297,165.9131,1158.2838,167.139,1168.3378,166.8366,1178.3919,166.3621,1188.4459,166.2762,1198.5,166.63,1198.5585,166.7713,1198.8154,166.6843,1199.2826,167.1052,1199.4902,166.8991,1199.993,167.4059,1200.2678,167.3622,1200.4169,167.424,1200.4897,167.747,1200.5752,168.0754,1200.9309,168.5156,1201.0425,168.8547,1201,169.13,1201.1693,169.13,1201.2682,179.2604,1200.8697,189.3908,1201.7165,199.5212,1201.1549,209.6516,1201.1726,219.782,1200.3916,229.9124,1200.5948,240.0428,1201.5307,250.1732,1201.4298,260.3036,1200.9571,270.434,1200.6778,280.5644,1200.7811,290.6948,1200.3138,300.8252,1201.4147,310.9556,1201.7396,321.086,1201.5264,331.2164,1201.6949,341.3468,1200.8633,351.4772,1201.0872,361.6076,1200.6124,371.738,1201.284,381.8684,1201.2468,391.9988,1201.5524,402.1292,1200.7703,412.2596,1201,422.39,1200.9586,422.3729,1200.9901,422.8001,1200.8818,423.1695,1200.4028,423.3853,1200.3545,423.7795,1200.2678,424.1578,1200.2868,424.2037,1199.8363,424.1161,1199.6057,424.5595,1199.24,424.6766,1198.8407,424.7125,1198.5,424.89,1198.5,425.0322,1188.4459,425.6187,1178.3919,424.5771,1168.3378,425.205,1158.2838,425.1756,1148.2297,425.0058,1138.1757,425.0309,1128.1216,425.0035,1118.0676,424.2658,1108.0135,424.4892,1097.9595,424.4285,1087.9054,424.9538,1077.8514,424.9781,1067.7973,425.0517,1057.7432,424.599,1047.6892,424.8225,1037.6351,424.7698,1027.5811,425.4669,1017.527,425.3166,1007.473,424.4045,997.4189,424.8171,987.3649,424.3128,977.3108,425.1784,967.2568,425.4985,957.2027,425.4346,947.1486,424.4544,937.0946,425.354,927.0405,424.1472,916.9865,425.0902,906.9324,424.5907,896.8784,424.9867,886.8243,425.1303,876.7703,425.3621,866.7162,424.1701,856.6622,425.3655,846.6081,425.0682,836.5541,425.2453,826.5,425.6378,816.4459,424.8955,806.3919,425.0653,796.3378,425.1034,786.2838,425.0872,776.2297,424.8892,766.1757,425.6007,756.1216,424.2803,746.0676,425.4553,736.0135,424.266,725.9595,424.3497,715.9054,424.93,705.8514,424.9183,695.7973,424.3972,685.7432,425.3037,675.6892,424.9989,665.6351,425.6167,655.5811,425.5571,645.527,424.4417,635.473,424.4921,625.4189,424.7608,615.3649,425.2455,605.3108,425.293,595.2568,425.1912,585.2027,424.548,575.1486,425.5264,565.0946,425.5238,555.0405,424.8427,544.9865,424.6509,534.9324,424.4886,524.8784,424.6754,514.8243,425.0274,504.7703,424.8216,494.7162,424.4722,484.6622,425.3774,474.6081,424.4311,464.5541,425.3924,454.5,424.89,454.5545,425.0216,454.1939,424.8581,453.8812,424.8104,453.408,424.3749,453.0474,424.2116,452.7322,424.1578,452.892,424.224,452.402,423.7281,452.3673,423.4208,452.3285,423.1118,452.1676,422.7523,452,422.39,451.6415,422.39,451.957,412.2596,452.7446,402.1292,452.6485,391.9988,451.4037,381.8684,452.0785,371.738,451.4861,361.6076,451.9737,351.4772,452.293,341.3468,452.4199,331.2164,451.3353,321.086,452.4005,310.9556,452.0084,300.8252,451.4447,290.6948,451.5289,280.5644,452.3266,270.434,452.2499,260.3036,451.9836,250.1732,451.3279,240.0428,452.6581,229.9124,451.6882,219.782,451.4719,209.6516,451.9327,199.5212,452.5897,189.3908,452.6154,179.2604,452,169.13,452.0108,169.1345,452.0999,168.7572,452.3452,168.4446,452.4967,168.0931,452.4294,167.651,452.7322,167.3622,452.785,167.4897,453.1571,167.3879,453.4118,167.0029,453.7381,166.7907,454.2325,166.9842,454.5,166.63" style="stroke:#181818;stroke-width:4.0;"/><text fill="#000000" font-family="Chalkduster" font-size="24" font-weight="bold" lengthAdjust="spacing" textLength="323" x="665" y="192.4709">RO-Crate Schema Tools</text></g><!--entity sos--><g id="elem_sos"><polygon fill="none" points="905.5,215.63,905.5,215.8402,915.3929,215.2157,925.2857,215.8233,935.1786,216.0297,945.0714,214.9166,954.9643,215.5523,964.8571,215.2035,974.75,215.2465,984.6429,215.5618,994.5357,214.9386,1004.4286,216.1836,1014.3214,214.9997,1024.2143,215.4322,1034.1071,216.0619,1044,215.5442,1053.8929,215.6982,1063.7857,215.5981,1073.6786,215.8085,1083.5714,215.8691,1093.4643,216.2157,1103.3571,216.3011,1113.25,216.3093,1123.1429,215.8846,1133.0357,216.0936,1142.9286,216.3322,1152.8214,214.9088,1162.7143,216.3085,1172.6071,215.3335,1182.5,215.63,1182.5681,215.7944,1182.7904,215.624,1183.1984,215.9018,1183.6553,216.2977,1183.908,216.2008,1184.2678,216.3622,1184.3002,216.3757,1184.5185,216.759,1184.6888,217.1224,1184.7059,217.4224,1184.942,217.8131,1185,218.13,1184.4276,218.13,1185.2844,227.256,1185.5482,236.3819,1185.4445,245.5079,1185.613,254.6339,1185,263.7598,1184.8512,263.6982,1184.6527,264.0302,1184.5157,264.3877,1184.5425,264.813,1184.3537,265.149,1184.2678,265.5276,1184.3547,265.7374,1183.8919,265.6203,1183.5169,265.7148,1183.2362,266.0372,1182.7685,265.908,1182.5,266.2598,1182.5,265.7407,1172.6071,266.9088,1162.7143,266.6955,1152.8214,266.9943,1142.9286,265.938,1133.0357,266.579,1123.1429,266.8503,1113.25,265.7874,1103.3571,266.164,1093.4643,266.3858,1083.5714,266.9116,1073.6786,266.2556,1063.7857,266.7224,1053.8929,265.706,1044,265.5826,1034.1071,266.7634,1024.2143,265.5429,1014.3214,266.7688,1004.4286,266.4665,994.5357,265.9919,984.6429,265.9061,974.75,266.7186,964.8571,265.9605,954.9643,266.8517,945.0714,265.7071,935.1786,266.8773,925.2857,266.7441,915.3929,266.5048,905.5,266.2598,905.506,266.2744,905.2391,266.3372,904.8712,266.1559,904.4609,265.8726,904.12,265.7566,903.7322,265.5276,903.6921,265.511,903.8064,265.2654,903.487,264.8402,903.346,264.489,902.9591,264.0358,903,263.7598,902.5948,263.7598,903.5307,254.6339,903.4298,245.5079,902.9571,236.3819,902.6778,227.256,903,218.13,902.9326,218.1021,902.9351,217.6889,903.4206,217.4758,903.6671,217.1637,903.7479,216.7829,903.7322,216.3622,903.8209,216.5762,904.0683,216.1737,904.4505,216.0962,904.7435,215.8035,905.1827,215.8639,905.5,215.63" style="stroke:#181818;stroke-width:4.0;"/><text fill="#000000" font-family="Chalkduster" font-size="24" lengthAdjust="spacing" textLength="262" x="913" y="249.4709">Schema.org Schema</text></g><!--entity roc--><g id="elem_roc"><polygon fill="none" points="471,215.63,471,215.8402,481.1026,215.2157,491.2051,215.8233,501.3077,216.0297,511.4103,214.9166,521.5128,215.5523,531.6154,215.2035,541.7179,215.2465,551.8205,215.5618,561.9231,214.9386,572.0256,216.1836,582.1282,214.9997,592.2308,215.4322,602.3333,216.0619,612.4359,215.5442,622.5385,215.6982,632.641,215.5981,642.7436,215.8085,652.8462,215.8691,662.9487,216.2157,673.0513,216.3011,683.1538,216.3093,693.2564,215.8846,703.359,216.0936,713.4615,216.3322,723.5641,214.9088,733.6667,216.3085,743.7692,215.3335,753.8718,216.1638,763.9744,215.135,774.0769,215.5615,784.1795,216.3716,794.2821,215.5813,804.3846,215.7353,814.4872,215.9686,824.5897,216.0462,834.6923,215.6261,844.7949,215.9172,854.8974,215.0576,865,215.63,865.0363,215.7176,865.4235,215.9453,865.7638,216.0598,866.1389,216.2581,866.3526,216.067,866.7678,216.3622,866.5669,216.279,866.7228,216.6365,867.0425,217.0618,867.1466,217.3978,867.5634,217.8634,867.5,218.13,867.3253,218.13,867.1569,227.256,867.7283,236.3819,866.8332,245.5079,866.9809,254.6339,867.5,263.7598,867.6999,263.8426,867.4877,264.169,867.4333,264.5606,866.9616,264.7794,867.0125,265.2148,866.7678,265.5276,866.8431,265.7094,866.354,265.5286,866.0484,265.791,865.7232,266.0057,865.4367,266.3141,865,266.2598,865,266.2556,854.8974,266.7224,844.7949,265.706,834.6923,265.5826,824.5897,266.7634,814.4872,265.5429,804.3846,266.7688,794.2821,266.4665,784.1795,265.9919,774.0769,265.9061,763.9744,266.7186,753.8718,265.9605,743.7692,266.8517,733.6667,265.7071,723.5641,266.8773,713.4615,266.7441,703.359,266.5048,693.2564,266.3071,683.1538,266.9864,673.0513,266.8734,662.9487,266.4291,652.8462,266.528,642.7436,266.1296,632.641,266.9763,622.5385,266.4147,612.4359,266.4324,602.3333,265.6515,592.2308,265.8546,582.1282,266.7906,572.0256,266.6896,561.9231,266.2169,551.8205,265.9377,541.7179,266.0409,531.6154,265.5737,521.5128,266.6746,511.4103,266.9994,501.3077,266.7862,491.2051,266.9548,481.1026,266.1231,471,266.2598,471.0111,266.2867,470.597,265.994,470.3291,266.0544,469.9708,265.8965,469.6562,265.8442,469.2322,265.5276,469.1615,265.4983,469.0444,265.1569,469.0759,264.8771,468.9676,264.5393,468.4886,264.048,468.5,263.7598,468.3061,263.7598,468.6493,254.6339,467.8892,245.5079,468.8534,236.3819,468.758,227.256,468.5,218.13,468.469,218.1171,468.6903,217.7946,469.0173,217.5158,468.843,217.0294,469.1828,216.756,469.2322,216.3622,469.2687,216.4502,469.6006,216.2514,469.9573,216.1127,470.3074,215.9578,470.5668,215.5842,471,215.63" style="stroke:#181818;stroke-width:4.0;"/><text fill="#000000" font-family="Chalkduster" font-size="24" lengthAdjust="spacing" textLength="379" x="478.5" y="249.4709">RO-Crate Schema additions</text></g><!--entity rocsoss--><g id="elem_rocsoss"><polygon fill="none" points="526.5,358.26,526.5,358.4702,536.6071,357.8457,546.7143,358.4533,556.8214,358.6597,566.9286,357.5466,577.0357,358.1823,587.1429,357.8335,597.25,357.8765,607.3571,358.1918,617.4643,357.5686,627.5714,358.8136,637.6786,357.6297,647.7857,358.0622,657.8929,358.6919,668,358.1742,678.1071,358.3282,688.2143,358.2281,698.3214,358.4385,708.4286,358.4991,718.5357,358.8457,728.6429,358.9311,738.75,358.9393,748.8571,358.5146,758.9643,358.7236,769.0714,358.9622,779.1786,357.5388,789.2857,358.9385,799.3929,357.9635,809.5,358.26,809.5681,358.4244,809.7904,358.254,810.1984,358.5318,810.6553,358.9277,810.908,358.8308,811.2678,358.9922,811.3002,359.0057,811.5185,359.389,811.6888,359.7524,811.7059,360.0524,811.942,360.4431,812,360.76,811.4276,360.76,812.2844,369.886,812.5482,379.0119,812.4445,388.1379,812.613,397.2639,812,406.3898,811.8512,406.3282,811.6527,406.6602,811.5157,407.0177,811.5425,407.443,811.3537,407.779,811.2678,408.1576,811.3547,408.3674,810.8919,408.2503,810.5169,408.3448,810.2362,408.6672,809.7685,408.538,809.5,408.8898,809.5,408.3707,799.3929,409.5388,789.2857,409.3255,779.1786,409.6243,769.0714,408.568,758.9643,409.209,748.8571,409.4803,738.75,408.4174,728.6429,408.794,718.5357,409.0158,708.4286,409.5416,698.3214,408.8856,688.2143,409.3524,678.1071,408.336,668,408.2126,657.8929,409.3934,647.7857,408.1729,637.6786,409.3988,627.5714,409.0965,617.4643,408.6219,607.3571,408.5361,597.25,409.3486,587.1429,408.5905,577.0357,409.4817,566.9286,408.3371,556.8214,409.5073,546.7143,409.3741,536.6071,409.1348,526.5,408.8898,526.506,408.9044,526.2391,408.9672,525.8712,408.7859,525.4609,408.5026,525.12,408.3866,524.7322,408.1576,524.6921,408.141,524.8064,407.8954,524.487,407.4702,524.346,407.119,523.9591,406.6658,524,406.3898,523.5948,406.3898,524.5307,397.2639,524.4298,388.1379,523.9571,379.0119,523.6778,369.886,524,360.76,523.9326,360.7321,523.9351,360.3189,524.4206,360.1058,524.6671,359.7937,524.7479,359.4129,524.7322,358.9922,524.8209,359.2062,525.0683,358.8037,525.4505,358.7262,525.7435,358.4335,526.1827,358.4939,526.5,358.26" style="stroke:#181818;stroke-width:4.0;"/><text fill="#000000" font-family="Chalkduster" font-size="24" lengthAdjust="spacing" textLength="268" x="534" y="392.1009">Tool: rocsoss script</text></g><!--entity docs--><g id="elem_docs"><polygon fill="none" points="9.5,7,9.5,7.2102,19.5123,6.5857,29.5247,7.1933,39.537,7.3997,49.5494,6.2866,59.5617,6.9223,69.5741,6.5735,79.5864,6.6165,89.5988,6.9318,99.6111,6.3086,109.6235,7.5536,119.6358,6.3697,129.6481,6.8022,139.6605,7.4319,149.6728,6.9142,159.6852,7.0682,169.6975,6.9681,179.7099,7.1785,189.7222,7.2391,199.7346,7.5857,209.7469,7.6711,219.7593,7.6793,229.7716,7.2546,239.784,7.4636,249.7963,7.7022,259.8086,6.2788,269.821,7.6785,279.8333,6.7035,289.8457,7.5338,299.858,6.505,309.8704,6.9315,319.8827,7.7416,329.8951,6.9513,339.9074,7.1053,349.9198,7.3386,359.9321,7.4162,369.9444,6.9961,379.9568,7.2872,389.9691,6.4276,399.9815,7.2844,409.9938,7.5482,420.0062,7.4445,430.0185,7.613,440.0309,6.5169,450.0432,6.3478,460.0556,6.3786,470.0679,6.9411,480.0802,6.8035,490.0926,7.6814,500.1049,6.8253,510.1173,6.6569,520.1296,7.2283,530.142,6.3332,540.1543,6.4809,550.1667,7.649,560.179,7.4357,570.1914,7.7345,580.2037,6.6782,590.216,7.3192,600.2284,7.5904,610.2407,6.5276,620.2531,6.9041,630.2654,7.126,640.2778,7.6518,650.2901,6.9958,660.3025,7.4626,670.3148,6.4462,680.3272,6.3227,690.3395,7.5036,700.3519,6.2831,710.3642,7.509,720.3765,7.2066,730.3889,6.7321,740.4012,6.6462,750.4136,7.4588,760.4259,6.7007,770.4383,7.5919,780.4506,6.4473,790.463,7.6174,800.4753,7.4843,810.4877,7.245,820.5,7,820.506,7.0145,820.9462,7.3702,821.2854,7.4819,821.5823,7.4915,821.9484,7.6684,822.2678,7.7322,822.2277,7.7156,822.6349,8.1772,822.6084,8.4591,822.7603,8.8149,822.6662,9.0688,823,9.5,822.5948,9.5,823.5307,18.626,823.4298,27.7519,822.9571,36.8779,822.6778,46.0039,823,55.1298,822.9326,55.1019,822.6422,55.3959,822.8348,55.8898,822.7884,56.2848,822.5763,56.6112,822.2678,56.8976,822.3564,57.1116,821.8968,57.0019,821.5718,57.2174,821.1577,57.2176,820.8898,57.5709,820.5,57.6298,820.5,57.8766,810.4877,58.1822,800.4753,57.4002,790.463,57.4954,780.4506,58.0733,770.4383,58.1972,760.4259,57.1173,750.4136,57.436,740.4012,57.7791,730.3889,57.019,720.3765,57.9832,710.3642,57.8878,700.3519,57.5291,690.3395,57.7721,680.3272,58.3585,670.3148,57.317,660.3025,57.9448,650.2901,57.9155,640.2778,57.7456,630.2654,57.7708,620.2531,57.7433,610.2407,57.0057,600.2284,57.229,590.216,57.1683,580.2037,57.6937,570.1914,57.718,560.179,57.7916,550.1667,57.3389,540.1543,57.5623,530.142,57.5096,520.1296,58.2067,510.1173,58.0564,500.1049,57.1443,490.0926,57.5569,480.0802,57.0526,470.0679,57.9182,460.0556,58.2383,450.0432,58.1744,440.0309,57.1943,430.0185,58.0938,420.0062,56.887,409.9938,57.83,399.9815,57.3305,389.9691,57.7266,379.9568,57.8702,369.9444,58.1019,359.9321,56.9099,349.9198,58.1053,339.9074,57.808,329.8951,57.9852,319.8827,58.3776,309.8704,57.6353,299.858,57.8051,289.8457,57.8433,279.8333,57.8271,269.821,57.629,259.8086,58.3405,249.7963,57.0201,239.784,58.1951,229.7716,57.0058,219.7593,57.0895,209.7469,57.6698,199.7346,57.6581,189.7222,57.137,179.7099,58.0435,169.6975,57.7387,159.6852,58.3565,149.6728,58.2969,139.6605,57.1816,129.6481,57.2319,119.6358,57.5007,109.6235,57.9854,99.6111,58.0328,89.5988,57.931,79.5864,57.2879,69.5741,58.2662,59.5617,58.2636,49.5494,57.5826,39.537,57.3908,29.5247,57.2284,19.5123,57.4153,9.5,57.6298,9.5175,57.6722,9.1377,57.4623,8.7396,57.2083,8.5015,57.3406,8.0272,56.9027,7.7322,56.8976,7.8869,56.9617,7.7174,56.5985,7.5539,56.2379,7.5062,55.9253,7.0707,55.452,7,55.1298,6.6994,55.1298,7.5189,46.0039,6.4031,36.8779,6.766,27.7519,7.1155,18.626,7,9.5,7.0212,9.5088,7.0361,9.1007,7.2797,8.7874,7.6686,8.5343,7.7855,8.1685,7.7322,7.7322,7.6562,7.5486,8.0958,7.61,8.3738,7.2811,8.7895,7.2848,9.1838,7.2367,9.5,7" style="stroke:#181818;stroke-width:4.0;"/><text fill="#000000" font-family="Chalkduster" font-size="24" lengthAdjust="spacing" textLength="796" x="17" y="40.8409">Example RO-Crate Metadata Document(s) from a domain</text></g><!--entity rop--><g id="elem_rop"><polygon fill="none" points="497,502.89,497,503.1002,507.0588,502.4757,517.1176,503.0833,527.1765,503.2897,537.2353,502.1766,547.2941,502.8123,557.3529,502.4635,567.4118,502.5065,577.4706,502.8218,587.5294,502.1986,597.5882,503.4436,607.6471,502.2597,617.7059,502.6922,627.7647,503.3219,637.8235,502.8042,647.8824,502.9582,657.9412,502.8581,668,503.0685,678.0588,503.1291,688.1176,503.4757,698.1765,503.5611,708.2353,503.5693,718.2941,503.1446,728.3529,503.3536,738.4118,503.5922,748.4706,502.1688,758.5294,503.5685,768.5882,502.5935,778.6471,503.4238,788.7059,502.395,798.7647,502.8215,808.8235,503.6316,818.8824,502.8413,828.9412,502.9953,839,502.89,839.0432,502.9943,839.4066,503.1646,839.7066,503.1817,840.0973,503.4178,840.3412,503.2995,840.7678,503.6222,840.8553,503.6585,841.083,504.0457,841.1976,504.386,841.3959,504.7611,841.2048,504.9748,841.5,505.39,840.8478,505.39,840.8786,514.516,841.4411,523.6419,841.3035,532.7679,842.1814,541.8939,841.5,551.0198,841.4462,550.9976,841.2479,551.3296,841.2774,551.7561,840.8553,551.9954,840.7543,552.3678,840.7678,552.7876,840.8505,552.9875,840.4698,553.0682,840.1544,553.3067,839.6661,553.1278,839.3943,553.4717,839,553.5198,839,554.1103,828.9412,553.0474,818.8824,553.424,808.8235,553.6458,798.7647,554.1716,788.7059,553.5156,778.6471,553.9824,768.5882,552.966,758.5294,552.8426,748.4706,554.0234,738.4118,552.8029,728.3529,554.0288,718.2941,553.7265,708.2353,553.2519,698.1765,553.1661,688.1176,553.9786,678.0588,553.2205,668,554.1117,657.9412,552.9671,647.8824,554.1373,637.8235,554.0041,627.7647,553.7648,617.7059,553.5671,607.6471,554.2464,597.5882,554.1334,587.5294,553.6891,577.4706,553.788,567.4118,553.3896,557.3529,554.2363,547.2941,553.6747,537.2353,553.6924,527.1765,552.9115,517.1176,553.1146,507.0588,554.0506,497,553.5198,497.0548,553.6522,496.641,553.3602,496.2518,553.1277,495.9114,553.0131,495.4983,552.7227,495.2322,552.7876,495.36,552.8405,495.3135,552.5284,495.1014,552.1476,495.0069,551.8156,494.6043,551.3559,494.5,551.0198,494.5872,551.0198,494.1124,541.8939,494.784,532.7679,494.7468,523.6419,495.0524,514.516,494.5,505.39,494.4293,505.3607,494.6051,505.0193,494.9295,504.7395,495.1141,504.4017,494.9279,503.9104,495.2322,503.6222,495.2075,503.5625,495.6048,503.5218,495.8614,503.1412,496.338,503.2917,496.6794,503.1159,497,502.89" style="stroke:#181818;stroke-width:4.0;"/><text fill="#000000" font-family="Chalkduster" font-size="24" lengthAdjust="spacing" textLength="327" x="504.5" y="536.7309">Domain-Specific Profile</text></g><g id="elem_GMN12"><path d="M197,614.52 L197.5605,614.52 L195.8951,624.7 L197.5154,634.8799 L198.0658,645.0599 L195.0976,655.2398 L196.7928,665.4198 L195.8627,675.5997 L197,685.7797 L197,685.7797 L197,684.757 L207.0213,685.5979 L217.0426,683.936 L227.0638,687.256 L237.0851,684.0989 L247.1064,685.2523 L257.1277,686.9315 L267.1489,685.5509 L277.1702,685.9616 L287.1915,685.6945 L297.2128,686.2557 L307.234,686.4174 L317.2553,687.3415 L327.2766,687.5691 L337.2979,687.591 L347.3191,686.4587 L357.3404,687.0159 L367.3617,687.6523 L377.383,683.8565 L387.4043,687.589 L397.4255,684.989 L407.4468,687.2032 L417.4681,684.4596 L427.4894,685.597 L437.5106,687.7573 L447.5319,685.6497 L457.5532,686.0605 L467.5745,686.6827 L477.5957,686.8896 L487.617,685.7693 L497.6383,686.5456 L507.6596,684.2532 L517.6809,686.538 L527.7021,687.2415 L537.7234,686.9651 L547.7447,687.4144 L557.766,684.4915 L567.7872,684.0405 L577.8085,684.1226 L587.8298,685.6227 L597.8511,685.2556 L607.8723,687.5968 L617.8936,685.3139 L627.9149,684.8649 L637.9362,686.3884 L647.9574,684.0014 L657.9787,684.3953 L668,687.5102 L678.0213,686.9414 L688.0426,687.7383 L698.0638,684.9215 L708.0851,686.6309 L718.1064,687.3541 L728.1277,684.5199 L738.1489,685.524 L748.1702,686.1156 L758.1915,687.5177 L768.2128,685.7685 L778.234,687.0132 L788.2553,684.3029 L798.2766,683.9736 L808.2979,687.1226 L818.3191,683.8678 L828.3404,687.1369 L838.3617,686.3307 L848.383,685.0652 L858.4043,684.8363 L868.4255,687.003 L878.4468,684.9814 L888.4681,687.358 L898.4894,684.3057 L908.5106,687.4261 L918.5319,687.0711 L928.5532,686.4329 L938.5745,685.9056 L948.5957,687.7173 L958.617,687.4159 L968.6383,686.231 L978.6596,686.4948 L988.6809,685.4323 L998.7021,687.6902 L1008.7234,686.1926 L1018.7447,686.2399 L1028.766,684.1574 L1038.7872,684.6991 L1048.8085,687.195 L1058.8298,686.9257 L1068.8511,685.6652 L1078.8723,684.9205 L1088.8936,685.1959 L1098.9149,683.9499 L1108.9362,686.8856 L1118.9574,687.7518 L1128.9787,687.1834 L1139,685.7797 L1139,685.7797 L1140.8532,685.7797 L1138.6354,675.5697 L1139.2326,665.3598 L1137.9664,655.1498 L1139.7574,644.9399 L1139.658,634.7299 L1139,624.52 L1139.3472,624.8672 L1136.8557,622.3757 L1134.9155,620.4355 L1133.2787,618.7987 L1131.3566,616.8766 L1129,614.52 L1129,613.1532 L1119.0652,614.003 L1109.1304,614.918 L1099.1957,612.8911 L1089.2609,615.4624 L1079.3261,615.208 L1069.3913,614.2513 L1059.4565,614.8993 L1049.5217,616.4631 L1039.587,613.6857 L1029.6522,615.36 L1019.7174,615.2817 L1009.7826,614.8287 L999.8478,614.8958 L989.913,614.8226 L979.9783,612.8556 L970.0435,613.4512 L960.1087,613.2892 L950.1739,614.6902 L940.2391,614.755 L930.3043,614.9513 L920.3696,613.7441 L910.4348,614.34 L900.5,614.1994 L890.5652,616.0583 L880.6304,615.6575 L870.6957,613.2252 L860.7609,614.3255 L850.8261,612.9807 L840.8913,615.289 L830.9565,616.1426 L821.0217,615.9722 L811.087,613.3585 L801.1522,615.7572 L791.2174,612.5392 L781.2826,615.0537 L771.3478,613.7218 L761.413,614.7779 L751.4783,615.1609 L741.5435,615.7789 L731.6087,612.6002 L721.6739,615.7879 L711.7391,614.9951 L701.8043,615.4675 L691.8696,616.5141 L681.9348,614.5346 L672,614.52 L672.4664,614.5507 L671.9013,604.4324 L671.1915,594.3046 L669.9978,584.1449 L671.2245,574.1445 L667.0442,563.7882 L668,553.77 L669.5042,553.869 L665.6729,563.7857 L665.2289,573.9253 L666.1065,584.152 L665.4086,594.275 L663.3553,604.3087 L664,614.52 L664,615.6232 L654.0638,614.8103 L644.1277,616.4578 L634.1915,616.2989 L624.2553,613.3246 L614.3191,613.4589 L604.383,614.1755 L594.4468,615.4681 L584.5106,615.5946 L574.5745,615.3231 L564.6383,613.6081 L554.7021,616.2169 L544.766,616.2101 L534.8298,614.3939 L524.8936,613.8825 L514.9574,613.4496 L505.0213,613.9478 L495.0851,614.8864 L485.1489,614.3376 L475.2128,613.4059 L465.2766,615.8197 L455.3404,613.2962 L445.4043,615.8597 L435.4681,615.6593 L425.5319,615.5116 L415.5957,616.3667 L405.6596,613.8643 L395.7234,613.7183 L385.7872,615.9037 L375.8511,612.9283 L365.9149,613.896 L355.9787,614.828 L346.0426,614.7032 L336.1064,613.5641 L326.1702,614.4054 L316.234,616.5056 L306.2979,616.2493 L296.3617,612.9299 L286.4255,614.7294 L276.4894,613.1496 L266.5532,614.4498 L256.617,615.3013 L246.6809,615.6397 L236.7447,612.7474 L226.8085,615.5881 L216.8723,614.5424 L206.9362,613.0391 L197,614.52 L197,614.52 " fill="#FFFFE0" style="stroke:#181818;stroke-width:4.0;"/><path d="M1129,614.52 L1129.1868,614.52 L1128.6317,616.52 L1129.1718,618.52 L1129.3553,620.52 L1128.3659,622.52 L1129,624.52 L1129,624.4509 L1131,624.1409 L1133,624.1791 L1135,624.4594 L1137,623.9054 L1139,624.52 L1139.348,624.868 L1136.6038,622.1238 L1134.8757,620.3957 L1133.2715,618.7915 L1130.9461,616.4661 L1129,614.52 " fill="#FFFFE0" style="stroke:#181818;stroke-width:4.0;"/><text fill="#000000" font-family="Chalkduster" font-size="24" lengthAdjust="spacing" textLength="921" x="203" y="643.3609">Contains Classes and Properties that represent the intersection of</text><text fill="#000000" font-family="Chalkduster" font-size="24" lengthAdjust="spacing" textLength="890" x="203" y="673.9907">things used in the example(s) and schema.org/RO-Crate entities</text></g><!--link sos to rocsoss--><g id="link_sos_rocsoss"><path d="M978.08,266.6 L978.1782,266.8625 L968.3421,269.6526 L959.0815,273.9814 L949.6335,277.8091 L939.5692,279.9891 L930.3217,284.3529 L920.6144,287.4874 L911.0901,291.1111 L901.693,295.0749 L891.8575,297.8666 L882.8946,302.9914 L872.7972,305.0829 L863.4548,309.193 L854.2046,313.5494 L844.4183,316.4729 L834.9459,320.2352 L825.3547,323.6801 L815.9086,327.5129 L806.3925,331.1586 L797.01,335.1614 L787.5055,338.838 L777.9649,342.4183 L768.2221,345.458 L758.7753,349.2889 L749.3424,353.157 L739.47,355.85 " fill="none" style="stroke:#8B0000;stroke-width:4.0;"/><polygon fill="#8B0000" points="735.16,357.83,735.1642,357.8999,737.1181,357.8092,739.0964,358.1284,741.0668,358.3141,743.011,358.0608,744.9915,358.4152,744.9807,358.3916,743.9027,357.8176,742.8786,357.3625,741.8922,356.99,740.7762,356.3327,739.8416,356.0744,740.0097,356.1507,740.1185,354.9575,740.718,353.9872,741.3772,353.0441,741.6883,351.9427,742.1825,350.9246,742.1984,350.9408,740.7705,352.2981,739.4152,353.7292,738.0249,355.1247,736.7014,356.5881,735.16,357.83" style="stroke:#8B0000;stroke-width:4.0;"/><text fill="#000000" font-family="Chalkduster" font-size="24" lengthAdjust="spacing" textLength="69" x="890" y="321.1009">input</text></g><!--link roc to rocsoss--><g id="link_roc_rocsoss"><path d="M668,266.44 L668.2802,266.44 L667.4476,275.94 L668.2577,285.44 L668.5329,294.94 L667.0488,304.44 L667.8964,313.94 L667.4313,323.44 L667.4887,332.94 L667.9091,342.44 L668,351.94 " fill="none" style="stroke:#8B0000;stroke-width:4.0;"/><polygon fill="#8B0000" points="668,356.89,668.064,356.9185,668.6738,355.0339,669.6589,353.3162,670.5217,351.5441,670.9827,349.5934,672,347.89,671.9817,347.8717,671.0995,348.5895,670.3096,349.3996,669.5839,350.2739,668.637,350.927,668,351.89,668.1305,352.0205,667.0514,350.9414,666.3534,350.2434,665.7018,349.5918,664.7798,348.6698,664,347.89,664.0208,347.8992,664.7903,349.6857,665.6544,351.5142,666.4728,353.3224,667.3784,355.1693,668,356.89" style="stroke:#8B0000;stroke-width:4.0;"/><text fill="#000000" font-family="Chalkduster" font-size="24" lengthAdjust="spacing" textLength="69" x="669" y="321.1009">input</text></g><!--link docs to rocsoss--><g id="link_docs_rocsoss"><path d="M412.08,58.05 L412.1732,58.0565 L411.6273,61.9221 L411.6278,65.8255 L411.4504,69.7166 L410.6879,73.5673 L410.7352,77.474 L410.7007,77.4726 L410.457,79.7173 L410.3874,81.9688 L410.4386,84.2251 L410.0731,86.465 L410.2913,88.7279 L410.5374,88.732 L409.9709,91.1454 L410.1227,93.5707 L410.3621,95.9975 L410.0916,98.4158 L410.0894,100.8386 L410.1197,100.8388 L410.0966,103.4063 L410.2116,105.9749 L410.26,108.5429 L410.4354,111.112 L410.1966,113.6777 L410.4946,113.6884 L410.595,116.3763 L410.5031,119.0574 L410.6926,121.7485 L410.8953,124.4401 L410.6801,127.1167 L410.3603,127.0954 L411.1664,129.9189 L410.9194,132.6722 L411.4731,135.4789 L411.2022,138.2306 L411.6072,141.0274 L411.5769,141.0243 L412.2227,143.9112 L412.1607,146.7268 L412.5164,149.5844 L412.9072,152.4456 L413.045,155.2812 L413.2282,155.3068 L413.4464,158.1747 L413.9778,161.0863 L414.0025,163.9273 L414.7828,166.8736 L415.0608,169.7499 L415.3005,169.7937 L415.7874,172.6965 L416.3932,175.6209 L416.4462,178.4443 L416.9045,181.3418 L417.7218,184.305 L417.4528,184.2425 L418.371,187.2017 L418.9861,190.0904 L420.0408,193.0814 L420.3449,195.8979 L421.0952,198.8181 L420.9487,198.7757 L422.0232,201.7148 L422.4717,204.4727 L423.3653,207.3595 L424.6946,210.3725 L425.2481,213.1608 L425.4305,213.2257 L426.5556,216.0791 L427.1133,218.7304 L428.3816,221.6347 L429.4951,224.4839 L430.2479,227.2047 L430.0553,227.1211 L431.3916,229.9111 L432.6647,232.6737 L434.0618,235.4902 L434.9772,238.0974 L436.1616,240.8215 L436.3434,240.9175 L437.323,243.3188 L438.6534,245.9055 L440.4966,248.7627 L441.3958,251.1217 L443.0566,253.8827 L443.247,254.0049 L444.7226,256.4078 L446.1338,258.7693 L447.6903,261.2242 L449.5829,263.8947 L451,266.26 L450.896,266.177 L453.6642,269.5036 L455.7253,272.2656 L458.5904,275.6695 L461.0029,278.712 L463.2933,281.6571 L463.3708,281.7336 L466.0941,284.4917 L469.0948,287.5238 L471.845,290.3084 L474.4904,292.9894 L477.2228,295.7564 L477.2996,295.8476 L480.2355,298.2815 L483.528,301.1387 L486.4171,303.5173 L489.4722,306.0927 L492.4728,308.6034 L492.3154,308.3836 L495.6189,310.7851 L499.112,313.4513 L502.3368,315.7429 L505.4654,317.9002 L508.7275,320.2438 L508.6522,320.122 L512.0651,322.2568 L515.3446,324.1761 L518.9907,326.6881 L522.4554,328.9067 L525.6713,330.723 L525.7826,330.9288 L529.2816,332.8674 L532.5692,334.415 L536.08,336.3753 L539.4431,338.0624 L542.9884,340.0867 L543.0428,340.2006 L546.5106,341.8445 L550.0441,343.6258 L553.3694,344.9709 L556.8625,346.6679 L560.3632,348.3805 L560.4403,348.5619 L563.8852,350.0665 L567.1209,351.0786 L570.5996,352.6629 L574.0826,354.2572 L577.48,355.65 " fill="none" style="stroke:#8B0000;stroke-width:4.0;"/><polygon fill="#8B0000" points="581.94,357.8,581.9899,357.8492,580.4586,356.3005,579.2197,355.0402,577.8856,353.686,576.2383,352.023,575.0245,350.7874,575.0008,350.7771,575.3465,351.7676,575.8119,352.8104,576.3605,353.8895,576.6224,354.8435,577.2859,355.9726,577.3597,356.1418,576.1649,356.2323,575.1855,356.8167,574.2323,357.4614,573.1263,357.7555,572.1007,358.234,572.1017,358.2567,574.0681,358.1366,576.039,358.1199,578.0078,358.0532,579.9807,358.0818,581.94,357.8" style="stroke:#8B0000;stroke-width:4.0;"/></g><!--link rocsoss to rop--><g id="link_rocsoss_rop"><path d="M668,409.09 L668.2802,409.09 L667.4476,418.8344 L668.2577,428.5789 L668.5329,438.3233 L667.0488,448.0678 L667.8964,457.8122 L667.4313,467.5567 L667.4887,477.3011 L667.9091,487.0456 L668,496.79 " fill="none" style="stroke:#8B0000;stroke-width:4.0;"/><polygon fill="#8B0000" points="668,501.53,668.064,501.5585,668.6738,499.6739,669.6589,497.9562,670.5217,496.1841,670.9827,494.2334,672,492.53,671.9817,492.5117,671.0995,493.2295,670.3096,494.0396,669.5839,494.9139,668.637,495.567,668,496.53,668.1305,496.6605,667.0514,495.5814,666.3534,494.8834,665.7018,494.2318,664.7798,493.3098,664,492.53,664.0208,492.5392,664.7903,494.3257,665.6544,496.1542,666.4728,497.9624,667.3784,499.8093,668,501.53" style="stroke:#8B0000;stroke-width:4.0;"/><text fill="#000000" font-family="Chalkduster" font-size="24" lengthAdjust="spacing" textLength="236" x="669" y="465.7309">Generate profile</text></g><!--SRC=[VL4zJyD03DtlLvXEC2JTEx2qY0c1A2CICdTEUb9oTpexeXNYl-DBshGTOFF7Uy_FzeqFjXiSVVGO3b0l7GfM6cDBFGMfM0uTrR8NOp9PmT1s18k7FVP9WzVdQfrH29v8i51X4-rGYBTy1qsEFI2usACF2q3MqBAvKfeLjdP7FS9RZ1sFM2aHV5-29qmTStk4Zq2E_9yYEkV5np2fvcWlmMNSgXHLH9LizabEk58oFrTkD-CgrJQHzOsty99ZupiwCf8noe7AnQzGtS-gA_0X3G962tyrJRaCL5Ftt3RcX3lpad8UAT2uOveCW0bHiyyeeYUFpH6sZa7KByEwGsPYmE2AvqHPlAQoGu5CAHFhopGbTIEKMJVMYwdGUv2T3ot3mEIqEM9e-dvvSH7a-IlB-VOgvyk8Nm00]--></g></svg>