<?xml version="1.0" encoding="us-ascii" standalone="no"?><svg xmlns="http://www.w3.org/2000/svg" xmlns:xlink="http://www.w3.org/1999/xlink" contentStyleType="text/css" height="719px" preserveAspectRatio="none" style="width:1001px;height:719px;background:#FFFFFF;" version="1.1" viewBox="0 0 1001 719" width="1001px" zoomAndPan="magnify"><defs/><g><!--cluster tools--><g id="cluster_tools"><polygon fill="none" points="363.5,166,363.5,166.2102,373.4841,165.5857,383.4683,166.1933,393.4524,166.3997,403.4365,165.2866,413.4206,165.9223,423.4048,165.5735,433.3889,165.6165,443.373,165.9318,453.3571,165.3086,463.3413,166.5536,473.3254,165.3697,483.3095,165.8022,493.2937,166.4319,503.2778,165.9142,513.2619,166.0682,523.246,165.9681,533.2302,166.1785,543.2143,166.2391,553.1984,166.5857,563.1825,166.6711,573.1667,166.6793,583.1508,166.2546,593.1349,166.4636,603.119,166.7022,613.1032,165.2788,623.0873,166.6785,633.0714,165.7035,643.0556,166.5338,653.0397,165.505,663.0238,165.9315,673.0079,166.7416,682.9921,165.9513,692.9762,166.1053,702.9603,166.3386,712.9444,166.4162,722.9286,165.9961,732.9127,166.2872,742.8968,165.4276,752.881,166.2844,762.8651,166.5482,772.8492,166.4445,782.8333,166.613,792.8175,165.5169,802.8016,165.3478,812.7857,165.3786,822.7698,165.9411,832.754,165.8035,842.7381,166.6814,852.7222,165.8253,862.7063,165.6569,872.6905,166.2283,882.6746,165.3332,892.6587,165.4809,902.6429,166.649,912.627,166.4357,922.6111,166.7345,932.5952,165.6782,942.5794,166.3192,952.5635,166.5904,962.5476,165.5276,972.5317,165.9041,982.5159,166.126,992.5,166,992.5831,166.2007,992.853,166.1452,993.2661,166.4353,993.49,166.2688,993.8278,166.3772,994.2678,166.7322,994.4229,166.7965,994.1934,166.9943,994.7174,167.5043,994.7707,167.8193,994.771,168.1123,995,168.5,994.6462,168.5,995.4588,178.58,994.7007,188.66,995.5919,198.74,994.4473,208.82,995.6174,218.9,995.4843,228.98,995.245,239.06,995.0472,249.14,995.7266,259.22,995.6136,269.3,995.1693,279.38,995.2682,289.46,994.8697,299.54,995.7165,309.62,995.1549,319.7,995.1726,329.78,994.3916,339.86,994.5948,349.94,995.5307,360.02,995.4298,370.1,994.9571,380.18,994.6778,390.26,994.7811,400.34,994.3138,410.42,995,420.5,995.1277,420.5529,995.0813,420.9479,994.8692,421.2743,994.7747,421.6493,994.3721,421.8968,994.2678,422.2678,994.2789,422.2946,993.8648,422.2948,993.5969,422.6481,993.2386,422.7831,992.924,423.0237,992.5,423,992.5,422.7703,982.5159,422.8656,972.5317,423.4435,962.5476,423.5673,952.5635,422.4875,942.5794,422.8061,932.5952,423.1493,922.6111,422.3892,912.627,423.3534,902.6429,423.258,892.6587,422.8992,882.6746,423.1422,872.6905,423.7287,862.7063,422.6871,852.7222,423.315,842.7381,423.2856,832.754,423.1158,822.7698,423.1409,812.7857,423.1135,802.8016,422.3758,792.8175,422.5992,782.8333,422.5385,772.8492,423.0638,762.8651,423.0881,752.881,423.1617,742.8968,422.709,732.9127,422.9325,722.9286,422.8798,712.9444,423.5769,702.9603,423.4266,692.9762,422.5145,682.9921,422.9271,673.0079,422.4228,663.0238,423.2884,653.0397,423.6085,643.0556,423.5446,633.0714,422.5644,623.0873,423.464,613.1032,422.2572,603.119,423.2002,593.1349,422.7007,583.1508,423.0967,573.1667,423.2403,563.1825,423.4721,553.1984,422.2801,543.2143,423.4755,533.2302,423.1782,523.246,423.3553,513.2619,423.7478,503.2778,423.0055,493.2937,423.1753,483.3095,423.2134,473.3254,423.1972,463.3413,422.9992,453.3571,423.7107,443.373,422.3903,433.3889,423.5653,423.4048,422.376,413.4206,422.4597,403.4365,423.04,393.4524,423.0283,383.4683,422.5072,373.4841,423.4137,363.5,423,363.5139,423.0335,363.2391,423.0773,362.878,422.9125,362.3822,422.4226,362.035,422.2917,361.7322,422.2678,361.6925,422.2513,361.6953,421.9596,361.5634,421.6121,361.3856,421.2455,361.0411,420.8099,361,420.5,361.6364,420.5,361.6338,410.42,360.9527,400.34,360.7609,390.26,360.5986,380.18,360.7854,370.1,361.1374,360.02,360.9316,349.94,360.5822,339.86,361.4874,329.78,360.5411,319.7,361.5024,309.62,361.4272,299.54,361.3719,289.46,361.6925,279.38,360.7541,269.3,360.6994,259.22,361.5189,249.14,360.4031,239.06,360.766,228.98,361.1155,218.9,361.0687,208.82,360.6415,198.74,360.957,188.66,361.7446,178.58,361,168.5,361.1997,168.5827,360.9628,168.0704,361.3171,167.8029,361.2811,167.3738,361.5777,167.0824,361.7322,166.7322,361.7696,166.8225,362.1393,166.7151,362.3545,166.2346,362.844,166.4162,363.1475,166.149,363.5,166" style="stroke:#181818;stroke-width:4.0;"/><text fill="#000000" font-family="Chalkduster" font-size="24" font-weight="bold" lengthAdjust="spacing" textLength="273" x="541.5" y="192.9141">RO-Crate Schema Tools</text></g><!--entity sos--><g id="elem_sos"><polygon fill="none" points="736,215,736,215.2102,746,214.5857,756,215.1933,766,215.3997,776,214.2866,786,214.9223,796,214.5735,806,214.6165,816,214.9318,826,214.3086,836,215.5536,846,214.3697,856,214.8022,866,215.4319,876,214.9142,886,215.0682,896,214.9681,906,215.1785,916,215.2391,926,215.5857,936,215.6711,946,215.6793,956,215.2546,966,215.4636,976,215,976.0896,215.2163,976.2616,214.9244,976.7937,215.5018,977.0228,215.348,977.4823,215.7502,977.7678,215.7322,977.6153,215.6691,977.8931,216.077,978.289,216.5339,978.1921,216.7867,978.386,217.1599,978.5,217.5,978.8386,217.5,978.9162,226.5375,978.4961,235.575,978.7872,244.6125,977.9276,253.65,978.5,262.6875,978.5876,262.7238,978.5224,263.111,978.344,263.4513,978.2494,263.8264,977.7654,264.0401,977.7678,264.4553,977.6846,264.2544,977.3349,264.4103,977.0531,264.73,976.682,264.8341,976.4405,265.2509,976,265.1875,976,265.0128,966,264.8444,956,265.4158,946,264.5207,936,264.6684,926,265.8365,916,265.6232,906,265.922,896,264.8657,886,265.5067,876,265.7779,866,264.7151,856,265.0916,846,265.3135,836,265.8393,826,265.1833,816,265.6501,806,264.6337,796,264.5102,786,265.6911,776,264.4706,766,265.6965,756,265.3941,746,264.9196,736,265.1875,735.9549,265.0786,735.705,265.1823,735.2547,264.8024,735.0148,264.9304,734.5153,264.4315,734.2322,264.4553,734.4224,264.534,734.2349,264.1635,734.0148,263.7794,733.8074,263.4006,733.8702,263.1337,733.5,262.6875,734.1136,262.6875,733.6693,253.65,733.7682,244.6125,733.3697,235.575,734.2165,226.5375,733.5,217.5,733.5477,217.5198,733.6996,217.1685,733.6055,216.7153,733.8145,216.3876,734.2492,216.1535,734.2322,215.7322,734.2871,215.8646,734.5803,215.5726,734.8982,215.3401,735.265,215.2255,735.5589,214.9351,736,215" style="stroke:#181818;stroke-width:4.0;"/><text fill="#000000" font-family="Chalkduster" font-size="24" lengthAdjust="spacing" textLength="225" x="743.5" y="249.9141">Schema.org Schema</text></g><!--entity roc--><g id="elem_roc"><polygon fill="none" points="380,215,380,215.2102,389.875,214.5857,399.75,215.1933,409.625,215.3997,419.5,214.2866,429.375,214.9223,439.25,214.5735,449.125,214.6165,459,214.9318,468.875,214.3086,478.75,215.5536,488.625,214.3697,498.5,214.8022,508.375,215.4319,518.25,214.9142,528.125,215.0682,538,214.9681,547.875,215.1785,557.75,215.2391,567.625,215.5857,577.5,215.6711,587.375,215.6793,597.25,215.2546,607.125,215.4636,617,215.7022,626.875,214.2788,636.75,215.6785,646.625,214.7035,656.5,215.5338,666.375,214.505,676.25,214.9315,686.125,215.7416,696,215,695.9938,214.985,696.367,215.1789,696.7503,215.3972,697.1138,215.5675,697.4137,215.5846,697.7678,215.7322,697.8562,215.7689,697.7379,216.0128,698.1482,216.4756,698.3759,216.8628,698.4905,217.2032,698.5,217.5,699.113,217.5,698.0169,226.5375,697.8478,235.575,697.8786,244.6125,698.4411,253.65,698.5,262.6875,698.4395,262.6624,698.5634,263.128,698.1533,263.3723,697.955,263.7044,697.9845,264.1308,697.7678,264.4553,697.6827,264.2499,697.348,264.4418,697.1434,264.948,696.7627,265.0288,696.4472,265.2672,696,265.1875,696,264.8657,686.125,265.5067,676.25,265.7779,666.375,264.7151,656.5,265.0916,646.625,265.3135,636.75,265.8393,626.875,265.1833,617,265.6501,607.125,264.6337,597.25,264.5102,587.375,265.6911,577.5,264.4706,567.625,265.6965,557.75,265.3941,547.875,264.9196,538,264.8337,528.125,265.6463,518.25,264.8882,508.375,265.7794,498.5,264.6348,488.625,265.8049,478.75,265.6718,468.875,265.4325,459,265.2347,449.125,265.9141,439.25,265.8011,429.375,265.3568,419.5,265.4557,409.625,265.0572,399.75,265.904,389.875,265.3424,380,265.1875,380.022,265.2406,379.5688,264.8537,379.2412,264.7698,379.007,264.9116,378.6406,264.7341,378.2322,264.4553,378.219,264.4498,377.9866,264.0606,377.8719,263.7202,377.5816,263.3071,377.7742,263.094,377.5,262.6875,378.2396,262.6875,378.0264,253.65,378.1949,244.6125,377.3633,235.575,377.5872,226.5375,377.5,217.5,377.3806,217.4506,377.7339,217.1827,377.8689,216.8244,378.1095,216.5098,378.0151,216.0565,378.2322,215.7322,378.2151,215.6908,378.6424,215.7224,379.0117,215.6141,379.2275,215.1351,379.6217,215.0867,380,215" style="stroke:#181818;stroke-width:4.0;"/><text fill="#000000" font-family="Chalkduster" font-size="24" lengthAdjust="spacing" textLength="301" x="387.5" y="249.9141">RO-Crate Schema additions</text></g><!--entity rocsoss--><g id="elem_rocsoss"><polygon fill="none" points="427,357,427,357.2102,437.0909,356.5857,447.1818,357.1933,457.2727,357.3997,467.3636,356.2866,477.4545,356.9223,487.5455,356.5735,497.6364,356.6165,507.7273,356.9318,517.8182,356.3086,527.9091,357.5536,538,356.3697,548.0909,356.8022,558.1818,357.4319,568.2727,356.9142,578.3636,357.0682,588.4545,356.9681,598.5455,357.1785,608.6364,357.2391,618.7273,357.5857,628.8182,357.6711,638.9091,357.6793,649,357,649.0325,357.0784,649.4127,357.2892,649.7967,357.5092,649.9687,357.2172,650.5008,357.7947,650.7678,357.7322,650.6765,357.6944,651.0786,358.1539,650.9082,358.3762,651.186,358.7842,651.5819,359.241,651.5,359.5,651.4513,359.5,651.6053,368.5375,651.8386,377.575,651.9162,386.6125,651.4961,395.65,651.5,404.6875,651.5885,404.7241,651.1773,404.968,651.2947,405.4309,651.2295,405.8181,651.0511,406.1584,650.7678,406.4553,650.846,406.6441,650.3526,406.4529,649.9775,406.5473,649.6278,406.7032,649.346,407.0229,649,407.1875,649,406.991,638.9091,407.8689,628.8182,407.0128,618.7273,406.8444,608.6364,407.4158,598.5455,406.5207,588.4545,406.6684,578.3636,407.8365,568.2727,407.6232,558.1818,407.922,548.0909,406.8657,538,407.5067,527.9091,407.7779,517.8182,406.7151,507.7273,407.0916,497.6364,407.3135,487.5455,407.8393,477.4545,407.1833,467.3636,407.6501,457.2727,406.6337,447.1818,406.5102,437.0909,407.6911,427,407.1875,426.9085,406.9667,426.7114,407.1978,426.3193,406.9582,425.9052,406.6657,425.5407,406.4928,425.2322,406.4553,425.3735,406.5138,424.9936,406.0635,425.1216,405.8237,424.6227,405.3241,424.8366,405.1198,424.5,404.6875,424.9843,404.6875,424.745,395.65,424.5472,386.6125,425.2266,377.575,425.1136,368.5375,424.5,359.5,424.5521,359.5216,424.729,359.1807,424.7528,358.7763,425.16,358.5307,425.1335,358.1055,425.2322,357.7322,425.2542,357.7854,425.5082,357.3984,425.8876,357.3145,426.3606,357.4563,426.7013,357.2788,427,357" style="stroke:#181818;stroke-width:4.0;"/><text fill="#000000" font-family="Chalkduster" font-size="24" lengthAdjust="spacing" textLength="207" x="434.5" y="391.9141">Tool: rocsoss script</text></g><!--entity docs--><g id="elem_docs"><polygon fill="none" points="9.5,7,9.5,7.2102,19.4841,6.5857,29.4683,7.1933,39.4524,7.3997,49.4365,6.2866,59.4206,6.9223,69.4048,6.5735,79.3889,6.6165,89.373,6.9318,99.3571,6.3086,109.3413,7.5536,119.3254,6.3697,129.3095,6.8022,139.2937,7.4319,149.2778,6.9142,159.2619,7.0682,169.246,6.9681,179.2302,7.1785,189.2143,7.2391,199.1984,7.5857,209.1825,7.6711,219.1667,7.6793,229.1508,7.2546,239.1349,7.4636,249.119,7.7022,259.1032,6.2788,269.0873,7.6785,279.0714,6.7035,289.0556,7.5338,299.0397,6.505,309.0238,6.9315,319.0079,7.7416,328.9921,6.9513,338.9762,7.1053,348.9603,7.3386,358.9444,7.4162,368.9286,6.9961,378.9127,7.2872,388.8968,6.4276,398.881,7.2844,408.8651,7.5482,418.8492,7.4445,428.8333,7.613,438.8175,6.5169,448.8016,6.3478,458.7857,6.3786,468.7698,6.9411,478.754,6.8035,488.7381,7.6814,498.7222,6.8253,508.7063,6.6569,518.6905,7.2283,528.6746,6.3332,538.6587,6.4809,548.6429,7.649,558.627,7.4357,568.6111,7.7345,578.5952,6.6782,588.5794,7.3192,598.5635,7.5904,608.5476,6.5276,618.5317,6.9041,628.5159,7.126,638.5,7,638.5831,7.2007,638.853,7.1452,639.2661,7.4353,639.49,7.2688,639.8278,7.3772,640.2678,7.7322,640.4229,7.7965,640.1934,7.9943,640.7174,8.5043,640.7707,8.8193,640.771,9.1123,641,9.5,640.6462,9.5,641.4588,18.5375,640.7007,27.575,641.5919,36.6125,640.4473,45.65,641,54.6875,641.1901,54.7663,641.0027,55.1028,640.7825,55.4259,640.5752,55.7542,640.638,56.1944,640.2678,56.4553,640.346,56.6442,639.9358,56.6538,639.5949,56.8308,639.1905,56.8545,638.9449,57.2617,638.5,57.1875,638.5,57.3424,628.5159,57.3601,618.5317,56.5791,608.5476,56.7823,598.5635,57.7182,588.5794,57.6173,578.5952,57.1446,568.6111,56.8653,558.627,56.9686,548.6429,56.5013,538.6587,57.6022,528.6746,57.9271,518.6905,57.7139,508.7063,57.8824,498.7222,57.0508,488.7381,57.2747,478.754,56.7999,468.7698,57.4715,458.7857,57.4343,448.8016,57.7399,438.8175,56.9578,428.8333,57.0531,418.8492,57.631,408.8651,57.7548,398.881,56.675,388.8968,56.9936,378.9127,57.3368,368.9286,56.5767,358.9444,57.5409,348.9603,57.4455,338.9762,57.0867,328.9921,57.3297,319.0079,57.9162,309.0238,56.8746,299.0397,57.5025,289.0556,57.4731,279.0714,57.3033,269.0873,57.3284,259.1032,57.301,249.119,56.5633,239.1349,56.7867,229.1508,56.726,219.1667,57.2513,209.1825,57.2756,199.1984,57.3492,189.2143,56.8965,179.2302,57.12,169.246,57.0673,159.2619,57.7644,149.2778,57.6141,139.2937,56.702,129.3095,57.1146,119.3254,56.6103,109.3413,57.4759,99.3571,57.796,89.373,57.7321,79.3889,56.7519,69.4048,57.6515,59.4206,56.4447,49.4365,57.3877,39.4524,56.8882,29.4683,57.2842,19.4841,57.4278,9.5,57.1875,9.5602,57.3329,9.0546,56.8193,8.8535,57.041,8.4621,56.803,8.1311,56.7111,7.7322,56.4553,7.9625,56.5507,7.5875,56.1024,7.4933,55.7705,7.3586,55.4218,7.2072,55.0662,7,54.6875,6.9992,54.6875,7.7107,45.65,6.3903,36.6125,7.5653,27.575,6.376,18.5375,7,9.5,6.8336,9.4311,7.1588,9.1516,7.3016,8.7965,7.2876,8.3765,7.7132,8.1386,7.7322,7.7322,7.7461,7.7658,8.1785,7.8096,8.5244,7.6448,8.7357,7.1548,9.0957,7.0239,9.5,7" style="stroke:#181818;stroke-width:4.0;"/><text fill="#000000" font-family="Chalkduster" font-size="24" lengthAdjust="spacing" textLength="614" x="17" y="41.9141">Example RO-Crate Metadata Document(s) from a domain</text></g><!--entity rop--><g id="elem_rop"><polygon fill="none" points="240,501,240,501.2102,250.1538,500.5857,260.3077,501.1933,270.4615,501.3997,280.6154,500.2866,290.7692,500.9223,300.9231,500.5735,311.0769,500.6165,321.2308,500.9318,331.3846,500.3086,341.5385,501.5536,351.6923,500.3697,361.8462,500.8022,372,501.4319,382.1538,500.9142,392.3077,501.0682,402.4615,500.9681,412.6154,501.1785,422.7692,501.2391,432.9231,501.5857,443.0769,501.6711,453.2308,501.6793,463.3846,501.2546,473.5385,501.4636,483.6923,501.7022,493.8462,500.2788,504,501,504.0866,501.209,504.3157,501.0551,504.7752,501.4573,504.9975,501.2869,505.4055,501.5647,505.7678,501.7322,505.9962,501.8268,505.8992,502.0796,506.0931,502.4528,506.3114,502.8361,506.4817,503.1995,506.5,503.5,506.4961,503.5,506.7872,512.5375,505.9276,521.575,506.7844,530.6125,507.0482,539.65,506.5,548.6875,506.6369,548.7442,506.5423,549.1193,506.0583,549.333,505.8598,549.665,505.7228,550.0224,505.7678,550.4553,505.7603,550.4371,505.3891,550.5412,505.1476,550.958,504.6848,550.8408,504.3098,550.9354,504,551.1875,504,551.4158,493.8462,550.5207,483.6923,550.6684,473.5385,551.8365,463.3846,551.6232,453.2308,551.922,443.0769,550.8657,432.9231,551.5067,422.7692,551.7779,412.6154,550.7151,402.4615,551.0916,392.3077,551.3135,382.1538,551.8393,372,551.1833,361.8462,551.6501,351.6923,550.6337,341.5385,550.5102,331.3846,551.6911,321.2308,550.4706,311.0769,551.6965,300.9231,551.3941,290.7692,550.9196,280.6154,550.8337,270.4615,551.6463,260.3077,550.8882,250.1538,551.7794,240,551.1875,239.9295,551.0173,239.7252,551.2312,239.3547,551.0438,238.9706,550.8236,238.5918,550.6163,238.2322,550.4553,238.456,550.548,238.2747,550.18,237.9915,549.7698,237.8755,549.4288,237.6063,549.0244,237.5,548.6875,238.2165,548.6875,237.6549,539.65,237.6726,530.6125,236.8916,521.575,237.0948,512.5375,237.5,503.5,237.6634,503.5677,237.7788,503.2013,237.7797,502.7874,237.8401,502.3982,238.0184,502.0579,238.2322,501.7322,238.1447,501.5209,238.6387,501.7135,239.0337,501.6671,239.36,501.455,239.7351,501.3605,240,501" style="stroke:#181818;stroke-width:4.0;"/><text fill="#000000" font-family="Chalkduster" font-size="24" lengthAdjust="spacing" textLength="249" x="247.5" y="535.9141">Domain-Specific Profile</text></g><!--entity dssoss--><g id="elem_dssoss"><polygon fill="none" points="620,501,620,501.2102,630.1667,500.5857,640.3333,501.1933,650.5,501.3997,660.6667,500.2866,670.8333,500.9223,681,500.5735,691.1667,500.6165,701.3333,500.9318,711.5,500.3086,721.6667,501.5536,731.8333,500.3697,742,500.8022,752.1667,501.4319,762.3333,500.9142,772.5,501.0682,782.6667,500.9681,792.8333,501.1785,803,501.2391,813.1667,501.5857,823.3333,501.6711,833.5,501.6793,843.6667,501.2546,853.8333,501.4636,864,501,864.0896,501.2163,864.2616,500.9244,864.7937,501.5018,865.0228,501.348,865.4823,501.7502,865.7678,501.7322,865.6153,501.6691,865.8931,502.077,866.289,502.5339,866.1921,502.7867,866.386,503.1599,866.5,503.5,866.8386,503.5,866.9162,512.5375,866.4961,521.575,866.7872,530.6125,865.9276,539.65,866.5,548.6875,866.5876,548.7238,866.5224,549.111,866.344,549.4513,866.2494,549.8264,865.7654,550.0401,865.7678,550.4553,865.6846,550.2544,865.3349,550.4103,865.0531,550.73,864.682,550.8341,864.4405,551.2509,864,551.1875,864,551.0128,853.8333,550.8444,843.6667,551.4158,833.5,550.5207,823.3333,550.6684,813.1667,551.8365,803,551.6232,792.8333,551.922,782.6667,550.8657,772.5,551.5067,762.3333,551.7779,752.1667,550.7151,742,551.0916,731.8333,551.3135,721.6667,551.8393,711.5,551.1833,701.3333,551.6501,691.1667,550.6337,681,550.5102,670.8333,551.6911,660.6667,550.4706,650.5,551.6965,640.3333,551.3941,630.1667,550.9196,620,551.1875,619.9549,551.0786,619.705,551.1823,619.2547,550.8024,619.0148,550.9304,618.5153,550.4315,618.2322,550.4553,618.4224,550.534,618.2349,550.1635,618.0148,549.7794,617.8074,549.4006,617.8702,549.1337,617.5,548.6875,618.1136,548.6875,617.6693,539.65,617.7682,530.6125,617.3697,521.575,618.2165,512.5375,617.5,503.5,617.5477,503.5198,617.6996,503.1685,617.6055,502.7153,617.8145,502.3876,618.2492,502.1535,618.2322,501.7322,618.2871,501.8646,618.5803,501.5726,618.8982,501.3401,619.265,501.2255,619.5589,500.9351,620,501" style="stroke:#181818;stroke-width:4.0;"/><text fill="#000000" font-family="Chalkduster" font-size="24" lengthAdjust="spacing" textLength="229" x="627.5" y="535.9141">Domain Specic SoSS</text></g><g id="elem_GMN14"><path d="M77,612 L77.5605,612 L75.8951,622.0563 L77.5154,632.1125 L78.0658,642.1688 L75.0976,652.225 L76.7928,662.2813 L75.8627,672.3375 L75.9773,682.3938 L76.8182,692.45 L75.1563,702.5063 L77,712.5625 L77,712.5625 L77,714.0389 L87.0784,710.8818 L97.1569,712.0351 L107.2353,713.7144 L117.3137,712.3338 L127.3922,712.7445 L137.4706,712.4773 L147.549,713.0386 L157.6275,713.2002 L167.7059,714.1243 L177.7843,714.352 L187.8627,714.3739 L197.9412,713.2415 L208.0196,713.7987 L218.098,714.4351 L228.1765,710.6393 L238.2549,714.3719 L248.3333,711.7718 L258.4118,713.986 L268.4902,711.2424 L278.5686,712.3798 L288.6471,714.5401 L298.7255,712.4325 L308.8039,712.8433 L318.8824,713.4655 L328.9608,713.6725 L339.0392,712.5521 L349.1176,713.3284 L359.1961,711.0361 L369.2745,713.3209 L379.3529,714.0244 L389.4314,713.7479 L399.5098,714.1972 L409.5882,711.2743 L419.6667,710.8233 L429.7451,710.9054 L439.8235,712.4055 L449.902,712.0384 L459.9804,714.3796 L470.0588,712.0967 L480.1373,711.6477 L490.2157,713.1712 L500.2941,710.7843 L510.3725,711.1782 L520.451,714.293 L530.5294,713.7243 L540.6078,714.5211 L550.6863,711.7044 L560.7647,713.4137 L570.8431,714.137 L580.9216,711.3028 L591,712.5625 L591,712.5625 L590.7444,712.5625 L591.336,702.5 L592.738,692.4375 L590.9888,682.375 L592.2335,672.3125 L589.5232,662.25 L589.194,652.1875 L592.343,642.125 L589.0882,632.0625 L591,622 L591.3199,622.3199 L589.1299,620.1299 L586.8316,617.8316 L584.7776,615.7776 L583.2883,614.2883 L581,612 L581,611.2018 L571.0457,613.5783 L561.0913,610.526 L551.137,613.6465 L541.1826,613.2915 L531.2283,612.6532 L521.2739,612.1259 L511.3196,613.9376 L501.3652,613.6362 L491.4109,612.4513 L481.4565,612.7152 L471.5022,611.6526 L461.5478,613.9105 L451.5935,612.413 L441.6391,612.4602 L431.6848,610.3777 L421.7304,610.9194 L411.7761,613.4153 L401.8217,613.146 L391.8674,611.8855 L381.913,611.1409 L371.9587,611.4162 L362.0043,610.1702 L352.05,612 L353.1311,612.2334 L356.1711,602.2579 L357.8088,591.9796 L360.4414,581.9161 L360.4669,571.2897 L363.244,561.2574 L365.21,551.05 L364.2336,550.711 L362.3989,561.4567 L358.7783,571.5825 L356.0216,582.0081 L350.5248,591.4825 L347.2381,601.7241 L344.05,612 L344.05,613.1826 L334.1593,613.5129 L324.2685,610.6332 L314.3778,611.483 L304.487,612.398 L294.5963,610.3711 L284.7056,612.9424 L274.8148,612.688 L264.9241,611.7313 L255.0333,612.3793 L245.1426,613.9431 L235.2519,611.1657 L225.3611,612.84 L215.4704,612.7617 L205.5796,612.3087 L195.6889,612.3758 L185.7981,612.3026 L175.9074,610.3356 L166.0167,610.9312 L156.1259,610.7692 L146.2352,612.1702 L136.3444,612.235 L126.4537,612.4313 L116.563,611.2241 L106.6722,611.82 L96.7815,611.6794 L86.8907,613.5383 L77,612 L77,612 " fill="#FFFFE0" style="stroke:#181818;stroke-width:4.0;"/><path d="M581,612 L581.1868,612 L580.6317,614 L581.1718,616 L581.3553,618 L580.3659,620 L581,622 L581,621.9309 L583,621.6209 L585,621.6591 L587,621.9394 L589,621.3854 L591,622 L591.348,622.348 L588.6038,619.6038 L586.8757,617.8757 L585.2715,616.2715 L582.9461,613.9461 L581,612 " fill="#FFFFE0" style="stroke:#181818;stroke-width:4.0;"/><text fill="#000000" font-family="Chalkduster" font-size="24" lengthAdjust="spacing" textLength="493" x="83" y="641.9141">Contains Classes and Properties representing</text><text fill="#000000" font-family="Chalkduster" font-size="24" lengthAdjust="spacing" textLength="405" x="83" y="672.1016">the intersection of the example(s) and</text><text fill="#000000" font-family="Chalkduster" font-size="24" lengthAdjust="spacing" textLength="318" x="83" y="702.2891">schema.org/RO-Crate entities</text></g><g id="elem_GMN17"><path d="M626.5,627.5 L627.0605,627.5 L625.3951,637.5536 L627.0154,647.6071 L627.5658,657.6607 L624.5976,667.7143 L626.2928,677.7679 L625.3627,687.8214 L626.5,697.875 L626.5,697.875 L626.5,696.8523 L636.4032,697.6932 L646.3065,696.0313 L656.2097,699.3514 L666.1129,696.1943 L676.0161,697.3476 L685.9194,699.0269 L695.8226,697.6463 L705.7258,698.057 L715.629,697.7898 L725.5323,698.3511 L735.4355,698.5127 L745.3387,699.4368 L755.2419,699.6645 L765.1452,699.6864 L775.0484,698.554 L784.9516,699.1112 L794.8548,699.7476 L804.7581,695.9518 L814.6613,699.6844 L824.5645,697.0843 L834.4677,699.2985 L844.371,696.5549 L854.2742,697.6923 L864.1774,699.8526 L874.0806,697.745 L883.9839,698.1558 L893.8871,698.778 L903.7903,698.985 L913.6935,697.8646 L923.5968,698.6409 L933.5,697.875 L933.5,697.875 L931.9736,697.875 L934.2584,687.8125 L934.9619,677.75 L934.6854,667.6875 L935.1347,657.625 L932.2118,647.5625 L933.5,637.5 L933.0901,637.0901 L931.1094,635.1094 L929.463,633.463 L927.3765,631.3765 L925.9283,629.9283 L923.5,627.5 L923.5,627.0342 L913.556,626.5852 L903.612,628.1087 L893.668,625.7218 L883.724,626.1157 L873.78,629.2305 L863.836,628.6618 L853.892,629.4586 L843.948,626.6419 L834.004,628.3512 L824.06,629.0745 L814.116,626.2403 L804.172,627.2444 L794.228,627.836 L784.284,629.238 L774.34,627.5 L774.3294,627.4965 L772.3162,618.3347 L766.5519,607.9194 L763.0459,598.2588 L762.8387,589.7007 L756.558,579.1127 L756.4647,570.5927 L752.5063,560.7809 L748.79,551.05 L748.0937,550.8901 L750.0643,560.3952 L754.3698,570.4362 L754.5933,579.5402 L759.1033,589.6281 L758.3221,598.5015 L763.5572,608.7559 L765.405,618.2327 L766.34,627.5 L766.34,628.1532 L756.3514,627.6259 L746.3629,629.4376 L736.3743,629.1362 L726.3857,627.9513 L716.3971,628.2152 L706.4086,627.1526 L696.42,629.4105 L686.4314,627.913 L676.4429,627.9602 L666.4543,625.8777 L656.4657,626.4194 L646.4771,628.9153 L636.4886,628.646 L626.5,627.5 L626.5,627.5 " fill="#FFFFE0" style="stroke:#181818;stroke-width:4.0;"/><path d="M923.5,627.5 L923.6868,627.5 L923.1317,629.5 L923.6718,631.5 L923.8553,633.5 L922.8659,635.5 L923.5,637.5 L923.5,637.4309 L925.5,637.1209 L927.5,637.1591 L929.5,637.4394 L931.5,636.8854 L933.5,637.5 L933.848,637.848 L931.1038,635.1038 L929.3757,633.3757 L927.7715,631.7715 L925.4461,629.4461 L923.5,627.5 " fill="#FFFFE0" style="stroke:#181818;stroke-width:4.0;"/><text fill="#000000" font-family="Chalkduster" font-size="24" lengthAdjust="spacing" textLength="169" x="632.5" y="657.4141">Domain specific</text><text fill="#000000" font-family="Chalkduster" font-size="24" lengthAdjust="spacing" textLength="286" x="632.5" y="687.6016">Schema.org Style Schema</text></g><!--link sos to rocsoss--><g id="link_sos_rocsoss"><path d="M801.33,265.07 L801.4429,265.3265 L791.8761,268.6286 L782.9712,273.4343 L773.8508,277.7503 L764.0215,280.4562 L755.1317,285.2961 L745.713,288.9347 L736.5048,293.0514 L727.4429,297.5004 L717.8768,300.804 L709.3144,306.3875 L699.447,309.007 L690.4481,313.599 L681.5551,318.4316 L672.0456,321.864 L662.8971,326.1161 L653.612,330.0581 L644.4937,334.3791 L635.295,338.5173 L626.2499,343.0044 L617.0644,347.1727 L607.8375,351.2469 L598.2413,354.4822 " fill="none" style="stroke:#8B0000;stroke-width:4.0;"/><polygon fill="#8B0000" points="592.75,356.9,592.7502,356.9701,594.7193,356.7687,596.6897,356.9781,598.6597,357.0537,600.6282,356.6895,602.5988,356.9342,602.5894,356.91,601.4928,356.3919,600.4434,355.9954,599.4269,355.6836,598.2971,355.0802,597.3261,354.8852,597.4981,354.952,597.5401,353.7545,598.0842,352.7522,598.6897,351.7737,598.9386,350.6566,599.3751,349.6125,599.3919,349.6278,598.0422,351.0628,596.7691,352.5675,595.459,354.0386,594.2195,355.5738,592.75,356.9" style="stroke:#8B0000;stroke-width:4.0;"/><text fill="#000000" font-family="Chalkduster" font-size="24" lengthAdjust="spacing" textLength="54" x="726" y="320.9141">input</text></g><!--link roc to rocsoss--><g id="link_roc_rocsoss"><path d="M538,265.07 L538.2802,265.07 L537.4476,274.5933 L538.2577,284.1167 L538.5329,293.64 L537.0488,303.1633 L537.8964,312.6867 L537.4313,322.21 L537.4887,331.7333 L537.9091,341.2567 L538,350.78 " fill="none" style="stroke:#8B0000;stroke-width:4.0;"/><polygon fill="#8B0000" points="538,356.78,538.064,356.8085,538.6738,354.9239,539.6589,353.2062,540.5217,351.4341,540.9827,349.4834,542,347.78,541.9817,347.7617,541.0995,348.4795,540.3096,349.2896,539.5839,350.1639,538.637,350.817,538,351.78,538.1305,351.9105,537.0514,350.8314,536.3534,350.1334,535.7018,349.4818,534.7798,348.5598,534,347.78,534.0208,347.7892,534.7903,349.5757,535.6544,351.4042,536.4728,353.2124,537.3784,355.0593,538,356.78" style="stroke:#8B0000;stroke-width:4.0;"/><text fill="#000000" font-family="Chalkduster" font-size="24" lengthAdjust="spacing" textLength="54" x="539" y="320.9141">input</text></g><!--link docs to rocsoss--><g id="link_docs_rocsoss"><path d="M321.64,57.28 L321.7333,57.2848 L321.2585,61.0937 L321.3307,64.9309 L321.2247,68.7589 L320.5331,72.5566 L320.6522,76.3962 L320.6177,76.3954 L320.4098,78.6104 L320.376,80.8295 L320.4633,83.0515 L320.1335,85.2636 L320.3878,87.4896 L320.6339,87.4903 L320.1014,89.8794 L320.2873,92.2704 L320.5609,94.6617 L320.3246,97.0516 L320.3564,99.4422 L320.3867,99.4428 L320.3945,101.9796 L320.5404,104.5192 L320.6196,107.0574 L320.826,109.5983 L320.618,112.1306 L320.916,112.1443 L321.0425,114.8047 L320.977,117.4561 L321.1927,120.1206 L321.4216,122.7857 L321.2327,125.4314 L320.9131,125.4076 L321.739,128.2119 L321.5124,130.9377 L322.0859,133.7231 L321.8355,136.4472 L322.2604,139.2215 L322.2302,139.2183 L322.8884,142.0875 L322.8392,144.8816 L323.2075,147.72 L323.6108,150.5622 L323.7613,153.3775 L323.9444,153.4034 L324.1663,156.257 L324.7012,159.1548 L324.7297,161.981 L325.5135,164.914 L325.7951,167.776 L326.0349,167.8194 L326.515,170.7148 L327.114,173.6317 L327.1601,176.4485 L327.6115,179.3387 L328.4221,182.2939 L328.1527,182.233 L329.0526,185.1909 L329.649,188.0801 L330.6856,191.0689 L330.9705,193.8878 L331.7022,196.8076 L331.5553,196.7669 L332.5986,199.7121 L333.014,202.4829 L333.8759,205.3778 L335.1747,208.3939 L335.6955,211.1941 L335.8789,211.2559 L336.9581,214.1255 L337.4665,216.8027 L338.6897,219.7208 L339.7572,222.5865 L340.4618,225.3298 L340.2674,225.2507 L341.5423,228.0661 L342.7535,230.8556 L344.0899,233.6961 L344.9398,236.3385 L346.0614,239.0916 L346.246,239.182 L347.1389,241.6363 L348.3881,244.2651 L350.1581,247.1487 L350.9694,249.5631 L352.5541,252.3561 L352.749,252.4709 L354.1224,254.9315 L355.4299,257.3532 L356.8862,259.8627 L358.6865,262.5747 L360,265 L359.8922,264.9221 L362.4227,268.2119 L364.2198,270.9719 L366.8509,274.3344 L369.0124,277.3576 L371.0474,280.2894 L371.129,280.3615 L373.5315,283.0965 L376.2262,286.0896 L378.6569,288.8495 L380.9773,291.5118 L383.3894,294.2552 L383.4714,294.3417 L386.0287,296.7559 L388.967,299.5716 L391.4744,301.9332 L394.159,304.4817 L396.7854,306.9687 L396.615,306.7588 L399.5139,309.1354 L402.618,311.7649 L405.4317,314.0366 L408.1412,316.18 L410.9952,318.5014 L410.9127,318.3843 L413.8957,320.5065 L416.7327,322.4214 L419.9713,324.9059 L423.0111,327.1085 L425.7783,328.9245 L425.9017,329.1232 L428.9644,331.0639 L431.7926,332.6268 L434.8683,334.5884 L437.7801,336.2861 L440.8942,338.3094 L440.9553,338.4199 L443.989,340.089 L447.0964,341.8915 L449.9698,343.271 L453.0319,344.9917 L456.1025,346.7276 L456.1906,346.9039 L459.2273,348.4577 L462.0249,349.5328 L465.1003,351.1641 L468.1805,352.8051 L471.1629,354.2502 " fill="none" style="stroke:#8B0000;stroke-width:4.0;"/><polygon fill="#8B0000" points="476.58,356.83,476.6332,356.8756,475.1939,355.244,474.0666,353.8795,472.8377,352.428,471.2747,350.6905,470.1742,349.349,470.1498,349.3403,470.4185,350.3677,470.8104,351.4387,471.2877,352.5401,471.4703,353.5369,472.0658,354.6802,472.1275,354.8541,470.9293,354.8605,469.9112,355.3747,468.9152,355.9508,467.7912,356.1665,466.7345,356.5718,466.7351,356.5945,468.7033,356.6128,470.6743,356.7345,472.6439,356.8064,474.616,356.9735,476.58,356.83" style="stroke:#8B0000;stroke-width:4.0;"/></g><!--link rocsoss to rop--><g id="link_rocsoss_rop"><path d="M509.84,407.09 L510.0222,407.303 L501.9823,413.0845 L495.0104,420.1145 L487.6907,426.7379 L479.2274,432.0245 L472.2798,439.0829 L464.479,445.1438 L457.0177,451.6017 L449.7924,458.3355 L441.7537,464.1184 L435.3342,471.7942 L426.8095,477.009 L419.6858,483.8615 L412.733,490.9139 L404.8601,496.8905 " fill="none" style="stroke:#8B0000;stroke-width:4.0;"/><polygon fill="#8B0000" points="400.3,500.79,400.32,500.8572,402.1486,500.0958,404.0943,499.7281,406.0018,499.2322,407.784,498.3148,409.7397,497.9808,409.7377,497.955,408.6007,497.751,407.4739,497.6772,406.3542,497.694,405.21,497.3988,404.1001,497.5404,404.284,497.5548,403.9787,496.3962,404.2105,495.2794,404.5078,494.1678,404.4239,493.0265,404.5405,491.9008,404.561,491.9106,403.6827,493.674,402.898,495.4821,402.0681,497.2686,401.3243,499.0962,400.3,500.79" style="stroke:#8B0000;stroke-width:4.0;"/><text fill="#000000" font-family="Chalkduster" font-size="24" lengthAdjust="spacing" textLength="100" x="470" y="464.9141">Generate</text></g><!--link rocsoss to dssoss--><g id="link_rocsoss_dssoss"><path d="M572.61,407.09 L572.7701,407.32 L580.3997,412.2786 L588.9679,418.5856 L597.2305,424.4534 L604.4879,428.8774 L613.0775,435.2151 L620.9172,440.4754 L629.0553,446.1645 L637.4008,452.1516 L645.0314,457.1116 L654.0851,464.1161 L661.2886,468.4625 L669.7234,474.5778 L678.3085,480.909 L686.0194,485.9844 L694.2421,491.795 L702.2955,497.3623 " fill="none" style="stroke:#8B0000;stroke-width:4.0;stroke-dasharray:7.0,7.0;"/><polygon fill="#8B0000" points="707.22,500.79,707.2799,500.8263,706.0815,499.0336,705.2344,497.4536,704.2729,495.8043,702.9352,493.9272,702.1183,492.3655,702.0928,492.3609,702.1779,493.454,702.3916,494.5702,702.6947,495.7024,702.6898,496.7793,703.1162,497.9336,703.1488,498.1153,701.9655,497.9264,700.8773,498.2679,699.8007,498.6741,698.6567,498.7038,697.5481,498.9316,697.5524,498.9539,699.4804,499.2928,701.4281,499.7334,703.3663,500.1249,705.3225,500.61,707.22,500.79" style="stroke:#8B0000;stroke-width:4.0;"/><text fill="#000000" font-family="Chalkduster" font-size="24" lengthAdjust="spacing" textLength="205" x="665" y="464.9141">Optional: Generate</text></g><!--SRC=[VLB1JiCm3BtdAynES6Xtts6N3N52GvJZ96HIRqHgaoZnn2R4lsEtNRk1uD8wzdilphDldBVDeQRN5lq9odcDZ8N4kAUMF1UPJmsLV6HZ4bb6lsy8PlT7RAC4pvjYbP097ebHgR0Ezg34stm7knHQGAX3YyxF0BE4DfihfL6Xik_K8ho4qEGEonh1voMunvGXxGTu1ymX_wU8TUtO1T-hfc0lmNhTGfCY8aeskSXddARCrrMtw-ufHHN9kfspy9J2pZKqCE9lA7HG2rMegjw1tCdA1uewVFXYETw-0EVZWS58ug-YCMeX57rvgXjp1ax4AAG7ygHcJFLIw-LoQ4GWcwZkO3E1mHWVvFSMc6M2OJU8hO9dULE6LOCvKmRqjLeGAR6JOwAOAClmdTzlFR-JzCoKifWYDwYEvgZV7LqGuMzz7eSw7qUd6Yhviu-nwS7TF0nYwozNGrTscFut]--></g></svg>