<svg xmlns="http://www.w3.org/2000/svg" xmlns:xlink="http://www.w3.org/1999/xlink" contentStyleType="text/css" data-diagram-type="DESCRIPTION" height="464px" preserveAspectRatio="none" style="width:2011px;height:464px;background:#FFFFFF;" version="1.1" viewBox="0 0 2011 464" width="2011px" zoomAndPan="magnify"><title>The three main components for RO-Crate editing with Crate-O</title><defs/><g><text fill="#000000" font-family="Chalkduster" font-size="42" font-weight="bold" lengthAdjust="spacing" textLength="1518.9152" x="239.3963" y="51.7215">The three main components for RO-Crate editing with Crate-O</text><!--entity soss--><g class="entity" data-entity="soss" data-source-line="6" data-uid="ent0002" id="entity_soss"><polygon fill="#E6E6FA" points="31.41,213.1512,31.41,213.3613,41.3802,212.7368,51.3505,213.3444,61.3207,213.5508,71.291,212.4378,81.2612,213.0734,91.2314,212.7247,101.2017,212.7677,111.1719,213.083,121.1421,212.4598,131.1124,213.7048,141.0826,212.5209,151.0529,212.9534,161.0231,213.5831,170.9933,213.0654,180.9636,213.2194,190.9338,213.1192,200.9041,213.3297,210.8743,213.3903,220.8445,213.7369,230.8148,213.8222,240.785,213.8304,250.7553,213.4058,260.7255,213.6147,270.6957,213.8534,280.666,212.43,290.6362,213.8297,300.6064,212.8547,310.5767,213.685,320.5469,212.6561,330.5172,213.0827,340.4874,213.8928,350.4576,213.1024,360.4279,213.2565,370.3981,213.4898,380.3684,213.5674,390.3386,213.1473,400.3088,213.4384,410.2791,212.5787,420.2493,213.4355,430.2196,213.6994,440.1898,213.5957,450.16,213.7642,460.1303,212.6681,470.1005,212.499,480.0707,212.5298,490.041,213.0923,500.0112,212.9546,509.9815,213.8326,519.9517,212.9765,529.9219,212.8081,539.8922,213.3794,549.8624,212.4843,559.8327,212.632,569.8029,213.8001,579.7731,213.5868,589.7434,213.8857,599.7136,212.8294,609.6839,213.4704,619.6541,213.7416,629.6243,212.6788,639.5946,213.1512,639.5823,213.1216,639.9642,213.3364,640.3848,213.6448,640.6547,213.5892,641.0678,213.8794,641.3623,213.8834,641.1918,213.8128,641.3002,214.1506,641.8103,214.6547,641.5809,214.8526,642.1049,215.3625,642.0946,215.6512,642.3012,215.6512,641.8267,225.1836,641.7408,234.7161,642.5533,244.2485,641.7952,253.781,642.6864,263.3135,641.5418,272.8459,642.712,282.3784,642.0946,291.9108,642.2437,291.9726,642.0236,292.2956,641.8162,292.624,641.879,293.0642,641.6977,293.4033,641.3623,293.6786,641.3839,293.7307,641.043,293.9076,640.6386,293.9314,640.3931,294.3386,639.9679,294.3121,639.5946,294.4108,639.5946,294.5834,629.6243,293.8025,619.6541,294.0056,609.6839,294.9416,599.7136,294.8406,589.7434,294.3679,579.7731,294.0887,569.8029,294.1919,559.8327,293.7247,549.8624,294.8256,539.8922,295.1504,529.9219,294.9372,519.9517,295.1058,509.9815,294.2741,500.0112,294.498,490.041,294.0232,480.0707,294.6949,470.1005,294.6576,460.1303,294.9632,450.16,294.1812,440.1898,294.2764,430.2196,294.8543,420.2493,294.9782,410.2791,293.8983,400.3088,294.2169,390.3386,294.5601,380.3684,293.8,370.3981,294.7642,360.4279,294.6688,350.4576,294.3101,340.4874,294.5531,330.5172,295.1395,320.5469,294.098,310.5767,294.7258,300.6064,294.6965,290.6362,294.5266,280.666,294.5517,270.6957,294.5243,260.7255,293.7867,250.7553,294.01,240.785,293.9493,230.8148,294.4747,220.8445,294.499,210.8743,294.5726,200.9041,294.1199,190.9338,294.3433,180.9636,294.2906,170.9933,294.9877,161.0231,294.8374,151.0529,293.9253,141.0826,294.3379,131.1124,293.8336,121.1421,294.6992,111.1719,295.0193,101.2017,294.9554,91.2314,293.9753,81.2612,294.8748,71.291,293.668,61.3207,294.611,51.3505,294.1115,41.3802,294.5075,31.41,294.4108,31.4407,294.4848,31.1167,294.4098,30.6111,293.8962,30.41,294.1179,30.0185,293.8799,29.6422,293.6786,29.7517,293.7239,29.7261,293.4204,29.351,292.9722,29.2569,292.6403,29.1222,292.2916,28.91,291.9108,29.1072,291.9108,28.9092,282.3784,29.6207,272.8459,28.3003,263.3135,29.4753,253.781,28.286,244.2485,28.3697,234.7161,28.95,225.1836,28.91,215.6512,28.9187,215.6548,28.9047,215.2347,29.3303,214.9968,29.3829,214.6044,29.7196,214.3296,29.6422,213.8834,29.7273,214.0888,29.9386,213.5989,30.2986,213.468,30.6864,213.4043,31.1018,213.4071,31.41,213.1512" style="stroke:#181818;stroke-width:4;"/><text fill="#000000" font-family="Chalkduster" font-size="24" font-style="italic" lengthAdjust="spacing" textLength="168.5569" x="251.2238" y="246.992">&#171;standards&#187;</text><text fill="#000000" font-family="Chalkduster" font-size="24" lengthAdjust="spacing" textLength="593.1846" x="38.91" y="277.6219">Schema.org Style Schema (SOSS) for Domain</text></g><g class="entity" data-entity="GMN3" data-source-line="10" data-uid="ent0004" id="entity_GMN3"><path d="M6,80.8912 L6.5605,80.8912 L4.8951,91.0711 L6.5154,101.2511 L7.0658,111.431 L4.0976,121.611 L5.7928,131.7909 L4.8627,141.9709 L6,152.1508 L6,152.1508 L6,151.1282 L15.8636,151.9691 L25.7273,150.3072 L35.5909,153.6272 L45.4545,150.4701 L55.3182,151.6234 L65.1818,153.3027 L75.0455,151.9221 L84.9091,152.3328 L94.7727,152.0656 L104.6364,152.6269 L114.5,152.7885 L124.3636,153.7127 L134.2273,153.9403 L144.0909,153.9622 L153.9545,152.8298 L163.8182,153.3871 L173.6818,154.0234 L183.5455,150.2277 L193.4091,153.9602 L203.2727,151.3602 L213.1364,153.5743 L223,150.8308 L232.8636,151.9682 L242.7273,154.1284 L252.5909,152.0209 L262.4545,152.4316 L272.3182,153.0538 L282.1818,153.2608 L292.0455,152.1404 L301.9091,152.9167 L311.7727,150.6244 L321.6364,152.9092 L331.5,152.1508 L332.9587,152.247 L333.3495,162.3372 L334.4645,172.4752 L332.2146,182.3912 L332.4313,192.4699 L333.1799,202.5837 L335.5,212.8012 L335.3433,212.7908 L335.6437,202.6583 L338.6465,192.704 L337.0352,182.4453 L337.2538,172.3074 L339.4407,162.2993 L339.5,152.1508 L339.5,150.3726 L349.3637,150.7665 L359.2274,153.8814 L369.0911,153.3126 L378.9548,154.1095 L388.8185,151.2927 L398.6822,153.002 L408.5459,153.7253 L418.4097,150.8911 L428.2734,151.8952 L438.1371,152.4868 L448.0008,153.8889 L457.8645,152.1397 L467.7282,153.3843 L477.5919,150.6741 L487.4556,150.3448 L497.3193,153.4938 L507.183,150.239 L517.0467,153.5081 L526.9104,152.7018 L536.7741,151.4364 L546.6378,151.2074 L556.5015,153.3742 L566.3653,151.3526 L576.229,153.7291 L586.0927,150.6768 L595.9564,153.7973 L605.8201,153.4423 L615.6838,152.8041 L625.5475,152.2767 L635.4112,154.0885 L645.2749,153.787 L655.1386,152.6022 L665.0023,152.1508 L665.0023,152.1508 L665.7175,152.1508 L664.6549,141.9409 L666.9129,131.7309 L665.4153,121.521 L665.4625,111.311 L663.38,101.1011 L665.0023,90.8912 L664.7476,90.6365 L663.3359,89.2248 L661.2724,87.1613 L658.9753,84.8642 L656.7998,82.6887 L655.0023,80.8912 L655.0023,80.3074 L645.0177,79.0614 L635.033,81.9971 L625.0484,82.8633 L615.0637,82.2949 L605.0791,82.7443 L595.0944,80.5266 L585.1098,81.1237 L575.1251,79.8576 L565.1405,81.6486 L555.1558,81.5492 L545.1712,82.3642 L535.1865,80.2787 L525.2019,80.5327 L515.2172,82.0737 L505.2326,82.4041 L495.2479,79.5244 L485.2633,80.3741 L475.2786,81.2892 L465.2939,79.2622 L455.3093,81.8335 L445.3246,81.5791 L435.34,80.6225 L425.3553,81.2705 L415.3707,82.8343 L405.386,80.0568 L395.4014,81.7311 L385.4167,81.6529 L375.4321,81.1999 L365.4474,81.267 L355.4628,81.1938 L345.4781,79.2267 L335.4935,79.8223 L325.5088,79.6604 L315.5242,81.0614 L305.5395,81.1262 L295.5549,81.3225 L285.5702,80.1152 L275.5856,80.7111 L265.6009,80.5706 L255.6163,82.4294 L245.6316,82.0287 L235.647,79.5964 L225.6623,80.6967 L215.6777,79.3519 L205.693,81.6602 L195.7084,82.5138 L185.7237,82.3433 L175.7391,79.7297 L165.7544,82.1284 L155.7698,78.9103 L145.7851,81.4249 L135.8005,80.093 L125.8158,81.1491 L115.8312,81.5321 L105.8465,82.1501 L95.8619,78.9714 L85.8772,82.1591 L75.8926,81.3663 L65.9079,81.8387 L55.9233,82.8853 L45.9386,80.9058 L35.954,81.3586 L25.9693,81.4603 L15.9847,81.4171 L6,80.8912 L6,80.8912" fill="#FFFFE0" style="stroke:#181818;stroke-width:4;"/><path d="M655.0023,80.8912 L655.1891,80.8912 L654.634,82.8912 L655.1741,84.8912 L655.3576,86.8912 L654.3682,88.8912 L655.0023,90.8912 L655.0023,90.8221 L657.0023,90.5121 L659.0023,90.5503 L661.0023,90.8306 L663.0023,90.2766 L665.0023,90.8912 L665.3503,91.2391 L662.6062,88.495 L660.878,86.7669 L659.2738,85.1627 L656.9484,82.8372 L655.0023,80.8912" fill="#FFFFE0" style="stroke:#181818;stroke-width:4;"/><text fill="#000000" font-family="Chalkduster" font-size="24" lengthAdjust="spacing" textLength="493.2332" x="12" y="109.732">e.g. Language Data Commons terms</text><text fill="#000000" font-family="Chalkduster" font-size="24" lengthAdjust="spacing" textLength="638.0023" x="12" y="140.3619">such as communicationMode, SpokenLanguage</text></g><!--entity md--><g class="entity" data-entity="md" data-source-line="12" data-uid="ent0006" id="entity_md"><polygon fill="#FFE4E1" points="808.44,213.1512,808.44,213.3613,818.3811,212.7368,828.3223,213.3444,838.2634,213.5508,848.2045,212.4378,858.1456,213.0734,868.0868,212.7247,878.0279,212.7677,887.969,213.083,897.9101,212.4598,907.8513,213.7048,917.7924,212.5209,927.7335,212.9534,937.6746,213.5831,947.6158,213.0654,957.5569,213.2194,967.498,213.1192,977.4392,213.3297,987.3803,213.3903,997.3214,213.7369,1007.2625,213.8222,1017.2037,213.8304,1027.1448,213.4058,1037.0859,213.6147,1047.027,213.8534,1056.9682,212.43,1066.9093,213.8297,1076.8504,212.8547,1086.7916,213.685,1096.7327,212.6561,1106.6738,213.0827,1116.6149,213.8928,1126.5561,213.1512,1126.5498,213.1362,1126.923,213.33,1127.3064,213.5483,1127.6698,213.7187,1127.9698,213.7357,1128.3238,213.8834,1128.4123,213.92,1128.294,214.1639,1128.7043,214.6268,1128.932,215.014,1129.0465,215.3543,1129.0561,215.6512,1129.6691,215.6512,1128.573,225.1836,1128.4039,234.7161,1128.4347,244.2485,1128.9972,253.781,1128.8595,263.3135,1129.7375,272.8459,1128.8814,282.3784,1129.0561,291.9108,1128.9504,291.8671,1128.9799,292.2935,1128.5578,292.5329,1128.4568,292.9053,1128.6701,293.4078,1128.3238,293.6786,1128.3794,293.8128,1128.064,294.0512,1127.5757,293.8724,1127.3039,294.2162,1126.9849,294.4462,1126.5561,294.4108,1126.5561,293.9384,1116.6149,294.315,1106.6738,294.5368,1096.7327,295.0626,1086.7916,294.4066,1076.8504,294.8734,1066.9093,293.857,1056.9682,293.7336,1047.027,294.9144,1037.0859,293.6939,1027.1448,294.9198,1017.2037,294.6175,1007.2625,294.1429,997.3214,294.0571,987.3803,294.8696,977.4392,294.1115,967.498,295.0027,957.5569,293.8581,947.6158,295.0283,937.6746,294.8951,927.7335,294.6558,917.7924,294.458,907.8513,295.1374,897.9101,295.0244,887.969,294.5801,878.0279,294.679,868.0868,294.2806,858.1456,295.1273,848.2045,294.5657,838.2634,294.5834,828.3223,293.8025,818.3811,294.0056,808.44,294.4108,808.5077,294.5743,808.1413,294.3967,807.7274,294.1047,807.3382,293.8723,806.9979,293.7576,806.6722,293.6786,806.4609,293.5911,806.6535,293.3779,806.6071,293.0658,806.395,292.6851,806.3005,292.353,805.94,291.9108,805.8033,291.9108,806.0272,282.3784,805.5524,272.8459,806.224,263.3135,806.1868,253.781,806.4924,244.2485,805.7103,234.7161,805.8056,225.1836,805.94,215.6512,806.0766,215.7077,806.2612,215.37,806.0751,214.8787,806.3196,214.5658,806.5718,214.256,806.6722,213.8834,806.5943,213.6953,807.0709,213.8458,807.4122,213.67,807.72,213.413,808.1046,213.3414,808.44,213.1512" style="stroke:#181818;stroke-width:4;"/><text fill="#000000" font-family="Chalkduster" font-size="24" font-style="italic" lengthAdjust="spacing" textLength="174.126" x="880.435" y="246.992">&#171;workspace&#187;</text><text fill="#000000" font-family="Chalkduster" font-size="24" lengthAdjust="spacing" textLength="303.1161" x="815.94" y="277.6219">Domain-specific Mode</text></g><g class="entity" data-entity="GMN7" data-source-line="13" data-uid="ent0008" id="entity_GMN7"><path d="M753.8,80.8912 L754.3605,80.8912 L752.6951,91.0711 L754.3154,101.2511 L754.8658,111.431 L751.8976,121.611 L753.5928,131.7909 L752.6627,141.9709 L753.8,152.1508 L753.8,152.1508 L753.8,151.1282 L763.7857,151.9691 L773.7714,150.3072 L783.7571,153.6272 L793.7429,150.4701 L803.7286,151.6234 L813.7143,153.3027 L823.7,151.9221 L833.6857,152.3328 L843.6714,152.0656 L853.6571,152.6269 L863.6429,152.7885 L873.6286,153.7127 L883.6143,153.9403 L893.6,153.9622 L903.5857,152.8298 L913.5714,153.3871 L923.5571,154.0234 L933.5429,150.2277 L943.5286,153.9602 L953.5143,151.3602 L963.5,152.1508 L964.9204,152.2445 L962.8495,162.1723 L964.6511,172.3556 L967.4733,182.6061 L966.037,192.5758 L967.1135,202.7113 L967.5,212.8012 L968.4011,212.8606 L969.2742,202.7658 L968.8229,192.5837 L970.2642,182.5264 L968.6435,172.2672 L971.5901,162.3091 L971.5,152.1508 L971.5,153.6127 L981.4861,153.3362 L991.4723,153.7856 L1001.4584,150.8626 L1011.4445,150.4117 L1021.4307,150.4938 L1031.4168,151.9938 L1041.4029,151.6268 L1051.3891,153.9679 L1061.3752,151.685 L1071.3614,151.236 L1081.3475,152.7595 L1091.3336,150.3726 L1101.3198,150.7665 L1111.3059,153.8814 L1121.292,153.3126 L1131.2782,154.1095 L1141.2643,151.2927 L1151.2504,153.002 L1161.2366,153.7253 L1171.2227,150.8911 L1181.2088,152.1508 L1181.2088,152.1508 L1180.9532,152.1508 L1181.5448,141.9409 L1182.9469,131.7309 L1181.1977,121.521 L1182.4424,111.311 L1179.7321,101.1011 L1181.2088,90.8912 L1180.7832,90.4655 L1179.5254,89.2077 L1176.7582,86.4405 L1175.5287,85.2111 L1173.3387,83.021 L1171.2088,80.8912 L1171.2088,80.1767 L1161.2705,79.9478 L1151.3322,82.1145 L1141.3939,80.0929 L1131.4556,82.4695 L1121.5173,79.4172 L1111.579,82.5376 L1101.6407,82.1826 L1091.7024,81.5444 L1081.7641,81.0171 L1071.8258,82.8288 L1061.8875,82.5274 L1051.9492,81.3425 L1042.0109,81.6063 L1032.0726,80.5438 L1022.1343,82.8017 L1012.196,81.3041 L1002.2576,81.3514 L992.3193,79.2689 L982.381,79.8106 L972.4427,82.3065 L962.5044,82.0372 L952.5661,80.7767 L942.6278,80.032 L932.6895,80.3074 L922.7512,79.0614 L912.8129,81.9971 L902.8746,82.8633 L892.9363,82.2949 L882.998,82.7443 L873.0597,80.5266 L863.1214,81.1237 L853.1831,79.8576 L843.2448,81.6486 L833.3064,81.5492 L823.3681,82.3642 L813.4298,80.2787 L803.4915,80.5327 L793.5532,82.0737 L783.6149,82.4041 L773.6766,79.5244 L763.7383,80.3741 L753.8,80.8912 L753.8,80.8912" fill="#FFFFE0" style="stroke:#181818;stroke-width:4;"/><path d="M1171.2088,80.8912 L1171.3957,80.8912 L1170.8406,82.8912 L1171.3807,84.8912 L1171.5641,86.8912 L1170.5747,88.8912 L1171.2088,90.8912 L1171.2088,90.8221 L1173.2088,90.5121 L1175.2088,90.5503 L1177.2088,90.8306 L1179.2088,90.2766 L1181.2088,90.8912 L1181.5568,91.2391 L1178.8127,88.495 L1177.0845,86.7669 L1175.4803,85.1627 L1173.1549,82.8372 L1171.2088,80.8912" fill="#FFFFE0" style="stroke:#181818;stroke-width:4;"/><text fill="#000000" font-family="Chalkduster" font-size="24" lengthAdjust="spacing" textLength="406.4088" x="759.8" y="109.732">e.g. Language Data Commons</text><text fill="#000000" font-family="Chalkduster" font-size="24" lengthAdjust="spacing" textLength="135.4608" x="759.8" y="140.3619">mode file</text></g><g class="entity" data-entity="GMN10" data-source-line="14" data-uid="ent0011" id="entity_GMN10"><path d="M643.41,355.4112 L643.9705,355.4112 L642.3051,365.6001 L643.9254,375.7891 L644.4758,385.978 L641.5076,396.167 L643.2028,406.3559 L642.2727,416.5449 L642.3873,426.7338 L643.2282,436.9228 L641.5663,447.1117 L643.41,457.3007 L643.41,457.3007 L643.41,458.777 L653.382,455.6199 L663.3541,456.7733 L673.3261,458.4525 L683.2981,457.0719 L693.2702,457.4826 L703.2422,457.2155 L713.2143,457.7767 L723.1863,457.9384 L733.1583,458.8625 L743.1304,459.0901 L753.1024,459.112 L763.0744,457.9797 L773.0465,458.5369 L783.0185,459.1733 L792.9905,455.3775 L802.9626,459.11 L812.9346,456.51 L822.9067,458.7242 L832.8787,455.9806 L842.8507,457.118 L852.8228,459.2783 L862.7948,457.1707 L872.7668,457.5815 L882.7389,458.2037 L892.7109,458.4106 L902.6829,457.2902 L912.655,458.0666 L922.627,455.7742 L932.5991,458.059 L942.5711,458.7625 L952.5431,458.4861 L962.5152,458.9354 L972.4872,456.0124 L982.4592,455.5615 L992.4313,455.6436 L1002.4033,457.1436 L1012.3754,456.7766 L1022.3474,459.1178 L1032.3194,456.8349 L1042.2915,456.3859 L1052.2635,457.9094 L1062.2355,455.5224 L1072.2076,455.9163 L1082.1796,459.0312 L1092.1516,458.4624 L1102.1237,459.2593 L1112.0957,456.4425 L1122.0678,458.1519 L1132.0398,458.8751 L1142.0118,456.0409 L1151.9839,457.045 L1161.9559,457.6366 L1171.9279,459.0387 L1181.9,457.2895 L1191.872,458.5342 L1201.844,455.8239 L1211.8161,455.4946 L1221.7881,458.6436 L1231.7602,455.3888 L1241.7322,458.6579 L1251.7042,457.8517 L1261.6763,456.5862 L1271.6483,456.3573 L1281.6203,458.524 L1291.5924,457.3007 L1291.5924,457.3007 L1290.7942,457.3007 L1293.1707,447.0907 L1290.1184,436.8808 L1293.2388,426.6708 L1292.8838,416.4609 L1292.2456,406.2509 L1291.7183,396.041 L1293.53,385.831 L1293.2286,375.6211 L1291.5924,365.4112 L1291.6988,365.5175 L1289.7609,363.5797 L1287.5105,361.3293 L1286.0427,359.8615 L1283.6897,357.5085 L1281.5924,355.4112 L1281.5924,355.8714 L1271.5894,353.7889 L1261.5864,354.3306 L1251.5834,356.8265 L1241.5805,356.5572 L1231.5775,355.2967 L1221.5745,354.552 L1211.5715,354.8274 L1201.5685,353.5814 L1191.5656,356.5171 L1181.5626,357.3833 L1171.5596,356.8149 L1161.5566,357.2643 L1151.5536,355.0466 L1141.5507,355.6437 L1131.5477,354.3776 L1121.5447,356.1686 L1111.5417,356.0692 L1101.5387,356.8842 L1091.5358,354.7987 L1081.5328,355.0527 L1071.5298,356.5937 L1061.5268,356.9241 L1051.5238,354.0444 L1041.5209,354.8941 L1031.5179,355.8092 L1021.5149,353.7822 L1011.5119,356.3535 L1001.5089,356.0991 L991.506,355.1425 L981.503,355.7905 L971.5,355.4112 L973.4389,355.539 L970.0008,345.2446 L971.0048,335.2431 L970.2601,325.1263 L969.1414,314.9848 L968.5416,304.8775 L967.5,294.7412 L967.802,294.7611 L965.1725,304.7433 L965.1001,314.8942 L964.2719,324.9952 L965.0032,335.199 L964.4012,345.315 L963.5,355.4112 L963.5,355.8425 L953.4972,354.6352 L943.4944,355.2311 L933.4916,355.0906 L923.4888,356.9494 L913.4859,356.5487 L903.4831,354.1164 L893.4803,355.2167 L883.4775,353.8719 L873.4747,356.1802 L863.4719,357.0338 L853.4691,356.8633 L843.4663,354.2497 L833.4634,356.6484 L823.4606,353.4303 L813.4578,355.9449 L803.455,354.613 L793.4522,355.6691 L783.4494,356.0521 L773.4466,356.6701 L763.4437,353.4914 L753.4409,356.6791 L743.4381,355.8863 L733.4353,356.3587 L723.4325,357.4053 L713.4297,355.4258 L703.4269,355.8786 L693.4241,355.9803 L683.4213,355.9371 L673.4184,355.409 L663.4156,357.3064 L653.4128,353.7852 L643.41,355.4112 L643.41,355.4112" fill="#FFFFE0" style="stroke:#181818;stroke-width:4;"/><path d="M1281.5924,355.4112 L1281.7792,355.4112 L1281.2241,357.4112 L1281.7642,359.4112 L1281.9476,361.4112 L1280.9582,363.4112 L1281.5924,365.4112 L1281.5924,365.3421 L1283.5924,365.0321 L1285.5924,365.0703 L1287.5924,365.3506 L1289.5924,364.7966 L1291.5924,365.4112 L1291.9404,365.7591 L1289.1962,363.015 L1287.4681,361.2869 L1285.8639,359.6827 L1283.5385,357.3572 L1281.5924,355.4112" fill="#FFFFE0" style="stroke:#181818;stroke-width:4;"/><text fill="#000000" font-family="Chalkduster" font-size="24" lengthAdjust="spacing" textLength="585.9183" x="649.41" y="384.252">- Specify behaviour of editor, e.g. Crate-O</text><text fill="#000000" font-family="Chalkduster" font-size="24" lengthAdjust="spacing" textLength="413.8873" x="649.41" y="414.8819">- Validate RO-Crate structure</text><text fill="#000000" font-family="Chalkduster" font-size="24" lengthAdjust="spacing" textLength="627.1824" x="649.41" y="445.5117">- Used for generating profile documentation</text></g><!--entity pf--><g class="entity" data-entity="pf" data-source-line="16" data-uid="ent0013" id="entity_pf"><polygon fill="#E6E6FA" points="1526.21,213.1512,1526.21,213.3613,1536.2762,212.7368,1546.3424,213.3444,1556.4086,213.5508,1566.4749,212.4378,1576.5411,213.0734,1586.6073,212.7247,1596.6735,212.7677,1606.7397,213.083,1616.8059,212.4598,1626.8721,213.7048,1636.9384,212.5209,1647.0046,212.9534,1657.0708,213.5831,1667.137,213.0654,1677.2032,213.2194,1687.2694,213.1192,1697.3356,213.3297,1707.4018,213.3903,1717.4681,213.7369,1727.5343,213.8222,1737.6005,213.8304,1747.6667,213.4058,1757.7329,213.6147,1767.7991,213.8534,1777.8653,212.43,1787.9316,213.8297,1797.9978,212.8547,1808.064,213.685,1818.1302,212.6561,1828.1964,213.0827,1838.2626,213.8928,1848.3288,213.1024,1858.3951,213.2565,1868.4613,213.4898,1878.5275,213.5674,1888.5937,213.1473,1898.6599,213.4384,1908.7261,212.5787,1918.7923,213.1512,1918.8286,213.2387,1919.2158,213.4664,1919.5561,213.581,1919.9312,213.7793,1920.1449,213.5882,1920.5601,213.8834,1920.3593,213.8002,1920.5152,214.1577,1920.8349,214.583,1920.9389,214.919,1921.3557,215.3845,1921.2923,215.6512,1921.1177,215.6512,1920.9493,225.1836,1921.5206,234.7161,1920.6255,244.2485,1920.7732,253.781,1921.9413,263.3135,1921.728,272.8459,1922.0268,282.3784,1921.2923,291.9108,1921.1932,291.8698,1921.2442,292.3051,1921.1813,292.6932,1920.7075,292.9112,1920.677,293.3128,1920.5601,293.6786,1920.5762,293.7174,1920.2897,294.0258,1919.8525,293.9702,1919.5584,294.2604,1919.0752,294.0938,1918.7923,294.4108,1918.7923,293.7336,1908.7261,294.9144,1898.6599,293.6939,1888.5937,294.9198,1878.5275,294.6175,1868.4613,294.1429,1858.3951,294.0571,1848.3288,294.8696,1838.2626,294.1115,1828.1964,295.0027,1818.1302,293.8581,1808.064,295.0283,1797.9978,294.8951,1787.9316,294.6558,1777.8653,294.458,1767.7991,295.1374,1757.7329,295.0244,1747.6667,294.5801,1737.6005,294.679,1727.5343,294.2806,1717.4681,295.1273,1707.4018,294.5657,1697.3356,294.5834,1687.2694,293.8025,1677.2032,294.0056,1667.137,294.9416,1657.0708,294.8406,1647.0046,294.3679,1636.9384,294.0887,1626.8721,294.1919,1616.8059,293.7247,1606.7397,294.8256,1596.6735,295.1504,1586.6073,294.9372,1576.5411,295.1058,1566.4749,294.2741,1556.4086,294.498,1546.3424,294.0232,1536.2762,294.6949,1526.21,294.4108,1526.2415,294.4868,1525.9269,294.4345,1525.4736,294.0472,1525.1322,293.9301,1524.8524,293.9616,1524.4422,293.6786,1524.6169,293.751,1524.1379,293.2597,1524.0896,292.9468,1524.0489,292.637,1523.6683,292.1865,1523.71,291.9108,1524.0634,291.9108,1523.968,282.3784,1523.6092,272.8459,1523.8522,263.3135,1524.4387,253.781,1523.3971,244.2485,1524.025,234.7161,1523.9956,225.1836,1523.71,215.6512,1523.7457,215.6659,1523.8998,215.3156,1524.0378,214.9585,1523.9571,214.5109,1524.1724,214.1858,1524.4422,213.8834,1524.3834,213.7413,1524.8039,213.7566,1525.1606,213.6176,1525.5235,213.4939,1525.8193,213.208,1526.21,213.1512" style="stroke:#181818;stroke-width:4;"/><text fill="#000000" font-family="Chalkduster" font-size="24" font-style="italic" lengthAdjust="spacing" textLength="168.5569" x="1638.2227" y="246.992">&#171;standards&#187;</text><text fill="#000000" font-family="Chalkduster" font-size="24" lengthAdjust="spacing" textLength="377.5823" x="1533.71" y="277.6219">RO-Crate Profile Document</text></g><g class="entity" data-entity="GMN17" data-source-line="21" data-uid="ent0018" id="entity_GMN17"><path d="M1440.3,80.8912 L1440.8605,80.8912 L1439.1951,91.0711 L1440.8154,101.2511 L1441.3658,111.431 L1438.3976,121.611 L1440.0928,131.7909 L1439.1627,141.9709 L1440.3,152.1508 L1440.3,152.1508 L1440.3,151.1282 L1450.2357,151.9691 L1460.1714,150.3072 L1470.1071,153.6272 L1480.0429,150.4701 L1489.9786,151.6234 L1499.9143,153.3027 L1509.85,151.9221 L1519.7857,152.3328 L1529.7214,152.0656 L1539.6571,152.6269 L1549.5929,152.7885 L1559.5286,153.7127 L1569.4643,153.9403 L1579.4,153.9622 L1589.3357,152.8298 L1599.2714,153.3871 L1609.2071,154.0234 L1619.1429,150.2277 L1629.0786,153.9602 L1639.0143,151.3602 L1648.95,153.5743 L1658.8857,150.8308 L1668.8214,151.9682 L1678.7571,154.1284 L1688.6929,152.0209 L1698.6286,152.4316 L1708.5643,153.0538 L1718.5,152.1508 L1719.6075,152.2239 L1719.1563,162.2585 L1720.5976,172.418 L1718.9769,182.3755 L1721.9234,192.6343 L1723.292,202.789 L1722.5,212.8012 L1723.6829,212.8792 L1724.7979,202.8004 L1722.5479,192.4996 L1722.7646,182.3615 L1723.5132,172.2586 L1725.6767,162.2489 L1726.5,152.1508 L1726.5,151.6268 L1736.436,153.9679 L1746.372,151.685 L1756.308,151.236 L1766.244,152.7595 L1776.18,150.3726 L1786.116,150.7665 L1796.0519,153.8814 L1805.9879,153.3126 L1815.9239,154.1095 L1825.8599,151.2927 L1835.7959,153.002 L1845.7319,153.7253 L1855.6679,150.8911 L1865.6039,151.8952 L1875.5399,152.4868 L1885.4759,153.8889 L1895.4119,152.1397 L1905.3479,153.3843 L1915.2838,150.6741 L1925.2198,150.3448 L1935.1558,153.4938 L1945.0918,150.239 L1955.0278,153.5081 L1964.9638,152.7018 L1974.8998,151.4364 L1984.8358,151.2074 L1994.7718,153.3742 L2004.7078,152.1508 L2004.7078,152.1508 L2003.9096,152.1508 L2006.2861,141.9409 L2003.2338,131.7309 L2006.3542,121.521 L2005.9993,111.311 L2005.361,101.1011 L2004.7078,90.8912 L2004.7375,90.9208 L2003.1645,89.3479 L2001.0934,87.2768 L1998.8142,84.9975 L1996.8763,83.0597 L1994.7078,80.8912 L1994.7078,80.5438 L1984.6276,82.8017 L1974.5475,81.3041 L1964.4674,81.3514 L1954.3872,79.2689 L1944.3071,79.8106 L1934.2269,82.3065 L1924.1468,82.0372 L1914.0666,80.7767 L1903.9865,80.032 L1893.9064,80.3074 L1883.8262,79.0614 L1873.7461,81.9971 L1863.6659,82.8633 L1853.5858,82.2949 L1843.5057,82.7443 L1833.4255,80.5266 L1823.3454,81.1237 L1813.2652,79.8576 L1803.1851,81.6486 L1793.1049,81.5492 L1783.0248,82.3642 L1772.9447,80.2787 L1762.8645,80.5327 L1752.7844,82.0737 L1742.7042,82.4041 L1732.6241,79.5244 L1722.544,80.3741 L1712.4638,81.2892 L1702.3837,79.2622 L1692.3035,81.8335 L1682.2234,81.5791 L1672.1433,80.6225 L1662.0631,81.2705 L1651.983,82.8343 L1641.9028,80.0568 L1631.8227,81.7311 L1621.7425,81.6529 L1611.6624,81.1999 L1601.5823,81.267 L1591.5021,81.1938 L1581.422,79.2267 L1571.3418,79.8223 L1561.2617,79.6604 L1551.1816,81.0614 L1541.1014,81.1262 L1531.0213,81.3225 L1520.9411,80.1152 L1510.861,80.7111 L1500.7808,80.5706 L1490.7007,82.4294 L1480.6206,82.0287 L1470.5404,79.5964 L1460.4603,80.6967 L1450.3801,79.3519 L1440.3,80.8912 L1440.3,80.8912" fill="#FFFFE0" style="stroke:#181818;stroke-width:4;"/><path d="M1994.7078,80.8912 L1994.8946,80.8912 L1994.3395,82.8912 L1994.8796,84.8912 L1995.063,86.8912 L1994.0736,88.8912 L1994.7078,90.8912 L1994.7078,90.8221 L1996.7078,90.5121 L1998.7078,90.5503 L2000.7078,90.8306 L2002.7078,90.2766 L2004.7078,90.8912 L2005.0558,91.2391 L2002.3116,88.495 L2000.5835,86.7669 L1998.9793,85.1627 L1996.6539,82.8372 L1994.7078,80.8912" fill="#FFFFE0" style="stroke:#181818;stroke-width:4;"/><text fill="#000000" font-family="Chalkduster" font-size="24" lengthAdjust="spacing" textLength="543.4078" x="1446.3" y="109.732">e.g. Language Data Commons RO-Crate</text><text fill="#000000" font-family="Chalkduster" font-size="24" lengthAdjust="spacing" textLength="240.5834" x="1446.3" y="140.3619">Profile Document</text></g><!--reverse link md to pf--><g class="link" data-entity-1="md" data-entity-2="pf" data-source-line="18" data-uid="lnk15" id="link_md_pf"><path d="M1135.47,253.7812 L1135.47,254.0614 L1145.42,253.2287 L1155.37,254.0389 L1165.32,254.3141 L1175.27,252.83 L1185.22,253.6775 L1195.17,253.2125 L1205.12,253.2698 L1215.07,253.6903 L1225.02,252.8593 L1234.97,254.5194 L1244.92,252.9408 L1254.87,253.5175 L1264.82,254.3571 L1274.77,253.6668 L1284.72,253.8721 L1294.67,253.7386 L1304.62,254.0192 L1314.57,254.1 L1324.52,254.5621 L1334.47,254.6759 L1344.42,254.6868 L1354.37,254.1207 L1364.32,254.3993 L1374.27,254.7175 L1384.22,252.8196 L1394.17,254.6858 L1404.12,253.3858 L1414.07,254.4929 L1424.02,253.1211 L1433.97,253.6898 L1443.92,254.77 L1453.87,253.7162 L1463.82,253.9216 L1473.77,254.2327 L1483.72,254.3361 L1493.67,253.776 L1503.62,254.1641 L1513.57,253.0179 L1523.52,253.7812" fill="none" style="stroke:#8B0000;stroke-width:4;"/><polygon fill="#8B0000" points="1129.47,253.7812,1129.4985,253.8452,1131.2139,254.455,1133.0962,255.44,1134.9241,256.3029,1136.5734,256.7639,1138.47,257.7812,1138.4517,257.7628,1137.5695,256.8806,1136.7796,256.0908,1136.0539,255.3651,1135.107,254.4182,1134.47,253.7812,1134.6005,253.9117,1135.1214,252.8326,1136.0234,252.1345,1136.9718,251.483,1137.6498,250.5609,1138.47,249.7812,1138.4792,249.8019,1136.6657,250.5714,1134.8942,251.4355,1133.1024,252.254,1131.3493,253.1596,1129.47,253.7812" style="stroke:#8B0000;stroke-width:4;"/><text fill="#000000" font-family="Chalkduster" font-size="24" lengthAdjust="spacing" textLength="187.7304" x="1232.791" y="182.622">Include rules</text><text fill="#000000" font-family="Chalkduster" font-size="24" lengthAdjust="spacing" textLength="356.5525" x="1148.38" y="213.2519">documentation generated</text><text fill="#000000" font-family="Chalkduster" font-size="24" lengthAdjust="spacing" textLength="66.9348" x="1293.1888" y="243.8817">from</text></g><!--reverse link soss to md--><g class="link" data-entity-1="soss" data-entity-2="md" data-source-line="19" data-uid="lnk16" id="link_soss_md"><path d="M648.24,253.7812 L648.24,254.0614 L658.0731,253.2287 L667.9063,254.0389 L677.7394,254.3141 L687.5725,252.83 L697.4056,253.6775 L707.2388,253.2125 L717.0719,253.2698 L726.905,253.6903 L736.7381,252.8593 L746.5713,254.5194 L756.4044,252.9408 L766.2375,253.5175 L776.0706,254.3571 L785.9038,253.6668 L795.7369,253.8721 L805.57,253.7812" fill="none" style="stroke:#8B0000;stroke-width:4;"/><polygon fill="#8B0000" points="642.24,253.7812,642.2685,253.8452,643.9839,254.455,645.8662,255.44,647.6941,256.3029,649.3434,256.7639,651.24,257.7812,651.2217,257.7628,650.3395,256.8806,649.5496,256.0908,648.8239,255.3651,647.877,254.4182,647.24,253.7812,647.3705,253.9117,647.8914,252.8326,648.7934,252.1345,649.7418,251.483,650.4198,250.5609,651.24,249.7812,651.2492,249.8019,649.4357,250.5714,647.6642,251.4355,645.8724,252.254,644.1193,253.1596,642.24,253.7812" style="stroke:#8B0000;stroke-width:4;"/><text fill="#000000" font-family="Chalkduster" font-size="24" lengthAdjust="spacing" textLength="125.0917" x="661.52" y="243.622">Based on</text></g><!--SRC=[VP9DRzim38Rl-XLSJnjGUVSWoA7DPS263FEwau52bMXRY4KQ4hKi_xwIdHJBCFHY2Fnw7xxq1qzsoWwVWw4pD9-T4QFBsmmOa4GdEK_Oo1zHIhnCk86V8uAC4H62yGIMmynKIXFq7E77GJz68mZel7WQuEHbX2Ma3qgfY5OC3HF2NMj73ARXE41RLM0DmCVsqBQVbcbxhXftiDscqkLCT6ct0vCWSKfbcY8kKi8pSB_4De3DqC3N8f7B2h0lwy0ZXy2KG326r57ATgmp2dd8vAqHp_ID7Tv3E_CHwTfzGxkYw3IZzRstK1igs8dZCSt6uWeMt0rJSEyHTHJA5EZzX6lN2ujmk3RgmbFLpl22e_djESUQgivol5_dNfpjICClCtbNhN-xGPAOhUI8DVsKq2sc3aXOqlKuS-Gg3evjhkTUhBXP-stMzqlf_bBwdwFCFIXLFdh2NlIkx00R-BB-Nn3pX6NX6wKh2hgE-iX1rHF2LaS_ZABN_WTJkIlLtxxE_RkNlb9tz2_sAm00]--></g></svg>