<?xml version="1.0" encoding="us-ascii" standalone="no"?><svg xmlns="http://www.w3.org/2000/svg" xmlns:xlink="http://www.w3.org/1999/xlink" contentStyleType="text/css" height="473px" preserveAspectRatio="none" style="width:1707px;height:473px;background:#FFFFFF;" version="1.1" viewBox="0 0 1707 473" width="1707px" zoomAndPan="magnify"><defs/><g><text fill="#000000" font-family="Chalkduster" font-size="42" font-weight="bold" lengthAdjust="spacing" textLength="1519" x="87" y="51.7215">The three main components for RO-Crate editing with Crate-O</text><!--entity soss--><g id="elem_soss"><polygon fill="#E6E6FA" points="74,213.1512,74,213.3613,84.0385,212.7368,94.0769,213.3444,104.1154,213.5508,114.1538,212.4378,124.1923,213.0734,134.2308,212.7247,144.2692,212.7677,154.3077,213.083,164.3462,212.4598,174.3846,213.7048,184.4231,212.5209,194.4615,212.9534,204.5,213.5831,214.5385,213.0654,224.5769,213.2194,234.6154,213.1192,244.6538,213.3297,254.6923,213.3903,264.7308,213.7369,274.7692,213.8222,284.8077,213.8304,294.8462,213.4058,304.8846,213.6147,314.9231,213.8534,324.9615,212.43,335,213.8297,345.0385,212.8547,355.0769,213.685,365.1154,212.6561,375.1538,213.0827,385.1923,213.8928,395.2308,213.1024,405.2692,213.2565,415.3077,213.4898,425.3462,213.5674,435.3846,213.1473,445.4231,213.4384,455.4615,212.5787,465.5,213.4355,475.5385,213.6994,485.5769,213.5957,495.6154,213.7642,505.6538,212.6681,515.6923,212.499,525.7308,212.5298,535.7692,213.0923,545.8077,212.9546,555.8462,213.8326,565.8846,212.9765,575.9231,212.8081,585.9615,213.3794,596,213.1512,595.9149,212.9458,596.2873,213.1377,596.7899,213.6439,597.1162,213.7247,597.5079,213.9631,597.7678,213.8834,597.6687,213.8423,598.0125,214.2777,598.2425,214.6658,598.0616,214.8838,598.324,215.2854,598.5,215.6512,598.626,215.6512,599.1518,225.1836,598.4958,234.7161,598.9626,244.2485,597.9462,253.781,597.8227,263.3135,599.0036,272.8459,597.7831,282.3784,598.5,291.9108,598.6567,291.9758,598.4172,292.2907,598.1246,292.5838,597.9517,292.9264,598.0555,293.3836,597.7678,293.6786,597.7296,293.5864,597.4897,294.0073,596.9902,293.8013,596.7859,294.3081,596.4153,294.4135,596,294.4108,596,294.6558,585.9615,294.458,575.9231,295.1374,565.8846,295.0244,555.8462,294.5801,545.8077,294.679,535.7692,294.2806,525.7308,295.1273,515.6923,294.5657,505.6538,294.5834,495.6154,293.8025,485.5769,294.0056,475.5385,294.9416,465.5,294.8406,455.4615,294.3679,445.4231,294.0887,435.3846,294.1919,425.3462,293.7247,415.3077,294.8256,405.2692,295.1504,395.2308,294.9372,385.1923,295.1058,375.1538,294.2741,365.1154,294.498,355.0769,294.0232,345.0385,294.6949,335,294.6576,324.9615,294.9632,314.9231,294.1812,304.8846,294.2764,294.8462,294.8543,284.8077,294.9782,274.7692,293.8983,264.7308,294.2169,254.6923,294.5601,244.6538,293.8,234.6154,294.7642,224.5769,294.6688,214.5385,294.3101,204.5,294.5531,194.4615,295.1395,184.4231,294.098,174.3846,294.7258,164.3462,294.6965,154.3077,294.5266,144.2692,294.5517,134.2308,294.5243,124.1923,293.7867,114.1538,294.01,104.1154,293.9493,94.0769,294.4747,84.0385,294.499,74,294.4108,74.0206,294.4606,73.6093,294.1748,73.2843,294.0971,72.924,293.9345,72.6594,294.0027,72.2322,293.6786,72.3636,293.733,71.9363,293.2631,71.9169,292.9622,71.6151,292.5443,71.7353,292.3012,71.5,291.9108,72.1085,291.9108,72.0446,282.3784,71.0644,272.8459,71.964,263.3135,70.7572,253.781,71.7002,244.2485,71.2007,234.7161,71.5967,225.1836,71.5,215.6512,71.574,215.6818,71.7918,215.3578,71.5712,214.8522,72.0858,214.6512,72.1407,214.2597,72.2322,213.8834,72.2776,213.9928,72.6812,213.9672,72.94,213.5922,73.3153,213.498,73.6737,213.3633,74,213.1512" style="stroke:#181818;stroke-width:4.0;"/><text fill="#000000" font-family="Chalkduster" font-size="24" font-style="italic" lengthAdjust="spacing" textLength="170" x="250" y="246.992">&#171;standards&#187;</text><text fill="#000000" font-family="Chalkduster" font-size="24" lengthAdjust="spacing" textLength="507" x="81.5" y="277.6219">Schema.org Style Schema for Domain</text></g><!--entity so--><g id="elem_so"><polygon fill="#E6E6FA" points="70.5,386.4112,70.5,386.6213,80.4811,385.9968,90.4623,386.6044,100.4434,386.8108,110.4245,385.6978,120.4057,386.3334,130.3868,385.9847,140.3679,386.0277,150.3491,386.343,160.3302,385.7198,170.3113,386.9648,180.2925,385.7809,190.2736,386.2134,200.2547,386.8431,210.2358,386.3254,220.217,386.4794,230.1981,386.3792,240.1792,386.5897,250.1604,386.6503,260.1415,386.9969,270.1226,387.0822,280.1038,387.0904,290.0849,386.6658,300.066,386.8747,310.0472,387.1134,320.0283,385.69,330.0094,387.0897,339.9906,386.1147,349.9717,386.945,359.9528,385.9161,369.934,386.3427,379.9151,387.1528,389.8962,386.3624,399.8774,386.5165,409.8585,386.7498,419.8396,386.8274,429.8208,386.4073,439.8019,386.6984,449.783,385.8387,459.7642,386.6955,469.7453,386.9594,479.7264,386.8557,489.7075,387.0242,499.6887,385.9281,509.6698,385.759,519.6509,385.7898,529.6321,386.3523,539.6132,386.2146,549.5943,387.0926,559.5755,386.2365,569.5566,386.0681,579.5377,386.6394,589.5189,385.7443,599.5,386.4112,599.4338,386.2513,599.9363,386.7575,600.2627,386.8382,600.6544,387.0767,600.8732,386.8978,601.2678,387.1434,601.3661,387.1841,601.596,387.5723,601.4152,387.7902,601.6776,388.1918,601.8924,388.5737,602,388.9112,602.6518,388.9112,601.9958,398.4436,602.4626,407.9761,601.4462,417.5085,601.3227,427.041,602.5036,436.5735,601.2831,446.1059,602.509,455.6384,602,465.1708,602.0636,465.1972,601.771,465.4902,601.5982,465.8328,601.7019,466.29,601.322,466.5469,601.2678,466.9386,601.3433,467.1209,600.8437,466.9148,600.6394,467.4216,600.2689,467.5271,599.8848,467.5998,599.5,467.6708,599.5,467.718,589.5189,468.3974,579.5377,468.2844,569.5566,467.8401,559.5755,467.939,549.5943,467.5406,539.6132,468.3873,529.6321,467.8257,519.6509,467.8434,509.6698,467.0625,499.6887,467.2656,489.7075,468.2016,479.7264,468.1006,469.7453,467.6279,459.7642,467.3487,449.783,467.4519,439.8019,466.9847,429.8208,468.0856,419.8396,468.4104,409.8585,468.1972,399.8774,468.3658,389.8962,467.5341,379.9151,467.758,369.934,467.2832,359.9528,467.9549,349.9717,467.9176,339.9906,468.2232,330.0094,467.4412,320.0283,467.5364,310.0472,468.1143,300.066,468.2382,290.0849,467.1583,280.1038,467.4769,270.1226,467.8201,260.1415,467.06,250.1604,468.0242,240.1792,467.9288,230.1981,467.5701,220.217,467.8131,210.2358,468.3995,200.2547,467.358,190.2736,467.9858,180.2925,467.9565,170.3113,467.7866,160.3302,467.8117,150.3491,467.7843,140.3679,467.0467,130.3868,467.27,120.4057,467.2093,110.4245,467.7347,100.4434,467.759,90.4623,467.8326,80.4811,467.3799,70.5,467.6708,70.4914,467.65,70.1311,467.4874,69.8665,467.5556,69.4938,467.3629,69.0239,466.9355,68.7322,466.9386,68.7098,466.9293,68.408,466.5114,68.5282,466.2683,68.4803,465.9556,68.3142,465.5938,68,465.1708,67.5644,465.1708,68.464,455.6384,67.2572,446.1059,68.2002,436.5735,67.7007,427.041,68.0967,417.5085,68.2403,407.9761,68.4721,398.4436,68,388.9112,67.7783,388.8193,68.2929,388.6183,68.3478,388.2268,68.5488,387.8958,68.8161,387.5923,68.7322,387.1434,68.7329,387.1451,69.1081,387.0509,69.4666,386.9162,69.8181,386.7648,70.1463,386.5574,70.5,386.4112" style="stroke:#181818;stroke-width:4.0;"/><text fill="#000000" font-family="Chalkduster" font-size="24" font-style="italic" lengthAdjust="spacing" textLength="170" x="250" y="420.252">&#171;standards&#187;</text><text fill="#000000" font-family="Chalkduster" font-size="24" lengthAdjust="spacing" textLength="514" x="78" y="450.8819">Schema.org Schema + RO-Crate terms</text></g><g id="elem_GMN5"><path d="M6,80.8912 L6.5605,80.8912 L4.8951,91.0711 L6.5154,101.2511 L7.0658,111.431 L4.0976,121.611 L5.7928,131.7909 L4.8627,141.9709 L6,152.1508 L6,152.1508 L6,151.1282 L15.8485,151.9691 L25.697,150.3072 L35.5455,153.6272 L45.3939,150.4701 L55.2424,151.6234 L65.0909,153.3027 L74.9394,151.9221 L84.7879,152.3328 L94.6364,152.0656 L104.4848,152.6269 L114.3333,152.7885 L124.1818,153.7127 L134.0303,153.9403 L143.8788,153.9622 L153.7273,152.8298 L163.5758,153.3871 L173.4242,154.0234 L183.2727,150.2277 L193.1212,153.9602 L202.9697,151.3602 L212.8182,153.5743 L222.6667,150.8308 L232.5152,151.9682 L242.3636,154.1284 L252.2121,152.0209 L262.0606,152.4316 L271.9091,153.0538 L281.7576,153.2608 L291.6061,152.1404 L301.4545,152.9167 L311.303,150.6244 L321.1515,152.9092 L331,152.1508 L332.4587,152.247 L332.8495,162.3372 L333.9645,172.4752 L331.7146,182.3912 L331.9313,192.4699 L332.6799,202.5837 L335,212.8012 L334.8433,212.7908 L335.1437,202.6583 L338.1465,192.704 L336.5352,182.4453 L336.7538,172.3074 L338.9407,162.2993 L339,152.1508 L339,150.3726 L348.8485,150.7665 L358.697,153.8814 L368.5455,153.3126 L378.3939,154.1095 L388.2424,151.2927 L398.0909,153.002 L407.9394,153.7253 L417.7879,150.8911 L427.6364,151.8952 L437.4848,152.4868 L447.3333,153.8889 L457.1818,152.1397 L467.0303,153.3843 L476.8788,150.6741 L486.7273,150.3448 L496.5758,153.4938 L506.4242,150.239 L516.2727,153.5081 L526.1212,152.7018 L535.9697,151.4364 L545.8182,151.2074 L555.6667,153.3742 L565.5152,151.3526 L575.3636,153.7291 L585.2121,150.6768 L595.0606,153.7973 L604.9091,153.4423 L614.7576,152.8041 L624.6061,152.2767 L634.4545,154.0885 L644.303,153.787 L654.1515,152.6022 L664,152.1508 L664,152.1508 L664.7152,152.1508 L663.6526,141.9409 L665.9105,131.7309 L664.413,121.521 L664.4602,111.311 L662.3777,101.1011 L664,90.8912 L663.7453,90.6365 L662.3336,89.2248 L660.2701,87.1613 L657.973,84.8642 L655.7975,82.6887 L654,80.8912 L654,80.3074 L644.0308,79.0614 L634.0615,81.9971 L624.0923,82.8633 L614.1231,82.2949 L604.1538,82.7443 L594.1846,80.5266 L584.2154,81.1237 L574.2462,79.8576 L564.2769,81.6486 L554.3077,81.5492 L544.3385,82.3642 L534.3692,80.2787 L524.4,80.5327 L514.4308,82.0737 L504.4615,82.4041 L494.4923,79.5244 L484.5231,80.3741 L474.5538,81.2892 L464.5846,79.2622 L454.6154,81.8335 L444.6462,81.5791 L434.6769,80.6225 L424.7077,81.2705 L414.7385,82.8343 L404.7692,80.0568 L394.8,81.7311 L384.8308,81.6529 L374.8615,81.1999 L364.8923,81.267 L354.9231,81.1938 L344.9538,79.2267 L334.9846,79.8223 L325.0154,79.6604 L315.0462,81.0614 L305.0769,81.1262 L295.1077,81.3225 L285.1385,80.1152 L275.1692,80.7111 L265.2,80.5706 L255.2308,82.4294 L245.2615,82.0287 L235.2923,79.5964 L225.3231,80.6967 L215.3538,79.3519 L205.3846,81.6602 L195.4154,82.5138 L185.4462,82.3433 L175.4769,79.7297 L165.5077,82.1284 L155.5385,78.9103 L145.5692,81.4249 L135.6,80.093 L125.6308,81.1491 L115.6615,81.5321 L105.6923,82.1501 L95.7231,78.9714 L85.7538,82.1591 L75.7846,81.3663 L65.8154,81.8387 L55.8462,82.8853 L45.8769,80.9058 L35.9077,81.3586 L25.9385,81.4603 L15.9692,81.4171 L6,80.8912 L6,80.8912 " fill="#FFFFE0" style="stroke:#181818;stroke-width:4.0;"/><path d="M654,80.8912 L654.1868,80.8912 L653.6317,82.8912 L654.1718,84.8912 L654.3553,86.8912 L653.3659,88.8912 L654,90.8912 L654,90.8221 L656,90.5121 L658,90.5503 L660,90.8306 L662,90.2766 L664,90.8912 L664.348,91.2391 L661.6038,88.495 L659.8757,86.7669 L658.2715,85.1627 L655.9461,82.8372 L654,80.8912 " fill="#FFFFE0" style="stroke:#181818;stroke-width:4.0;"/><text fill="#000000" font-family="Chalkduster" font-size="24" lengthAdjust="spacing" textLength="480" x="12" y="109.732">Eg Language Data Commons terms</text><text fill="#000000" font-family="Chalkduster" font-size="24" lengthAdjust="spacing" textLength="637" x="12" y="140.3619">such as communicationMode, SpokenLanguage</text></g><!--entity md--><g id="elem_md"><polygon fill="#FFE4E1" points="747,213.1512,747,213.3613,756.9375,212.7368,766.875,213.3444,776.8125,213.5508,786.75,212.4378,796.6875,213.0734,806.625,212.7247,816.5625,212.7677,826.5,213.083,836.4375,212.4598,846.375,213.7048,856.3125,212.5209,866.25,212.9534,876.1875,213.5831,886.125,213.0654,896.0625,213.2194,906,213.1192,915.9375,213.3297,925.875,213.3903,935.8125,213.7369,945.75,213.8222,955.6875,213.8304,965.625,213.4058,975.5625,213.6147,985.5,213.8534,995.4375,212.43,1005.375,213.8297,1015.3125,212.8547,1025.25,213.685,1035.1875,212.6561,1045.125,213.0827,1055.0625,213.8928,1065,213.1512,1064.9938,213.1362,1065.367,213.33,1065.7503,213.5483,1066.1138,213.7187,1066.4137,213.7357,1066.7678,213.8834,1066.8562,213.92,1066.7379,214.1639,1067.1482,214.6268,1067.3759,215.014,1067.4905,215.3543,1067.5,215.6512,1068.113,215.6512,1067.0169,225.1836,1066.8478,234.7161,1066.8786,244.2485,1067.4411,253.781,1067.3035,263.3135,1068.1814,272.8459,1067.3253,282.3784,1067.5,291.9108,1067.3944,291.8671,1067.4239,292.2935,1067.0017,292.5329,1066.9008,292.9053,1067.1141,293.4078,1066.7678,293.6786,1066.8233,293.8128,1066.5079,294.0512,1066.0196,293.8724,1065.7478,294.2162,1065.4289,294.4462,1065,294.4108,1065,293.9384,1055.0625,294.315,1045.125,294.5368,1035.1875,295.0626,1025.25,294.4066,1015.3125,294.8734,1005.375,293.857,995.4375,293.7336,985.5,294.9144,975.5625,293.6939,965.625,294.9198,955.6875,294.6175,945.75,294.1429,935.8125,294.0571,925.875,294.8696,915.9375,294.1115,906,295.0027,896.0625,293.8581,886.125,295.0283,876.1875,294.8951,866.25,294.6558,856.3125,294.458,846.375,295.1374,836.4375,295.0244,826.5,294.5801,816.5625,294.679,806.625,294.2806,796.6875,295.1273,786.75,294.5657,776.8125,294.5834,766.875,293.8025,756.9375,294.0056,747,294.4108,747.0677,294.5743,746.7013,294.3967,746.2874,294.1047,745.8982,293.8723,745.5579,293.7576,745.2322,293.6786,745.0209,293.5911,745.2135,293.3779,745.1671,293.0658,744.955,292.6851,744.8605,292.353,744.5,291.9108,744.3633,291.9108,744.5872,282.3784,744.1124,272.8459,744.784,263.3135,744.7468,253.781,745.0524,244.2485,744.2703,234.7161,744.3656,225.1836,744.5,215.6512,744.6366,215.7077,744.8212,215.37,744.6351,214.8787,744.8796,214.5658,745.1318,214.256,745.2322,213.8834,745.1543,213.6953,745.6309,213.8458,745.9722,213.67,746.28,213.413,746.6646,213.3414,747,213.1512" style="stroke:#181818;stroke-width:4.0;"/><text fill="#000000" font-family="Chalkduster" font-size="24" font-style="italic" lengthAdjust="spacing" textLength="175" x="818.5" y="246.992">&#171;workspace&#187;</text><text fill="#000000" font-family="Chalkduster" font-size="24" lengthAdjust="spacing" textLength="303" x="754.5" y="277.6219">Domain-specific Mode</text></g><g id="elem_GMN9"><path d="M699,80.8912 L699.5605,80.8912 L697.8951,91.0711 L699.5154,101.2511 L700.0658,111.431 L697.0976,121.611 L698.7928,131.7909 L697.8627,141.9709 L699,152.1508 L699,152.1508 L699,151.1282 L709.15,151.9691 L719.3,150.3072 L729.45,153.6272 L739.6,150.4701 L749.75,151.6234 L759.9,153.3027 L770.05,151.9221 L780.2,152.3328 L790.35,152.0656 L800.5,152.6269 L810.65,152.7885 L820.8,153.7127 L830.95,153.9403 L841.1,153.9622 L851.25,152.8298 L861.4,153.3871 L871.55,154.0234 L881.7,150.2277 L891.85,153.9602 L902,152.1508 L901.211,152.0988 L904.0871,162.3529 L902.0161,172.2807 L903.8177,182.464 L906.64,192.7145 L905.2037,202.6842 L906,212.8012 L906.2802,212.8196 L907.5677,202.7522 L908.4409,192.6574 L907.9896,182.4753 L909.4309,172.418 L907.8102,162.1588 L910,152.1508 L910,152.9092 L920.15,153.6127 L930.3,153.3362 L940.45,153.7856 L950.6,150.8626 L960.75,150.4117 L970.9,150.4938 L981.05,151.9938 L991.2,151.6268 L1001.35,153.9679 L1011.5,151.685 L1021.65,151.236 L1031.8,152.7595 L1041.95,150.3726 L1052.1,150.7665 L1062.25,153.8814 L1072.4,153.3126 L1082.55,154.1095 L1092.7,151.2927 L1102.85,153.002 L1113,152.1508 L1113,152.1508 L1114.5745,152.1508 L1111.7403,141.9409 L1112.7444,131.7309 L1113.336,121.521 L1114.738,111.311 L1112.9888,101.1011 L1113,90.8912 L1113.2907,91.1819 L1110.6519,88.5431 L1108.5743,86.4655 L1107.3165,85.2077 L1104.5494,82.4405 L1103,80.8912 L1103,82.2484 L1092.9,81.4422 L1082.8,80.1767 L1072.7,79.9478 L1062.6,82.1145 L1052.5,80.0929 L1042.4,82.4695 L1032.3,79.4172 L1022.2,82.5376 L1012.1,82.1826 L1002,81.5444 L991.9,81.0171 L981.8,82.8288 L971.7,82.5274 L961.6,81.3425 L951.5,81.6063 L941.4,80.5438 L931.3,82.8017 L921.2,81.3041 L911.1,81.3514 L901,79.2689 L890.9,79.8106 L880.8,82.3065 L870.7,82.0372 L860.6,80.7767 L850.5,80.032 L840.4,80.3074 L830.3,79.0614 L820.2,81.9971 L810.1,82.8633 L800,82.2949 L789.9,82.7443 L779.8,80.5266 L769.7,81.1237 L759.6,79.8576 L749.5,81.6486 L739.4,81.5492 L729.3,82.3642 L719.2,80.2787 L709.1,80.5327 L699,80.8912 L699,80.8912 " fill="#FFFFE0" style="stroke:#181818;stroke-width:4.0;"/><path d="M1103,80.8912 L1103.1868,80.8912 L1102.6317,82.8912 L1103.1718,84.8912 L1103.3553,86.8912 L1102.3659,88.8912 L1103,90.8912 L1103,90.8221 L1105,90.5121 L1107,90.5503 L1109,90.8306 L1111,90.2766 L1113,90.8912 L1113.348,91.2391 L1110.6038,88.495 L1108.8757,86.7669 L1107.2715,85.1627 L1104.9461,82.8372 L1103,80.8912 " fill="#FFFFE0" style="stroke:#181818;stroke-width:4.0;"/><text fill="#000000" font-family="Chalkduster" font-size="24" lengthAdjust="spacing" textLength="393" x="705" y="109.732">Eg Language Data Commons</text><text fill="#000000" font-family="Chalkduster" font-size="24" lengthAdjust="spacing" textLength="135" x="705" y="140.3619">mode file</text></g><g id="elem_GMN12"><path d="M672.5,391.4112 L673.0605,391.4112 L671.3951,401.5911 L673.0154,411.7711 L673.5658,421.951 L670.5976,432.131 L672.2928,442.3109 L671.3627,452.4909 L672.5,462.6708 L672.5,462.6708 L672.5,461.6482 L682.4362,462.4891 L692.3723,460.8272 L702.3085,464.1472 L712.2447,460.9901 L722.1809,462.1434 L732.117,463.8227 L742.0532,462.4421 L751.9894,462.8528 L761.9255,462.5856 L771.8617,463.1469 L781.7979,463.3085 L791.734,464.2327 L801.6702,464.4603 L811.6064,464.4822 L821.5426,463.3498 L831.4787,463.9071 L841.4149,464.5434 L851.3511,460.7477 L861.2872,464.4802 L871.2234,461.8802 L881.1596,464.0943 L891.0957,461.3508 L901.0319,462.4882 L910.9681,464.6484 L920.9043,462.5409 L930.8404,462.9516 L940.7766,463.5738 L950.7128,463.7808 L960.6489,462.6604 L970.5851,463.4367 L980.5213,461.1444 L990.4574,463.4292 L1000.3936,464.1327 L1010.3298,463.8562 L1020.266,464.3056 L1030.2021,461.3826 L1040.1383,460.9317 L1050.0745,461.0138 L1060.0106,462.5138 L1069.9468,462.1468 L1079.883,464.4879 L1089.8191,462.205 L1099.7553,461.756 L1109.6915,463.2795 L1119.6277,460.8926 L1129.5638,461.2865 L1139.5,462.6708 L1139.5,462.6708 L1141.2305,462.6708 L1140.6618,452.4609 L1141.4586,442.2509 L1138.6419,432.041 L1140.3512,421.831 L1141.0745,411.6211 L1139.5,401.4112 L1139.2031,401.1142 L1137.4397,399.3509 L1135.5792,397.4903 L1133.9097,395.8208 L1131.4974,393.4085 L1129.5,391.4112 L1129.5,392.6447 L1119.5227,389.9344 L1109.5455,389.6051 L1099.5682,392.7541 L1089.5909,389.4993 L1079.6136,392.7684 L1069.6364,391.9622 L1059.6591,390.6967 L1049.6818,390.4678 L1039.7045,392.6345 L1029.7273,390.6129 L1019.75,392.9895 L1009.7727,389.9372 L999.7955,393.0576 L989.8182,392.7026 L979.8409,392.0644 L969.8636,391.5371 L959.8864,393.3488 L949.9091,393.0474 L939.9318,391.8625 L929.9545,392.1263 L919.9773,391.0638 L910,391.4112 L911.9089,391.49 L910.0126,381.7372 L909.6598,372.0481 L907.1791,362.2713 L907.3203,352.6026 L909.4141,343.0145 L908.7451,333.3124 L907.0856,323.5694 L905.9416,313.8477 L905.8167,304.1681 L906,294.5012 L904.1718,294.4257 L906.705,304.2378 L907.1705,313.9645 L906.2025,323.6321 L906.2516,333.3416 L903.6357,342.9411 L903.8324,352.6568 L902.1673,362.2955 L903.5568,372.0604 L903.0575,381.7473 L902,391.4112 L902,392.8842 L892.0217,390.7987 L882.0435,391.0527 L872.0652,392.5937 L862.087,392.9241 L852.1087,390.0444 L842.1304,390.8941 L832.1522,391.8092 L822.1739,389.7822 L812.1957,392.3535 L802.2174,392.0991 L792.2391,391.1425 L782.2609,391.7905 L772.2826,393.3543 L762.3043,390.5768 L752.3261,392.2511 L742.3478,392.1729 L732.3696,391.7199 L722.3913,391.787 L712.413,391.7138 L702.4348,389.7467 L692.4565,390.3423 L682.4783,390.1804 L672.5,391.4112 L672.5,391.4112 " fill="#FFFFE0" style="stroke:#181818;stroke-width:4.0;"/><path d="M1129.5,391.4112 L1129.6868,391.4112 L1129.1317,393.4112 L1129.6718,395.4112 L1129.8553,397.4112 L1128.8659,399.4112 L1129.5,401.4112 L1129.5,401.3421 L1131.5,401.0321 L1133.5,401.0703 L1135.5,401.3506 L1137.5,400.7966 L1139.5,401.4112 L1139.848,401.7591 L1137.1038,399.015 L1135.3757,397.2869 L1133.7715,395.6827 L1131.4461,393.3572 L1129.5,391.4112 " fill="#FFFFE0" style="stroke:#181818;stroke-width:4.0;"/><text fill="#000000" font-family="Chalkduster" font-size="24" lengthAdjust="spacing" textLength="446" x="678.5" y="420.252">- Specifies behaviour of Crate-O</text><text fill="#000000" font-family="Chalkduster" font-size="24" lengthAdjust="spacing" textLength="416" x="678.5" y="450.8819">- Validate RO-Crate structure</text></g><!--entity pf--><g id="elem_pf"><polygon fill="#E6E6FA" points="1227.5,213.1512,1227.5,213.3613,1237.5769,212.7368,1247.6538,213.3444,1257.7308,213.5508,1267.8077,212.4378,1277.8846,213.0734,1287.9615,212.7247,1298.0385,212.7677,1308.1154,213.083,1318.1923,212.4598,1328.2692,213.7048,1338.3462,212.5209,1348.4231,212.9534,1358.5,213.5831,1368.5769,213.0654,1378.6538,213.2194,1388.7308,213.1192,1398.8077,213.3297,1408.8846,213.3903,1418.9615,213.7369,1429.0385,213.8222,1439.1154,213.8304,1449.1923,213.4058,1459.2692,213.6147,1469.3462,213.8534,1479.4231,212.43,1489.5,213.8297,1499.5769,212.8547,1509.6538,213.685,1519.7308,212.6561,1529.8077,213.0827,1539.8846,213.8928,1549.9615,213.1024,1560.0385,213.2565,1570.1154,213.4898,1580.1923,213.5674,1590.2692,213.1473,1600.3462,213.4384,1610.4231,212.5787,1620.5,213.1512,1620.5363,213.2387,1620.9235,213.4664,1621.2638,213.581,1621.6389,213.7793,1621.8526,213.5882,1622.2678,213.8834,1622.0669,213.8002,1622.2228,214.1577,1622.5425,214.583,1622.6466,214.919,1623.0634,215.3845,1623,215.6512,1622.8253,215.6512,1622.6569,225.1836,1623.2283,234.7161,1622.3332,244.2485,1622.4809,253.781,1623.649,263.3135,1623.4357,272.8459,1623.7345,282.3784,1623,291.9108,1622.9009,291.8698,1622.9519,292.3051,1622.8889,292.6932,1622.4152,292.9112,1622.3847,293.3128,1622.2678,293.6786,1622.2838,293.7174,1621.9974,294.0258,1621.5601,293.9702,1621.2661,294.2604,1620.7829,294.0938,1620.5,294.4108,1620.5,293.7336,1610.4231,294.9144,1600.3462,293.6939,1590.2692,294.9198,1580.1923,294.6175,1570.1154,294.1429,1560.0385,294.0571,1549.9615,294.8696,1539.8846,294.1115,1529.8077,295.0027,1519.7308,293.8581,1509.6538,295.0283,1499.5769,294.8951,1489.5,294.6558,1479.4231,294.458,1469.3462,295.1374,1459.2692,295.0244,1449.1923,294.5801,1439.1154,294.679,1429.0385,294.2806,1418.9615,295.1273,1408.8846,294.5657,1398.8077,294.5834,1388.7308,293.8025,1378.6538,294.0056,1368.5769,294.9416,1358.5,294.8406,1348.4231,294.3679,1338.3462,294.0887,1328.2692,294.1919,1318.1923,293.7247,1308.1154,294.8256,1298.0385,295.1504,1287.9615,294.9372,1277.8846,295.1058,1267.8077,294.2741,1257.7308,294.498,1247.6538,294.0232,1237.5769,294.6949,1227.5,294.4108,1227.5315,294.4868,1227.2169,294.4345,1226.7636,294.0472,1226.4222,293.9301,1226.1424,293.9616,1225.7322,293.6786,1225.9069,293.751,1225.4279,293.2597,1225.3796,292.9468,1225.3389,292.637,1224.9583,292.1865,1225,291.9108,1225.3534,291.9108,1225.258,282.3784,1224.8992,272.8459,1225.1422,263.3135,1225.7287,253.781,1224.6871,244.2485,1225.315,234.7161,1225.2856,225.1836,1225,215.6512,1225.0357,215.6659,1225.1898,215.3156,1225.3278,214.9585,1225.2471,214.5109,1225.4624,214.1858,1225.7322,213.8834,1225.6734,213.7413,1226.0939,213.7566,1226.4506,213.6176,1226.8135,213.4939,1227.1093,213.208,1227.5,213.1512" style="stroke:#181818;stroke-width:4.0;"/><text fill="#000000" font-family="Chalkduster" font-size="24" font-style="italic" lengthAdjust="spacing" textLength="170" x="1339" y="246.992">&#171;standards&#187;</text><text fill="#000000" font-family="Chalkduster" font-size="24" lengthAdjust="spacing" textLength="378" x="1235" y="277.6219">RO-Crate Profile Document</text></g><g id="elem_GMN16"><path d="M1148,80.8912 L1148.5605,80.8912 L1146.8951,91.0711 L1148.5154,101.2511 L1149.0658,111.431 L1146.0976,121.611 L1147.7928,131.7909 L1146.8627,141.9709 L1148,152.1508 L1148,152.1508 L1148,151.1282 L1158.0741,151.9691 L1168.1481,150.3072 L1178.2222,153.6272 L1188.2963,150.4701 L1198.3704,151.6234 L1208.4444,153.3027 L1218.5185,151.9221 L1228.5926,152.3328 L1238.6667,152.0656 L1248.7407,152.6269 L1258.8148,152.7885 L1268.8889,153.7127 L1278.963,153.9403 L1289.037,153.9622 L1299.1111,152.8298 L1309.1852,153.3871 L1319.2593,154.0234 L1329.3333,150.2277 L1339.4074,153.9602 L1349.4815,151.3602 L1359.5556,153.5743 L1369.6296,150.8308 L1379.7037,151.9682 L1389.7778,154.1284 L1399.8519,152.0209 L1409.9259,152.4316 L1420,152.1508 L1420.9011,152.2103 L1421.7742,162.3323 L1421.3229,172.3669 L1422.7642,182.5264 L1421.1435,192.4839 L1424.0901,202.7427 L1424,212.8012 L1425.4587,212.8974 L1425.8495,202.7708 L1426.9645,192.692 L1424.7146,182.3912 L1424.9313,172.2532 L1425.6799,162.1502 L1428,152.1508 L1428,151.9938 L1438.0741,151.6268 L1448.1481,153.9679 L1458.2222,151.685 L1468.2963,151.236 L1478.3704,152.7595 L1488.4444,150.3726 L1498.5185,150.7665 L1508.5926,153.8814 L1518.6667,153.3126 L1528.7407,154.1095 L1538.8148,151.2927 L1548.8889,153.002 L1558.963,153.7253 L1569.037,150.8911 L1579.1111,151.8952 L1589.1852,152.4868 L1599.2593,153.8889 L1609.3333,152.1397 L1619.4074,153.3843 L1629.4815,150.6741 L1639.5556,150.3448 L1649.6296,153.4938 L1659.7037,150.239 L1669.7778,153.5081 L1679.8519,152.7018 L1689.9259,151.4364 L1700,152.1508 L1700,152.1508 L1699.0566,152.1508 L1701.2234,141.9409 L1699.2018,131.7309 L1701.5783,121.521 L1698.526,111.311 L1701.6465,101.1011 L1700,90.8912 L1700.3044,91.1956 L1698.154,89.0451 L1696.0297,86.9208 L1694.4567,85.3479 L1692.3857,83.2768 L1690,80.8912 L1690,81.3425 L1679.963,81.6063 L1669.9259,80.5438 L1659.8889,82.8017 L1649.8519,81.3041 L1639.8148,81.3514 L1629.7778,79.2689 L1619.7407,79.8106 L1609.7037,82.3065 L1599.6667,82.0372 L1589.6296,80.7767 L1579.5926,80.032 L1569.5556,80.3074 L1559.5185,79.0614 L1549.4815,81.9971 L1539.4444,82.8633 L1529.4074,82.2949 L1519.3704,82.7443 L1509.3333,80.5266 L1499.2963,81.1237 L1489.2593,79.8576 L1479.2222,81.6486 L1469.1852,81.5492 L1459.1481,82.3642 L1449.1111,80.2787 L1439.0741,80.5327 L1429.037,82.0737 L1419,82.4041 L1408.963,79.5244 L1398.9259,80.3741 L1388.8889,81.2892 L1378.8519,79.2622 L1368.8148,81.8335 L1358.7778,81.5791 L1348.7407,80.6225 L1338.7037,81.2705 L1328.6667,82.8343 L1318.6296,80.0568 L1308.5926,81.7311 L1298.5556,81.6529 L1288.5185,81.1999 L1278.4815,81.267 L1268.4444,81.1938 L1258.4074,79.2267 L1248.3704,79.8223 L1238.3333,79.6604 L1228.2963,81.0614 L1218.2593,81.1262 L1208.2222,81.3225 L1198.1852,80.1152 L1188.1481,80.7111 L1178.1111,80.5706 L1168.0741,82.4294 L1158.037,82.0287 L1148,80.8912 L1148,80.8912 " fill="#FFFFE0" style="stroke:#181818;stroke-width:4.0;"/><path d="M1690,80.8912 L1690.1868,80.8912 L1689.6317,82.8912 L1690.1718,84.8912 L1690.3553,86.8912 L1689.3659,88.8912 L1690,90.8912 L1690,90.8221 L1692,90.5121 L1694,90.5503 L1696,90.8306 L1698,90.2766 L1700,90.8912 L1700.348,91.2391 L1697.6038,88.495 L1695.8757,86.7669 L1694.2715,85.1627 L1691.9461,82.8372 L1690,80.8912 " fill="#FFFFE0" style="stroke:#181818;stroke-width:4.0;"/><text fill="#000000" font-family="Chalkduster" font-size="24" lengthAdjust="spacing" textLength="531" x="1154" y="109.732">Eg Language Data Commons RO-Crate</text><text fill="#000000" font-family="Chalkduster" font-size="24" lengthAdjust="spacing" textLength="240" x="1154" y="140.3619">Profile Document</text></g><!--link soss to so--><g id="link_soss_so"><path d="M335,294.5012 L335.2802,294.5012 L334.4476,304.0012 L335.2577,313.5012 L335.5329,323.0012 L334.0488,332.5012 L334.8964,342.0012 L334.4313,351.5012 L334.4887,361.0012 L334.9091,370.5012 L335,380.0012 " fill="none" style="stroke:#8B0000;stroke-width:4.0;"/><polygon fill="#8B0000" points="335,384.9412,335.064,384.9696,335.6738,383.0851,336.6589,381.3673,337.5217,379.5953,337.9827,377.6446,339,375.9412,338.9817,375.9228,338.0995,376.6406,337.3096,377.4508,336.5839,378.3251,335.637,378.9782,335,379.9412,335.1305,380.0717,334.0514,378.9926,333.3534,378.2945,332.7018,377.643,331.7798,376.7209,331,375.9412,331.0208,375.9504,331.7903,377.7368,332.6544,379.5653,333.4728,381.3735,334.3784,383.2205,335,384.9412" style="stroke:#8B0000;stroke-width:4.0;"/><text fill="#000000" font-family="Chalkduster" font-size="24" lengthAdjust="spacing" textLength="108" x="336" y="349.252">Extends</text></g><!--SRC=[VP91Jm8n48Nl_HKZLotU2U42tZGOCPv8J6bdTnksCvjsLk3VsxA2mO2tpKpVzrvVzywJRNk7dy7G0SQFpeZH-TlK69149pcqE9QzA2LUMfp0UuCWJKI4O3o1vT0nvQC9AexmjjJpQ0G1dHTFDUoyD70SwQLIAg8LGtMBC5hP1eCPSwnXLLnW61mn2oxm4KodAHzt9heqcu59a3YbsvW1SF-RGZ26T1MZL461ThmZFSi3cC3JNf1SKiH5oXrmTJJCcngUir-VQu55hWZc709J6WpMb7hR56vk8_JahH7FzC8E7s3LyHRffBw8FjnIfmwjhxo58YXXTnotgJCMXx31NIGAxdQUDONCWCgtE6WsBCBX9DCvpT4B4somCL-U-rYMFm-q9WqVflMkT7SkCKdihVJnClnv_Hgv-EKtittvPwxKtLMWBkxGLVzqUYAlwI_w6m00]--></g></svg>