<?xml version="1.0" encoding="us-ascii" standalone="no"?><svg xmlns="http://www.w3.org/2000/svg" xmlns:xlink="http://www.w3.org/1999/xlink" contentStyleType="text/css" height="473px" preserveAspectRatio="none" style="width:1750px;height:473px;background:#FFFFFF;" version="1.1" viewBox="0 0 1750 473" width="1750px" zoomAndPan="magnify"><defs/><g><text fill="#000000" font-family="Chalkduster" font-size="42" font-weight="bold" lengthAdjust="spacing" textLength="1519" x="108.5" y="51.7215">The three main components for RO-Crate editing with Crate-O</text><!--entity soss--><g id="elem_soss"><polygon fill="#E6E6FA" points="74,213.1512,74,213.3613,84.0385,212.7368,94.0769,213.3444,104.1154,213.5508,114.1538,212.4378,124.1923,213.0734,134.2308,212.7247,144.2692,212.7677,154.3077,213.083,164.3462,212.4598,174.3846,213.7048,184.4231,212.5209,194.4615,212.9534,204.5,213.5831,214.5385,213.0654,224.5769,213.2194,234.6154,213.1192,244.6538,213.3297,254.6923,213.3903,264.7308,213.7369,274.7692,213.8222,284.8077,213.8304,294.8462,213.4058,304.8846,213.6147,314.9231,213.8534,324.9615,212.43,335,213.8297,345.0385,212.8547,355.0769,213.685,365.1154,212.6561,375.1538,213.0827,385.1923,213.8928,395.2308,213.1024,405.2692,213.2565,415.3077,213.4898,425.3462,213.5674,435.3846,213.1473,445.4231,213.4384,455.4615,212.5787,465.5,213.4355,475.5385,213.6994,485.5769,213.5957,495.6154,213.7642,505.6538,212.6681,515.6923,212.499,525.7308,212.5298,535.7692,213.0923,545.8077,212.9546,555.8462,213.8326,565.8846,212.9765,575.9231,212.8081,585.9615,213.3794,596,213.1512,595.9149,212.9458,596.2873,213.1377,596.7899,213.6439,597.1162,213.7247,597.5079,213.9631,597.7678,213.8834,597.6687,213.8423,598.0125,214.2777,598.2425,214.6658,598.0616,214.8838,598.324,215.2854,598.5,215.6512,598.626,215.6512,599.1518,225.1836,598.4958,234.7161,598.9626,244.2485,597.9462,253.781,597.8227,263.3135,599.0036,272.8459,597.7831,282.3784,598.5,291.9108,598.6567,291.9758,598.4172,292.2907,598.1246,292.5838,597.9517,292.9264,598.0555,293.3836,597.7678,293.6786,597.7296,293.5864,597.4897,294.0073,596.9902,293.8013,596.7859,294.3081,596.4153,294.4135,596,294.4108,596,294.6558,585.9615,294.458,575.9231,295.1374,565.8846,295.0244,555.8462,294.5801,545.8077,294.679,535.7692,294.2806,525.7308,295.1273,515.6923,294.5657,505.6538,294.5834,495.6154,293.8025,485.5769,294.0056,475.5385,294.9416,465.5,294.8406,455.4615,294.3679,445.4231,294.0887,435.3846,294.1919,425.3462,293.7247,415.3077,294.8256,405.2692,295.1504,395.2308,294.9372,385.1923,295.1058,375.1538,294.2741,365.1154,294.498,355.0769,294.0232,345.0385,294.6949,335,294.6576,324.9615,294.9632,314.9231,294.1812,304.8846,294.2764,294.8462,294.8543,284.8077,294.9782,274.7692,293.8983,264.7308,294.2169,254.6923,294.5601,244.6538,293.8,234.6154,294.7642,224.5769,294.6688,214.5385,294.3101,204.5,294.5531,194.4615,295.1395,184.4231,294.098,174.3846,294.7258,164.3462,294.6965,154.3077,294.5266,144.2692,294.5517,134.2308,294.5243,124.1923,293.7867,114.1538,294.01,104.1154,293.9493,94.0769,294.4747,84.0385,294.499,74,294.4108,74.0206,294.4606,73.6093,294.1748,73.2843,294.0971,72.924,293.9345,72.6594,294.0027,72.2322,293.6786,72.3636,293.733,71.9363,293.2631,71.9169,292.9622,71.6151,292.5443,71.7353,292.3012,71.5,291.9108,72.1085,291.9108,72.0446,282.3784,71.0644,272.8459,71.964,263.3135,70.7572,253.781,71.7002,244.2485,71.2007,234.7161,71.5967,225.1836,71.5,215.6512,71.574,215.6818,71.7918,215.3578,71.5712,214.8522,72.0858,214.6512,72.1407,214.2597,72.2322,213.8834,72.2776,213.9928,72.6812,213.9672,72.94,213.5922,73.3153,213.498,73.6737,213.3633,74,213.1512" style="stroke:#181818;stroke-width:4.0;"/><text fill="#000000" font-family="Chalkduster" font-size="24" font-style="italic" lengthAdjust="spacing" textLength="170" x="250" y="246.992">&#171;standards&#187;</text><text fill="#000000" font-family="Chalkduster" font-size="24" lengthAdjust="spacing" textLength="507" x="81.5" y="277.6219">Schema.org Style Schema for Domain</text></g><!--entity so--><g id="elem_so"><polygon fill="#E6E6FA" points="67.5,386.4112,67.5,386.6213,77.4811,385.9968,87.4623,386.6044,97.4434,386.8108,107.4245,385.6978,117.4057,386.3334,127.3868,385.9847,137.3679,386.0277,147.3491,386.343,157.3302,385.7198,167.3113,386.9648,177.2925,385.7809,187.2736,386.2134,197.2547,386.8431,207.2358,386.3254,217.217,386.4794,227.1981,386.3792,237.1792,386.5897,247.1604,386.6503,257.1415,386.9969,267.1226,387.0822,277.1038,387.0904,287.0849,386.6658,297.066,386.8747,307.0472,387.1134,317.0283,385.69,327.0094,387.0897,336.9906,386.1147,346.9717,386.945,356.9528,385.9161,366.934,386.3427,376.9151,387.1528,386.8962,386.3624,396.8774,386.5165,406.8585,386.7498,416.8396,386.8274,426.8208,386.4073,436.8019,386.6984,446.783,385.8387,456.7642,386.6955,466.7453,386.9594,476.7264,386.8557,486.7075,387.0242,496.6887,385.9281,506.6698,385.759,516.6509,385.7898,526.6321,386.3523,536.6132,386.2146,546.5943,387.0926,556.5755,386.2365,566.5566,386.0681,576.5377,386.6394,586.5189,385.7443,596.5,386.4112,596.4338,386.2513,596.9363,386.7575,597.2627,386.8382,597.6544,387.0767,597.8732,386.8978,598.2678,387.1434,598.3661,387.1841,598.596,387.5723,598.4152,387.7902,598.6776,388.1918,598.8924,388.5737,599,388.9112,599.6518,388.9112,598.9958,398.4436,599.4626,407.9761,598.4462,417.5085,598.3227,427.041,599.5036,436.5735,598.2831,446.1059,599.509,455.6384,599,465.1708,599.0636,465.1972,598.771,465.4902,598.5982,465.8328,598.7019,466.29,598.322,466.5469,598.2678,466.9386,598.3433,467.1209,597.8437,466.9148,597.6394,467.4216,597.2689,467.5271,596.8848,467.5998,596.5,467.6708,596.5,467.718,586.5189,468.3974,576.5377,468.2844,566.5566,467.8401,556.5755,467.939,546.5943,467.5406,536.6132,468.3873,526.6321,467.8257,516.6509,467.8434,506.6698,467.0625,496.6887,467.2656,486.7075,468.2016,476.7264,468.1006,466.7453,467.6279,456.7642,467.3487,446.783,467.4519,436.8019,466.9847,426.8208,468.0856,416.8396,468.4104,406.8585,468.1972,396.8774,468.3658,386.8962,467.5341,376.9151,467.758,366.934,467.2832,356.9528,467.9549,346.9717,467.9176,336.9906,468.2232,327.0094,467.4412,317.0283,467.5364,307.0472,468.1143,297.066,468.2382,287.0849,467.1583,277.1038,467.4769,267.1226,467.8201,257.1415,467.06,247.1604,468.0242,237.1792,467.9288,227.1981,467.5701,217.217,467.8131,207.2358,468.3995,197.2547,467.358,187.2736,467.9858,177.2925,467.9565,167.3113,467.7866,157.3302,467.8117,147.3491,467.7843,137.3679,467.0467,127.3868,467.27,117.4057,467.2093,107.4245,467.7347,97.4434,467.759,87.4623,467.8326,77.4811,467.3799,67.5,467.6708,67.4914,467.65,67.1311,467.4874,66.8665,467.5556,66.4938,467.3629,66.0239,466.9355,65.7322,466.9386,65.7098,466.9293,65.408,466.5114,65.5282,466.2683,65.4803,465.9556,65.3142,465.5938,65,465.1708,64.5644,465.1708,65.464,455.6384,64.2572,446.1059,65.2002,436.5735,64.7007,427.041,65.0967,417.5085,65.2403,407.9761,65.4721,398.4436,65,388.9112,64.7783,388.8193,65.2929,388.6183,65.3478,388.2268,65.5488,387.8958,65.8161,387.5923,65.7322,387.1434,65.7329,387.1451,66.1081,387.0509,66.4666,386.9162,66.8181,386.7648,67.1463,386.5574,67.5,386.4112" style="stroke:#181818;stroke-width:4.0;"/><text fill="#000000" font-family="Chalkduster" font-size="24" font-style="italic" lengthAdjust="spacing" textLength="170" x="247" y="420.252">&#171;standards&#187;</text><text fill="#000000" font-family="Chalkduster" font-size="24" lengthAdjust="spacing" textLength="514" x="75" y="450.8819">Schema.org Schema + RO-Crate terms</text></g><g id="elem_GMN5"><path d="M6,80.8912 L6.5605,80.8912 L4.8951,91.0711 L6.5154,101.2511 L7.0658,111.431 L4.0976,121.611 L5.7928,131.7909 L4.8627,141.9709 L6,152.1508 L6,152.1508 L6,151.1282 L15.8485,151.9691 L25.697,150.3072 L35.5455,153.6272 L45.3939,150.4701 L55.2424,151.6234 L65.0909,153.3027 L74.9394,151.9221 L84.7879,152.3328 L94.6364,152.0656 L104.4848,152.6269 L114.3333,152.7885 L124.1818,153.7127 L134.0303,153.9403 L143.8788,153.9622 L153.7273,152.8298 L163.5758,153.3871 L173.4242,154.0234 L183.2727,150.2277 L193.1212,153.9602 L202.9697,151.3602 L212.8182,153.5743 L222.6667,150.8308 L232.5152,151.9682 L242.3636,154.1284 L252.2121,152.0209 L262.0606,152.4316 L271.9091,153.0538 L281.7576,153.2608 L291.6061,152.1404 L301.4545,152.9167 L311.303,150.6244 L321.1515,152.9092 L331,152.1508 L332.4587,152.247 L332.8495,162.3372 L333.9645,172.4752 L331.7146,182.3912 L331.9313,192.4699 L332.6799,202.5837 L335,212.8012 L334.8433,212.7908 L335.1437,202.6583 L338.1465,192.704 L336.5352,182.4453 L336.7538,172.3074 L338.9407,162.2993 L339,152.1508 L339,150.3726 L348.8485,150.7665 L358.697,153.8814 L368.5455,153.3126 L378.3939,154.1095 L388.2424,151.2927 L398.0909,153.002 L407.9394,153.7253 L417.7879,150.8911 L427.6364,151.8952 L437.4848,152.4868 L447.3333,153.8889 L457.1818,152.1397 L467.0303,153.3843 L476.8788,150.6741 L486.7273,150.3448 L496.5758,153.4938 L506.4242,150.239 L516.2727,153.5081 L526.1212,152.7018 L535.9697,151.4364 L545.8182,151.2074 L555.6667,153.3742 L565.5152,151.3526 L575.3636,153.7291 L585.2121,150.6768 L595.0606,153.7973 L604.9091,153.4423 L614.7576,152.8041 L624.6061,152.2767 L634.4545,154.0885 L644.303,153.787 L654.1515,152.6022 L664,152.1508 L664,152.1508 L664.7152,152.1508 L663.6526,141.9409 L665.9105,131.7309 L664.413,121.521 L664.4602,111.311 L662.3777,101.1011 L664,90.8912 L663.7453,90.6365 L662.3336,89.2248 L660.2701,87.1613 L657.973,84.8642 L655.7975,82.6887 L654,80.8912 L654,80.3074 L644.0308,79.0614 L634.0615,81.9971 L624.0923,82.8633 L614.1231,82.2949 L604.1538,82.7443 L594.1846,80.5266 L584.2154,81.1237 L574.2462,79.8576 L564.2769,81.6486 L554.3077,81.5492 L544.3385,82.3642 L534.3692,80.2787 L524.4,80.5327 L514.4308,82.0737 L504.4615,82.4041 L494.4923,79.5244 L484.5231,80.3741 L474.5538,81.2892 L464.5846,79.2622 L454.6154,81.8335 L444.6462,81.5791 L434.6769,80.6225 L424.7077,81.2705 L414.7385,82.8343 L404.7692,80.0568 L394.8,81.7311 L384.8308,81.6529 L374.8615,81.1999 L364.8923,81.267 L354.9231,81.1938 L344.9538,79.2267 L334.9846,79.8223 L325.0154,79.6604 L315.0462,81.0614 L305.0769,81.1262 L295.1077,81.3225 L285.1385,80.1152 L275.1692,80.7111 L265.2,80.5706 L255.2308,82.4294 L245.2615,82.0287 L235.2923,79.5964 L225.3231,80.6967 L215.3538,79.3519 L205.3846,81.6602 L195.4154,82.5138 L185.4462,82.3433 L175.4769,79.7297 L165.5077,82.1284 L155.5385,78.9103 L145.5692,81.4249 L135.6,80.093 L125.6308,81.1491 L115.6615,81.5321 L105.6923,82.1501 L95.7231,78.9714 L85.7538,82.1591 L75.7846,81.3663 L65.8154,81.8387 L55.8462,82.8853 L45.8769,80.9058 L35.9077,81.3586 L25.9385,81.4603 L15.9692,81.4171 L6,80.8912 L6,80.8912 " fill="#FFFFE0" style="stroke:#181818;stroke-width:4.0;"/><path d="M654,80.8912 L654.1868,80.8912 L653.6317,82.8912 L654.1718,84.8912 L654.3553,86.8912 L653.3659,88.8912 L654,90.8912 L654,90.8221 L656,90.5121 L658,90.5503 L660,90.8306 L662,90.2766 L664,90.8912 L664.348,91.2391 L661.6038,88.495 L659.8757,86.7669 L658.2715,85.1627 L655.9461,82.8372 L654,80.8912 " fill="#FFFFE0" style="stroke:#181818;stroke-width:4.0;"/><text fill="#000000" font-family="Chalkduster" font-size="24" lengthAdjust="spacing" textLength="480" x="12" y="109.732">Eg Language Data Commons terms</text><text fill="#000000" font-family="Chalkduster" font-size="24" lengthAdjust="spacing" textLength="637" x="12" y="140.3619">such as communicationMode, SpokenLanguage</text></g><!--entity md--><g id="elem_md"><polygon fill="#FFE4E1" points="768,213.1512,768,213.3613,777.9375,212.7368,787.875,213.3444,797.8125,213.5508,807.75,212.4378,817.6875,213.0734,827.625,212.7247,837.5625,212.7677,847.5,213.083,857.4375,212.4598,867.375,213.7048,877.3125,212.5209,887.25,212.9534,897.1875,213.5831,907.125,213.0654,917.0625,213.2194,927,213.1192,936.9375,213.3297,946.875,213.3903,956.8125,213.7369,966.75,213.8222,976.6875,213.8304,986.625,213.4058,996.5625,213.6147,1006.5,213.8534,1016.4375,212.43,1026.375,213.8297,1036.3125,212.8547,1046.25,213.685,1056.1875,212.6561,1066.125,213.0827,1076.0625,213.8928,1086,213.1512,1085.9938,213.1362,1086.367,213.33,1086.7503,213.5483,1087.1138,213.7187,1087.4137,213.7357,1087.7678,213.8834,1087.8562,213.92,1087.7379,214.1639,1088.1482,214.6268,1088.3759,215.014,1088.4905,215.3543,1088.5,215.6512,1089.113,215.6512,1088.0169,225.1836,1087.8478,234.7161,1087.8786,244.2485,1088.4411,253.781,1088.3035,263.3135,1089.1814,272.8459,1088.3253,282.3784,1088.5,291.9108,1088.3944,291.8671,1088.4239,292.2935,1088.0017,292.5329,1087.9008,292.9053,1088.1141,293.4078,1087.7678,293.6786,1087.8233,293.8128,1087.5079,294.0512,1087.0196,293.8724,1086.7478,294.2162,1086.4289,294.4462,1086,294.4108,1086,293.9384,1076.0625,294.315,1066.125,294.5368,1056.1875,295.0626,1046.25,294.4066,1036.3125,294.8734,1026.375,293.857,1016.4375,293.7336,1006.5,294.9144,996.5625,293.6939,986.625,294.9198,976.6875,294.6175,966.75,294.1429,956.8125,294.0571,946.875,294.8696,936.9375,294.1115,927,295.0027,917.0625,293.8581,907.125,295.0283,897.1875,294.8951,887.25,294.6558,877.3125,294.458,867.375,295.1374,857.4375,295.0244,847.5,294.5801,837.5625,294.679,827.625,294.2806,817.6875,295.1273,807.75,294.5657,797.8125,294.5834,787.875,293.8025,777.9375,294.0056,768,294.4108,768.0677,294.5743,767.7013,294.3967,767.2874,294.1047,766.8982,293.8723,766.5579,293.7576,766.2322,293.6786,766.0209,293.5911,766.2135,293.3779,766.1671,293.0658,765.955,292.6851,765.8605,292.353,765.5,291.9108,765.3633,291.9108,765.5872,282.3784,765.1124,272.8459,765.784,263.3135,765.7468,253.781,766.0524,244.2485,765.2703,234.7161,765.3656,225.1836,765.5,215.6512,765.6366,215.7077,765.8212,215.37,765.6351,214.8787,765.8796,214.5658,766.1318,214.256,766.2322,213.8834,766.1543,213.6953,766.6309,213.8458,766.9722,213.67,767.28,213.413,767.6646,213.3414,768,213.1512" style="stroke:#181818;stroke-width:4.0;"/><text fill="#000000" font-family="Chalkduster" font-size="24" font-style="italic" lengthAdjust="spacing" textLength="175" x="839.5" y="246.992">&#171;workspace&#187;</text><text fill="#000000" font-family="Chalkduster" font-size="24" lengthAdjust="spacing" textLength="303" x="775.5" y="277.6219">Domain-specific Mode</text></g><g id="elem_GMN9"><path d="M720,80.8912 L720.5605,80.8912 L718.8951,91.0711 L720.5154,101.2511 L721.0658,111.431 L718.0976,121.611 L719.7928,131.7909 L718.8627,141.9709 L720,152.1508 L720,152.1508 L720,151.1282 L730.15,151.9691 L740.3,150.3072 L750.45,153.6272 L760.6,150.4701 L770.75,151.6234 L780.9,153.3027 L791.05,151.9221 L801.2,152.3328 L811.35,152.0656 L821.5,152.6269 L831.65,152.7885 L841.8,153.7127 L851.95,153.9403 L862.1,153.9622 L872.25,152.8298 L882.4,153.3871 L892.55,154.0234 L902.7,150.2277 L912.85,153.9602 L923,152.1508 L922.211,152.0988 L925.0871,162.3529 L923.0161,172.2807 L924.8177,182.464 L927.64,192.7145 L926.2037,202.6842 L927,212.8012 L927.2802,212.8196 L928.5677,202.7522 L929.4409,192.6574 L928.9896,182.4753 L930.4309,172.418 L928.8102,162.1588 L931,152.1508 L931,152.9092 L941.15,153.6127 L951.3,153.3362 L961.45,153.7856 L971.6,150.8626 L981.75,150.4117 L991.9,150.4938 L1002.05,151.9938 L1012.2,151.6268 L1022.35,153.9679 L1032.5,151.685 L1042.65,151.236 L1052.8,152.7595 L1062.95,150.3726 L1073.1,150.7665 L1083.25,153.8814 L1093.4,153.3126 L1103.55,154.1095 L1113.7,151.2927 L1123.85,153.002 L1134,152.1508 L1134,152.1508 L1135.5745,152.1508 L1132.7403,141.9409 L1133.7444,131.7309 L1134.336,121.521 L1135.738,111.311 L1133.9888,101.1011 L1134,90.8912 L1134.2907,91.1819 L1131.6519,88.5431 L1129.5743,86.4655 L1128.3165,85.2077 L1125.5494,82.4405 L1124,80.8912 L1124,82.2484 L1113.9,81.4422 L1103.8,80.1767 L1093.7,79.9478 L1083.6,82.1145 L1073.5,80.0929 L1063.4,82.4695 L1053.3,79.4172 L1043.2,82.5376 L1033.1,82.1826 L1023,81.5444 L1012.9,81.0171 L1002.8,82.8288 L992.7,82.5274 L982.6,81.3425 L972.5,81.6063 L962.4,80.5438 L952.3,82.8017 L942.2,81.3041 L932.1,81.3514 L922,79.2689 L911.9,79.8106 L901.8,82.3065 L891.7,82.0372 L881.6,80.7767 L871.5,80.032 L861.4,80.3074 L851.3,79.0614 L841.2,81.9971 L831.1,82.8633 L821,82.2949 L810.9,82.7443 L800.8,80.5266 L790.7,81.1237 L780.6,79.8576 L770.5,81.6486 L760.4,81.5492 L750.3,82.3642 L740.2,80.2787 L730.1,80.5327 L720,80.8912 L720,80.8912 " fill="#FFFFE0" style="stroke:#181818;stroke-width:4.0;"/><path d="M1124,80.8912 L1124.1868,80.8912 L1123.6317,82.8912 L1124.1718,84.8912 L1124.3553,86.8912 L1123.3659,88.8912 L1124,90.8912 L1124,90.8221 L1126,90.5121 L1128,90.5503 L1130,90.8306 L1132,90.2766 L1134,90.8912 L1134.348,91.2391 L1131.6038,88.495 L1129.8757,86.7669 L1128.2715,85.1627 L1125.9461,82.8372 L1124,80.8912 " fill="#FFFFE0" style="stroke:#181818;stroke-width:4.0;"/><text fill="#000000" font-family="Chalkduster" font-size="24" lengthAdjust="spacing" textLength="393" x="726" y="109.732">Eg Language Data Commons</text><text fill="#000000" font-family="Chalkduster" font-size="24" lengthAdjust="spacing" textLength="135" x="726" y="140.3619">mode file</text></g><g id="elem_GMN12"><path d="M634,391.4112 L634.5605,391.4112 L632.8951,401.5911 L634.5154,411.7711 L635.0658,421.951 L632.0976,432.131 L633.7928,442.3109 L632.8627,452.4909 L634,462.6708 L634,462.6708 L634,461.6482 L644.0339,462.4891 L654.0678,460.8272 L664.1017,464.1472 L674.1356,460.9901 L684.1695,462.1434 L694.2034,463.8227 L704.2373,462.4421 L714.2712,462.8528 L724.3051,462.5856 L734.339,463.1469 L744.3729,463.3085 L754.4068,464.2327 L764.4407,464.4603 L774.4746,464.4822 L784.5085,463.3498 L794.5424,463.9071 L804.5763,464.5434 L814.6102,460.7477 L824.6441,464.4802 L834.678,461.8802 L844.7119,464.0943 L854.7458,461.3508 L864.7797,462.4882 L874.8136,464.6484 L884.8475,462.5409 L894.8814,462.9516 L904.9153,463.5738 L914.9492,463.7808 L924.9831,462.6604 L935.0169,463.4367 L945.0508,461.1444 L955.0847,463.4292 L965.1186,464.1327 L975.1525,463.8562 L985.1864,464.3056 L995.2203,461.3826 L1005.2542,460.9317 L1015.2881,461.0138 L1025.322,462.5138 L1035.3559,462.1468 L1045.3898,464.4879 L1055.4237,462.205 L1065.4576,461.756 L1075.4915,463.2795 L1085.5254,460.8926 L1095.5593,461.2865 L1105.5932,464.4014 L1115.6271,463.8326 L1125.661,464.6295 L1135.6949,461.8127 L1145.7288,463.522 L1155.7627,464.2453 L1165.7966,461.4111 L1175.8305,462.4152 L1185.8644,463.0068 L1195.8983,464.4089 L1205.9322,462.6597 L1215.9661,463.9043 L1226,462.6708 L1226,462.6708 L1224.5232,462.6708 L1224.194,452.4609 L1227.343,442.2509 L1224.0882,432.041 L1227.3572,421.831 L1226.551,411.6211 L1226,401.4112 L1225.8316,401.2428 L1223.7776,399.1888 L1222.2883,397.6995 L1219.8119,395.223 L1218.372,393.7832 L1216,391.4112 L1216,389.9372 L1205.9068,393.0576 L1195.8136,392.7026 L1185.7204,392.0644 L1175.6271,391.5371 L1165.5339,393.3488 L1155.4407,393.0474 L1145.3475,391.8625 L1135.2543,392.1263 L1125.1611,391.0638 L1115.0679,393.3217 L1104.9746,391.8241 L1094.8814,391.8714 L1084.7882,389.7889 L1074.695,390.3306 L1064.6018,392.8265 L1054.5086,392.5572 L1044.4154,391.2967 L1034.3221,390.552 L1024.2289,390.8274 L1014.1357,389.5814 L1004.0425,392.5171 L993.9493,393.3833 L983.8561,392.8149 L973.7629,393.2643 L963.6696,391.0466 L953.5764,391.6437 L943.4832,390.3776 L933.39,391.4112 L934.1461,391.4556 L933.4779,381.7587 L933.7225,372.1155 L931.0716,362.3023 L930.7562,352.6262 L931.7255,343.0255 L931.4863,333.3538 L928.0426,323.4941 L928.3219,313.8529 L928.6664,304.2155 L927.7,294.5012 L926.0715,294.4623 L928.4111,304.2146 L927.9258,313.8996 L926.7384,323.5678 L927.1552,333.2742 L928.4876,343.0025 L925.4799,352.6273 L926.9227,362.3582 L926.6135,372.0473 L925.9296,381.7275 L925.39,391.4112 L925.39,391.787 L915.3421,391.7138 L905.2941,389.7467 L895.2462,390.3423 L885.1983,390.1804 L875.1503,391.5814 L865.1024,391.6462 L855.0545,391.8425 L845.0066,390.6352 L834.9586,391.2311 L824.9107,391.0906 L814.8628,392.9494 L804.8148,392.5487 L794.7669,390.1164 L784.719,391.2167 L774.671,389.8719 L764.6231,392.1802 L754.5752,393.0338 L744.5272,392.8633 L734.4793,390.2497 L724.4314,392.6484 L714.3834,389.4303 L704.3355,391.9449 L694.2876,390.613 L684.2397,391.6691 L674.1917,392.0521 L664.1438,392.6701 L654.0959,389.4914 L644.0479,392.6791 L634,391.4112 L634,391.4112 " fill="#FFFFE0" style="stroke:#181818;stroke-width:4.0;"/><path d="M1216,391.4112 L1216.1868,391.4112 L1215.6317,393.4112 L1216.1718,395.4112 L1216.3553,397.4112 L1215.3659,399.4112 L1216,401.4112 L1216,401.3421 L1218,401.0321 L1220,401.0703 L1222,401.3506 L1224,400.7966 L1226,401.4112 L1226.348,401.7591 L1223.6038,399.015 L1221.8757,397.2869 L1220.2715,395.6827 L1217.9461,393.3572 L1216,391.4112 " fill="#FFFFE0" style="stroke:#181818;stroke-width:4.0;"/><text fill="#000000" font-family="Chalkduster" font-size="24" lengthAdjust="spacing" textLength="571" x="640" y="420.252">- Specify behaviour of editor, eg Crate-O</text><text fill="#000000" font-family="Chalkduster" font-size="24" lengthAdjust="spacing" textLength="416" x="640" y="450.8819">- Validate RO-Crate structure</text></g><!--entity pf--><g id="elem_pf"><polygon fill="#E6E6FA" points="1270.5,213.1512,1270.5,213.3613,1280.5769,212.7368,1290.6538,213.3444,1300.7308,213.5508,1310.8077,212.4378,1320.8846,213.0734,1330.9615,212.7247,1341.0385,212.7677,1351.1154,213.083,1361.1923,212.4598,1371.2692,213.7048,1381.3462,212.5209,1391.4231,212.9534,1401.5,213.5831,1411.5769,213.0654,1421.6538,213.2194,1431.7308,213.1192,1441.8077,213.3297,1451.8846,213.3903,1461.9615,213.7369,1472.0385,213.8222,1482.1154,213.8304,1492.1923,213.4058,1502.2692,213.6147,1512.3462,213.8534,1522.4231,212.43,1532.5,213.8297,1542.5769,212.8547,1552.6538,213.685,1562.7308,212.6561,1572.8077,213.0827,1582.8846,213.8928,1592.9615,213.1024,1603.0385,213.2565,1613.1154,213.4898,1623.1923,213.5674,1633.2692,213.1473,1643.3462,213.4384,1653.4231,212.5787,1663.5,213.1512,1663.5363,213.2387,1663.9235,213.4664,1664.2638,213.581,1664.6389,213.7793,1664.8526,213.5882,1665.2678,213.8834,1665.0669,213.8002,1665.2228,214.1577,1665.5425,214.583,1665.6466,214.919,1666.0634,215.3845,1666,215.6512,1665.8253,215.6512,1665.6569,225.1836,1666.2283,234.7161,1665.3332,244.2485,1665.4809,253.781,1666.649,263.3135,1666.4357,272.8459,1666.7345,282.3784,1666,291.9108,1665.9009,291.8698,1665.9519,292.3051,1665.8889,292.6932,1665.4152,292.9112,1665.3847,293.3128,1665.2678,293.6786,1665.2838,293.7174,1664.9974,294.0258,1664.5601,293.9702,1664.2661,294.2604,1663.7829,294.0938,1663.5,294.4108,1663.5,293.7336,1653.4231,294.9144,1643.3462,293.6939,1633.2692,294.9198,1623.1923,294.6175,1613.1154,294.1429,1603.0385,294.0571,1592.9615,294.8696,1582.8846,294.1115,1572.8077,295.0027,1562.7308,293.8581,1552.6538,295.0283,1542.5769,294.8951,1532.5,294.6558,1522.4231,294.458,1512.3462,295.1374,1502.2692,295.0244,1492.1923,294.5801,1482.1154,294.679,1472.0385,294.2806,1461.9615,295.1273,1451.8846,294.5657,1441.8077,294.5834,1431.7308,293.8025,1421.6538,294.0056,1411.5769,294.9416,1401.5,294.8406,1391.4231,294.3679,1381.3462,294.0887,1371.2692,294.1919,1361.1923,293.7247,1351.1154,294.8256,1341.0385,295.1504,1330.9615,294.9372,1320.8846,295.1058,1310.8077,294.2741,1300.7308,294.498,1290.6538,294.0232,1280.5769,294.6949,1270.5,294.4108,1270.5315,294.4868,1270.2169,294.4345,1269.7636,294.0472,1269.4222,293.9301,1269.1424,293.9616,1268.7322,293.6786,1268.9069,293.751,1268.4279,293.2597,1268.3796,292.9468,1268.3389,292.637,1267.9583,292.1865,1268,291.9108,1268.3534,291.9108,1268.258,282.3784,1267.8992,272.8459,1268.1422,263.3135,1268.7287,253.781,1267.6871,244.2485,1268.315,234.7161,1268.2856,225.1836,1268,215.6512,1268.0357,215.6659,1268.1898,215.3156,1268.3278,214.9585,1268.2471,214.5109,1268.4624,214.1858,1268.7322,213.8834,1268.6734,213.7413,1269.0939,213.7566,1269.4506,213.6176,1269.8135,213.4939,1270.1093,213.208,1270.5,213.1512" style="stroke:#181818;stroke-width:4.0;"/><text fill="#000000" font-family="Chalkduster" font-size="24" font-style="italic" lengthAdjust="spacing" textLength="170" x="1382" y="246.992">&#171;standards&#187;</text><text fill="#000000" font-family="Chalkduster" font-size="24" lengthAdjust="spacing" textLength="378" x="1278" y="277.6219">RO-Crate Profile Document</text></g><g id="elem_GMN19"><path d="M1191,80.8912 L1191.5605,80.8912 L1189.8951,91.0711 L1191.5154,101.2511 L1192.0658,111.431 L1189.0976,121.611 L1190.7928,131.7909 L1189.8627,141.9709 L1191,152.1508 L1191,152.1508 L1191,151.1282 L1201.0741,151.9691 L1211.1481,150.3072 L1221.2222,153.6272 L1231.2963,150.4701 L1241.3704,151.6234 L1251.4444,153.3027 L1261.5185,151.9221 L1271.5926,152.3328 L1281.6667,152.0656 L1291.7407,152.6269 L1301.8148,152.7885 L1311.8889,153.7127 L1321.963,153.9403 L1332.037,153.9622 L1342.1111,152.8298 L1352.1852,153.3871 L1362.2593,154.0234 L1372.3333,150.2277 L1382.4074,153.9602 L1392.4815,151.3602 L1402.5556,153.5743 L1412.6296,150.8308 L1422.7037,151.9682 L1432.7778,154.1284 L1442.8519,152.0209 L1452.9259,152.4316 L1463,152.1508 L1463.9011,152.2103 L1464.7742,162.3323 L1464.3229,172.3669 L1465.7642,182.5264 L1464.1435,192.4839 L1467.0901,202.7427 L1467,212.8012 L1468.4587,212.8974 L1468.8495,202.7708 L1469.9645,192.692 L1467.7146,182.3912 L1467.9313,172.2532 L1468.6799,162.1502 L1471,152.1508 L1471,151.9938 L1481.0741,151.6268 L1491.1481,153.9679 L1501.2222,151.685 L1511.2963,151.236 L1521.3704,152.7595 L1531.4444,150.3726 L1541.5185,150.7665 L1551.5926,153.8814 L1561.6667,153.3126 L1571.7407,154.1095 L1581.8148,151.2927 L1591.8889,153.002 L1601.963,153.7253 L1612.037,150.8911 L1622.1111,151.8952 L1632.1852,152.4868 L1642.2593,153.8889 L1652.3333,152.1397 L1662.4074,153.3843 L1672.4815,150.6741 L1682.5556,150.3448 L1692.6296,153.4938 L1702.7037,150.239 L1712.7778,153.5081 L1722.8519,152.7018 L1732.9259,151.4364 L1743,152.1508 L1743,152.1508 L1742.0566,152.1508 L1744.2234,141.9409 L1742.2018,131.7309 L1744.5783,121.521 L1741.526,111.311 L1744.6465,101.1011 L1743,90.8912 L1743.3044,91.1956 L1741.154,89.0451 L1739.0297,86.9208 L1737.4567,85.3479 L1735.3857,83.2768 L1733,80.8912 L1733,81.3425 L1722.963,81.6063 L1712.9259,80.5438 L1702.8889,82.8017 L1692.8519,81.3041 L1682.8148,81.3514 L1672.7778,79.2689 L1662.7407,79.8106 L1652.7037,82.3065 L1642.6667,82.0372 L1632.6296,80.7767 L1622.5926,80.032 L1612.5556,80.3074 L1602.5185,79.0614 L1592.4815,81.9971 L1582.4444,82.8633 L1572.4074,82.2949 L1562.3704,82.7443 L1552.3333,80.5266 L1542.2963,81.1237 L1532.2593,79.8576 L1522.2222,81.6486 L1512.1852,81.5492 L1502.1481,82.3642 L1492.1111,80.2787 L1482.0741,80.5327 L1472.037,82.0737 L1462,82.4041 L1451.963,79.5244 L1441.9259,80.3741 L1431.8889,81.2892 L1421.8519,79.2622 L1411.8148,81.8335 L1401.7778,81.5791 L1391.7407,80.6225 L1381.7037,81.2705 L1371.6667,82.8343 L1361.6296,80.0568 L1351.5926,81.7311 L1341.5556,81.6529 L1331.5185,81.1999 L1321.4815,81.267 L1311.4444,81.1938 L1301.4074,79.2267 L1291.3704,79.8223 L1281.3333,79.6604 L1271.2963,81.0614 L1261.2593,81.1262 L1251.2222,81.3225 L1241.1852,80.1152 L1231.1481,80.7111 L1221.1111,80.5706 L1211.0741,82.4294 L1201.037,82.0287 L1191,80.8912 L1191,80.8912 " fill="#FFFFE0" style="stroke:#181818;stroke-width:4.0;"/><path d="M1733,80.8912 L1733.1868,80.8912 L1732.6317,82.8912 L1733.1718,84.8912 L1733.3553,86.8912 L1732.3659,88.8912 L1733,90.8912 L1733,90.8221 L1735,90.5121 L1737,90.5503 L1739,90.8306 L1741,90.2766 L1743,90.8912 L1743.348,91.2391 L1740.6038,88.495 L1738.8757,86.7669 L1737.2715,85.1627 L1734.9461,82.8372 L1733,80.8912 " fill="#FFFFE0" style="stroke:#181818;stroke-width:4.0;"/><text fill="#000000" font-family="Chalkduster" font-size="24" lengthAdjust="spacing" textLength="531" x="1197" y="109.732">Eg Language Data Commons RO-Crate</text><text fill="#000000" font-family="Chalkduster" font-size="24" lengthAdjust="spacing" textLength="240" x="1197" y="140.3619">Profile Document</text></g><!--link soss to so--><g id="link_soss_so"><path d="M334.3,294.5012 L334.5802,294.506 L333.5821,303.9915 L334.2266,313.5057 L334.3362,323.0104 L332.6867,332.4846 L333.3686,341.9994 L332.7381,351.4913 L332.6299,360.9923 L332.8847,370.4996 L332.81,380.0012 " fill="none" style="stroke:#8B0000;stroke-width:4.0;"/><polygon fill="#8B0000" points="332.7,384.9412,332.7635,384.9707,333.4055,383.0969,334.4199,381.3963,335.313,379.6393,335.8073,377.6968,336.8537,376.011,336.8357,375.9924,335.9413,376.695,335.1377,377.4915,334.3971,378.3532,333.4392,378.99,332.7857,379.9419,332.9184,380.0701,331.8484,378.9823,331.166,378.2689,330.5307,377.6012,329.6205,376.6676,328.8549,375.8739,328.8758,375.8828,329.6141,377.6832,330.4477,379.5241,331.2353,381.3454,332.1107,383.2039,332.7,384.9412" style="stroke:#8B0000;stroke-width:4.0;"/><text fill="#000000" font-family="Chalkduster" font-size="24" lengthAdjust="spacing" textLength="108" x="335" y="349.252">Extends</text></g><!--reverse link md to pf--><g id="link_md_pf"><path d="M1094.61,253.7812 L1094.61,254.0614 L1104.7853,253.2287 L1114.9606,254.0389 L1125.1359,254.3141 L1135.3112,252.83 L1145.4865,253.6775 L1155.6618,253.2125 L1165.8371,253.2698 L1176.0124,253.6903 L1186.1876,252.8593 L1196.3629,254.5194 L1206.5382,252.9408 L1216.7135,253.5175 L1226.8888,254.3571 L1237.0641,253.6668 L1247.2394,253.8721 L1257.4147,253.7386 L1267.59,253.7812 " fill="none" style="stroke:#8B0000;stroke-width:4.0;"/><polygon fill="#8B0000" points="1089.65,253.7812,1089.6785,253.8452,1091.3939,254.455,1093.2762,255.44,1095.1041,256.3029,1096.7534,256.7639,1098.65,257.7812,1098.6317,257.7628,1097.7495,256.8806,1096.9596,256.0908,1096.2339,255.3651,1095.287,254.4182,1094.65,253.7812,1094.7805,253.9117,1095.3014,252.8326,1096.2034,252.1345,1097.1518,251.483,1097.8298,250.5609,1098.65,249.7812,1098.6592,249.8019,1096.8457,250.5714,1095.0742,251.4355,1093.2824,252.254,1091.5293,253.1596,1089.65,253.7812" style="stroke:#8B0000;stroke-width:4.0;"/><text fill="#000000" font-family="Chalkduster" font-size="24" lengthAdjust="spacing" textLength="143" x="1106.75" y="212.622">Show rules</text><text fill="#000000" font-family="Chalkduster" font-size="24" lengthAdjust="spacing" textLength="67" x="1144.75" y="243.2519">from</text></g><!--reverse link soss to md--><g id="link_soss_md"><path d="M604.94,253.7812 L604.94,254.0614 L614.9469,253.2287 L624.9538,254.0389 L634.9606,254.3141 L644.9675,252.83 L654.9744,253.6775 L664.9813,253.2125 L674.9881,253.2698 L684.995,253.6903 L695.0019,252.8593 L705.0088,254.5194 L715.0156,252.9408 L725.0225,253.5175 L735.0294,254.3571 L745.0363,253.6668 L755.0431,253.8721 L765.05,253.7812 " fill="none" style="stroke:#8B0000;stroke-width:4.0;"/><polygon fill="#8B0000" points="599.97,253.7812,599.9985,253.8452,601.7139,254.455,603.5962,255.44,605.4241,256.3029,607.0734,256.7639,608.97,257.7812,608.9517,257.7628,608.0695,256.8806,607.2796,256.0908,606.5539,255.3651,605.607,254.4182,604.97,253.7812,605.1005,253.9117,605.6214,252.8326,606.5234,252.1345,607.4718,251.483,608.1498,250.5609,608.97,249.7812,608.9792,249.8019,607.1657,250.5714,605.3942,251.4355,603.6024,252.254,601.8493,253.1596,599.97,253.7812" style="stroke:#8B0000;stroke-width:4.0;"/><text fill="#000000" font-family="Chalkduster" font-size="24" lengthAdjust="spacing" textLength="126" x="619" y="243.622">Based on</text></g><!--SRC=[VL9DJm8n4BttLunSfNWdX8CVDmr6Z2SIKzlPtORjpAQT2lnxMpPWCEgbQURZlTVtUkN9zjdXUp1qWDcDCs9qkPiM0vBe98SUPx8NfSHBZtDuxH2aYuWGZ2Um70QcCfgWuGWlAtqNZI2Wy-AfXPsN3eublL9AHRHYgEqH9clROJ0pZYsiAmkCXIFCFLVm2ImMgOmx4rrQBi4aI9pItp0ZmFMt2i4OqgymIbKeq8vtf9Ub07Dus0kIIuguhl80t1m9IwU5nyANYormNoo2Emw1AOq46qhPTXMtk14oUMl4Cpsnmoci1zuYdROlf8-lr6b0wnjleIvKiJkEspGOYwFOu2uK1VUtdWs5WW6Dxt7S-M0H3gSrNTHKhWDyO6S-FUTOMpKhZbF0zfJKXZIycTwxQkBPpIGnMydnyXNdzdFaIbp2ixb-dbzy7nfGgXownqQAxS4LszSTxo3c7ely9d8OardewDjEz3XpQn8wO58NLWpDFz6ST6tefx0l]--></g></svg>