<?xml version="1.0" encoding="us-ascii" standalone="no"?><svg xmlns="http://www.w3.org/2000/svg" xmlns:xlink="http://www.w3.org/1999/xlink" contentStyleType="text/css" height="433px" preserveAspectRatio="none" style="width:1814px;height:433px;background:#FFFFFF;" version="1.1" viewBox="0 0 1814 433" width="1814px" zoomAndPan="magnify"><defs/><g><text fill="#000000" font-family="Chalkduster" font-size="42" font-weight="bold" lengthAdjust="spacing" textLength="1519" x="140.5" y="51.7215">The three main components for RO-Crate editing with Crate-O</text><!--entity soss--><g id="elem_soss"><polygon fill="#E6E6FA" points="56.5,213.1512,56.5,213.3613,66.4464,212.7368,76.3929,213.3444,86.3393,213.5508,96.2857,212.4378,106.2321,213.0734,116.1786,212.7247,126.125,212.7677,136.0714,213.083,146.0179,212.4598,155.9643,213.7048,165.9107,212.5209,175.8571,212.9534,185.8036,213.5831,195.75,213.0654,205.6964,213.2194,215.6429,213.1192,225.5893,213.3297,235.5357,213.3903,245.4821,213.7369,255.4286,213.8222,265.375,213.8304,275.3214,213.4058,285.2679,213.6147,295.2143,213.8534,305.1607,212.43,315.1071,213.8297,325.0536,212.8547,335,213.685,344.9464,212.6561,354.8929,213.0827,364.8393,213.8928,374.7857,213.1024,384.7321,213.2565,394.6786,213.4898,404.625,213.5674,414.5714,213.1473,424.5179,213.4384,434.4643,212.5787,444.4107,213.4355,454.3571,213.6994,464.3036,213.5957,474.25,213.7642,484.1964,212.6681,494.1429,212.499,504.0893,212.5298,514.0357,213.0923,523.9821,212.9546,533.9286,213.8326,543.875,212.9765,553.8214,212.8081,563.7679,213.3794,573.7143,212.4843,583.6607,212.632,593.6071,213.8001,603.5536,213.5868,613.5,213.1512,613.5937,213.3774,613.8125,213.1985,614.2478,213.5424,614.636,213.7723,614.854,213.5915,615.2678,213.8834,615.2382,213.8712,615.453,214.253,615.7614,214.6736,615.7058,214.9435,615.996,215.3566,616,215.6512,615.4462,215.6512,615.3227,225.1836,616.5036,234.7161,615.2831,244.2485,616.509,253.781,616.2066,263.3135,615.7321,272.8459,615.6462,282.3784,616,291.9108,616.1413,291.9693,615.7614,292.2262,615.8894,292.6934,615.3904,292.901,615.6044,293.4038,615.2678,293.6786,615.3295,293.8277,614.9455,293.9005,614.5667,293.986,614.2998,294.3417,613.9318,294.4533,613.5,294.4108,613.5,294.5801,603.5536,294.679,593.6071,294.2806,583.6607,295.1273,573.7143,294.5657,563.7679,294.5834,553.8214,293.8025,543.875,294.0056,533.9286,294.9416,523.9821,294.8406,514.0357,294.3679,504.0893,294.0887,494.1429,294.1919,484.1964,293.7247,474.25,294.8256,464.3036,295.1504,454.3571,294.9372,444.4107,295.1058,434.4643,294.2741,424.5179,294.498,414.5714,294.0232,404.625,294.6949,394.6786,294.6576,384.7321,294.9632,374.7857,294.1812,364.8393,294.2764,354.8929,294.8543,344.9464,294.9782,335,293.8983,325.0536,294.2169,315.1071,294.5601,305.1607,293.8,295.2143,294.7642,285.2679,294.6688,275.3214,294.3101,265.375,294.5531,255.4286,295.1395,245.4821,294.098,235.5357,294.7258,225.5893,294.6965,215.6429,294.5266,205.6964,294.5517,195.75,294.5243,185.8036,293.7867,175.8571,294.01,165.9107,293.9493,155.9643,294.4747,146.0179,294.499,136.0714,294.5726,126.125,294.1199,116.1786,294.3433,106.2321,294.2906,96.2857,294.9877,86.3393,294.8374,76.3929,293.9253,66.4464,294.3379,56.5,294.4108,56.4264,294.2331,56.1832,294.3532,55.8705,294.3053,55.5088,294.1392,55.0302,293.6909,54.7322,293.6786,54.8751,293.7378,54.357,293.2303,54.501,292.997,54.2007,292.5798,54.1762,292.2767,54,291.9108,54.2403,291.9108,54.4721,282.3784,53.2801,272.8459,54.4755,263.3135,54.1782,253.781,54.3553,244.2485,54.7478,234.7161,54.0055,225.1836,54,215.6512,54.054,215.6735,54.2122,215.3248,54.3536,214.9692,54.4391,214.5904,54.8047,214.3276,54.7322,213.8834,54.6545,213.6956,55.1579,213.911,55.3597,213.3983,55.724,213.2777,56.1516,213.3099,56.5,213.1512" style="stroke:#181818;stroke-width:4.0;"/><text fill="#000000" font-family="Chalkduster" font-size="24" font-style="italic" lengthAdjust="spacing" textLength="170" x="250" y="246.992">&#171;standards&#187;</text><text fill="#000000" font-family="Chalkduster" font-size="24" lengthAdjust="spacing" textLength="542" x="64" y="277.6219">1. Schema.org Style Schema for Domain</text></g><g id="elem_GMN3"><path d="M6,80.8912 L6.5605,80.8912 L4.8951,91.0711 L6.5154,101.2511 L7.0658,111.431 L4.0976,121.611 L5.7928,131.7909 L4.8627,141.9709 L6,152.1508 L6,152.1508 L6,151.1282 L15.8485,151.9691 L25.697,150.3072 L35.5455,153.6272 L45.3939,150.4701 L55.2424,151.6234 L65.0909,153.3027 L74.9394,151.9221 L84.7879,152.3328 L94.6364,152.0656 L104.4848,152.6269 L114.3333,152.7885 L124.1818,153.7127 L134.0303,153.9403 L143.8788,153.9622 L153.7273,152.8298 L163.5758,153.3871 L173.4242,154.0234 L183.2727,150.2277 L193.1212,153.9602 L202.9697,151.3602 L212.8182,153.5743 L222.6667,150.8308 L232.5152,151.9682 L242.3636,154.1284 L252.2121,152.0209 L262.0606,152.4316 L271.9091,153.0538 L281.7576,153.2608 L291.6061,152.1404 L301.4545,152.9167 L311.303,150.6244 L321.1515,152.9092 L331,152.1508 L332.4587,152.247 L332.8495,162.3372 L333.9645,172.4752 L331.7146,182.3912 L331.9313,192.4699 L332.6799,202.5837 L335,212.8012 L334.8433,212.7908 L335.1437,202.6583 L338.1465,192.704 L336.5352,182.4453 L336.7538,172.3074 L338.9407,162.2993 L339,152.1508 L339,150.3726 L348.8485,150.7665 L358.697,153.8814 L368.5455,153.3126 L378.3939,154.1095 L388.2424,151.2927 L398.0909,153.002 L407.9394,153.7253 L417.7879,150.8911 L427.6364,151.8952 L437.4848,152.4868 L447.3333,153.8889 L457.1818,152.1397 L467.0303,153.3843 L476.8788,150.6741 L486.7273,150.3448 L496.5758,153.4938 L506.4242,150.239 L516.2727,153.5081 L526.1212,152.7018 L535.9697,151.4364 L545.8182,151.2074 L555.6667,153.3742 L565.5152,151.3526 L575.3636,153.7291 L585.2121,150.6768 L595.0606,153.7973 L604.9091,153.4423 L614.7576,152.8041 L624.6061,152.2767 L634.4545,154.0885 L644.303,153.787 L654.1515,152.6022 L664,152.1508 L664,152.1508 L664.7152,152.1508 L663.6526,141.9409 L665.9105,131.7309 L664.413,121.521 L664.4602,111.311 L662.3777,101.1011 L664,90.8912 L663.7453,90.6365 L662.3336,89.2248 L660.2701,87.1613 L657.973,84.8642 L655.7975,82.6887 L654,80.8912 L654,80.3074 L644.0308,79.0614 L634.0615,81.9971 L624.0923,82.8633 L614.1231,82.2949 L604.1538,82.7443 L594.1846,80.5266 L584.2154,81.1237 L574.2462,79.8576 L564.2769,81.6486 L554.3077,81.5492 L544.3385,82.3642 L534.3692,80.2787 L524.4,80.5327 L514.4308,82.0737 L504.4615,82.4041 L494.4923,79.5244 L484.5231,80.3741 L474.5538,81.2892 L464.5846,79.2622 L454.6154,81.8335 L444.6462,81.5791 L434.6769,80.6225 L424.7077,81.2705 L414.7385,82.8343 L404.7692,80.0568 L394.8,81.7311 L384.8308,81.6529 L374.8615,81.1999 L364.8923,81.267 L354.9231,81.1938 L344.9538,79.2267 L334.9846,79.8223 L325.0154,79.6604 L315.0462,81.0614 L305.0769,81.1262 L295.1077,81.3225 L285.1385,80.1152 L275.1692,80.7111 L265.2,80.5706 L255.2308,82.4294 L245.2615,82.0287 L235.2923,79.5964 L225.3231,80.6967 L215.3538,79.3519 L205.3846,81.6602 L195.4154,82.5138 L185.4462,82.3433 L175.4769,79.7297 L165.5077,82.1284 L155.5385,78.9103 L145.5692,81.4249 L135.6,80.093 L125.6308,81.1491 L115.6615,81.5321 L105.6923,82.1501 L95.7231,78.9714 L85.7538,82.1591 L75.7846,81.3663 L65.8154,81.8387 L55.8462,82.8853 L45.8769,80.9058 L35.9077,81.3586 L25.9385,81.4603 L15.9692,81.4171 L6,80.8912 L6,80.8912 " fill="#FFFFE0" style="stroke:#181818;stroke-width:4.0;"/><path d="M654,80.8912 L654.1868,80.8912 L653.6317,82.8912 L654.1718,84.8912 L654.3553,86.8912 L653.3659,88.8912 L654,90.8912 L654,90.8221 L656,90.5121 L658,90.5503 L660,90.8306 L662,90.2766 L664,90.8912 L664.348,91.2391 L661.6038,88.495 L659.8757,86.7669 L658.2715,85.1627 L655.9461,82.8372 L654,80.8912 " fill="#FFFFE0" style="stroke:#181818;stroke-width:4.0;"/><text fill="#000000" font-family="Chalkduster" font-size="24" lengthAdjust="spacing" textLength="480" x="12" y="109.732">Eg Language Data Commons terms</text><text fill="#000000" font-family="Chalkduster" font-size="24" lengthAdjust="spacing" textLength="637" x="12" y="140.3619">such as communicationMode, SpokenLanguage</text></g><!--entity md--><g id="elem_md"><polygon fill="#FFE4E1" points="781.5,213.1512,781.5,213.3613,791.5286,212.7368,801.5571,213.3444,811.5857,213.5508,821.6143,212.4378,831.6429,213.0734,841.6714,212.7247,851.7,212.7677,861.7286,213.083,871.7571,212.4598,881.7857,213.7048,891.8143,212.5209,901.8429,212.9534,911.8714,213.5831,921.9,213.0654,931.9286,213.2194,941.9571,213.1192,951.9857,213.3297,962.0143,213.3903,972.0429,213.7369,982.0714,213.8222,992.1,213.8304,1002.1286,213.4058,1012.1571,213.6147,1022.1857,213.8534,1032.2143,212.43,1042.2429,213.8297,1052.2714,212.8547,1062.3,213.685,1072.3286,212.6561,1082.3571,213.0827,1092.3857,213.8928,1102.4143,213.1024,1112.4429,213.2565,1122.4714,213.4898,1132.5,213.1512,1132.5531,213.2793,1132.8531,213.2964,1133.2437,213.5325,1133.4876,213.4142,1133.9505,213.8245,1134.2678,213.8834,1134.4366,213.9533,1134.5511,214.2937,1134.7494,214.6687,1134.5583,214.8824,1134.6527,215.2144,1135,215.6512,1134.3786,215.6512,1134.9411,225.1836,1134.8035,234.7161,1135.6814,244.2485,1134.8253,253.781,1134.6569,263.3135,1135.2283,272.8459,1134.3332,282.3784,1135,291.9108,1134.8401,291.8446,1135.0534,292.3472,1134.8413,292.6735,1134.7869,293.0652,1134.3151,293.284,1134.2678,293.6786,1134.3085,293.7769,1133.9895,294.0069,1133.5004,293.826,1133.1949,294.0884,1132.8696,294.3032,1132.5,294.4108,1132.5,295.0626,1122.4714,294.4066,1112.4429,294.8734,1102.4143,293.857,1092.3857,293.7336,1082.3571,294.9144,1072.3286,293.6939,1062.3,294.9198,1052.2714,294.6175,1042.2429,294.1429,1032.2143,294.0571,1022.1857,294.8696,1012.1571,294.1115,1002.1286,295.0027,992.1,293.8581,982.0714,295.0283,972.0429,294.8951,962.0143,294.6558,951.9857,294.458,941.9571,295.1374,931.9286,295.0244,921.9,294.5801,911.8714,294.679,901.8429,294.2806,891.8143,295.1273,881.7857,294.5657,871.7571,294.5834,861.7286,293.8025,851.7,294.0056,841.6714,294.9416,831.6429,294.8406,821.6143,294.3679,811.5857,294.0887,801.5571,294.1919,791.5286,293.7247,781.5,294.4108,781.5529,294.5385,781.2408,294.4921,780.86,294.28,780.528,294.1855,780.0683,293.7829,779.7322,293.6786,779.7591,293.6897,779.4664,293.2756,779.5268,293.0077,779.3689,292.6494,779.3166,292.3348,779,291.9108,778.7703,291.9108,778.8656,282.3784,779.4435,272.8459,779.5673,263.3135,778.4875,253.781,778.8061,244.2485,779.1493,234.7161,778.3892,225.1836,779,215.6512,779.1088,215.6962,779.2259,215.3305,779.2619,214.9312,779.4831,214.6086,779.8102,214.3299,779.7322,213.8834,779.6923,213.787,780.126,213.834,780.4758,213.6785,780.8077,213.4797,781.1644,213.341,781.5,213.1512" style="stroke:#181818;stroke-width:4.0;"/><text fill="#000000" font-family="Chalkduster" font-size="24" font-style="italic" lengthAdjust="spacing" textLength="175" x="869.5" y="246.992">&#171;workspace&#187;</text><text fill="#000000" font-family="Chalkduster" font-size="24" lengthAdjust="spacing" textLength="336" x="789" y="277.6219">2. Domain-specific Mode</text></g><g id="elem_GMN7"><path d="M750,80.8912 L750.5605,80.8912 L748.8951,91.0711 L750.5154,101.2511 L751.0658,111.431 L748.0976,121.611 L749.7928,131.7909 L748.8627,141.9709 L750,152.1508 L750,152.1508 L750,151.1282 L760.15,151.9691 L770.3,150.3072 L780.45,153.6272 L790.6,150.4701 L800.75,151.6234 L810.9,153.3027 L821.05,151.9221 L831.2,152.3328 L841.35,152.0656 L851.5,152.6269 L861.65,152.7885 L871.8,153.7127 L881.95,153.9403 L892.1,153.9622 L902.25,152.8298 L912.4,153.3871 L922.55,154.0234 L932.7,150.2277 L942.85,153.9602 L953,152.1508 L952.211,152.0988 L955.0871,162.3529 L953.0161,172.2807 L954.8177,182.464 L957.64,192.7145 L956.2037,202.6842 L957,212.8012 L957.2802,212.8196 L958.5677,202.7522 L959.4409,192.6574 L958.9896,182.4753 L960.4309,172.418 L958.8102,162.1588 L961,152.1508 L961,152.9092 L971.15,153.6127 L981.3,153.3362 L991.45,153.7856 L1001.6,150.8626 L1011.75,150.4117 L1021.9,150.4938 L1032.05,151.9938 L1042.2,151.6268 L1052.35,153.9679 L1062.5,151.685 L1072.65,151.236 L1082.8,152.7595 L1092.95,150.3726 L1103.1,150.7665 L1113.25,153.8814 L1123.4,153.3126 L1133.55,154.1095 L1143.7,151.2927 L1153.85,153.002 L1164,152.1508 L1164,152.1508 L1165.5745,152.1508 L1162.7403,141.9409 L1163.7444,131.7309 L1164.336,121.521 L1165.738,111.311 L1163.9888,101.1011 L1164,90.8912 L1164.2907,91.1819 L1161.6519,88.5431 L1159.5743,86.4655 L1158.3165,85.2077 L1155.5494,82.4405 L1154,80.8912 L1154,82.2484 L1143.9,81.4422 L1133.8,80.1767 L1123.7,79.9478 L1113.6,82.1145 L1103.5,80.0929 L1093.4,82.4695 L1083.3,79.4172 L1073.2,82.5376 L1063.1,82.1826 L1053,81.5444 L1042.9,81.0171 L1032.8,82.8288 L1022.7,82.5274 L1012.6,81.3425 L1002.5,81.6063 L992.4,80.5438 L982.3,82.8017 L972.2,81.3041 L962.1,81.3514 L952,79.2689 L941.9,79.8106 L931.8,82.3065 L921.7,82.0372 L911.6,80.7767 L901.5,80.032 L891.4,80.3074 L881.3,79.0614 L871.2,81.9971 L861.1,82.8633 L851,82.2949 L840.9,82.7443 L830.8,80.5266 L820.7,81.1237 L810.6,79.8576 L800.5,81.6486 L790.4,81.5492 L780.3,82.3642 L770.2,80.2787 L760.1,80.5327 L750,80.8912 L750,80.8912 " fill="#FFFFE0" style="stroke:#181818;stroke-width:4.0;"/><path d="M1154,80.8912 L1154.1868,80.8912 L1153.6317,82.8912 L1154.1718,84.8912 L1154.3553,86.8912 L1153.3659,88.8912 L1154,90.8912 L1154,90.8221 L1156,90.5121 L1158,90.5503 L1160,90.8306 L1162,90.2766 L1164,90.8912 L1164.348,91.2391 L1161.6038,88.495 L1159.8757,86.7669 L1158.2715,85.1627 L1155.9461,82.8372 L1154,80.8912 " fill="#FFFFE0" style="stroke:#181818;stroke-width:4.0;"/><text fill="#000000" font-family="Chalkduster" font-size="24" lengthAdjust="spacing" textLength="393" x="756" y="109.732">Eg Language Data Commons</text><text fill="#000000" font-family="Chalkduster" font-size="24" lengthAdjust="spacing" textLength="135" x="756" y="140.3619">mode file</text></g><g id="elem_GMN10"><path d="M661,355.4112 L661.5605,355.4112 L659.8951,365.5911 L661.5154,375.7711 L662.0658,385.951 L659.0976,396.131 L660.7928,406.3109 L659.8627,416.4909 L661,426.6708 L661,426.6708 L661,425.6482 L671.0339,426.4891 L681.0678,424.8272 L691.1017,428.1472 L701.1356,424.9901 L711.1695,426.1434 L721.2034,427.8227 L731.2373,426.4421 L741.2712,426.8528 L751.3051,426.5856 L761.339,427.1469 L771.3729,427.3085 L781.4068,428.2327 L791.4407,428.4603 L801.4746,428.4822 L811.5085,427.3498 L821.5424,427.9071 L831.5763,428.5434 L841.6102,424.7477 L851.6441,428.4802 L861.678,425.8802 L871.7119,428.0943 L881.7458,425.3508 L891.7797,426.4882 L901.8136,428.6484 L911.8475,426.5409 L921.8814,426.9516 L931.9153,427.5738 L941.9492,427.7808 L951.9831,426.6604 L962.0169,427.4367 L972.0508,425.1444 L982.0847,427.4292 L992.1186,428.1327 L1002.1525,427.8562 L1012.1864,428.3056 L1022.2203,425.3826 L1032.2542,424.9317 L1042.2881,425.0138 L1052.322,426.5138 L1062.3559,426.1468 L1072.3898,428.4879 L1082.4237,426.205 L1092.4576,425.756 L1102.4915,427.2795 L1112.5254,424.8926 L1122.5593,425.2865 L1132.5932,428.4014 L1142.6271,427.8326 L1152.661,428.6295 L1162.6949,425.8127 L1172.7288,427.522 L1182.7627,428.2453 L1192.7966,425.4111 L1202.8305,426.4152 L1212.8644,427.0068 L1222.8983,428.4089 L1232.9322,426.6597 L1242.9661,427.9043 L1253,426.6708 L1253,426.6708 L1251.5232,426.6708 L1251.194,416.4609 L1254.343,406.2509 L1251.0882,396.041 L1254.3572,385.831 L1253.551,375.6211 L1253,365.4112 L1252.8316,365.2428 L1250.7776,363.1888 L1249.2883,361.6995 L1246.8119,359.223 L1245.372,357.7832 L1243,355.4112 L1243,353.9372 L1232.9286,357.0576 L1222.8571,356.7026 L1212.7857,356.0644 L1202.7143,355.5371 L1192.6429,357.3488 L1182.5714,357.0474 L1172.5,355.8625 L1162.4286,356.1263 L1152.3571,355.0638 L1142.2857,357.3217 L1132.2143,355.8241 L1122.1429,355.8714 L1112.0714,353.7889 L1102,354.3306 L1091.9286,356.8265 L1081.8571,356.5572 L1071.7857,355.2967 L1061.7143,354.552 L1051.6429,354.8274 L1041.5714,353.5814 L1031.5,356.5171 L1021.4286,357.3833 L1011.3571,356.8149 L1001.2857,357.2643 L991.2143,355.0466 L981.1429,355.6437 L971.0714,354.3776 L961,355.4112 L961.7558,355.4609 L960.99,345.3244 L961.1365,335.2479 L958.3889,324.9809 L957.9757,314.8676 L958.8467,304.8388 L957,294.6312 L958.5096,294.7305 L954.9695,304.6714 L955.1508,314.8572 L955.3972,325.0473 L952.7079,335.0442 L954.607,345.343 L953,355.4112 L953,356.0991 L942.931,355.1425 L932.8621,355.7905 L922.7931,357.3543 L912.7241,354.5768 L902.6552,356.2511 L892.5862,356.1729 L882.5172,355.7199 L872.4483,355.787 L862.3793,355.7138 L852.3103,353.7467 L842.2414,354.3423 L832.1724,354.1804 L822.1034,355.5814 L812.0345,355.6462 L801.9655,355.8425 L791.8966,354.6352 L781.8276,355.2311 L771.7586,355.0906 L761.6897,356.9494 L751.6207,356.5487 L741.5517,354.1164 L731.4828,355.2167 L721.4138,353.8719 L711.3448,356.1802 L701.2759,357.0338 L691.2069,356.8633 L681.1379,354.2497 L671.069,356.6484 L661,355.4112 L661,355.4112 " fill="#FFFFE0" style="stroke:#181818;stroke-width:4.0;"/><path d="M1243,355.4112 L1243.1868,355.4112 L1242.6317,357.4112 L1243.1718,359.4112 L1243.3553,361.4112 L1242.3659,363.4112 L1243,365.4112 L1243,365.3421 L1245,365.0321 L1247,365.0703 L1249,365.3506 L1251,364.7966 L1253,365.4112 L1253.348,365.7591 L1250.6038,363.015 L1248.8757,361.2869 L1247.2715,359.6827 L1244.9461,357.3572 L1243,355.4112 " fill="#FFFFE0" style="stroke:#181818;stroke-width:4.0;"/><text fill="#000000" font-family="Chalkduster" font-size="24" lengthAdjust="spacing" textLength="571" x="667" y="384.252">- Specify behaviour of editor, eg Crate-O</text><text fill="#000000" font-family="Chalkduster" font-size="24" lengthAdjust="spacing" textLength="416" x="667" y="414.8819">- Validate RO-Crate structure</text></g><!--entity pf--><g id="elem_pf"><polygon fill="#E6E6FA" points="1316.5,213.1512,1316.5,213.3613,1326.4767,212.7368,1336.4535,213.3444,1346.4302,213.5508,1356.407,212.4378,1366.3837,213.0734,1376.3605,212.7247,1386.3372,212.7677,1396.314,213.083,1406.2907,212.4598,1416.2674,213.7048,1426.2442,212.5209,1436.2209,212.9534,1446.1977,213.5831,1456.1744,213.0654,1466.1512,213.2194,1476.1279,213.1192,1486.1047,213.3297,1496.0814,213.3903,1506.0581,213.7369,1516.0349,213.8222,1526.0116,213.8304,1535.9884,213.4058,1545.9651,213.6147,1555.9419,213.8534,1565.9186,212.43,1575.8953,213.8297,1585.8721,212.8547,1595.8488,213.685,1605.8256,212.6561,1615.8023,213.0827,1625.7791,213.8928,1635.7558,213.1024,1645.7326,213.2565,1655.7093,213.4898,1665.686,213.5674,1675.6628,213.1473,1685.6395,213.4384,1695.6163,212.5787,1705.593,213.4355,1715.5698,213.6994,1725.5465,213.5957,1735.5233,213.7642,1745.5,213.1512,1745.4384,213.0024,1745.7704,213.0968,1746.1278,213.2527,1746.5531,213.5724,1746.8891,213.6764,1747.2678,213.8834,1747.4776,213.9703,1747.3604,214.2147,1747.455,214.5467,1747.7774,214.9732,1747.6482,215.2125,1748,215.6512,1747.4809,215.6512,1748.649,225.1836,1748.4357,234.7161,1748.7345,244.2485,1747.6782,253.781,1748.3192,263.3135,1748.5904,272.8459,1747.5276,282.3784,1748,291.9108,1747.9705,291.8986,1747.8924,292.2805,1747.9078,292.7011,1747.5594,292.971,1747.5567,293.384,1747.2678,293.6786,1747.1971,293.5081,1746.8278,293.6165,1746.6249,294.1266,1746.1157,293.8971,1745.9185,294.4211,1745.5,294.4108,1745.5,294.6175,1735.5233,294.1429,1725.5465,294.0571,1715.5698,294.8696,1705.593,294.1115,1695.6163,295.0027,1685.6395,293.8581,1675.6628,295.0283,1665.686,294.8951,1655.7093,294.6558,1645.7326,294.458,1635.7558,295.1374,1625.7791,295.0244,1615.8023,294.5801,1605.8256,294.679,1595.8488,294.2806,1585.8721,295.1273,1575.8953,294.5657,1565.9186,294.5834,1555.9419,293.8025,1545.9651,294.0056,1535.9884,294.9416,1526.0116,294.8406,1516.0349,294.3679,1506.0581,294.0887,1496.0814,294.1919,1486.1047,293.7247,1476.1279,294.8256,1466.1512,295.1504,1456.1744,294.9372,1446.1977,295.1058,1436.2209,294.2741,1426.2442,294.498,1416.2674,294.0232,1406.2907,294.6949,1396.314,294.6576,1386.3372,294.9632,1376.3605,294.1812,1366.3837,294.2764,1356.407,294.8543,1346.4302,294.9782,1336.4535,293.8983,1326.4767,294.2169,1316.5,294.4108,1316.519,294.4568,1316.0685,294.0763,1315.838,294.2268,1315.4722,294.0509,1315.0729,293.794,1314.7322,293.6786,1314.776,293.6967,1314.8102,293.418,1314.343,292.9316,1314.3899,292.6581,1314.2344,292.3008,1314,291.9108,1314.1158,291.9108,1314.1409,282.3784,1314.1135,272.8459,1313.3758,263.3135,1313.5992,253.781,1313.5385,244.2485,1314.0638,234.7161,1314.0881,225.1836,1314,215.6512,1314.0498,215.6718,1314.0568,215.2605,1314.2721,214.9354,1314.4023,214.5752,1314.7634,214.3105,1314.7322,213.8834,1314.7866,214.0148,1315.0239,213.5874,1315.43,213.568,1315.7193,213.2663,1316.1832,213.3864,1316.5,213.1512" style="stroke:#181818;stroke-width:4.0;"/><text fill="#000000" font-family="Chalkduster" font-size="24" font-style="italic" lengthAdjust="spacing" textLength="170" x="1446" y="246.992">&#171;standards&#187;</text><text fill="#000000" font-family="Chalkduster" font-size="24" lengthAdjust="spacing" textLength="414" x="1324" y="277.6219">3. RO-Crate Profile Document</text></g><g id="elem_GMN17"><path d="M1255,80.8912 L1255.5605,80.8912 L1253.8951,91.0711 L1255.5154,101.2511 L1256.0658,111.431 L1253.0976,121.611 L1254.7928,131.7909 L1253.8627,141.9709 L1255,152.1508 L1255,152.1508 L1255,151.1282 L1265.0741,151.9691 L1275.1481,150.3072 L1285.2222,153.6272 L1295.2963,150.4701 L1305.3704,151.6234 L1315.4444,153.3027 L1325.5185,151.9221 L1335.5926,152.3328 L1345.6667,152.0656 L1355.7407,152.6269 L1365.8148,152.7885 L1375.8889,153.7127 L1385.963,153.9403 L1396.037,153.9622 L1406.1111,152.8298 L1416.1852,153.3871 L1426.2593,154.0234 L1436.3333,150.2277 L1446.4074,153.9602 L1456.4815,151.3602 L1466.5556,153.5743 L1476.6296,150.8308 L1486.7037,151.9682 L1496.7778,154.1284 L1506.8519,152.0209 L1516.9259,152.4316 L1527,152.1508 L1527.9011,152.2103 L1528.7742,162.3323 L1528.3229,172.3669 L1529.7642,182.5264 L1528.1435,192.4839 L1531.0901,202.7427 L1531,212.8012 L1532.4587,212.8974 L1532.8495,202.7708 L1533.9645,192.692 L1531.7146,182.3912 L1531.9313,172.2532 L1532.6799,162.1502 L1535,152.1508 L1535,151.9938 L1545.0741,151.6268 L1555.1481,153.9679 L1565.2222,151.685 L1575.2963,151.236 L1585.3704,152.7595 L1595.4444,150.3726 L1605.5185,150.7665 L1615.5926,153.8814 L1625.6667,153.3126 L1635.7407,154.1095 L1645.8148,151.2927 L1655.8889,153.002 L1665.963,153.7253 L1676.037,150.8911 L1686.1111,151.8952 L1696.1852,152.4868 L1706.2593,153.8889 L1716.3333,152.1397 L1726.4074,153.3843 L1736.4815,150.6741 L1746.5556,150.3448 L1756.6296,153.4938 L1766.7037,150.239 L1776.7778,153.5081 L1786.8519,152.7018 L1796.9259,151.4364 L1807,152.1508 L1807,152.1508 L1806.0566,152.1508 L1808.2234,141.9409 L1806.2018,131.7309 L1808.5783,121.521 L1805.526,111.311 L1808.6465,101.1011 L1807,90.8912 L1807.3044,91.1956 L1805.154,89.0451 L1803.0297,86.9208 L1801.4567,85.3479 L1799.3857,83.2768 L1797,80.8912 L1797,81.3425 L1786.963,81.6063 L1776.9259,80.5438 L1766.8889,82.8017 L1756.8519,81.3041 L1746.8148,81.3514 L1736.7778,79.2689 L1726.7407,79.8106 L1716.7037,82.3065 L1706.6667,82.0372 L1696.6296,80.7767 L1686.5926,80.032 L1676.5556,80.3074 L1666.5185,79.0614 L1656.4815,81.9971 L1646.4444,82.8633 L1636.4074,82.2949 L1626.3704,82.7443 L1616.3333,80.5266 L1606.2963,81.1237 L1596.2593,79.8576 L1586.2222,81.6486 L1576.1852,81.5492 L1566.1481,82.3642 L1556.1111,80.2787 L1546.0741,80.5327 L1536.037,82.0737 L1526,82.4041 L1515.963,79.5244 L1505.9259,80.3741 L1495.8889,81.2892 L1485.8519,79.2622 L1475.8148,81.8335 L1465.7778,81.5791 L1455.7407,80.6225 L1445.7037,81.2705 L1435.6667,82.8343 L1425.6296,80.0568 L1415.5926,81.7311 L1405.5556,81.6529 L1395.5185,81.1999 L1385.4815,81.267 L1375.4444,81.1938 L1365.4074,79.2267 L1355.3704,79.8223 L1345.3333,79.6604 L1335.2963,81.0614 L1325.2593,81.1262 L1315.2222,81.3225 L1305.1852,80.1152 L1295.1481,80.7111 L1285.1111,80.5706 L1275.0741,82.4294 L1265.037,82.0287 L1255,80.8912 L1255,80.8912 " fill="#FFFFE0" style="stroke:#181818;stroke-width:4.0;"/><path d="M1797,80.8912 L1797.1868,80.8912 L1796.6317,82.8912 L1797.1718,84.8912 L1797.3553,86.8912 L1796.3659,88.8912 L1797,90.8912 L1797,90.8221 L1799,90.5121 L1801,90.5503 L1803,90.8306 L1805,90.2766 L1807,90.8912 L1807.348,91.2391 L1804.6038,88.495 L1802.8757,86.7669 L1801.2715,85.1627 L1798.9461,82.8372 L1797,80.8912 " fill="#FFFFE0" style="stroke:#181818;stroke-width:4.0;"/><text fill="#000000" font-family="Chalkduster" font-size="24" lengthAdjust="spacing" textLength="531" x="1261" y="109.732">Eg Language Data Commons RO-Crate</text><text fill="#000000" font-family="Chalkduster" font-size="24" lengthAdjust="spacing" textLength="240" x="1261" y="140.3619">Profile Document</text></g><!--reverse link md to pf--><g id="link_md_pf"><path d="M1141.44,253.7812 L1141.44,254.0614 L1151.5612,253.2287 L1161.6824,254.0389 L1171.8035,254.3141 L1181.9247,252.83 L1192.0459,253.6775 L1202.1671,253.2125 L1212.2882,253.2698 L1222.4094,253.6903 L1232.5306,252.8593 L1242.6518,254.5194 L1252.7729,252.9408 L1262.8941,253.5175 L1273.0153,254.3571 L1283.1365,253.6668 L1293.2576,253.8721 L1303.3788,253.7386 L1313.5,253.7812 " fill="none" style="stroke:#8B0000;stroke-width:4.0;"/><polygon fill="#8B0000" points="1136.47,253.7812,1136.4985,253.8452,1138.2139,254.455,1140.0962,255.44,1141.9241,256.3029,1143.5734,256.7639,1145.47,257.7812,1145.4517,257.7628,1144.5695,256.8806,1143.7796,256.0908,1143.0539,255.3651,1142.107,254.4182,1141.47,253.7812,1141.6005,253.9117,1142.1214,252.8326,1143.0234,252.1345,1143.9718,251.483,1144.6498,250.5609,1145.47,249.7812,1145.4792,249.8019,1143.6657,250.5714,1141.8942,251.4355,1140.1024,252.254,1138.3493,253.1596,1136.47,253.7812" style="stroke:#8B0000;stroke-width:4.0;"/><text fill="#000000" font-family="Chalkduster" font-size="24" lengthAdjust="spacing" textLength="143" x="1153" y="212.622">Show rules</text><text fill="#000000" font-family="Chalkduster" font-size="24" lengthAdjust="spacing" textLength="67" x="1191" y="243.2519">from</text></g><!--reverse link soss to md--><g id="link_soss_md"><path d="M622.25,253.7812 L622.25,254.0614 L632.0256,253.2287 L641.8013,254.0389 L651.5769,254.3141 L661.3525,252.83 L671.1281,253.6775 L680.9038,253.2125 L690.6794,253.2698 L700.455,253.6903 L710.2306,252.8593 L720.0063,254.5194 L729.7819,252.9408 L739.5575,253.5175 L749.3331,254.3571 L759.1088,253.6668 L768.8844,253.8721 L778.66,253.7812 " fill="none" style="stroke:#8B0000;stroke-width:4.0;"/><polygon fill="#8B0000" points="617.43,253.7812,617.4585,253.8452,619.1739,254.455,621.0562,255.44,622.8841,256.3029,624.5334,256.7639,626.43,257.7812,626.4117,257.7628,625.5295,256.8806,624.7396,256.0908,624.0139,255.3651,623.067,254.4182,622.43,253.7812,622.5605,253.9117,623.0814,252.8326,623.9834,252.1345,624.9318,251.483,625.6098,250.5609,626.43,249.7812,626.4392,249.8019,624.6257,250.5714,622.8542,251.4355,621.0624,252.254,619.3093,253.1596,617.43,253.7812" style="stroke:#8B0000;stroke-width:4.0;"/><text fill="#000000" font-family="Chalkduster" font-size="24" lengthAdjust="spacing" textLength="126" x="634.5" y="243.622">Based on</text></g><!--SRC=[VP51Jnin48Nl_XMldF6YmYsASYZqrWf4AawHaB5dTotMdfKz9kJVrqu8A5NXibgDvxtvviqt7-rK73q64tVeBfmHe-k_6IXG59rbDr4dhwAKU9beWJyZGSP4X61yXEKmSwoj6JqdtD_gwsI4GCwBZmEsNaRiI_fMAPN8Yed3H3Zxtc5jHmgcupHWtGQz5VPEDzpypx1Svgfm9hcyMi5aPCwvEgd8TOpm3ExtjGL-3lXLpKk5nqrT1DSS0iSCeHJo9kPYn-PGcKE9tXhn77-petEiPtwcU5IVS5vsRomwpsHzxosQff5jEJtdsLWwa0Lt0XNSvqYR6Ae7UZ_HGVF48XoECbs1sgmTdcWqBvvBQayjL4xdeE4OwIPgF9Z9kvRvU_XPKh5IqkaYLzr7nrtYDhjkPaixz7zoddieLJzwebxqgd9XWVN8MwGoKTsWJnnKInvBdVmmYZxq_32P73YUdcZklpZGaMiJ_mNx2m00]--></g></svg>