<?xml version="1.0" encoding="us-ascii" standalone="no"?><svg xmlns="http://www.w3.org/2000/svg" xmlns:xlink="http://www.w3.org/1999/xlink" contentStyleType="text/css" height="402px" preserveAspectRatio="none" style="width:762px;height:402px;background:#FFFFFF;" version="1.1" viewBox="0 0 762 402" width="762px" zoomAndPan="magnify"><defs/><g><!--cluster tools--><g id="cluster_tools"><polygon fill="none" points="9.5,9.2889,9.5,9.4991,19.5541,8.8746,29.6081,9.4822,39.6622,9.6886,49.7162,8.5756,59.7703,9.2112,69.8243,8.8625,79.8784,8.9055,89.9324,9.2208,99.9865,8.5976,110.0405,9.8426,120.0946,8.6587,130.1486,9.0912,140.2027,9.7209,150.2568,9.2032,160.3108,9.3572,170.3649,9.257,180.4189,9.4675,190.473,9.5281,200.527,9.8746,210.5811,9.96,220.6351,9.9682,230.6892,9.5436,240.7432,9.7525,250.7973,9.9912,260.8514,8.5678,270.9054,9.9675,280.9595,8.9924,291.0135,9.8228,301.0676,8.7939,311.1216,9.2205,321.1757,10.0306,331.2297,9.2402,341.2838,9.3943,351.3378,9.6276,361.3919,9.7052,371.4459,9.285,381.5,9.5762,391.5541,8.7165,401.6081,9.5733,411.6622,9.8371,421.7162,9.7335,431.7703,9.902,441.8243,8.8059,451.8784,8.6368,461.9324,8.6675,471.9865,9.2301,482.0405,9.0924,492.0946,9.9704,502.1486,9.1143,512.2027,8.9459,522.2568,9.5172,532.3108,8.6221,542.3649,8.7698,552.4189,9.9379,562.473,9.7246,572.527,10.0234,582.5811,8.9672,592.6351,9.6081,602.6892,9.8794,612.7432,8.8165,622.7973,9.1931,632.8514,9.4149,642.9054,9.9407,652.9595,9.2848,663.0135,9.7515,673.0676,8.7352,683.1216,8.6117,693.1757,9.7926,703.2297,8.572,713.2838,9.7979,723.3378,9.4956,733.3919,9.021,743.4459,8.9352,753.5,9.2889,753.5585,9.4302,753.8154,9.3432,754.2826,9.7641,754.4902,9.5581,754.993,10.0649,755.2678,10.0212,755.4169,10.083,755.4897,10.406,755.5752,10.7343,755.9309,11.1745,756.0425,11.5137,756,11.7889,756.1693,11.7889,756.2682,21.9193,755.8697,32.0497,756.7165,42.1801,756.1549,52.3105,756.1726,62.4409,755.3916,72.5713,755.5948,82.7017,756.5307,92.8321,756.4298,102.9625,755.9571,113.0929,755.6778,123.2233,755.7811,133.3537,755.3138,143.4841,756.4147,153.6145,756.7396,163.7449,756.5264,173.8753,756.6949,184.0057,755.8633,194.1361,756.0872,204.2665,755.6124,214.3969,756.284,224.5273,756.2468,234.6577,756.5524,244.7881,755.7703,254.9185,756,265.0489,755.9586,265.0318,755.9901,265.4591,755.8818,265.8284,755.4028,266.0442,755.3545,266.4384,755.2678,266.8167,755.2868,266.8627,754.8363,266.775,754.6057,267.2184,754.24,267.3355,753.8407,267.3715,753.5,267.5489,753.5,267.6912,743.4459,268.2776,733.3919,267.2361,723.3378,267.8639,713.2838,267.8346,703.2297,267.6647,693.1757,267.6899,683.1216,267.6624,673.0676,266.9248,663.0135,267.1481,652.9595,267.0874,642.9054,267.6128,632.8514,267.6371,622.7973,267.7107,612.7432,267.258,602.6892,267.4814,592.6351,267.4287,582.5811,268.1258,572.527,267.9755,562.473,267.0634,552.4189,267.476,542.3649,266.9717,532.3108,267.8373,522.2568,268.1574,512.2027,268.0935,502.1486,267.1134,492.0946,268.0129,482.0405,266.8061,471.9865,267.7491,461.9324,267.2496,451.8784,267.6457,441.8243,267.7893,431.7703,268.0211,421.7162,266.829,411.6622,268.0244,401.6081,267.7271,391.5541,267.9043,381.5,268.2968,371.4459,267.5544,361.3919,267.7242,351.3378,267.7624,341.2838,267.7462,331.2297,267.5481,321.1757,268.2597,311.1216,266.9392,301.0676,268.1142,291.0135,266.9249,280.9595,267.0086,270.9054,267.589,260.8514,267.5772,250.7973,267.0561,240.7432,267.9627,230.6892,267.6578,220.6351,268.2756,210.5811,268.2161,200.527,267.1007,190.473,267.151,180.4189,267.4198,170.3649,267.9045,160.3108,267.9519,150.2568,267.8501,140.2027,267.207,130.1486,268.1853,120.0946,268.1827,110.0405,267.5017,99.9865,267.3099,89.9324,267.1476,79.8784,267.3344,69.8243,267.6864,59.7703,267.4806,49.7162,267.1312,39.6622,268.0363,29.6081,267.09,19.5541,268.0513,9.5,267.5489,9.5545,267.6805,9.1939,267.517,8.8812,267.4693,8.408,267.0339,8.0474,266.8706,7.7322,266.8167,7.892,266.8829,7.402,266.387,7.3673,266.0798,7.3285,265.7708,7.1676,265.4113,7,265.0489,6.6415,265.0489,6.957,254.9185,7.7446,244.7881,7.6485,234.6577,6.4037,224.5273,7.0785,214.3969,6.4861,204.2665,6.9737,194.1361,7.293,184.0057,7.4199,173.8753,6.3353,163.7449,7.4005,153.6145,7.0084,143.4841,6.4447,133.3537,6.5289,123.2233,7.3266,113.0929,7.2499,102.9625,6.9836,92.8321,6.3279,82.7017,7.6581,72.5713,6.6882,62.4409,6.4719,52.3105,6.9327,42.1801,7.5897,32.0497,7.6154,21.9193,7,11.7889,7.0108,11.7934,7.0999,11.4161,7.3452,11.1035,7.4967,10.752,7.4294,10.31,7.7322,10.0212,7.785,10.1487,8.1571,10.0468,8.4118,9.6618,8.7381,9.4497,9.2325,9.6432,9.5,9.2889" style="stroke:#181818;stroke-width:4.0;"/><text fill="#000000" font-family="Chalkduster" font-size="24" font-weight="bold" lengthAdjust="spacing" textLength="323" x="220" y="35.1298">RO-Crate Schema Tools</text></g><!--entity sos--><g id="elem_sos"><polygon fill="none" points="460.5,58.2889,460.5,58.4991,470.3929,57.8746,480.2857,58.4822,490.1786,58.6886,500.0714,57.5756,509.9643,58.2112,519.8571,57.8625,529.75,57.9055,539.6429,58.2208,549.5357,57.5976,559.4286,58.8426,569.3214,57.6587,579.2143,58.0912,589.1071,58.7209,599,58.2032,608.8929,58.3572,618.7857,58.257,628.6786,58.4675,638.5714,58.5281,648.4643,58.8746,658.3571,58.96,668.25,58.9682,678.1429,58.5436,688.0357,58.7525,697.9286,58.9912,707.8214,57.5678,717.7143,58.9675,727.6071,57.9924,737.5,58.2889,737.5681,58.4533,737.7904,58.2829,738.1984,58.5607,738.6553,58.9567,738.908,58.8597,739.2678,59.0212,739.3002,59.0346,739.5185,59.4179,739.6888,59.7814,739.7059,60.0813,739.942,60.472,740,60.7889,739.4276,60.7889,740.2844,69.9149,740.5482,79.0409,740.4445,88.1668,740.613,97.2928,740,106.4188,739.8512,106.3572,739.6527,106.6891,739.5157,107.0466,739.5425,107.4719,739.3537,107.8079,739.2678,108.1866,739.3547,108.3964,738.8919,108.2792,738.5169,108.3738,738.2362,108.6962,737.7685,108.567,737.5,108.9188,737.5,108.3997,727.6071,109.5677,717.7143,109.3545,707.8214,109.6533,697.9286,108.597,688.0357,109.238,678.1429,109.5092,668.25,108.4464,658.3571,108.8229,648.4643,109.0448,638.5714,109.5705,628.6786,108.9146,618.7857,109.3814,608.8929,108.365,599,108.2415,589.1071,109.4224,579.2143,108.2018,569.3214,109.4277,559.4286,109.1254,549.5357,108.6509,539.6429,108.565,529.75,109.3775,519.8571,108.6195,509.9643,109.5106,500.0714,108.366,490.1786,109.5362,480.2857,109.4031,470.3929,109.1638,460.5,108.9188,460.506,108.9333,460.2391,108.9961,459.8712,108.8148,459.4609,108.5316,459.12,108.4156,458.7322,108.1866,458.6921,108.1699,458.8064,107.9244,458.487,107.4992,458.346,107.1479,457.9591,106.6947,458,106.4188,457.5948,106.4188,458.5307,97.2928,458.4298,88.1668,457.9571,79.0409,457.6778,69.9149,458,60.7889,457.9326,60.761,457.9351,60.3479,458.4206,60.1347,458.6671,59.8226,458.7479,59.4419,458.7322,59.0212,458.8209,59.2352,459.0683,58.8326,459.4505,58.7552,459.7435,58.4625,460.1827,58.5229,460.5,58.2889" style="stroke:#181818;stroke-width:4.0;"/><text fill="#000000" font-family="Chalkduster" font-size="24" lengthAdjust="spacing" textLength="262" x="468" y="92.1298">Schema.org Schema</text></g><!--entity roc--><g id="elem_roc"><polygon fill="none" points="26,58.2889,26,58.4991,36.1026,57.8746,46.2051,58.4822,56.3077,58.6886,66.4103,57.5756,76.5128,58.2112,86.6154,57.8625,96.7179,57.9055,106.8205,58.2208,116.9231,57.5976,127.0256,58.8426,137.1282,57.6587,147.2308,58.0912,157.3333,58.7209,167.4359,58.2032,177.5385,58.3572,187.641,58.257,197.7436,58.4675,207.8462,58.5281,217.9487,58.8746,228.0513,58.96,238.1538,58.9682,248.2564,58.5436,258.359,58.7525,268.4615,58.9912,278.5641,57.5678,288.6667,58.9675,298.7692,57.9924,308.8718,58.8228,318.9744,57.7939,329.0769,58.2205,339.1795,59.0306,349.2821,58.2402,359.3846,58.3943,369.4872,58.6276,379.5897,58.7052,389.6923,58.285,399.7949,58.5762,409.8974,57.7165,420,58.2889,420.0363,58.3765,420.4235,58.6042,420.7638,58.7187,421.1389,58.9171,421.3526,58.726,421.7678,59.0212,421.5669,58.938,421.7228,59.2955,422.0425,59.7208,422.1466,60.0568,422.5634,60.5223,422.5,60.7889,422.3253,60.7889,422.1569,69.9149,422.7283,79.0409,421.8332,88.1668,421.9809,97.2928,422.5,106.4188,422.6999,106.5016,422.4877,106.8279,422.4333,107.2196,421.9616,107.4384,422.0125,107.8737,421.7678,108.1866,421.8431,108.3684,421.354,108.1875,421.0484,108.4499,420.7232,108.6647,420.4367,108.9731,420,108.9188,420,108.9146,409.8974,109.3814,399.7949,108.365,389.6923,108.2415,379.5897,109.4224,369.4872,108.2018,359.3846,109.4277,349.2821,109.1254,339.1795,108.6509,329.0769,108.565,318.9744,109.3775,308.8718,108.6195,298.7692,109.5106,288.6667,108.366,278.5641,109.5362,268.4615,109.4031,258.359,109.1638,248.2564,108.966,238.1538,109.6454,228.0513,109.5324,217.9487,109.088,207.8462,109.187,197.7436,108.7885,187.641,109.6352,177.5385,109.0737,167.4359,109.0914,157.3333,108.3104,147.2308,108.5136,137.1282,109.4495,127.0256,109.3485,116.9231,108.8759,106.8205,108.5966,96.7179,108.6999,86.6154,108.2326,76.5128,109.3335,66.4103,109.6583,56.3077,109.4452,46.2051,109.6137,36.1026,108.7821,26,108.9188,26.0111,108.9456,25.597,108.653,25.3291,108.7134,24.9708,108.5554,24.6562,108.5031,24.2322,108.1866,24.1615,108.1573,24.0444,107.8159,24.0759,107.536,23.9676,107.1983,23.4886,106.707,23.5,106.4188,23.3061,106.4188,23.6493,97.2928,22.8892,88.1668,23.8534,79.0409,23.758,69.9149,23.5,60.7889,23.469,60.7761,23.6903,60.4535,24.0173,60.1748,23.843,59.6884,24.1828,59.4149,24.2322,59.0212,24.2687,59.1092,24.6006,58.9104,24.9573,58.7717,25.3074,58.6168,25.5668,58.2432,26,58.2889" style="stroke:#181818;stroke-width:4.0;"/><text fill="#000000" font-family="Chalkduster" font-size="24" lengthAdjust="spacing" textLength="379" x="33.5" y="92.1298">RO-Crate Schema additions</text></g><!--entity rocsoss--><g id="elem_rocsoss"><polygon fill="none" points="202.5,200.9189,202.5,201.1291,212.6071,200.5046,222.7143,201.1122,232.8214,201.3186,242.9286,200.2056,253.0357,200.8412,263.1429,200.4925,273.25,200.5355,283.3571,200.8508,293.4643,200.2276,303.5714,201.4726,313.6786,200.2887,323.7857,200.7212,333.8929,201.3509,344,200.8332,354.1071,200.9872,364.2143,200.887,374.3214,201.0975,384.4286,201.1581,394.5357,201.5046,404.6429,201.59,414.75,201.5982,424.8571,201.1736,434.9643,201.3825,445.0714,201.6212,455.1786,200.1978,465.2857,201.5975,475.3929,200.6224,485.5,200.9189,485.5681,201.0833,485.7904,200.9129,486.1984,201.1907,486.6553,201.5867,486.908,201.4897,487.2678,201.6512,487.3002,201.6646,487.5185,202.0479,487.6888,202.4114,487.7059,202.7113,487.942,203.102,488,203.4189,487.4276,203.4189,488.2844,212.5449,488.5482,221.6709,488.4445,230.7968,488.613,239.9228,488,249.0488,487.8512,248.9872,487.6527,249.3191,487.5157,249.6766,487.5425,250.1019,487.3537,250.4379,487.2678,250.8166,487.3547,251.0264,486.8919,250.9092,486.5169,251.0038,486.2362,251.3262,485.7685,251.197,485.5,251.5488,485.5,251.0297,475.3929,252.1977,465.2857,251.9845,455.1786,252.2833,445.0714,251.227,434.9643,251.868,424.8571,252.1392,414.75,251.0764,404.6429,251.4529,394.5357,251.6748,384.4286,252.2005,374.3214,251.5446,364.2143,252.0114,354.1071,250.995,344,250.8715,333.8929,252.0524,323.7857,250.8318,313.6786,252.0577,303.5714,251.7554,293.4643,251.2809,283.3571,251.195,273.25,252.0075,263.1429,251.2495,253.0357,252.1406,242.9286,250.996,232.8214,252.1662,222.7143,252.0331,212.6071,251.7938,202.5,251.5488,202.506,251.5633,202.2391,251.6261,201.8712,251.4448,201.4609,251.1616,201.12,251.0456,200.7322,250.8166,200.6921,250.7999,200.8064,250.5544,200.487,250.1292,200.346,249.7779,199.9591,249.3247,200,249.0488,199.5948,249.0488,200.5307,239.9228,200.4298,230.7968,199.9571,221.6709,199.6778,212.5449,200,203.4189,199.9326,203.391,199.9351,202.9779,200.4206,202.7647,200.6671,202.4526,200.7479,202.0719,200.7322,201.6512,200.8209,201.8652,201.0683,201.4626,201.4505,201.3852,201.7435,201.0925,202.1827,201.1529,202.5,200.9189" style="stroke:#181818;stroke-width:4.0;"/><text fill="#000000" font-family="Chalkduster" font-size="24" lengthAdjust="spacing" textLength="268" x="210" y="234.7598">Tool: rocsoss script</text></g><!--entity rop--><g id="elem_rop"><polygon fill="none" points="184,345.5489,184,345.7591,194,345.1346,204,345.7422,214,345.9486,224,344.8356,234,345.4712,244,345.1225,254,345.1655,264,345.4808,274,344.8576,284,346.1026,294,344.9187,304,345.3512,314,345.9809,324,345.4632,334,345.6172,344,345.517,354,345.7275,364,345.7881,374,346.1346,384,346.22,394,346.2282,404,345.8036,414,346.0125,424,346.2512,434,344.8278,444,346.2275,454,345.2524,464,346.0828,474,345.0539,484,345.4805,494,346.2906,504,345.5489,503.9938,345.5339,504.367,345.7278,504.7503,345.9461,505.1138,346.1165,505.4137,346.1335,505.7678,346.2812,505.8562,346.3178,505.7379,346.5617,506.1482,347.0246,506.3759,347.4118,506.4905,347.7521,506.5,348.0489,507.113,348.0489,506.0169,357.1749,505.8478,366.3009,505.8786,375.4268,506.4411,384.5528,506.5,393.6788,506.4395,393.6537,506.5634,394.1193,506.1533,394.3636,505.955,394.6957,505.9845,395.1221,505.7678,395.4466,505.6827,395.2412,505.348,395.4331,505.1434,395.9393,504.7627,396.0201,504.4472,396.2585,504,396.1788,504,395.857,494,396.498,484,396.7692,474,395.7064,464,396.0829,454,396.3048,444,396.8305,434,396.1746,424,396.6414,414,395.625,404,395.5015,394,396.6824,384,395.4618,374,396.6877,364,396.3854,354,395.9109,344,395.825,334,396.6375,324,395.8795,314,396.7706,304,395.626,294,396.7962,284,396.6631,274,396.4238,264,396.226,254,396.9054,244,396.7924,234,396.348,224,396.447,214,396.0485,204,396.8952,194,396.3337,184,396.1788,184.022,396.2319,183.5688,395.845,183.2412,395.7611,183.007,395.9029,182.6406,395.7253,182.2322,395.4466,182.219,395.4411,181.9866,395.0519,181.8719,394.7115,181.5816,394.2984,181.7742,394.0852,181.5,393.6788,182.2396,393.6788,182.0264,384.5528,182.1949,375.4268,181.3633,366.3009,181.5872,357.1749,181.5,348.0489,181.3806,347.9995,181.7339,347.7316,181.8689,347.3733,182.1095,347.0588,182.0151,346.6054,182.2322,346.2812,182.2151,346.2398,182.6424,346.2713,183.0117,346.163,183.2275,345.684,183.6217,345.6357,184,345.5489" style="stroke:#181818;stroke-width:4.0;"/><text fill="#000000" font-family="Chalkduster" font-size="24" lengthAdjust="spacing" textLength="305" x="191.5" y="379.3898">RO-Crate Base Profile</text></g><!--link sos to rocsoss--><g id="link_sos_rocsoss"><path d="M554.29,109.2589 L554.4253,109.5043 L545.0993,113.6969 L536.5667,119.328 L527.7757,124.4906 L518.1351,128.1127 L509.6205,133.7766 L500.472,138.291 L491.5758,143.2629 L482.855,148.5527 L473.5298,152.7467 L465.4076,159.122 L455.7214,162.6614 L447.076,168.088 L438.5576,173.7449 L429.3003,178.0621 L420.4756,183.1636 L411.4872,187.9683 L402.6988,193.1357 L393.66,197.8489 " fill="none" style="stroke:#8B0000;stroke-width:4.0;"/><polygon fill="#8B0000" points="389.66,200.6089,389.666,200.6787,391.6105,200.3014,393.5904,200.3333,395.5588,200.2319,397.4892,199.6923,399.4721,199.7593,399.465,199.7344,398.3457,199.3092,397.2626,199.0094,396.2047,198.7969,395.06,198.2838,394.0368,198.1917,394.2142,198.2428,394.1485,197.0464,394.6006,195.9993,395.1158,194.9704,395.2635,193.8355,395.6045,192.7564,395.6226,192.7701,394.4071,194.3205,393.2741,195.9333,392.1014,197.516,391.0046,199.1563,389.66,200.6089" style="stroke:#8B0000;stroke-width:4.0;"/><text fill="#000000" font-family="Chalkduster" font-size="24" lengthAdjust="spacing" textLength="69" x="495" y="163.7598">input</text></g><!--link roc to rocsoss--><g id="link_roc_rocsoss"><path d="M244.08,109.0989 L244.2924,109.2817 L250.474,116.6568 L257.9008,125.1034 L264.9221,133.2011 L270.6099,140.1513 L278.0651,148.6223 L284.5253,156.2372 L291.3815,164.1927 L298.5129,172.3851 L304.6958,179.7614 L312.7668,188.7622 L319.02,196.1989 " fill="none" style="stroke:#8B0000;stroke-width:4.0;"/><polygon fill="#8B0000" points="322.76,199.5489,322.8271,199.5691,322.0602,197.6229,321.6866,195.795,321.185,193.9286,320.2622,191.9355,319.9223,190.1177,319.8965,190.1158,319.6959,191.2353,319.6255,192.3646,319.6457,193.5006,319.3538,194.6133,319.499,195.7587,319.5128,195.9428,318.3551,195.4646,317.2377,195.5236,316.1252,195.6483,314.984,195.3915,313.858,195.3354,313.8677,195.3559,315.6338,196.1685,317.4443,197.0746,319.2333,197.9356,321.0631,198.8827,322.76,199.5489" style="stroke:#8B0000;stroke-width:4.0;"/><text fill="#000000" font-family="Chalkduster" font-size="24" lengthAdjust="spacing" textLength="69" x="295" y="163.7598">input</text></g><!--link rocsoss to rop--><g id="link_rocsoss_rop"><path d="M344,251.7489 L344.2802,251.7489 L343.4476,261.4934 L344.2577,271.2378 L344.5329,280.9823 L343.0488,290.7267 L343.8964,300.4712 L343.4313,310.2156 L343.4887,319.9601 L343.9091,329.7045 L344,339.4489 " fill="none" style="stroke:#8B0000;stroke-width:4.0;"/><polygon fill="#8B0000" points="344,344.1889,344.064,344.2174,344.6738,342.3329,345.6589,340.6151,346.5217,338.8431,346.9827,336.8924,348,335.1889,347.9817,335.1706,347.0995,335.8884,346.3096,336.6986,345.5839,337.5729,344.637,338.226,344,339.1889,344.1305,339.3194,343.0514,338.2404,342.3534,337.5423,341.7018,336.8908,340.7798,335.9687,340,335.1889,340.0208,335.1982,340.7903,336.9846,341.6544,338.8131,342.4728,340.6213,343.3784,342.4682,344,344.1889" style="stroke:#8B0000;stroke-width:4.0;"/><text fill="#000000" font-family="Chalkduster" font-size="24" lengthAdjust="spacing" textLength="131" x="345" y="308.3898">Generate</text></g><!--SRC=[VOun3i8m34NtdC9qJzaxCC30209sP2McH4gJAd455UBk9BG51c3x-dv-zimuPJjDnmPT3-LS8wDC6MjgoB6Ct5ig-Sf215AChhO4nMuZLm6POA_Er20SlBUn08p0ES7j4nwOqeTwn9zWzF6V4RKsRBmRhC6hJpYVgtAP9CcaWcbvud8bxj-_NM8as0P_CfP6lXKYRO3K_kBaukMimBYsOn2f-3KKOYhUG9k6QtAKppq0]--></g></svg>