<?xml version="1.0" encoding="us-ascii" standalone="no"?><svg xmlns="http://www.w3.org/2000/svg" xmlns:xlink="http://www.w3.org/1999/xlink" contentStyleType="text/css" height="398px" preserveAspectRatio="none" style="width:647px;height:398px;background:#FFFFFF;" version="1.1" viewBox="0 0 647 398" width="647px" zoomAndPan="magnify"><defs/><g><!--cluster tools--><g id="cluster_tools"><polygon fill="none" points="9.5,7.7734,9.5,7.9836,19.4841,7.3591,29.4683,7.9667,39.4524,8.1731,49.4365,7.06,59.4206,7.6957,69.4048,7.3469,79.3889,7.3899,89.373,7.7053,99.3571,7.0821,109.3413,8.3271,119.3254,7.1432,129.3095,7.5757,139.2937,8.2054,149.2778,7.6877,159.2619,7.8417,169.246,7.7415,179.2302,7.952,189.2143,8.0126,199.1984,8.3591,209.1825,8.4445,219.1667,8.4527,229.1508,8.0281,239.1349,8.237,249.119,8.4757,259.1032,7.0523,269.0873,8.4519,279.0714,7.4769,289.0556,8.3072,299.0397,7.2784,309.0238,7.7049,319.0079,8.515,328.9921,7.7247,338.9762,7.8787,348.9603,8.1121,358.9444,8.1897,368.9286,7.7695,378.9127,8.0607,388.8968,7.201,398.881,8.0578,408.8651,8.3216,418.8492,8.218,428.8333,8.3865,438.8175,7.2904,448.8016,7.1213,458.7857,7.152,468.7698,7.7146,478.754,7.5769,488.7381,8.4548,498.7222,7.5988,508.7063,7.4304,518.6905,8.0017,528.6746,7.1066,538.6587,7.2543,548.6429,8.4224,558.627,8.2091,568.6111,8.5079,578.5952,7.4516,588.5794,8.0926,598.5635,8.3639,608.5476,7.301,618.5317,7.6776,628.5159,7.8994,638.5,7.7734,638.5831,7.9742,638.853,7.9186,639.2661,8.2088,639.49,8.0422,639.8278,8.1507,640.2678,8.5057,640.4229,8.5699,640.1934,8.7678,640.7174,9.2777,640.7707,9.5927,640.771,9.8857,641,10.2734,640.6462,10.2734,641.4588,20.3534,640.7007,30.4334,641.5919,40.5134,640.4473,50.5934,641.6174,60.6734,641.4843,70.7534,641.245,80.8334,641.0472,90.9134,641.7266,100.9934,641.6136,111.0734,641.1693,121.1534,641.2682,131.2334,640.8697,141.3134,641.7165,151.3934,641.1549,161.4734,641.1726,171.5534,640.3916,181.6334,640.5948,191.7134,641.5307,201.7934,641.4298,211.8734,640.9571,221.9534,640.6778,232.0334,640.7811,242.1134,640.3138,252.1934,641,262.2734,641.1277,262.3263,641.0813,262.7213,640.8692,263.0477,640.7747,263.4227,640.3721,263.6702,640.2678,264.0412,640.2789,264.0681,639.8648,264.0683,639.5969,264.4216,639.2386,264.5565,638.924,264.7971,638.5,264.7734,638.5,264.5438,628.5159,264.639,618.5317,265.2169,608.5476,265.3408,598.5635,264.2609,588.5794,264.5796,578.5952,264.9227,568.6111,264.1626,558.627,265.1268,548.6429,265.0314,538.6587,264.6727,528.6746,264.9157,518.6905,265.5021,508.7063,264.4606,498.7222,265.0884,488.7381,265.0591,478.754,264.8892,468.7698,264.9144,458.7857,264.8869,448.8016,264.1493,438.8175,264.3726,428.8333,264.3119,418.8492,264.8373,408.8651,264.8616,398.881,264.9352,388.8968,264.4825,378.9127,264.7059,368.9286,264.6532,358.9444,265.3503,348.9603,265.2,338.9762,264.2879,328.9921,264.7005,319.0079,264.1962,309.0238,265.0618,299.0397,265.3819,289.0556,265.318,279.0714,264.3379,269.0873,265.2374,259.1032,264.0306,249.119,264.9736,239.1349,264.4741,229.1508,264.8702,219.1667,265.0138,209.1825,265.2455,199.1984,264.0535,189.2143,265.2489,179.2302,264.9516,169.246,265.1288,159.2619,265.5212,149.2778,264.7789,139.2937,264.9487,129.3095,264.9869,119.3254,264.9707,109.3413,264.7726,99.3571,265.4841,89.373,264.1637,79.3889,265.3387,69.4048,264.1494,59.4206,264.2331,49.4365,264.8134,39.4524,264.8017,29.4683,264.2806,19.4841,265.1872,9.5,264.7734,9.5139,264.807,9.2391,264.8508,8.878,264.686,8.3822,264.1961,8.035,264.0651,7.7322,264.0412,7.6925,264.0247,7.6953,263.733,7.5634,263.3855,7.3856,263.019,7.0411,262.5834,7,262.2734,7.6364,262.2734,7.6338,252.1934,6.9527,242.1134,6.7609,232.0334,6.5986,221.9534,6.7854,211.8734,7.1374,201.7934,6.9316,191.7134,6.5822,181.6334,7.4874,171.5534,6.5411,161.4734,7.5024,151.3934,7.4272,141.3134,7.3719,131.2334,7.6925,121.1534,6.7541,111.0734,6.6994,100.9934,7.5189,90.9134,6.4031,80.8334,6.766,70.7534,7.1155,60.6734,7.0687,50.5934,6.6415,40.5134,6.957,30.4334,7.7446,20.3534,7,10.2734,7.1997,10.3562,6.9628,9.8438,7.3171,9.5763,7.2811,9.1472,7.5777,8.8559,7.7322,8.5057,7.7696,8.5959,8.1393,8.4885,8.3545,8.0081,8.844,8.1897,9.1475,7.9225,9.5,7.7734" style="stroke:#181818;stroke-width:4.0;"/><text fill="#000000" font-family="Chalkduster" font-size="24" font-weight="bold" lengthAdjust="spacing" textLength="273" x="187.5" y="34.6875">RO-Crate Schema Tools</text></g><!--entity sos--><g id="elem_sos"><polygon fill="none" points="382,56.7734,382,56.9836,392,56.3591,402,56.9667,412,57.1731,422,56.06,432,56.6957,442,56.3469,452,56.3899,462,56.7053,472,56.0821,482,57.3271,492,56.1432,502,56.5757,512,57.2054,522,56.6877,532,56.8417,542,56.7415,552,56.952,562,57.0126,572,57.3591,582,57.4445,592,57.4527,602,57.0281,612,57.237,622,56.7734,622.0896,56.9897,622.2616,56.6978,622.7937,57.2753,623.0228,57.1215,623.4823,57.5236,623.7678,57.5057,623.6153,57.4425,623.8931,57.8505,624.289,58.3074,624.1921,58.5601,624.386,58.9333,624.5,59.2734,624.8386,59.2734,624.9162,68.3109,624.4961,77.3484,624.7872,86.3859,623.9276,95.4234,624.5,104.4609,624.5876,104.4972,624.5224,104.8844,624.344,105.2247,624.2494,105.5998,623.7654,105.8135,623.7678,106.2287,623.6846,106.0279,623.3349,106.1838,623.0531,106.5035,622.682,106.6075,622.4405,107.0243,622,106.9609,622,106.7863,612,106.6179,602,107.1892,592,106.2941,582,106.4418,572,107.6099,562,107.3966,552,107.6954,542,106.6391,532,107.2801,522,107.5514,512,106.4885,502,106.8651,492,107.0869,482,107.6127,472,106.9567,462,107.4235,452,106.4072,442,106.2837,432,107.4646,422,106.244,412,107.4699,402,107.1676,392,106.693,382,106.9609,381.9549,106.852,381.705,106.9558,381.2547,106.5759,381.0148,106.7039,380.5153,106.2049,380.2322,106.2287,380.4224,106.3075,380.2349,105.9369,380.0148,105.5528,379.8074,105.1741,379.8702,104.9072,379.5,104.4609,380.1136,104.4609,379.6693,95.4234,379.7682,86.3859,379.3697,77.3484,380.2165,68.3109,379.5,59.2734,379.5477,59.2932,379.6996,58.9419,379.6055,58.4887,379.8145,58.1611,380.2492,57.9269,380.2322,57.5057,380.2871,57.638,380.5803,57.346,380.8982,57.1136,381.265,56.9989,381.5589,56.7086,382,56.7734" style="stroke:#181818;stroke-width:4.0;"/><text fill="#000000" font-family="Chalkduster" font-size="24" lengthAdjust="spacing" textLength="225" x="389.5" y="91.6875">Schema.org Schema</text></g><!--entity roc--><g id="elem_roc"><polygon fill="none" points="26,56.7734,26,56.9836,35.875,56.3591,45.75,56.9667,55.625,57.1731,65.5,56.06,75.375,56.6957,85.25,56.3469,95.125,56.3899,105,56.7053,114.875,56.0821,124.75,57.3271,134.625,56.1432,144.5,56.5757,154.375,57.2054,164.25,56.6877,174.125,56.8417,184,56.7415,193.875,56.952,203.75,57.0126,213.625,57.3591,223.5,57.4445,233.375,57.4527,243.25,57.0281,253.125,57.237,263,57.4757,272.875,56.0523,282.75,57.4519,292.625,56.4769,302.5,57.3072,312.375,56.2784,322.25,56.7049,332.125,57.515,342,56.7734,341.9938,56.7584,342.367,56.9523,342.7503,57.1706,343.1138,57.341,343.4137,57.358,343.7678,57.5057,343.8562,57.5423,343.7379,57.7862,344.1482,58.2491,344.3759,58.6363,344.4905,58.9766,344.5,59.2734,345.113,59.2734,344.0169,68.3109,343.8478,77.3484,343.8786,86.3859,344.4411,95.4234,344.5,104.4609,344.4395,104.4359,344.5634,104.9014,344.1533,105.1458,343.955,105.4778,343.9845,105.9043,343.7678,106.2287,343.6827,106.0233,343.348,106.2153,343.1434,106.7214,342.7627,106.8022,342.4472,107.0407,342,106.9609,342,106.6391,332.125,107.2801,322.25,107.5514,312.375,106.4885,302.5,106.8651,292.625,107.0869,282.75,107.6127,272.875,106.9567,263,107.4235,253.125,106.4072,243.25,106.2837,233.375,107.4646,223.5,106.244,213.625,107.4699,203.75,107.1676,193.875,106.693,184,106.6072,174.125,107.4197,164.25,106.6616,154.375,107.5528,144.5,106.4082,134.625,107.5784,124.75,107.4452,114.875,107.2059,105,107.0082,95.125,107.6875,85.25,107.5745,75.375,107.1302,65.5,107.2291,55.625,106.8307,45.75,107.6774,35.875,107.1158,26,106.9609,26.022,107.0141,25.5688,106.6271,25.2412,106.5433,25.007,106.685,24.6406,106.5075,24.2322,106.2287,24.219,106.2232,23.9866,105.8341,23.8719,105.4937,23.5816,105.0805,23.7742,104.8674,23.5,104.4609,24.2396,104.4609,24.0264,95.4234,24.1949,86.3859,23.3633,77.3484,23.5872,68.3109,23.5,59.2734,23.3806,59.224,23.7339,58.9561,23.8689,58.5978,24.1095,58.2832,24.0151,57.8299,24.2322,57.5057,24.2151,57.4643,24.6424,57.4958,25.0117,57.3875,25.2275,56.9085,25.6217,56.8602,26,56.7734" style="stroke:#181818;stroke-width:4.0;"/><text fill="#000000" font-family="Chalkduster" font-size="24" lengthAdjust="spacing" textLength="301" x="33.5" y="91.6875">RO-Crate Schema additions</text></g><!--entity rocsoss--><g id="elem_rocsoss"><polygon fill="none" points="176,198.7734,176,198.9836,186.0909,198.3591,196.1818,198.9667,206.2727,199.1731,216.3636,198.06,226.4545,198.6957,236.5455,198.3469,246.6364,198.3899,256.7273,198.7053,266.8182,198.0821,276.9091,199.3271,287,198.1432,297.0909,198.5757,307.1818,199.2054,317.2727,198.6877,327.3636,198.8417,337.4545,198.7415,347.5455,198.952,357.6364,199.0126,367.7273,199.3591,377.8182,199.4445,387.9091,199.4527,398,198.7734,398.0325,198.8519,398.4127,199.0626,398.7967,199.2826,398.9687,198.9907,399.5008,199.5682,399.7678,199.5057,399.6765,199.4678,400.0786,199.9273,399.9082,200.1496,400.186,200.5576,400.5819,201.0145,400.5,201.2734,400.4513,201.2734,400.6053,210.3109,400.8386,219.3484,400.9162,228.3859,400.4961,237.4234,400.5,246.4609,400.5885,246.4976,400.1773,246.7415,400.2947,247.2043,400.2295,247.5915,400.0511,247.9319,399.7678,248.2287,399.846,248.4175,399.3526,248.2264,398.9775,248.3208,398.6278,248.4767,398.346,248.7964,398,248.9609,398,248.7644,387.9091,249.6423,377.8182,248.7863,367.7273,248.6179,357.6364,249.1892,347.5455,248.2941,337.4545,248.4418,327.3636,249.6099,317.2727,249.3966,307.1818,249.6954,297.0909,248.6391,287,249.2801,276.9091,249.5514,266.8182,248.4885,256.7273,248.8651,246.6364,249.0869,236.5455,249.6127,226.4545,248.9567,216.3636,249.4235,206.2727,248.4072,196.1818,248.2837,186.0909,249.4646,176,248.9609,175.9085,248.7401,175.7114,248.9712,175.3193,248.7317,174.9052,248.4391,174.5407,248.2662,174.2322,248.2287,174.3735,248.2872,173.9936,247.837,174.1216,247.5971,173.6227,247.0975,173.8366,246.8933,173.5,246.4609,173.9843,246.4609,173.745,237.4234,173.5472,228.3859,174.2266,219.3484,174.1136,210.3109,173.5,201.2734,173.5521,201.295,173.729,200.9541,173.7528,200.5497,174.16,200.3042,174.1335,199.879,174.2322,199.5057,174.2542,199.5588,174.5082,199.1719,174.8876,199.088,175.3606,199.2298,175.7013,199.0522,176,198.7734" style="stroke:#181818;stroke-width:4.0;"/><text fill="#000000" font-family="Chalkduster" font-size="24" lengthAdjust="spacing" textLength="207" x="183.5" y="233.6875">Tool: rocsoss script</text></g><!--entity rop--><g id="elem_rop"><polygon fill="none" points="138.5,342.7734,138.5,342.9836,148.4,342.3591,158.3,342.9667,168.2,343.1731,178.1,342.06,188,342.6957,197.9,342.3469,207.8,342.3899,217.7,342.7053,227.6,342.0821,237.5,343.3271,247.4,342.1432,257.3,342.5757,267.2,343.2054,277.1,342.6877,287,342.8417,296.9,342.7415,306.8,342.952,316.7,343.0126,326.6,343.3591,336.5,343.4445,346.4,343.4527,356.3,343.0281,366.2,343.237,376.1,343.4757,386,342.0523,395.9,343.4519,405.8,342.4769,415.7,343.3072,425.6,342.2784,435.5,342.7734,435.4913,342.7523,435.9482,343.1483,436.2009,343.0513,436.5741,343.2452,436.9574,343.4635,437.2678,343.5057,437.3959,343.5588,437.413,343.8587,437.6491,344.2494,437.5308,344.4933,437.9411,344.9562,438,345.2734,438.5482,345.2734,438.4445,354.3109,438.613,363.3484,437.5169,372.3859,437.3478,381.4234,438,390.4609,437.8086,390.3817,437.8354,390.807,437.6466,391.143,437.7705,391.6085,437.3604,391.8529,437.2678,392.2287,437.224,392.1231,436.9433,392.4454,436.4756,392.3162,436.1409,392.5082,435.9363,393.0143,435.5,392.9609,435.5,393.3966,425.6,393.6954,415.7,392.6391,405.8,393.2801,395.9,393.5514,386,392.4885,376.1,392.8651,366.2,393.0869,356.3,393.6127,346.4,392.9567,336.5,393.4235,326.6,392.4072,316.7,392.2837,306.8,393.4646,296.9,392.244,287,393.4699,277.1,393.1676,267.2,392.693,257.3,392.6072,247.4,393.4197,237.5,392.6616,227.6,393.5528,217.7,392.4082,207.8,393.5784,197.9,393.4452,188,393.2059,178.1,393.0082,168.2,393.6875,158.3,393.5745,148.4,393.1302,138.5,392.9609,138.5342,393.0435,138.1298,392.7744,137.8843,392.8887,137.4591,392.5693,137.1078,392.4283,136.7322,392.2287,136.5449,392.1511,136.461,391.8235,136.6028,391.5893,136.4252,391.2229,136.1332,390.809,136,390.4609,135.6778,390.4609,135.7811,381.4234,135.3138,372.3859,136.4147,363.3484,136.7396,354.3109,136,345.2734,136.1621,345.3406,136.3605,345.0085,136.2508,344.5489,136.4662,344.2239,136.4664,343.8098,136.7322,343.5057,136.7685,343.5931,137.1173,343.4352,137.5098,343.3829,137.7636,342.9956,138.1293,342.8785,138.5,342.7734" style="stroke:#181818;stroke-width:4.0;"/><text fill="#000000" font-family="Chalkduster" font-size="24" lengthAdjust="spacing" textLength="275" x="146" y="377.6875">RO-Crate Base Mode File</text></g><!--link sos to rocsoss--><g id="link_sos_rocsoss"><path d="M465.04,106.8434 L465.1929,107.0783 L456.2503,111.9078 L448.2041,118.1139 L439.8661,123.8718 L430.568,128.1554 L422.5422,134.3929 L413.8002,139.5304 L405.3433,145.1057 L397.0844,150.9853 L388.1428,155.8162 L380.5604,162.7346 L371.2107,166.939 L363.0372,172.9495 L355.0071,179.1804 L346.1422,184.1292 L337.766,189.8285 L329.2281,195.2795 " fill="none" style="stroke:#8B0000;stroke-width:4.0;"/><polygon fill="#8B0000" points="324.2,198.5534,324.2111,198.6226,326.1231,198.1053,328.1001,197.9935,330.0559,197.7497,331.9421,197.0716,333.9247,196.9946,333.9194,196.9693,332.7884,196.6216,331.6844,196.4018,330.5992,196.2707,329.4493,195.8336,328.3901,195.8252,328.5706,195.8633,328.4184,194.6748,328.7933,193.5977,329.2326,192.5341,329.2976,191.3915,329.5595,190.2905,329.5786,190.3029,328.4787,191.9373,327.4656,193.6281,326.4107,195.2916,325.4357,197.0071,324.2,198.5534" style="stroke:#8B0000;stroke-width:4.0;"/><text fill="#000000" font-family="Chalkduster" font-size="24" lengthAdjust="spacing" textLength="54" x="414" y="162.6875">input</text></g><!--link roc to rocsoss--><g id="link_roc_rocsoss"><path d="M201.71,106.8434 L201.9357,107.0095 L207.0754,114.414 L213.5383,122.792 L219.5704,130.853 L224.1853,137.8715 L230.6784,146.2717 L236.1142,153.894 L241.9707,161.826 L248.1198,169.973 L253.2608,177.3786 L260.4083,186.2602 L265.6241,193.7207 " fill="none" style="stroke:#8B0000;stroke-width:4.0;"/><polygon fill="#8B0000" points="269.18,198.5534,269.2484,198.5685,268.6227,196.5999,268.3981,194.7194,268.0429,192.8102,267.2581,190.8067,267.0679,188.9337,267.0423,188.9298,266.7572,190.0308,266.6011,191.1514,266.5348,192.2858,266.1591,193.373,266.2167,194.5262,266.2445,194.7086,265.0666,194.1482,263.9698,194.1205,262.8829,194.1578,261.7385,193.8169,260.6243,193.6749,260.6356,193.6947,262.3302,194.6414,264.076,195.678,265.7972,196.6713,267.5656,197.7473,269.18,198.5534" style="stroke:#8B0000;stroke-width:4.0;"/><text fill="#000000" font-family="Chalkduster" font-size="24" lengthAdjust="spacing" textLength="54" x="245" y="162.6875">input</text></g><!--link rocsoss to rop--><g id="link_rocsoss_rop"><path d="M287,248.8634 L287.2802,248.8634 L286.4476,258.6079 L287.2577,268.3523 L287.5329,278.0968 L286.0488,287.8412 L286.8964,297.5857 L286.4313,307.3301 L286.4887,317.0745 L286.9091,326.819 L287,336.5634 " fill="none" style="stroke:#8B0000;stroke-width:4.0;"/><polygon fill="#8B0000" points="287,342.5634,287.064,342.5919,287.6738,340.7073,288.6589,338.9896,289.5217,337.2175,289.9827,335.2669,291,333.5634,290.9817,333.5451,290.0995,334.2629,289.3096,335.073,288.5839,335.9474,287.637,336.6005,287,337.5634,287.1305,337.6939,286.0514,336.6149,285.3534,335.9168,284.7018,335.2652,283.7798,334.3432,283,333.5634,283.0208,333.5727,283.7903,335.3591,284.6544,337.1876,285.4728,338.9958,286.3784,340.8427,287,342.5634" style="stroke:#8B0000;stroke-width:4.0;"/><text fill="#000000" font-family="Chalkduster" font-size="24" lengthAdjust="spacing" textLength="100" x="288" y="306.6875">Generate</text></g><!--SRC=[VOwn2i8m48RtFCNPFNNluA2WamZgBaTor42QbEIA5l7TJQpL3kfs_FzttztCE6KxJQS6NG_bN2EZJ3FMr91Z6RctLFALXGYa65rj2OhzJgu2Ci51dQb1E7flOm4OWVC4joayCAKFzGj_Wj77VqRKsh3nRh06hwPmFbVbC4cIIGNJyiZbIDo_Vxl4IB3rcc1jSZ6ij4Aa9P3QNvnSlBKL6DTs3285lqeXnk03jAdSaADyyG40]--></g></svg>