<svg xmlns="http://www.w3.org/2000/svg" xmlns:xlink="http://www.w3.org/1999/xlink" contentStyleType="text/css" data-diagram-type="DESCRIPTION" height="402px" preserveAspectRatio="none" style="width:759px;height:402px;background:#FFFFFF;" version="1.1" viewBox="0 0 759 402" width="759px" zoomAndPan="magnify"><defs/><g><!--cluster tools--><g class="cluster" data-entity="tools" data-source-line="3" data-uid="ent0002" id="cluster_tools"><polygon fill="none" points="9.5,9.2889,9.5,9.4991,19.5135,8.8746,29.527,9.4822,39.5405,9.6886,49.5541,8.5756,59.5676,9.2112,69.5811,8.8625,79.5946,8.9055,89.6081,9.2208,99.6216,8.5976,109.6351,9.8426,119.6486,8.6587,129.6622,9.0912,139.6757,9.7209,149.6892,9.2032,159.7027,9.3572,169.7162,9.257,179.7297,9.4675,189.7432,9.5281,199.7568,9.8746,209.7703,9.96,219.7838,9.9682,229.7973,9.5436,239.8108,9.7525,249.8243,9.9912,259.8378,8.5678,269.8514,9.9675,279.8649,8.9924,289.8784,9.8228,299.8919,8.7939,309.9054,9.2205,319.9189,10.0306,329.9324,9.2402,339.9459,9.3943,349.9595,9.6276,359.973,9.7052,369.9865,9.285,380,9.5762,390.0135,8.7165,400.027,9.5733,410.0405,9.8371,420.0541,9.7335,430.0676,9.902,440.0811,8.8059,450.0946,8.6368,460.1081,8.6675,470.1216,9.2301,480.1351,9.0924,490.1486,9.9704,500.1622,9.1143,510.1757,8.9459,520.1892,9.5172,530.2027,8.6221,540.2162,8.7698,550.2297,9.9379,560.2432,9.7246,570.2568,10.0234,580.2703,8.9672,590.2838,9.6081,600.2973,9.8794,610.3108,8.8165,620.3243,9.1931,630.3378,9.4149,640.3514,9.9407,650.3649,9.2848,660.3784,9.7515,670.3919,8.7352,680.4054,8.6117,690.4189,9.7926,700.4324,8.572,710.4459,9.7979,720.4595,9.4956,730.473,9.021,740.4865,8.9352,750.5,9.2889,750.5585,9.4302,750.8154,9.3432,751.2826,9.7641,751.4902,9.5581,751.993,10.0649,752.2678,10.0212,752.4169,10.083,752.4897,10.406,752.5752,10.7343,752.9309,11.1745,753.0425,11.5137,753,11.7889,753.1693,11.7889,753.2682,21.9193,752.8697,32.0497,753.7165,42.1801,753.1549,52.3105,753.1726,62.4409,752.3916,72.5713,752.5948,82.7017,753.5307,92.8321,753.4298,102.9625,752.9571,113.0929,752.6778,123.2233,752.7811,133.3537,752.3138,143.4841,753.4147,153.6145,753.7396,163.7449,753.5264,173.8753,753.6949,184.0057,752.8633,194.1361,753.0872,204.2665,752.6124,214.3969,753.284,224.5273,753.2468,234.6577,753.5524,244.7881,752.7703,254.9185,753,265.0489,752.9586,265.0318,752.9901,265.4591,752.8818,265.8284,752.4028,266.0442,752.3545,266.4384,752.2678,266.8167,752.2868,266.8627,751.8363,266.775,751.6057,267.2184,751.24,267.3355,750.8407,267.3715,750.5,267.5489,750.5,267.6912,740.4865,268.2776,730.473,267.2361,720.4595,267.8639,710.4459,267.8346,700.4324,267.6647,690.4189,267.6899,680.4054,267.6624,670.3919,266.9248,660.3784,267.1481,650.3649,267.0874,640.3514,267.6128,630.3378,267.6371,620.3243,267.7107,610.3108,267.258,600.2973,267.4814,590.2838,267.4287,580.2703,268.1258,570.2568,267.9755,560.2432,267.0634,550.2297,267.476,540.2162,266.9717,530.2027,267.8373,520.1892,268.1574,510.1757,268.0935,500.1622,267.1134,490.1486,268.0129,480.1351,266.8061,470.1216,267.7491,460.1081,267.2496,450.0946,267.6457,440.0811,267.7893,430.0676,268.0211,420.0541,266.829,410.0405,268.0244,400.027,267.7271,390.0135,267.9043,380,268.2968,369.9865,267.5544,359.973,267.7242,349.9595,267.7624,339.9459,267.7462,329.9324,267.5481,319.9189,268.2597,309.9054,266.9392,299.8919,268.1142,289.8784,266.9249,279.8649,267.0086,269.8514,267.589,259.8378,267.5772,249.8243,267.0561,239.8108,267.9627,229.7973,267.6578,219.7838,268.2756,209.7703,268.2161,199.7568,267.1007,189.7432,267.151,179.7297,267.4198,169.7162,267.9045,159.7027,267.9519,149.6892,267.8501,139.6757,267.207,129.6622,268.1853,119.6486,268.1827,109.6351,267.5017,99.6216,267.3099,89.6081,267.1476,79.5946,267.3344,69.5811,267.6864,59.5676,267.4806,49.5541,267.1312,39.5405,268.0363,29.527,267.09,19.5135,268.0513,9.5,267.5489,9.5545,267.6805,9.1939,267.517,8.8812,267.4693,8.408,267.0339,8.0474,266.8706,7.7322,266.8167,7.892,266.8829,7.402,266.387,7.3673,266.0798,7.3285,265.7708,7.1676,265.4113,7,265.0489,6.6415,265.0489,6.957,254.9185,7.7446,244.7881,7.6485,234.6577,6.4037,224.5273,7.0785,214.3969,6.4861,204.2665,6.9737,194.1361,7.293,184.0057,7.4199,173.8753,6.3353,163.7449,7.4005,153.6145,7.0084,143.4841,6.4447,133.3537,6.5289,123.2233,7.3266,113.0929,7.2499,102.9625,6.9836,92.8321,6.3279,82.7017,7.6581,72.5713,6.6882,62.4409,6.4719,52.3105,6.9327,42.1801,7.5897,32.0497,7.6154,21.9193,7,11.7889,7.0108,11.7934,7.0999,11.4161,7.3452,11.1035,7.4967,10.752,7.4294,10.31,7.7322,10.0212,7.785,10.1487,8.1571,10.0468,8.4118,9.6618,8.7381,9.4497,9.2325,9.6432,9.5,9.2889" style="stroke:#181818;stroke-width:4;"/><text fill="#000000" font-family="Chalkduster" font-size="24" font-weight="bold" lengthAdjust="spacing" textLength="322.7669" x="218.6166" y="35.1298">RO-Crate Schema Tools</text></g><!--entity sos--><g class="entity" data-entity="sos" data-source-line="4" data-uid="ent0003" id="entity_sos"><polygon fill="none" points="25.77,58.2889,25.77,58.4991,35.6434,57.8746,45.5167,58.4822,55.3901,58.6886,65.2635,57.5756,75.1368,58.2112,85.0102,57.8625,94.8835,57.9055,104.7569,58.2208,114.6303,57.5976,124.5036,58.8426,134.377,57.6587,144.2504,58.0912,154.1237,58.7209,163.9971,58.2032,173.8704,58.3572,183.7438,58.257,193.6172,58.4675,203.4905,58.5281,213.3639,58.8746,223.2373,58.96,233.1106,58.9682,242.984,58.5436,252.8573,58.7525,262.7307,58.9912,272.6041,57.5678,282.4774,58.9675,292.3508,57.9924,302.2242,58.2889,302.2923,58.4533,302.5146,58.2829,302.9225,58.5607,303.3794,58.9567,303.6322,58.8597,303.9919,59.0212,304.0244,59.0346,304.2427,59.4179,304.413,59.7814,304.4301,60.0813,304.6662,60.472,304.7242,60.7889,304.1517,60.7889,305.0085,69.9149,305.2724,79.0409,305.1687,88.1668,305.3372,97.2928,304.7242,106.4188,304.5754,106.3572,304.3769,106.6891,304.2399,107.0466,304.2667,107.4719,304.0779,107.8079,303.9919,108.1866,304.0789,108.3964,303.6161,108.2792,303.2411,108.3738,302.9604,108.6962,302.4927,108.567,302.2242,108.9188,302.2242,108.3997,292.3508,109.5677,282.4774,109.3545,272.6041,109.6533,262.7307,108.597,252.8573,109.238,242.984,109.5092,233.1106,108.4464,223.2373,108.8229,213.3639,109.0448,203.4905,109.5705,193.6172,108.9146,183.7438,109.3814,173.8704,108.365,163.9971,108.2415,154.1237,109.4224,144.2504,108.2018,134.377,109.4277,124.5036,109.1254,114.6303,108.6509,104.7569,108.565,94.8835,109.3775,85.0102,108.6195,75.1368,109.5106,65.2635,108.366,55.3901,109.5362,45.5167,109.4031,35.6434,109.1638,25.77,108.9188,25.776,108.9333,25.5091,108.9961,25.1412,108.8148,24.7309,108.5316,24.39,108.4156,24.0022,108.1866,23.9621,108.1699,24.0764,107.9244,23.757,107.4992,23.616,107.1479,23.2291,106.6947,23.27,106.4188,22.8648,106.4188,23.8007,97.2928,23.6998,88.1668,23.2271,79.0409,22.9478,69.9149,23.27,60.7889,23.2026,60.761,23.2051,60.3479,23.6906,60.1347,23.9371,59.8226,24.0179,59.4419,24.0022,59.0212,24.0909,59.2352,24.3383,58.8326,24.7205,58.7552,25.0135,58.4625,25.4527,58.5229,25.77,58.2889" style="stroke:#181818;stroke-width:4;"/><text fill="#000000" font-family="Chalkduster" font-size="24" lengthAdjust="spacing" textLength="261.4542" x="33.27" y="92.1298">Schema.org Schema</text></g><!--entity roc--><g class="entity" data-entity="roc" data-source-line="5" data-uid="ent0004" id="entity_roc"><polygon fill="none" points="341.8,58.2889,341.8,58.4991,351.8615,57.8746,361.9229,58.4822,371.9844,58.6886,382.0458,57.5756,392.1073,58.2112,402.1687,57.8625,412.2302,57.9055,422.2916,58.2208,432.3531,57.5976,442.4145,58.8426,452.476,57.6587,462.5374,58.0912,472.5989,58.7209,482.6604,58.2032,492.7218,58.3572,502.7833,58.257,512.8447,58.4675,522.9062,58.5281,532.9676,58.8746,543.0291,58.96,553.0905,58.9682,563.152,58.5436,573.2134,58.7525,583.2749,58.9912,593.3363,57.5678,603.3978,58.9675,613.4593,57.9924,623.5207,58.8228,633.5822,57.7939,643.6436,58.2205,653.7051,59.0306,663.7665,58.2402,673.828,58.3943,683.8894,58.6276,693.9509,58.7052,704.0123,58.285,714.0738,58.5762,724.1352,57.7165,734.1967,58.2889,734.233,58.3765,734.6202,58.6042,734.9605,58.7187,735.3356,58.9171,735.5493,58.726,735.9645,59.0212,735.7636,58.938,735.9195,59.2955,736.2392,59.7208,736.3433,60.0568,736.7601,60.5223,736.6967,60.7889,736.522,60.7889,736.3536,69.9149,736.925,79.0409,736.0299,88.1668,736.1776,97.2928,736.6967,106.4188,736.8965,106.5016,736.6844,106.8279,736.63,107.2196,736.1583,107.4384,736.2092,107.8737,735.9645,108.1866,736.0398,108.3684,735.5507,108.1875,735.2451,108.4499,734.9199,108.6647,734.6334,108.9731,734.1967,108.9188,734.1967,108.9146,724.1352,109.3814,714.0738,108.365,704.0123,108.2415,693.9509,109.4224,683.8894,108.2018,673.828,109.4277,663.7665,109.1254,653.7051,108.6509,643.6436,108.565,633.5822,109.3775,623.5207,108.6195,613.4593,109.5106,603.3978,108.366,593.3363,109.5362,583.2749,109.4031,573.2134,109.1638,563.152,108.966,553.0905,109.6454,543.0291,109.5324,532.9676,109.088,522.9062,109.187,512.8447,108.7885,502.7833,109.6352,492.7218,109.0737,482.6604,109.0914,472.5989,108.3104,462.5374,108.5136,452.476,109.4495,442.4145,109.3485,432.3531,108.8759,422.2916,108.5966,412.2302,108.6999,402.1687,108.2326,392.1073,109.3335,382.0458,109.6583,371.9844,109.4452,361.9229,109.6137,351.8615,108.7821,341.8,108.9188,341.8111,108.9456,341.397,108.653,341.1291,108.7134,340.7708,108.5554,340.4562,108.5031,340.0322,108.1866,339.9615,108.1573,339.8444,107.8159,339.8759,107.536,339.7676,107.1983,339.2886,106.707,339.3,106.4188,339.1061,106.4188,339.4493,97.2928,338.6892,88.1668,339.6534,79.0409,339.558,69.9149,339.3,60.7889,339.269,60.7761,339.4903,60.4535,339.8173,60.1748,339.643,59.6884,339.9828,59.4149,340.0322,59.0212,340.0687,59.1092,340.4006,58.9104,340.7573,58.7717,341.1074,58.6168,341.3668,58.2432,341.8,58.2889" style="stroke:#181818;stroke-width:4;"/><text fill="#000000" font-family="Chalkduster" font-size="24" lengthAdjust="spacing" textLength="377.3967" x="349.3" y="92.1298">RO-Crate Schema additions</text></g><!--entity rocsoss--><g class="entity" data-entity="rocsoss" data-source-line="6" data-uid="ent0005" id="entity_rocsoss"><polygon fill="none" points="144.7,200.9189,144.7,201.1291,154.8641,200.5046,165.0283,201.1122,175.1924,201.3186,185.3565,200.2056,195.5206,200.8412,205.6848,200.4925,215.8489,200.5355,226.013,200.8508,236.1772,200.2276,246.3413,201.4726,256.5054,200.2887,266.6695,200.7212,276.8337,201.3509,286.9978,200.8332,297.1619,200.9872,307.326,200.887,317.4902,201.0975,327.6543,201.1581,337.8184,201.5046,347.9826,201.59,358.1467,201.5982,368.3108,201.1736,378.4749,201.3825,388.6391,201.6212,398.8032,200.1978,408.9673,201.5975,419.1315,200.6224,429.2956,200.9189,429.3637,201.0833,429.586,200.9129,429.994,201.1907,430.4508,201.5867,430.7036,201.4897,431.0633,201.6512,431.0958,201.6646,431.3141,202.0479,431.4844,202.4114,431.5015,202.7113,431.7376,203.102,431.7956,203.4189,431.2232,203.4189,432.08,212.5449,432.3438,221.6709,432.2401,230.7968,432.4086,239.9228,431.7956,249.0488,431.6468,248.9872,431.4483,249.3191,431.3113,249.6766,431.3381,250.1019,431.1493,250.4379,431.0633,250.8166,431.1503,251.0264,430.6875,250.9092,430.3125,251.0038,430.0318,251.3262,429.5641,251.197,429.2956,251.5488,429.2956,251.0297,419.1315,252.1977,408.9673,251.9845,398.8032,252.2833,388.6391,251.227,378.4749,251.868,368.3108,252.1392,358.1467,251.0764,347.9826,251.4529,337.8184,251.6748,327.6543,252.2005,317.4902,251.5446,307.326,252.0114,297.1619,250.995,286.9978,250.8715,276.8337,252.0524,266.6695,250.8318,256.5054,252.0577,246.3413,251.7554,236.1772,251.2809,226.013,251.195,215.8489,252.0075,205.6848,251.2495,195.5206,252.1406,185.3565,250.996,175.1924,252.1662,165.0283,252.0331,154.8641,251.7938,144.7,251.5488,144.706,251.5633,144.4391,251.6261,144.0712,251.4448,143.6609,251.1616,143.32,251.0456,142.9322,250.8166,142.8921,250.7999,143.0064,250.5544,142.687,250.1292,142.546,249.7779,142.1591,249.3247,142.2,249.0488,141.7948,249.0488,142.7307,239.9228,142.6298,230.7968,142.1571,221.6709,141.8778,212.5449,142.2,203.4189,142.1326,203.391,142.1351,202.9779,142.6206,202.7647,142.8671,202.4526,142.9479,202.0719,142.9322,201.6512,143.0209,201.8652,143.2683,201.4626,143.6505,201.3852,143.9435,201.0925,144.3827,201.1529,144.7,200.9189" style="stroke:#181818;stroke-width:4;"/><text fill="#000000" font-family="Chalkduster" font-size="24" lengthAdjust="spacing" textLength="269.5956" x="152.2" y="234.7598">Tool: rocsoss script</text></g><!--entity rop--><g class="entity" data-entity="rop" data-source-line="9" data-uid="ent0006" id="entity_rop"><polygon fill="none" points="107.02,345.5489,107.02,345.7591,117.019,345.1346,127.018,345.7422,137.017,345.9486,147.016,344.8356,157.0149,345.4712,167.0139,345.1225,177.0129,345.1655,187.0119,345.4808,197.0109,344.8576,207.0099,346.1026,217.0089,344.9187,227.0079,345.3512,237.0068,345.9809,247.0058,345.4632,257.0048,345.6172,267.0038,345.517,277.0028,345.7275,287.0018,345.7881,297.0008,346.1346,306.9998,346.22,316.9987,346.2282,326.9977,345.8036,336.9967,346.0125,346.9957,346.2512,356.9947,344.8278,366.9937,346.2275,376.9927,345.2524,386.9917,346.0828,396.9906,345.0539,406.9896,345.4805,416.9886,346.2906,426.9876,345.5002,436.9866,345.6543,446.9856,345.8876,456.9846,345.9652,466.9836,345.5489,466.9831,345.5477,467.3738,345.7838,467.6177,345.6656,468.0805,346.0759,468.4677,346.3036,468.7513,346.2812,468.8882,346.3379,469.0866,346.7129,468.8955,346.9267,468.9898,347.2586,469.1457,347.6161,469.4836,348.0489,469.4247,348.0489,469.287,357.1749,470.165,366.3009,469.3089,375.4268,469.1405,384.5528,469.4836,393.6788,469.5539,393.7079,469.1318,393.9473,469.0308,394.3197,469.2441,394.8222,469.0319,395.1486,468.7513,395.4466,468.845,395.6727,468.3567,395.4939,468.0849,395.8377,467.766,396.0677,467.2769,395.8869,466.9836,396.1788,466.9836,396.0829,456.9846,396.3048,446.9856,396.8305,436.9866,396.1746,426.9876,396.6414,416.9886,395.625,406.9896,395.5015,396.9906,396.6824,386.9917,395.4618,376.9927,396.6877,366.9937,396.3854,356.9947,395.9109,346.9957,395.825,336.9967,396.6375,326.9977,395.8795,316.9987,396.7706,306.9998,395.626,297.0008,396.7962,287.0018,396.6631,277.0028,396.4238,267.0038,396.226,257.0048,396.9054,247.0058,396.7924,237.0068,396.348,227.0079,396.447,217.0089,396.0485,207.0099,396.8952,197.0109,396.3337,187.0119,396.3514,177.0129,395.5704,167.0139,395.7736,157.0149,396.7095,147.016,396.6085,137.017,396.1359,127.018,395.8566,117.019,395.9599,107.02,396.1788,106.9325,395.9675,106.7194,396.1601,106.4072,396.1136,106.0265,395.9016,105.6944,395.807,105.2522,395.4466,105.2101,395.4291,105.1326,395.1041,104.84,394.69,104.9004,394.4221,104.7424,394.0638,104.52,393.6788,105.0724,393.6788,104.2903,384.5528,104.3856,375.4268,104.9635,366.3009,105.0873,357.1749,104.52,348.0489,104.3622,347.9836,104.6067,347.6707,104.8589,347.3609,104.7712,346.9104,105.2146,346.6798,105.2522,346.2812,105.2851,346.3606,105.5929,346.1037,105.9775,346.0321,106.4058,346.0662,106.6265,345.599,107.02,345.5489" style="stroke:#181818;stroke-width:4;"/><text fill="#000000" font-family="Chalkduster" font-size="24" lengthAdjust="spacing" textLength="344.9636" x="114.52" y="379.3898">RO-Crate Base Mode File</text></g><!--link sos to rocsoss--><g class="link" data-entity-1="sos" data-entity-2="rocsoss" data-source-line="11" data-uid="lnk7" id="link_sos_rocsoss"><path d="M185.42,109.0989 L185.6309,109.2835 L191.3409,115.9797 L198.2874,123.7575 L204.8312,131.1831 L210.0508,137.4505 L217.0255,145.253 L223.0121,152.1912 L229.392,159.4734 L236.0452,166.9947 L241.7564,173.6921 L249.3426,182.0294 L254.4911,188.2346 L261.4603,196.0323" fill="none" style="stroke:#8B0000;stroke-width:4;"/><polygon fill="#8B0000" points="265.41,200.5489,265.4769,200.5697,264.6954,198.6265,264.3062,196.8048,263.7892,194.9435,262.8521,192.9521,262.4966,191.1409,262.4708,191.1391,262.2792,192.2602,262.2179,193.39,262.2471,194.5259,261.9643,195.6408,262.1186,196.7851,262.1309,196.9692,260.9757,196.4998,259.8565,196.5681,258.7417,196.7019,257.6013,196.4541,256.4744,196.4071,256.484,196.4277,258.257,197.2258,260.0737,198.1178,261.8693,198.9645,263.705,199.8977,265.41,200.5489" style="stroke:#8B0000;stroke-width:4;"/><text fill="#000000" font-family="Chalkduster" font-size="24" lengthAdjust="spacing" textLength="69.3481" x="237.52" y="163.7598">input</text></g><!--link roc to rocsoss--><g class="link" data-entity-1="roc" data-entity-2="rocsoss" data-source-line="12" data-uid="lnk8" id="link_roc_rocsoss"><path d="M493.99,109.2589 L494.127,109.5034 L484.9535,113.6891 L476.5831,119.3079 L467.9512,124.46 L458.4593,128.0774 L450.1072,133.7288 L441.1134,138.2352 L432.375,143.1972 L423.8141,148.4761 L414.6415,152.6632 L406.6865,159.0235 L397.1485,162.5584 L388.6639,167.9735 L380.3079,173.6181 L371.2041,177.9279 L362.538,183.0191 L353.7063,187.8146 L345.077,192.9715 L336.1942,197.6759" fill="none" style="stroke:#8B0000;stroke-width:4;"/><polygon fill="#8B0000" points="330.96,200.6089,330.9665,200.6787,332.9086,200.2894,334.8886,200.3091,336.8563,200.1956,338.7834,199.6441,340.7667,199.6989,340.7597,199.6739,339.6392,199.2552,338.5541,198.9622,337.4936,198.7565,336.3483,198.2498,335.3219,198.1647,335.4995,198.2148,335.4265,197.0188,335.8721,195.9689,336.3809,194.9369,336.5216,193.8011,336.856,192.7199,336.8742,192.7335,335.6683,194.2913,334.5453,195.9111,333.3822,197.501,332.2956,199.148,330.96,200.6089" style="stroke:#8B0000;stroke-width:4;"/><text fill="#000000" font-family="Chalkduster" font-size="24" lengthAdjust="spacing" textLength="69.3481" x="435.98" y="163.7598">input</text></g><!--link rocsoss to rop--><g class="link" data-entity-1="rocsoss" data-entity-2="rop" data-source-line="14" data-uid="lnk9" id="link_rocsoss_rop"><path d="M287,251.7489 L287.2802,251.7489 L286.4476,261.4645 L287.2577,271.1801 L287.5329,280.8956 L286.0488,290.6112 L286.8964,300.3267 L286.4313,310.0423 L286.4887,319.7578 L286.9091,329.4734 L287,339.1889" fill="none" style="stroke:#8B0000;stroke-width:4;"/><polygon fill="#8B0000" points="287,345.1889,287.064,345.2174,287.6738,343.3329,288.6589,341.6151,289.5217,339.8431,289.9827,337.8924,291,336.1889,290.9817,336.1706,290.0995,336.8884,289.3096,337.6986,288.5839,338.5729,287.637,339.226,287,340.1889,287.1305,340.3194,286.0514,339.2404,285.3534,338.5423,284.7018,337.8908,283.7798,336.9687,283,336.1889,283.0208,336.1982,283.7903,337.9846,284.6544,339.8131,285.4728,341.6213,286.3784,343.4682,287,345.1889" style="stroke:#8B0000;stroke-width:4;"/><text fill="#000000" font-family="Chalkduster" font-size="24" lengthAdjust="spacing" textLength="129.0166" x="288" y="308.3898">Generate</text></g><!--SRC=[VOwn2i8m48RtFCNPFNNluA2WamZgBaTor42QbEIA5l7TJMoh3kfs_FVztztCE6KxJQS6NG_bN2EZJ3FMr91Z6RctLFALXGYa65rj2OhzJgu2Ci51dQb1E7flOm4OWVC4jqzuO4eVwX5_Wj77VqRKsh3nRh06hpxXVAxAOP8aamgcvOdBaRX__tQ9aM3hDS7QM1eRhH2f0rBxYvEBbxK2uzgEGQJWrrA8ANW3RLfko54- -000]--></g></svg>