<?xml version="1.0" encoding="us-ascii" standalone="no"?><svg xmlns="http://www.w3.org/2000/svg" xmlns:xlink="http://www.w3.org/1999/xlink" contentStyleType="text/css" height="71px" preserveAspectRatio="none" style="width:303px;height:71px;background:#FFFFFF;" version="1.1" viewBox="0 0 303 71" width="303px" zoomAndPan="magnify"><defs/><g><!--entity sos--><g id="elem_sos"><polygon fill="none" points="9.5,7,9.5,7.2102,19.3929,6.5857,29.2857,7.1933,39.1786,7.3997,49.0714,6.2866,58.9643,6.9223,68.8571,6.5735,78.75,6.6165,88.6429,6.9318,98.5357,6.3086,108.4286,7.5536,118.3214,6.3697,128.2143,6.8022,138.1071,7.4319,148,6.9142,157.8929,7.0682,167.7857,6.9681,177.6786,7.1785,187.5714,7.2391,197.4643,7.5857,207.3571,7.6711,217.25,7.6793,227.1429,7.2546,237.0357,7.4636,246.9286,7.7022,256.8214,6.2788,266.7143,7.6785,276.6071,6.7035,286.5,7,286.5681,7.1644,286.7904,6.994,287.1984,7.2718,287.6553,7.6677,287.908,7.5708,288.2678,7.7322,288.3002,7.7457,288.5185,8.129,288.6888,8.4924,288.7059,8.7924,288.942,9.1831,289,9.5,288.4276,9.5,289.2844,18.626,289.5482,27.7519,289.4445,36.8779,289.613,46.0039,289,55.1298,288.8512,55.0682,288.6527,55.4002,288.5157,55.7577,288.5425,56.183,288.3537,56.519,288.2678,56.8976,288.3547,57.1074,287.8919,56.9903,287.5169,57.0848,287.2362,57.4072,286.7685,57.278,286.5,57.6298,286.5,57.1107,276.6071,58.2788,266.7143,58.0655,256.8214,58.3643,246.9286,57.308,237.0357,57.949,227.1429,58.2203,217.25,57.1574,207.3571,57.534,197.4643,57.7558,187.5714,58.2816,177.6786,57.6256,167.7857,58.0924,157.8929,57.076,148,56.9526,138.1071,58.1334,128.2143,56.9129,118.3214,58.1388,108.4286,57.8365,98.5357,57.3619,88.6429,57.2761,78.75,58.0886,68.8571,57.3305,58.9643,58.2217,49.0714,57.0771,39.1786,58.2473,29.2857,58.1141,19.3929,57.8748,9.5,57.6298,9.506,57.6444,9.2391,57.7072,8.8712,57.5259,8.4609,57.2426,8.12,57.1266,7.7322,56.8976,7.6921,56.881,7.8064,56.6354,7.487,56.2102,7.346,55.859,6.9591,55.4058,7,55.1298,6.5948,55.1298,7.5307,46.0039,7.4298,36.8779,6.9571,27.7519,6.6778,18.626,7,9.5,6.9326,9.4721,6.9351,9.0589,7.4206,8.8458,7.6671,8.5337,7.7479,8.1529,7.7322,7.7322,7.8209,7.9462,8.0683,7.5437,8.4505,7.4662,8.7435,7.1735,9.1827,7.2339,9.5,7" style="stroke:#181818;stroke-width:4.0;"/><text fill="#000000" font-family="Chalkduster" font-size="24" lengthAdjust="spacing" textLength="262" x="17" y="40.8409">Schema.org Schema</text></g><!--SRC=[9SP12e0W40NGlQUOt6k7wG0nwCS27S6P86-Vq5kzxPPKduopiKoAUsRZiCu53M91RLP4UysvWMGifOByaIuqZdqK-kk9bRIhMpu0]--></g></svg>